<svg width="19" height="18" viewBox="0 0 19 18" fill="none" xmlns="http://www.w3.org/2000/svg">
<path d="M9.17969 8.99266C9.41086 9.0389 9.66515 9.06202 9.91943 9.06202C10.1506 9.06202 10.4049 9.0389 10.6592 8.99266V12.622L10.1275 13.3849C10.035 13.5467 9.78073 13.5467 9.68826 13.3849L9.17969 12.622V8.99266ZM9.91943 1.66456C11.7457 1.66456 13.2483 3.16717 13.2483 4.99342C13.2483 6.84278 11.7457 8.32227 9.91943 8.32227C8.07007 8.32227 6.59058 6.84278 6.59058 4.99342C6.59058 3.16717 8.07007 1.66456 9.91943 1.66456ZM9.91943 3.42146C10.0581 3.42146 10.1968 3.30587 10.1968 3.14406C10.1968 3.00535 10.0581 2.86665 9.91943 2.86665C8.74046 2.86665 7.79267 3.83757 7.79267 4.99342C7.79267 5.15524 7.90825 5.27082 8.07007 5.27082C8.20877 5.27082 8.34748 5.15524 8.34748 4.99342C8.34748 4.13809 9.04099 3.42146 9.91943 3.42146Z" fill="#1E9993"/>
</svg>
