<svg width="160" height="160" viewBox="0 0 160 160" fill="none" xmlns="http://www.w3.org/2000/svg">
<path d="M62.4593 120.704C63.3966 120.717 63.0953 120.618 66.4748 120.709C75.0394 120.938 91.5833 122.211 97.0466 121.42C98.9172 121.152 99.298 120.761 99.4483 118.688C99.6367 115.965 99.0929 113.255 99.0929 110.537C99.0929 82.6168 99.1374 84.5812 99.0031 84.1575C98.8641 83.7323 98.5823 83.3684 98.2056 83.1272C97.8289 82.8861 97.3803 82.7827 96.9361 82.8346C72.6965 82.8346 62.7932 82.8402 62.8369 82.8346C62.582 82.8402 62.3306 82.8961 62.0974 82.9991C61.8641 83.1021 61.6535 83.2503 61.4776 83.435C61.3018 83.6197 61.1642 83.8373 61.0728 84.0753C60.9813 84.3134 60.9378 84.5672 60.9448 84.8221C60.9448 84.9016 60.5672 118.822 60.6451 119.19C60.7282 119.612 60.9537 119.993 61.2839 120.269C61.6142 120.544 62.0291 120.698 62.4593 120.704ZM61.7192 84.7347C61.7255 84.4423 61.8451 84.1638 62.0527 83.9578C62.2603 83.7518 62.5397 83.6345 62.8322 83.6304C99.7424 83.6304 97.4425 83.5223 97.8686 83.849C98.4156 84.2696 98.305 84.8213 98.305 85.7753V110.349C98.305 113.694 99.2121 118.518 98.2407 120.286C94.8452 121.984 69.4791 119.614 62.6867 119.931C62.5248 119.954 62.36 119.942 62.203 119.897C62.046 119.851 61.9005 119.773 61.7762 119.667C61.6518 119.561 61.5515 119.429 61.4817 119.281C61.412 119.134 61.3745 118.973 61.3717 118.809C61.3662 118.552 61.7279 84.4779 61.7192 84.7347Z" fill="#1E9993"/>
<path d="M88.9726 114.296C86.9056 109.023 82.5927 106.543 79.2887 106.782C79.4302 106.862 79.9478 107.18 79.7935 107.609C79.462 108.43 77.488 108.744 77.1223 108.974C74.1578 110.573 76.1938 117.442 76.065 118.016C75.9995 118.2 75.8635 118.351 75.6869 118.435C75.5103 118.52 75.3075 118.531 75.1229 118.466L73.8557 118.239C73.522 118.179 73.1779 118.218 72.8666 118.353C72.5554 118.487 72.291 118.711 72.1067 118.996C70.2512 121.937 73.1298 125.733 76.2407 124.31C76.2963 124.373 76.352 124.429 76.4076 124.489C75.898 126.881 75.1356 130.464 75.1571 130.35C77.9762 129.777 80.8759 129.72 83.7153 130.182L83.9379 127.713C89.3622 126.924 91.2638 120.142 88.9726 114.296Z" fill="white"/>
<path d="M53.585 73.7411C53.585 73.6616 53.965 39.7509 53.8847 39.3725C53.7936 38.9531 53.5633 38.5769 53.2314 38.3049C52.8995 38.0328 52.4853 37.881 52.0562 37.8739C51.6754 37.8699 51.2899 37.9001 50.9091 37.9041C42.4169 37.9836 18.8873 35.8459 15.945 37.5861C14.2381 38.5759 15.4226 44.4899 15.4226 48.0451C15.4226 75.4393 15.3749 73.9892 15.5133 74.4248C15.6437 74.8249 15.9004 75.1719 16.2447 75.4138C16.8656 75.8495 17.2162 75.7477 21.3327 75.7477C38.9324 75.7477 51.7899 75.739 51.6731 75.7477C51.9305 75.742 52.1843 75.6856 52.4199 75.5816C52.6555 75.4775 52.8682 75.328 53.0459 75.1416C53.2235 74.9552 53.3626 74.7355 53.4551 74.4951C53.5476 74.2548 53.5918 73.9986 53.585 73.7411ZM52.8059 73.8437C52.7998 74.1362 52.6803 74.4149 52.4727 74.621C52.265 74.8272 51.9855 74.9447 51.6929 74.9487C14.6221 74.9487 17.1144 75.0815 16.6565 74.7301C16.5219 74.6246 16.4127 74.4901 16.3372 74.3367C16.2616 74.1832 16.2216 74.0147 16.22 73.8437V66.7841C16.22 45.4336 16.286 47.7899 16.0149 44.4446C15.9219 43.3379 15.5268 39.1125 16.2797 38.3016C17.1637 36.5335 45.4371 38.9464 51.8384 38.6482C52 38.6251 52.1647 38.6366 52.3215 38.682C52.4784 38.7274 52.6237 38.8056 52.748 38.9114C52.8723 39.0173 52.9726 39.1484 53.0424 39.296C53.1121 39.4436 53.1497 39.6044 53.1525 39.7676C53.1557 39.9012 52.794 74.1975 52.8059 73.8437ZM144.977 39.7581C144.818 37.7833 144.421 37.4112 142.521 37.1465C138.408 36.5653 107.919 37.8739 107.839 37.8827C107.411 37.9305 107.013 38.1215 106.707 38.4245C106.402 38.7276 106.208 39.125 106.157 39.5522C106.135 39.7636 106.487 73.5479 106.491 73.7626C106.481 74.2744 106.675 74.769 107.03 75.1382C107.385 75.5073 107.871 75.7207 108.383 75.7318C150.487 75.7318 141.363 75.7771 142.743 75.7406C143.172 75.7353 143.588 75.586 143.922 75.3166C144.257 75.0472 144.492 74.6733 144.589 74.2547C144.605 74.1752 144.984 39.8376 144.977 39.7581ZM143.852 73.8437C143.828 74.9925 142.86 74.9567 141.831 74.9567H108.379C108.085 74.9532 107.804 74.8348 107.596 74.6268C107.388 74.4188 107.269 74.1378 107.266 73.8437C107.259 73.73 106.914 39.8463 106.915 39.7795C106.913 39.588 106.961 39.3991 107.053 39.2311C107.145 39.0631 107.278 38.9215 107.441 38.82C107.52 38.7707 141.472 36.8603 143.788 38.3064C144.093 38.6459 143.853 73.7642 143.852 73.8437ZM90.2099 132.226C74.8664 124.878 57.3764 135.095 52.5961 154.83C52.476 155.318 53.232 155.528 53.3497 155.036C55.8222 144.81 62.4175 135.519 72.041 132.03C86.4766 126.8 102.062 136.708 106.469 155.085C106.585 155.573 107.338 155.367 107.223 154.879C106.324 151.089 104.853 147.459 102.86 144.112C126.2 139.535 127.862 116.605 127.862 116.605L117.725 112.443C112.334 133.791 95.724 133.085 90.2099 132.226ZM62.5495 74.366C70.0803 74.0065 71.7584 74.9487 80.5 74.9487C80.5 74.9487 81.4593 74.9487 93.5584 75.3248C96.2169 75.2651 98.0756 75.0513 98.5375 74.5886C99.6593 73.4629 98.6878 67.0154 98.6878 65.3666V38.7905C98.6879 38.5931 98.6491 38.3976 98.5735 38.2151C98.498 38.0327 98.3873 37.8669 98.2477 37.7273C98.1081 37.5877 97.9423 37.4769 97.7598 37.4014C97.5774 37.3259 97.3819 37.2871 97.1844 37.2872C85.7332 37.2872 74.2799 37.2888 62.8245 37.292C62.4292 37.2924 62.0498 37.4484 61.7686 37.7263C61.4874 38.0042 61.327 38.3817 61.322 38.777L60.9753 72.8507C60.9734 73.0553 61.0132 73.2581 61.0924 73.4467C61.1716 73.6353 61.2884 73.8058 61.4358 73.9477C61.5832 74.0895 61.758 74.1998 61.9495 74.2717C62.141 74.3437 62.3451 74.3758 62.5495 74.366Z" fill="#1E9993"/>
<path d="M45.7033 50.7779C40.8161 52.8551 36.7876 56.543 34.2879 61.2281C34.0494 61.6686 34.7243 62.0629 34.9596 61.6256C37.314 57.2236 41.0585 53.724 45.6095 51.6722C46.1278 54.8021 44.5561 57.9615 42.9724 60.5603C40.9336 63.9048 38.2598 66.8179 35.1019 69.1352C33.6471 70.1941 32.872 70.466 30.9369 68.7329C29.2381 67.1085 27.8675 65.1725 26.8999 63.0304C24.6302 58.4369 22.8112 52.9339 24.5237 48.1281C29.9821 50.5743 34.0064 57.4654 32.1271 67.5468C32.0364 68.0389 32.7861 68.2488 32.8799 67.7519C34.9175 56.7968 30.3415 49.6617 24.4076 47.2202C24.1985 47.1344 23.9966 47.3188 23.9306 47.4945C21.9654 52.3623 23.6349 57.8987 25.8521 62.6361C26.8338 64.9241 28.209 67.0224 29.9154 68.8355C31.1405 70.0518 32.6033 71.207 34.2171 70.5646C35.602 70.0081 39.9093 66.6174 43.0106 61.9468C45.1173 58.7787 47.1343 54.7123 46.2773 51.0092C46.26 50.9524 46.2302 50.9002 46.1901 50.8565C46.15 50.8127 46.1006 50.7785 46.0456 50.7563C45.9905 50.7341 45.9312 50.7245 45.872 50.7282C45.8127 50.732 45.7551 50.7489 45.7033 50.7779Z" fill="#1E9993"/>
<path d="M28.0224 53.9588C27.5743 52.9443 27.0021 51.9894 26.3187 51.1159C25.9848 50.7391 25.4371 51.2916 25.767 51.6724C26.4737 52.4674 29.3501 57.3757 30.4416 63.7707C30.5274 64.2628 31.2763 64.0529 31.1952 63.5648C30.6318 60.2202 29.5619 56.981 28.0224 53.9588ZM34.3331 66.1295C34.1487 66.5961 34.9023 66.802 35.0868 66.3354C36.1314 63.669 37.75 61.9684 42.1973 56.5275C42.2934 56.4843 42.3713 56.4086 42.4171 56.3137C42.463 56.2187 42.4738 56.1107 42.4478 56.0085C42.4217 55.9064 42.3605 55.8167 42.2748 55.7553C42.1891 55.6939 42.0845 55.6647 41.9794 55.6728C41.5978 55.7738 41.0397 56.7063 37.6252 60.8809C36.2258 62.4217 35.1111 64.1988 34.3331 66.1295ZM35.078 55.7992C36.2705 51.9316 39.2915 48.5322 42.5009 44.4721C42.8094 44.0825 42.2624 43.526 41.9492 43.9156C38.4512 48.3421 35.5495 51.6016 34.3291 55.5862C34.1789 56.0735 34.9294 56.2794 35.078 55.7992ZM34.7441 50.6596C34.7439 50.7108 34.7538 50.7615 34.7733 50.8089C34.7929 50.8563 34.8215 50.8993 34.8578 50.9355C34.894 50.9717 34.937 51.0004 34.9844 51.0199C35.0317 51.0394 35.0825 51.0493 35.1337 51.0491C35.2364 51.0471 35.3343 51.0054 35.4069 50.9328C35.4795 50.8602 35.5212 50.7622 35.5232 50.6596C35.5898 49.9154 35.5378 49.1654 35.369 48.4375C35.3417 48.3376 35.2758 48.2526 35.1858 48.2012C35.0958 48.1499 34.9892 48.1364 34.8892 48.1637C34.7893 48.191 34.7043 48.2569 34.6529 48.3468C34.6015 48.4368 34.588 48.5435 34.6153 48.6435C34.7657 49.3043 34.8091 49.985 34.7441 50.6596ZM37.3986 47.6012C37.5013 47.5992 37.5992 47.5575 37.6718 47.4849C37.7445 47.4122 37.7861 47.3143 37.7882 47.2117V44.5572C37.7882 44.4538 37.7471 44.3548 37.6741 44.2817C37.601 44.2086 37.5019 44.1676 37.3986 44.1676C37.2953 44.1676 37.1962 44.2086 37.1232 44.2817C37.0501 44.3548 37.0091 44.4538 37.0091 44.5572V47.2117C37.0111 47.3143 37.0528 47.4122 37.1254 47.4849C37.198 47.5575 37.2959 47.5992 37.3986 47.6012ZM41.4054 49.8789C40.5492 50.0379 39.7017 50.2255 38.8614 50.4354C38.8119 50.4489 38.7656 50.4719 38.725 50.5033C38.6845 50.5347 38.6505 50.5738 38.625 50.6183C38.5995 50.6628 38.5831 50.7119 38.5766 50.7628C38.5701 50.8136 38.5737 50.8653 38.5872 50.9148C38.6006 50.9643 38.6237 51.0106 38.6551 51.0512C38.6865 51.0917 38.7255 51.1257 38.77 51.1512C38.8146 51.1767 38.8637 51.1931 38.9145 51.1996C38.9654 51.2061 39.0171 51.2025 39.0665 51.189C39.91 50.9744 40.7623 50.7915 41.6105 50.6325C41.7105 50.6053 41.7955 50.5396 41.847 50.4497C41.8984 50.3598 41.912 50.2531 41.8848 50.1532C41.8576 50.0532 41.7918 49.9682 41.7019 49.9167C41.612 49.8653 41.5054 49.8517 41.4054 49.8789ZM41.1439 48.1362C41.1727 48.2347 41.2384 48.3181 41.3272 48.3693C41.4161 48.4204 41.5213 48.4351 41.6209 48.4105L44.1204 47.5495C44.1712 47.5374 44.2191 47.5151 44.2612 47.4841C44.3033 47.4531 44.3387 47.4139 44.3654 47.3689C44.3921 47.3239 44.4094 47.2741 44.4164 47.2222C44.4235 47.1704 44.42 47.1177 44.4062 47.0673C44.3925 47.0168 44.3688 46.9696 44.3364 46.9285C44.3041 46.8874 44.2638 46.8533 44.218 46.828C44.1722 46.8028 44.1218 46.787 44.0698 46.7816C44.0178 46.7762 43.9652 46.7813 43.9152 46.7967C43.0805 47.0829 42.2497 47.3699 41.415 47.6569C41.3166 47.6863 41.2335 47.7526 41.183 47.842C41.1324 47.9314 41.1184 48.0368 41.1439 48.1362ZM140.148 56.5227C137.329 56.379 134.532 57.0885 132.123 58.5588C129.713 60.0291 127.803 62.1918 126.641 64.7645C126.444 65.2176 127.118 65.6159 127.314 65.162C128.371 62.795 130.098 60.7889 132.281 59.3905C134.464 57.9921 137.008 57.2625 139.601 57.2915C138.02 61.633 134.433 64.9235 130.533 67.2409C129.372 67.9894 128.122 68.5906 126.813 69.0304C126.833 68.6462 126.796 68.2611 126.706 67.8872C126.678 67.7873 126.613 67.7023 126.523 67.6509C126.433 67.5996 126.326 67.586 126.226 67.6133C126.126 67.6407 126.041 67.7065 125.99 67.7965C125.938 67.8865 125.925 67.9932 125.952 68.0931C126.042 68.4582 126.066 68.8367 126.021 69.2101C123.484 69.6219 121.9 68.1909 120.16 66.2686C117.522 63.334 115.726 59.7412 114.963 55.87C117.442 56.6275 119.69 57.9996 121.497 59.8588C123.304 61.718 124.611 64.0039 125.298 66.5039C125.328 66.6009 125.394 66.6824 125.483 66.7314C125.572 66.7803 125.676 66.7928 125.774 66.7661C125.872 66.7395 125.956 66.6759 126.008 66.5887C126.06 66.5015 126.076 66.3976 126.052 66.2988C125.3 63.5664 123.842 61.0799 121.825 59.0887C119.808 57.0975 117.303 55.6717 114.561 54.9542C114.496 54.9389 114.427 54.9407 114.362 54.9592C114.297 54.9778 114.238 55.0126 114.19 55.0603C114.143 55.108 114.108 55.1671 114.089 55.232C114.071 55.2969 114.069 55.3654 114.084 55.4312C114.761 59.4255 116.498 63.1648 119.114 66.2583C120.983 68.4723 123.057 70.4225 125.916 70.0345C128.898 69.6235 133.644 66.3934 136.037 64.041C138.075 62.0993 139.613 59.6933 140.52 57.0283C140.536 56.9701 140.539 56.9089 140.528 56.8494C140.518 56.7898 140.493 56.7335 140.458 56.6848C140.422 56.636 140.375 56.5961 140.322 56.568C140.268 56.5399 140.209 56.5244 140.148 56.5227Z" fill="#1E9993"/>
<path d="M118.721 59.8925C120.503 61.9128 121.995 64.1704 123.157 66.6007C123.375 67.0546 124.047 66.6563 123.829 66.2032C122.637 63.7129 121.102 61.4017 119.269 59.3368C118.94 58.9631 118.391 59.5164 118.721 59.8925ZM129.154 66.0823C130.781 63.5646 133.066 61.5396 135.761 60.2264C136.209 60.0077 135.816 59.3312 135.363 59.5538C132.553 60.9345 130.173 63.0557 128.479 65.6888C128.208 66.1125 128.884 66.5021 129.154 66.0823ZM126.316 62.4651C126.55 58.2373 128.608 53.3075 133.384 48.6543C133.744 48.303 133.192 47.7512 132.832 48.0978C128.827 52.0061 125.863 56.9414 125.532 62.4611C125.507 62.9659 126.288 62.9612 126.316 62.4651ZM124.882 57.3747C124.912 57.8716 125.691 57.8756 125.661 57.3747C125.478 54.4278 124.234 51.6469 122.159 49.5463C122.085 49.4771 121.987 49.4394 121.886 49.441C121.784 49.4427 121.688 49.4837 121.616 49.5553C121.545 49.6269 121.504 49.7236 121.502 49.8249C121.5 49.9261 121.538 50.0241 121.607 50.0981C123.542 52.0483 124.705 54.6332 124.882 57.3747ZM127.064 53.3933V48.6154C127.06 48.5152 127.017 48.4207 126.944 48.3514C126.872 48.2821 126.775 48.2434 126.675 48.2434C126.575 48.2434 126.478 48.2821 126.406 48.3514C126.333 48.4207 126.29 48.5152 126.286 48.6154V53.3933C126.29 53.4935 126.333 53.5881 126.406 53.6574C126.478 53.7266 126.575 53.7653 126.675 53.7653C126.775 53.7653 126.872 53.7266 126.944 53.6574C127.017 53.5881 127.06 53.4935 127.064 53.3933Z" fill="#1E9993"/>
<path d="M106.285 101.046C113.378 103.944 120.49 106.804 127.591 109.681C127.712 109.731 127.843 109.756 127.974 109.755C128.105 109.755 128.236 109.728 128.357 109.677C128.478 109.627 128.588 109.552 128.68 109.459C128.773 109.365 128.846 109.255 128.896 109.133C128.992 108.895 134.981 94.1171 135.545 92.7322C135.956 91.7131 138.168 87.9797 137.758 87.0082C137.034 85.3038 119.576 80.0425 115.38 78.0987C115.257 78.0416 115.123 78.0103 114.987 78.0067C114.85 78.0031 114.715 78.0272 114.589 78.0777C114.462 78.1281 114.347 78.2038 114.251 78.3001C114.155 78.3963 114.079 78.5112 114.029 78.6377L105.727 99.7529C105.632 99.9984 105.637 100.271 105.741 100.513C105.846 100.755 106.041 100.946 106.285 101.046Z" fill="#1E9993"/>
<path d="M36 115.668C42.5 115.668 42.5428 116.326 53.081 115.668L53.538 85.7235C53.5403 85.5194 53.501 85.317 53.4225 85.1287C53.3439 84.9404 53.2277 84.7701 53.081 84.6282C52.9343 84.4863 52.7602 84.3759 52.5693 84.3037C52.3785 84.2315 52.1749 84.199 51.971 84.2082C45.0696 84.5429 17.9323 82.0251 15.9758 83.9904C15.7373 84.2289 15.976 117.932 15.976 115.668C26.6495 115.668 22.5 115.01 36 115.668ZM129.416 95.0997C128.957 94.3977 128.484 94.4335 124.01 92.5311C125.6 88.7031 125.718 88.4026 126.009 87.7022C126.092 87.4029 126.083 87.0857 125.984 86.7914C125.885 86.4971 125.701 86.2389 125.455 86.0499C125.208 85.8609 124.911 85.7497 124.601 85.7305C124.291 85.7113 123.983 85.785 123.715 85.9421C122.975 86.4191 122.985 87.0734 121.146 91.3481C116.188 89.2938 116.898 89.5904 116.318 89.3487C116.018 89.2666 115.701 89.2756 115.407 89.3745C115.113 89.4735 114.854 89.6579 114.666 89.9043C114.477 90.1506 114.365 90.4477 114.346 90.7576C114.327 91.0674 114.4 91.376 114.557 91.6438C115.017 92.353 115.427 92.2679 119.963 94.2125C118.354 98.0921 118.245 98.364 117.964 99.0413C117.881 99.3407 117.89 99.6579 117.989 99.9523C118.088 100.247 118.272 100.505 118.518 100.694C118.765 100.883 119.062 100.994 119.372 101.013C119.682 101.032 119.991 100.958 120.258 100.801C120.978 100.336 120.956 99.7759 122.827 95.3946C123.969 95.8716 127.572 97.3591 127.656 97.3941C127.857 97.4495 128.067 97.4639 128.274 97.4366C128.481 97.4093 128.68 97.3408 128.859 97.2351C129.213 97.0226 129.469 96.6801 129.573 96.2809C129.677 95.8817 129.621 95.4577 129.416 95.0997Z" fill="#002E3D"/>
<path d="M95.1587 92.8639C95.2859 90.727 94.1339 89.4748 91.6607 89.5766C90.2971 89.6613 88.9847 90.1268 87.8725 90.9202C88.1436 88.4787 87.0584 86.4133 84.6782 86.1645C81.6699 85.86 77.8595 88.497 77.2934 92.6461C76.2249 91.6771 75.0551 90.826 73.8042 90.1077C73.0278 89.546 72.1331 89.1696 71.1886 89.0074C70.7461 88.9753 70.3061 89.0977 69.9436 89.3537C69.5812 89.6097 69.3188 89.9835 69.2011 90.4114C68.9898 91.2545 68.9751 92.135 69.1582 92.9848C69.3752 94.288 69.8402 95.5376 70.528 96.6656C69.7241 96.492 68.899 96.4384 68.0794 96.5066C67.4012 96.481 66.7376 96.7076 66.2167 97.1426C65.1331 98.4027 66.8829 102.029 70.0868 102.743C70.5749 102.85 70.7848 102.1 70.2927 101.989C68.1342 101.506 66.6261 99.4553 66.6794 98.0545C66.7009 97.4559 67.3082 97.3867 67.7924 97.3143C68.9351 97.1703 70.0956 97.2789 71.1918 97.6323C72.3107 99.1135 73.8154 100.258 75.5412 100.942C75.934 101.101 76.6193 100.265 75.9133 99.3154C75.2384 98.4051 72.7532 97.3279 71.6712 96.9725C70.7635 95.7348 70.1604 94.3005 69.9111 92.786C69.4635 89.9471 70.5558 89.3381 72.1848 90.1108C74.0409 91.0391 75.742 92.2494 77.2274 93.6987C77.2241 94.6219 77.3895 95.538 77.7156 96.4017C77.9899 97.1084 78.6107 98.2175 79.552 97.9821C80.2317 97.812 80.0974 97.3461 80.006 96.9757C79.6567 95.6261 78.971 94.387 78.0129 93.3743C78.3055 86.5031 88.4481 83.9353 86.9813 91.5927C85.6223 92.8764 84.4583 94.3519 83.5262 95.9724C83.2108 96.3224 83.0304 96.7734 83.0174 97.2444C83.1367 98.0449 84.1177 98.0958 84.7163 97.8518C86.5083 97.1243 87.3112 93.9125 87.692 92.0173C88.7083 91.1337 89.959 90.564 91.2926 90.3772C94.2778 90.0433 94.9838 91.8877 93.9598 94.6972C93.2952 96.4571 92.0666 97.9473 90.4658 98.9353C89.3131 98.423 88.0502 98.2081 86.7929 98.3105C84.2489 98.5323 84.3387 100.783 86.4288 100.934C87.8628 100.928 89.2694 100.541 90.5047 99.8122C91.6678 100.388 92.2704 101.144 91.3053 101.995C90.7608 102.451 90.1244 102.784 89.4394 102.972C88.3399 102.89 87.2351 102.907 86.1386 103.022C86.0458 103.025 85.957 103.061 85.8881 103.123C85.8191 103.185 85.7744 103.27 85.762 103.362C85.7496 103.454 85.7703 103.547 85.8203 103.625C85.8703 103.704 85.9465 103.762 86.0353 103.789C87.1665 104.073 88.3514 104.062 89.4776 103.759C90.2254 103.779 90.9592 103.966 91.6252 104.307C92.2912 104.648 92.8724 105.133 93.3262 105.728C94.781 107.874 93.9169 110.169 91.3522 110.373C89.844 110.45 88.3641 109.944 87.2182 108.96C86.8326 108.642 86.2801 109.192 86.6617 109.513C90.9587 113.059 96.4005 110.458 94.3732 106.015C94.0308 105.313 93.5347 104.698 92.9216 104.215C92.3085 103.731 91.5944 103.393 90.8323 103.224C93.1203 102.01 93.005 100.408 91.256 99.336C92.35 98.6187 93.2687 97.6646 93.9442 96.5443C94.6198 95.4241 95.0348 94.1662 95.1587 92.8639ZM75.461 100.056C74.4587 99.6118 73.5435 98.9927 72.758 98.2278C73.316 98.4806 75.3894 99.4306 75.461 100.056ZM79.2587 97.2348C78.959 97.18 78.6123 96.5241 78.5432 96.3603C78.3219 95.8365 78.1678 95.2868 78.0845 94.7242C78.6331 95.4781 79.0318 96.3305 79.2587 97.2348ZM85.916 95.3388C85.5742 96.0773 84.7648 97.3151 83.9635 97.2181C83.566 97.1633 84.0136 96.6688 84.2934 96.2339C84.9859 95.074 85.7872 93.9826 86.6864 92.9744C86.5072 93.7855 86.2492 94.5771 85.916 95.338V95.3388ZM86.9495 100.151C86.5989 100.18 85.9573 100.23 85.7212 99.8854C85.2816 99.2541 87.1705 98.6396 89.5738 99.4274C88.7487 99.8242 87.859 100.069 86.9471 100.151H86.9495Z" fill="#004860"/>
<path d="M81.7115 99.2054C79.1746 98.2173 77.0043 99.5656 76.7539 101.381C76.7305 101.48 76.7458 101.585 76.7967 101.673C76.8476 101.762 76.9304 101.828 77.0282 101.858C77.1276 101.884 77.2334 101.87 77.3226 101.818C77.4119 101.767 77.4774 101.683 77.5051 101.584C77.7945 99.529 80.6621 98.9852 82.6337 100.59C83.0467 100.896 83.3441 101.332 83.4772 101.828C83.4966 101.944 83.5009 102.062 83.4899 102.179C83.4478 102.184 83.4071 102.197 83.3701 102.218C83.3332 102.239 83.3009 102.267 83.2749 102.3C83.249 102.334 83.23 102.372 83.2192 102.413C83.2083 102.454 83.2058 102.497 83.2117 102.539C83.2232 102.648 83.2711 102.751 83.3477 102.83C83.4244 102.909 83.5253 102.96 83.6344 102.974C83.7435 102.989 83.8544 102.967 83.9492 102.911C84.0441 102.855 84.1175 102.769 84.1577 102.667C84.5814 101.874 84.0774 100.127 81.7115 99.2054Z" fill="#77E4DF"/>
<path d="M27.6539 4.31079C25.846 4.31584 24.0601 4.70732 22.4158 5.45897C20.7716 6.21062 19.307 7.30508 18.1203 8.66898C11.2618 16.5888 17.1615 29.5266 27.6539 29.5266C29.3059 29.5347 30.943 29.2133 32.4693 28.5814C33.9957 27.9494 35.3807 27.0194 36.5434 25.8459C37.7062 24.6723 38.6233 23.2787 39.2411 21.7466C39.859 20.2145 40.1652 18.5745 40.1418 16.9227C39.9836 10.3385 34.6237 4.31079 27.6539 4.31079ZM132.629 103.288C131.508 103.911 130.496 104.713 129.633 105.661C130.356 104.291 130.955 102.86 131.422 101.383C131.688 100.54 131.82 99.4842 131.002 99.1312C130.391 98.8705 129.851 99.3411 129.444 99.7863C128.222 101.143 127.189 102.66 126.375 104.295C127.148 102.347 128.263 97.7312 126.152 97.7487C125.932 97.7552 125.716 97.8155 125.524 97.9244C125.332 98.0334 125.17 98.1876 125.052 98.3736C123.505 100.708 122.348 103.279 121.627 105.986C121.63 104.864 121.332 103.762 120.762 102.796C120.399 102.187 119.959 102.056 119.569 102.702C118.962 103.747 118.575 104.905 118.431 106.105C118.287 107.305 118.389 108.521 118.731 109.68C119.545 111.227 120.911 112.411 122.559 112.996C124.206 113.581 126.013 113.524 127.62 112.836C129.984 111.718 131.465 109.364 132.818 107.13C133.348 106.315 133.785 105.443 134.12 104.53C134.186 104.331 134.191 104.117 134.133 103.916C134.076 103.714 133.959 103.534 133.798 103.4C133.637 103.266 133.439 103.184 133.231 103.164C133.022 103.144 132.812 103.187 132.629 103.288ZM119.265 49.3006C119.21 50.1561 119.419 51.4074 120.241 51.6292C121.199 51.8891 121.696 50.2284 121.64 49.2108C122.833 49.5042 123.895 48.3943 124.381 47.2797C125.24 45.2867 123.559 44.1848 122.069 44.9639C121.41 45.3853 120.919 46.0244 120.682 46.7701C119.588 44.3677 116.64 43.9495 116.092 45.0879C115.702 45.8956 117.06 46.9864 117.809 47.43C117.128 47.8188 116.066 48.7076 116.203 49.4763C116.379 50.3946 117.894 50.7499 119.265 49.3006ZM117.403 49.493C117.273 49.5018 116.996 49.493 116.966 49.3221C116.936 49.1297 117.262 48.8451 117.373 48.7266C117.765 48.3219 118.243 48.0103 118.772 47.8148C118.851 47.7881 118.919 47.7374 118.967 47.6699C119.016 47.6024 119.042 47.5214 119.042 47.4383C119.042 47.3553 119.016 47.2743 118.967 47.2068C118.919 47.1393 118.851 47.0886 118.772 47.0619C118.205 46.8232 117.692 46.4737 117.262 46.034C117.167 45.9354 116.734 45.5506 116.804 45.398C116.974 45.0466 119.228 45.2525 119.993 47.0977C120.031 47.188 120.1 47.2619 120.187 47.3066C120.274 47.3512 120.375 47.3637 120.47 47.3418C120.431 47.7313 121.074 47.8728 121.241 47.4443C121.416 46.7428 121.818 46.1187 122.384 45.6683C122.861 45.3853 123.676 45.3765 123.815 46.0491C124.071 47.2503 122.085 49.2609 121.418 48.1765C121.195 47.8124 120.558 48.0437 120.707 48.4762C121.117 49.6957 120.548 51.056 120.31 50.7539C119.797 50.0972 120.093 48.6869 120.258 47.9372C120.28 47.8469 120.27 47.7515 120.228 47.6682C120.187 47.585 120.117 47.5193 120.031 47.4832C119.945 47.447 119.849 47.4427 119.76 47.471C119.672 47.4993 119.596 47.5583 119.547 47.6375C119.072 48.3888 118.391 49.4302 117.403 49.493ZM137.917 46.2184C139.094 45.6452 139.779 44.1896 138.782 43.5385C137.96 43.0058 136.509 43.4025 135.815 44.6427C135.752 43.1815 134.764 42.4406 133.927 42.4962C133.053 42.5519 133.003 43.335 133.084 44.0369C133.133 44.4386 133.22 44.8345 133.345 45.2191C132.366 44.8828 130.973 45.0426 130.738 45.9767C130.683 46.3253 130.768 46.6816 130.975 46.9674C131.182 47.2532 131.494 47.4451 131.843 47.5008C132.395 47.613 132.964 47.6245 133.521 47.5349C133.004 48.7155 133.385 50.0122 134.15 50.3969C134.302 50.4552 134.465 50.4821 134.629 50.476C134.792 50.4699 134.952 50.4309 135.1 50.3613C135.248 50.2918 135.381 50.1931 135.49 50.0712C135.598 49.9494 135.682 49.8068 135.734 49.652C135.957 49.2068 136.106 48.7283 136.175 48.2353C137.146 49.3046 138.265 49.0653 138.64 48.3339C138.805 47.9547 138.823 47.5274 138.689 47.1359C138.555 46.7444 138.28 46.4172 137.917 46.2184ZM137.96 47.9348C137.785 48.3164 137.292 48.1622 137.032 47.969C136.695 47.6607 136.389 47.3196 136.12 46.9506C136.065 46.8974 135.996 46.8613 135.921 46.8469C135.846 46.8325 135.769 46.8402 135.698 46.8693C135.627 46.8984 135.567 46.9475 135.524 47.0105C135.481 47.0735 135.457 47.1478 135.456 47.2241C135.489 47.7609 135.418 48.299 135.246 48.8085C135.156 49.0693 134.878 49.8873 134.471 49.6647C133.965 49.3881 133.841 48.0938 134.612 47.2368C134.671 47.175 134.707 47.0961 134.717 47.0118C134.726 46.9275 134.708 46.8424 134.665 46.7692C134.623 46.6959 134.557 46.6386 134.479 46.6057C134.401 46.5727 134.314 46.566 134.232 46.5865C133.676 46.7267 133.105 46.793 132.532 46.7837C132.232 46.7749 131.339 46.6803 131.491 46.1628C131.621 45.7239 132.983 45.5864 133.903 46.4196C133.97 46.4829 134.058 46.5201 134.151 46.5245C134.244 46.5289 134.335 46.5002 134.408 46.4436C134.482 46.3869 134.533 46.306 134.552 46.2152C134.572 46.1244 134.558 46.0298 134.514 45.9481C134.027 45.1471 133.793 44.2178 133.842 43.2817C133.917 43.1982 134.671 43.2658 134.938 44.095C135.068 44.665 135.074 45.2563 134.955 45.8289C134.895 46.2955 135.571 46.3122 135.709 45.9084C135.759 45.9398 135.817 45.9589 135.876 45.9642C135.935 45.9695 135.995 45.9607 136.051 45.9387C136.106 45.9167 136.155 45.8819 136.195 45.8373C136.234 45.7927 136.263 45.7394 136.278 45.6818C136.393 44.855 137.245 43.8239 138.192 44.1148C138.753 44.2905 138.371 44.8677 138.089 45.1483C137.906 45.3297 137.687 45.4721 137.447 45.5669C137.207 45.6617 136.951 45.707 136.693 45.7001C136.6 45.7031 136.512 45.7388 136.443 45.801C136.374 45.8633 136.329 45.9479 136.317 46.0398C136.305 46.1318 136.325 46.2251 136.376 46.3033C136.426 46.3814 136.502 46.4392 136.59 46.4665C137.147 46.6589 138.334 47.1223 137.96 47.9348ZM126.072 47.0874C126.31 47.5286 126.988 47.1343 126.744 46.6899C126.496 46.2548 126.376 45.7589 126.398 45.2589C126.537 45.4759 126.543 45.8877 126.875 46.1834C126.923 46.2307 126.983 46.2647 127.049 46.2819C127.114 46.2991 127.183 46.2991 127.249 46.2818C127.314 46.2645 127.374 46.2306 127.423 46.1832C127.471 46.1359 127.507 46.0768 127.526 46.0117C127.629 45.5775 127.865 45.1862 128.201 44.8924C128.537 44.5986 128.956 44.4169 129.4 44.3724C129.343 44.8407 129.137 45.2784 128.815 45.6225C128.492 45.9666 128.068 46.1992 127.605 46.2868C127.506 46.3156 127.423 46.3813 127.372 46.4702C127.32 46.5591 127.306 46.6643 127.33 46.7638C127.361 46.8612 127.426 46.9436 127.515 46.9945C127.603 47.0453 127.708 47.0609 127.807 47.0381C129.943 46.6255 131.081 43.4407 129.33 43.5957C128.882 43.6407 128.45 43.7875 128.068 44.0249C127.685 44.2623 127.361 44.584 127.122 44.9655C127.081 44.8422 127.011 44.7303 126.918 44.639C126.826 44.5477 126.713 44.4794 126.589 44.4399C126.465 44.4003 126.334 44.3905 126.205 44.4112C126.077 44.432 125.955 44.4827 125.85 44.5593C125.32 45.0625 125.721 46.441 126.072 47.0874Z" fill="#EEEEEE"/>
<path d="M65.8976 21.1696C66.3112 20.9907 66.7563 20.8961 67.207 20.8914C68.2905 20.9939 69.1945 22.2874 70.4052 22.2699C71.1207 22.2572 71.5015 21.7603 72.0024 21.3366C72.5032 20.9128 73.0295 21.2038 73.5431 21.4479C75.3167 22.2906 75.6006 21.4717 76.386 21.3024C77.2868 21.1068 78.4252 22.0695 79.7036 22.1117C82.1355 22.1912 82.1681 20.8763 91.9863 22.475C92.4784 22.5545 92.6883 21.8032 92.1914 21.7221C82.4821 20.156 81.412 21.393 79.6996 21.3246C78.5349 21.2881 77.5618 20.3452 76.3685 20.5113C75.4797 20.6385 75.2325 21.2881 74.3182 20.9398C73.7713 20.6335 73.1765 20.4219 72.5589 20.3142C71.8052 20.3015 71.4538 20.8627 70.9188 21.2777C70.0507 21.9582 69.0688 20.6735 67.8326 20.2371C67.0566 20.0479 66.2393 20.1295 65.516 20.4684C63.8296 21.0114 62.0335 21.1208 60.2936 20.7864C59.0423 20.5479 58.4826 20.1663 57.7886 20.3412C56.5444 20.6592 56.1334 22.5616 55.2891 21.7881C54.8609 21.2554 54.2538 20.8963 53.5807 20.7777C52.9311 20.6559 52.2595 20.7498 51.6682 21.045C51.0769 21.3403 50.5983 21.8206 50.3053 22.413C50.2525 22.5027 50.2376 22.6097 50.2638 22.7104C50.29 22.8111 50.3551 22.8973 50.4448 22.95C50.5345 23.0027 50.6415 23.0176 50.7422 22.9915C50.8429 22.9653 50.9291 22.9002 50.9818 22.8105C51.2122 22.3214 51.6097 21.9306 52.1026 21.7085C52.5955 21.4864 53.1515 21.4475 53.6705 21.5989C54.4313 21.8144 54.5768 22.2921 55.0276 22.5791C55.2606 22.7235 55.5345 22.7874 55.8073 22.7611C56.0802 22.7348 56.3369 22.6198 56.5381 22.4337C56.9451 22.0998 57.2146 21.6204 57.6296 21.2952C58.2163 20.8325 59.0471 21.3159 59.6807 21.4661C61.7412 21.9369 63.8913 21.8343 65.8976 21.1696ZM50.3911 10.8004C51.179 10.9157 51.8221 10.4824 52.579 10.3942C53.0329 10.3385 53.3239 10.5866 53.7261 10.7368C54.7414 11.1033 55.4473 10.2447 56.2137 9.96169C56.868 9.72319 56.8974 10.5134 57.6352 10.6979C58.7974 10.9777 60.0202 9.64528 60.6403 10.4156C60.8036 10.6844 61.0227 10.9151 61.2826 11.0922C61.471 11.171 61.6763 11.2005 61.8792 11.178C62.0822 11.1555 62.276 11.0816 62.4425 10.9634C63.1887 10.4414 64.0955 10.2004 65.0024 10.2829C65.9725 10.3619 66.9298 10.5559 67.8541 10.8608C67.9519 10.8817 68.0539 10.8643 68.1393 10.8123C68.2246 10.7602 68.2868 10.6775 68.3131 10.581C68.3393 10.4845 68.3277 10.3817 68.2804 10.2936C68.2332 10.2054 68.1541 10.1388 68.0592 10.1072C66.1051 9.53796 64.0842 9.05857 62.3225 10.1159C62.165 10.2392 61.9887 10.3361 61.8002 10.4029C61.603 10.4411 61.5179 10.3043 61.4106 10.1644C61.2759 9.91992 61.0753 9.71812 60.8316 9.58194C60.5879 9.44576 60.3109 9.38067 60.0321 9.39406C59.2522 9.45846 58.299 10.0873 57.8061 9.93784C57.5024 9.85198 57.3521 9.48787 57.0954 9.31695C56.8484 9.18522 56.5691 9.12655 56.29 9.14781C56.011 9.16907 55.7438 9.26938 55.5197 9.43699C55.1174 9.65959 54.6078 10.1175 54.1157 10.0444C53.7595 9.9927 53.5449 9.66118 52.8914 9.61189C52.0169 9.55227 51.2052 10.1398 50.5151 10.0404C50.2973 10.0102 49.9419 9.90763 49.9117 9.6429C49.8561 9.15079 49.073 9.14602 49.1326 9.6429C49.1768 9.95134 49.3262 10.235 49.5556 10.446C49.7849 10.6569 50.0801 10.7821 50.3911 10.8004ZM70.1612 10.6041C73.5296 10.3441 76.6682 10.1096 79.8959 10.7964C80.8687 11.0593 81.8902 11.0866 82.8756 10.8759C83.8868 10.7225 85.0086 10.4482 85.9666 10.9451C86.4118 11.1757 86.8061 10.5039 86.3641 10.2725C84.5276 9.31854 82.502 10.511 80.5757 10.1398C77.7431 9.59838 76.4003 9.33523 70.1612 9.82177C69.6651 9.86311 69.6603 10.6422 70.1612 10.6041ZM64.9682 15.3001C62.4262 15.2577 59.8843 15.3921 57.3609 15.7024C56.5161 15.92 55.6293 15.9143 54.7875 15.6857C54.4385 15.5025 54.0518 15.4029 53.6578 15.3947C52.672 15.4345 51.2585 16.3781 50.7894 15.51C50.5509 15.0688 49.8775 15.4631 50.1168 15.9075C50.2634 16.1471 50.4721 16.3425 50.7209 16.4728C50.9697 16.6032 51.2492 16.6636 51.5296 16.6476C52.1919 16.5534 52.8451 16.4031 53.4821 16.1985C53.8296 16.1643 54.1792 16.2375 54.4838 16.4083C55.592 16.8853 56.7495 16.5562 57.9857 16.4163C61.2711 16.0544 64.5822 15.9871 67.8795 16.2152C68.2122 16.3028 68.5602 16.3157 68.8985 16.2529C69.2368 16.19 69.5569 16.0531 69.836 15.8518C70.0244 15.6714 70.1954 15.3748 70.472 15.3248C70.79 15.2604 71.1525 15.5044 71.426 15.6372C72.6567 16.2565 73.6147 16.1142 75.9726 16.0911C79.4484 16.0562 80.0518 16.1404 80.6862 15.7318C80.9302 15.5728 81.1489 15.2818 81.4398 15.2095C82.0655 15.0505 82.8025 15.9878 84.1158 16.3225C86.752 16.9982 89.9463 15.537 92.2494 16.8058C92.6907 17.0499 93.0842 16.3734 92.6469 16.1341C89.8311 14.5846 86.2695 16.4759 83.7374 15.3756C82.9472 15.0378 82.0679 14.0798 81.0543 14.5329C80.7793 14.7006 80.5158 14.8866 80.2656 15.0894C79.8363 15.3446 79.5907 15.2612 75.475 15.3279C73.9716 15.3446 72.8912 15.4623 72.0763 15.0966C71.2861 14.7365 70.4728 14.0575 69.4528 15.1522C68.8566 15.7811 68.8208 15.3613 64.9682 15.3001Z" fill="#001F29"/>
<path d="M19.2083 15.3557C19.2083 15.6656 19.3314 15.9629 19.5505 16.182C19.7697 16.4012 20.067 16.5243 20.3769 16.5243C20.6868 16.5243 20.9841 16.4012 21.2033 16.182C21.4224 15.9629 21.5456 15.6656 21.5456 15.3557C21.5456 15.0457 21.4224 14.7485 21.2033 14.5293C20.9841 14.3101 20.6868 14.187 20.3769 14.187C20.067 14.187 19.7697 14.3101 19.5505 14.5293C19.3314 14.7485 19.2083 15.0457 19.2083 15.3557Z" fill="#001F29"/>
<path d="M32.9849 15.3557C32.9849 15.5091 33.0151 15.6611 33.0738 15.8029C33.1326 15.9447 33.2186 16.0735 33.3272 16.182C33.4357 16.2905 33.5645 16.3766 33.7063 16.4354C33.8481 16.4941 34 16.5243 34.1535 16.5243C34.307 16.5243 34.4589 16.4941 34.6007 16.4354C34.7425 16.3766 34.8714 16.2905 34.9799 16.182C35.0884 16.0735 35.1745 15.9447 35.2332 15.8029C35.2919 15.6611 35.3222 15.5091 35.3222 15.3557C35.3222 15.2022 35.2919 15.0502 35.2332 14.9084C35.1745 14.7667 35.0884 14.6378 34.9799 14.5293C34.8714 14.4208 34.7425 14.3347 34.6007 14.276C34.4589 14.2172 34.307 14.187 34.1535 14.187C34 14.187 33.8481 14.2172 33.7063 14.276C33.5645 14.3347 33.4357 14.4208 33.3272 14.5293C33.2186 14.6378 33.1326 14.7667 33.0738 14.9084C33.0151 15.0502 32.9849 15.2022 32.9849 15.3557Z" fill="#001F29"/>
<path d="M34.624 21.9918C35.7577 20.4995 35.3443 19.0272 34.4189 18.4143C32.9879 17.4722 31.5418 19.2093 30.4503 19.9081C26.7615 22.2621 23.3064 21.2302 21.9867 18.9239C21.9345 18.8347 21.849 18.7699 21.7491 18.7437C21.6491 18.7175 21.5428 18.7321 21.4537 18.7843C21.3645 18.8365 21.2997 18.922 21.2735 19.022C21.2473 19.1219 21.2619 19.2282 21.3141 19.3174C22.8079 21.9337 26.7281 23.1151 30.7071 20.6689C31.9711 19.8922 33.4101 18.175 34.2647 19.3174C35.5597 21.0537 32.2311 23.3759 30.2833 24.3044C29.8294 24.523 30.2277 25.1948 30.6768 24.977C32.2042 24.298 33.5548 23.2765 34.624 21.9918ZM18.5873 12.5694C18.6503 12.1342 18.8153 11.72 19.069 11.3607C19.3227 11.0015 19.6578 10.7074 20.0469 10.5024C20.1366 10.4497 20.2017 10.3635 20.2279 10.2628C20.254 10.1621 20.2391 10.0551 20.1864 9.9654C20.1337 9.87568 20.0475 9.81058 19.9468 9.78442C19.8461 9.75825 19.7391 9.77316 19.6494 9.82588C19.1473 10.1043 18.7183 10.4977 18.3976 10.9739C18.0768 11.4501 17.8735 11.9955 17.8042 12.5654C17.8039 12.6169 17.8138 12.6678 17.8332 12.7154C17.8527 12.763 17.8813 12.8063 17.9175 12.8429C17.9536 12.8794 17.9967 12.9085 18.0441 12.9284C18.0915 12.9483 18.1423 12.9587 18.1938 12.959C18.2452 12.9592 18.2961 12.9494 18.3437 12.9299C18.3913 12.9105 18.4347 12.8819 18.4712 12.8457C18.5077 12.8095 18.5368 12.7665 18.5567 12.7191C18.5766 12.6717 18.587 12.6208 18.5873 12.5694ZM32.6802 10.4372C33.0934 10.5101 33.4807 10.6887 33.8042 10.9558C34.1277 11.2229 34.3765 11.5693 34.5262 11.9612C34.555 12.0597 34.6207 12.1431 34.7096 12.1943C34.7985 12.2454 34.9037 12.2602 35.0032 12.2355C35.1016 12.2067 35.1851 12.141 35.2362 12.0521C35.2874 11.9633 35.3021 11.8581 35.2775 11.7585C35.099 11.2329 34.7841 10.7641 34.3651 10.3999C33.9461 10.0358 33.4379 9.78944 32.8925 9.68596C32.793 9.66133 32.6878 9.67611 32.5989 9.72722C32.51 9.77833 32.4443 9.86182 32.4155 9.96023C32.3875 10.0586 32.3997 10.164 32.4493 10.2534C32.4989 10.3428 32.582 10.4089 32.6802 10.4372ZM84.5842 115.567C84.8153 115.567 85.0413 115.499 85.2335 115.37C85.4257 115.242 85.5754 115.059 85.6639 114.846C85.7523 114.632 85.7755 114.397 85.7304 114.171C85.6853 113.944 85.574 113.736 85.4106 113.572C85.2471 113.409 85.0389 113.297 84.8122 113.252C84.5855 113.207 84.3505 113.23 84.137 113.319C83.9234 113.407 83.7409 113.557 83.6125 113.749C83.4841 113.942 83.4156 114.167 83.4156 114.399C83.4154 114.552 83.4456 114.704 83.5043 114.846C83.563 114.988 83.6491 115.117 83.7576 115.225C83.8661 115.334 83.995 115.42 84.1369 115.479C84.2787 115.537 84.4307 115.567 84.5842 115.567ZM82.1396 109.677C79.9064 110.219 79.9255 113.423 80.8811 113.175C80.9795 113.146 81.063 113.081 81.1141 112.992C81.1652 112.903 81.18 112.798 81.1554 112.698C81.0359 112.352 81.0269 111.978 81.1295 111.627C81.2322 111.275 81.4416 110.965 81.7286 110.738L81.8311 110.664C81.9869 110.556 82.1633 110.48 82.3495 110.442C82.4402 110.406 82.5143 110.337 82.5577 110.25C82.6011 110.162 82.6108 110.062 82.5848 109.967C82.5589 109.873 82.4991 109.792 82.417 109.739C82.3349 109.686 82.2361 109.665 82.1396 109.68V109.677ZM88.715 117.909C88.2747 118.161 87.7796 118.303 87.2725 118.32C86.7654 118.338 86.2615 118.232 85.8045 118.012C85.4759 117.806 85.1031 117.682 84.717 117.649C84.4305 117.69 84.1705 117.838 83.9893 118.064C83.8081 118.29 83.7192 118.576 83.7407 118.864C83.809 119.565 84.1251 120.218 84.6322 120.706C85.1393 121.194 85.8039 121.485 86.5065 121.527C86.6098 121.526 86.7087 121.485 86.7817 121.412C86.8547 121.339 86.8959 121.24 86.8961 121.137C86.894 121.034 86.8523 120.936 86.7797 120.864C86.7071 120.791 86.6092 120.749 86.5065 120.747C86.0299 120.702 85.5802 120.505 85.2228 120.187C84.8655 119.868 84.6189 119.444 84.519 118.975C84.5111 118.795 84.5405 118.479 84.7201 118.427C84.9881 118.347 85.3879 118.896 86.8054 119.069C87.6073 119.178 88.422 119.006 89.1109 118.581C89.5331 118.314 89.1427 117.639 88.715 117.909ZM80.4613 125.29C79.5969 125.017 78.7692 124.638 77.9968 124.164C77.9071 124.111 77.8001 124.096 77.6994 124.122C77.5987 124.148 77.5125 124.213 77.4598 124.303C77.4071 124.393 77.3922 124.5 77.4184 124.601C77.4445 124.701 77.5096 124.787 77.5993 124.84C78.432 125.346 79.3217 125.751 80.2499 126.048C80.3503 126.075 80.4577 126.062 80.5484 126.011C80.639 125.959 80.7055 125.874 80.7332 125.773C80.7609 125.673 80.7476 125.566 80.6962 125.475C80.6448 125.384 80.5594 125.318 80.459 125.29H80.4613Z" fill="#001F29"/>
<path d="M75.7391 127.623L76.4077 124.489C76.352 124.429 76.2964 124.373 76.2407 124.31C73.1283 125.733 70.2496 121.936 72.1067 118.996C72.291 118.711 72.5554 118.487 72.8667 118.353C73.1779 118.218 73.5221 118.178 73.8558 118.239L75.123 118.466C75.3076 118.53 75.5104 118.52 75.687 118.435C75.8636 118.351 75.9995 118.2 76.0651 118.016C76.193 117.444 74.157 110.572 77.1224 108.974C77.4865 108.743 79.478 108.437 79.7936 107.609C79.9526 107.184 79.4303 106.86 79.2888 106.782C80.1255 106.731 80.9646 106.829 81.7668 107.072C86.7665 101.666 77.1932 101.507 73.2738 105.43C73.2738 105.43 74.832 102.309 71.4541 103.61C68.0761 104.912 63.3975 106.472 62.8752 113.23C62.8752 113.23 60.2764 115.567 60.7947 118.427C61.313 121.286 63.132 119.467 63.132 119.467C63.132 119.467 63.132 124.407 66.5099 126.745C69.8879 129.084 70.1487 126.227 70.1487 126.227C71.9422 126.938 73.8221 127.407 75.7391 127.623Z" fill="#001F29"/>
<path d="M28.8077 88.8285C29.5 90.503 32.2969 93.5172 34.6231 92.1775C36.9492 90.8379 36.9769 88.8285 37.1154 87.9912L39.6077 89.2973L45.8385 92.5627L47.5 93.4334C46.8077 94.9684 45.34 98.0384 45.0077 98.0384C44.8355 98.0384 44.1351 97.7385 43.3462 97.3719C42.6128 97.0312 41.8028 96.6328 41.2692 96.3639L43.3462 107.667C40.5769 109.062 33.7923 111.435 28.8077 109.76V97.6198L26.9385 99.2943L25.0692 100.969L20.5 96.3639L22.3462 94.6893L26.9615 90.503L28.8077 88.8285Z" fill="#77E4DF"/>
<path d="M26.9615 90.503L28.8077 88.8285C29.5 90.503 32.2969 93.5172 34.6231 92.1775C36.9492 90.8379 36.9769 88.8285 37.1154 87.9912L39.6077 89.2973M26.9615 90.503C29.3769 93.6065 35.2877 97.7102 39.6077 89.2973M26.9615 90.503L22.3462 94.6893M39.6077 89.2973L45.8385 92.5627M43.3462 97.3719C44.1351 97.7385 44.8355 98.0384 45.0077 98.0384C45.34 98.0384 46.8077 94.9684 47.5 93.4334L45.8385 92.5627M43.3462 97.3719C42.6128 97.0312 41.8028 96.6328 41.2692 96.3639L43.3462 107.667C40.5769 109.062 33.7923 111.435 28.8077 109.76C28.8077 106.746 28.8077 100.411 28.8077 97.6198L26.9385 99.2943M43.3462 97.3719L44.5923 94.9673L45.8385 92.5627M26.9385 99.2943L25.0692 100.969L20.5 96.3639L22.3462 94.6893M26.9385 99.2943L22.3462 94.6893" stroke="#002E3D" stroke-width="0.465517"/>
<path d="M69.6118 57.0575C69.8257 56.0188 69.9183 51.3815 69.9055 48.9755C83.1372 47.2842 88.349 49.3688 89.3547 50.3746L86.9489 62.4036C86.6816 64.0839 85.9713 67.536 85.2687 67.9026C84.566 68.2692 79.8078 68.0554 77.5166 67.9026C75.0344 67.5208 70.0241 66.6272 69.8408 66.1078C69.6116 65.4586 69.3444 58.3557 69.6118 57.0575Z" fill="#77E4DF"/>
<path d="M70.5352 49.2068C80.9902 48.0229 86.7602 49.3083 88.533 50.1803C88.6039 50.2152 88.6036 50.3136 88.5333 50.3498C82.9598 53.2165 74.4326 50.9978 70.5043 49.3942C70.4095 49.3555 70.4335 49.2183 70.5352 49.2068Z" fill="#1E9993"/>
<path d="M88.087 55.4585C89.004 54.8228 91.0768 53.9302 92.2235 54.377C93.4258 54.8454 93.9376 55.8267 94.1018 56.1388C94.5908 57.0041 94.9618 59.7434 93.079 61.446C90.7254 63.5743 89.0683 63.2812 86.8175 62.3223" stroke="#77E4DF" stroke-linecap="round" stroke-linejoin="round"/>
</svg>
