<svg width="24" height="24" viewBox="0 0 24 24" fill="none" xmlns="http://www.w3.org/2000/svg">
<path d="M16.5962 15.1819L13.4142 11.9999L16.5962 8.81795C16.773 8.64117 16.773 8.28762 16.5962 8.11084L15.8891 7.40374C15.6902 7.20486 15.3588 7.22696 15.182 7.40374L12 10.5857L8.81802 7.40374C8.61915 7.20486 8.28769 7.22696 8.11091 7.40374L7.40381 8.11084C7.20493 8.30972 7.20493 8.61908 7.40381 8.81795L10.5858 11.9999L7.40381 15.1819C7.20493 15.3808 7.20493 15.6901 7.40381 15.889L8.11091 16.5961C8.28769 16.7729 8.61915 16.795 8.81802 16.5961L12 13.4141L15.182 16.5961C15.3588 16.7729 15.6902 16.795 15.8891 16.5961L16.5962 15.889C16.773 15.7122 16.773 15.3587 16.5962 15.1819Z" fill="#27292B"/>
</svg>
