<svg width="85" height="85" viewBox="0 0 85 85" fill="none" xmlns="http://www.w3.org/2000/svg">
<path d="M42.4441 73.0314C59.4012 73.0314 73.1476 59.285 73.1476 42.3279C73.1476 25.3709 59.4012 11.6245 42.4441 11.6245C25.4871 11.6245 11.7407 25.3709 11.7407 42.3279C11.7407 59.285 25.4871 73.0314 42.4441 73.0314Z" fill="#CEE8E7"/>
<path d="M62.3106 71.9303C61.0219 64.0374 61.0126 57.2616 62.0422 50.3992C62.7404 45.7457 62.7379 38.4274 61.5594 33.3247C59.9805 26.4901 52.7202 27.2606 51.2775 31.7946C50.1503 35.3385 50.9554 43.0699 50.9554 43.0699C50.9554 43.0699 43.515 44.637 43.3308 53.361" stroke="#231F20" stroke-width="0.84119" stroke-miterlimit="10" stroke-linecap="round" stroke-linejoin="round"/>
<path d="M43.0253 25.1281C41.2538 21.1821 35.5732 22.3177 34.1213 26.6128C32.6358 31.0072 33.1027 37.4465 33.477 39.0162C34.5991 43.7251 40.6448 43.3651 42.5778 39.4191" stroke="#231F20" stroke-width="0.84119" stroke-miterlimit="10" stroke-linecap="round" stroke-linejoin="round"/>
<path d="M34.1214 26.2107C32.3499 24.0362 27.598 24.8413 26.5507 28.2245C25.3832 31.9964 25.6935 35.2729 26.0679 36.8425C27.19 41.5515 32.2136 41.4194 33.1557 37.9697" stroke="#231F20" stroke-width="0.84119" stroke-miterlimit="10" stroke-linecap="round" stroke-linejoin="round"/>
<path d="M54.3018 28.2691C53.1738 20.457 44.4843 20.7505 42.865 26.2561C41.657 30.3637 41.9994 36.7895 42.3258 38.3693C43.1064 42.1496 47.4024 44.404 50.8386 40.7532" stroke="#231F20" stroke-width="0.84119" stroke-miterlimit="10" stroke-linecap="round" stroke-linejoin="round"/>
<path d="M26.5417 71.3986C26.2287 68.1002 25.4776 56.1444 25.6382 48.8429" stroke="#231F20" stroke-width="0.84119" stroke-miterlimit="10" stroke-linecap="round" stroke-linejoin="round"/>
<path d="M21.5575 52.7351C19.2888 52.7351 17.45 50.8963 17.45 48.6276V19.8749C17.45 17.6062 19.2888 15.7673 21.5575 15.7673C23.8262 15.7673 25.665 17.6062 25.665 19.8749V48.6276C25.665 50.8963 23.8262 52.7351 21.5575 52.7351Z" stroke="#231F20" stroke-width="0.84119" stroke-miterlimit="10" stroke-linecap="round" stroke-linejoin="round"/>
<path d="M13.3424 46.936C11.0737 46.936 9.23486 45.0971 9.23486 42.8284V25.6741C9.23486 23.4054 11.0737 21.5665 13.3424 21.5665C15.6111 21.5665 17.4499 23.4054 17.4499 25.6741V42.8293C17.4499 45.0971 15.6111 46.936 13.3424 46.936Z" stroke="#231F20" stroke-width="0.84119" stroke-miterlimit="10" stroke-linecap="round" stroke-linejoin="round"/>
<path d="M9.15418 30.5463H6.73828V37.9563H9.15418V30.5463Z" stroke="#231F20" stroke-width="0.84119" stroke-miterlimit="10" stroke-linecap="round" stroke-linejoin="round"/>
<path d="M61.8277 52.7351C64.0964 52.7351 65.9353 50.8963 65.9353 48.6276V19.8749C65.9353 17.6062 64.0964 15.7673 61.8277 15.7673C59.5591 15.7673 57.7202 17.6062 57.7202 19.8749V28.1707" stroke="#231F20" stroke-width="0.84119" stroke-miterlimit="10" stroke-linecap="round" stroke-linejoin="round"/>
<path d="M70.0428 46.936C72.3115 46.936 74.1504 45.0971 74.1504 42.8284V25.6741C74.1504 23.4054 72.3115 21.5665 70.0428 21.5665C67.7741 21.5665 65.9353 23.4054 65.9353 25.6741V42.8293C65.9353 45.0971 67.7741 46.936 70.0428 46.936Z" stroke="#231F20" stroke-width="0.84119" stroke-miterlimit="10" stroke-linecap="round" stroke-linejoin="round"/>
<path d="M74.2301 37.957H76.646V30.547H74.2301V37.957Z" stroke="#231F20" stroke-width="0.84119" stroke-miterlimit="10" stroke-linecap="round" stroke-linejoin="round"/>
<path d="M51.3213 26.9005C51.3213 26.9005 51.5627 29.4779 51.6435 30.8465" stroke="#231F20" stroke-width="0.84119" stroke-miterlimit="10" stroke-linecap="round" stroke-linejoin="round"/>
</svg>
