<svg width="24" height="24" viewBox="0 0 24 24" fill="none" xmlns="http://www.w3.org/2000/svg">
<path d="M14.125 7.25C14.0312 7.1875 13.9688 7.125 13.9688 7.03125C13.9688 6.90625 14.0312 6.84375 14.125 6.78125L16 6L16.75 4.15625C16.8125 4.0625 16.875 4 16.9688 4C17.0938 4 17.1562 4.0625 17.2188 4.15625L18 6L19.8438 6.78125C19.9375 6.84375 20 6.90625 20 7C20 7.125 19.9375 7.1875 19.8438 7.25L18 8L17.2188 9.875C17.1562 9.96875 17.0938 10.0312 17 10.0312C16.875 10.0312 16.8125 9.96875 16.75 9.875L16 8L14.125 7.25ZM19.8438 16.7812C19.9375 16.8438 20 16.9062 20 17C20 17.125 19.9375 17.1875 19.8438 17.25L18 18L17.2188 19.875C17.1562 19.9688 17.0938 20.0312 17 20.0312C16.875 20.0312 16.8125 19.9688 16.75 19.875L16 18L14.125 17.25C14.0312 17.1875 13.9688 17.125 13.9688 17.0312C13.9688 16.9062 14.0312 16.8438 14.125 16.7812L16 16L16.75 14.1562C16.8125 14.0625 16.875 14 16.9688 14C17.0938 14 17.1562 14.0625 17.2188 14.1562L18 16L19.8438 16.7812ZM16 12C15.9688 12.3125 15.8125 12.5625 15.5625 12.6875L12.2812 14.3125L10.6562 17.5938C10.5312 17.8438 10.2812 18.0312 10 18.0312C9.6875 18.0312 9.4375 17.8438 9.3125 17.5938L7.6875 14.3125L4.40625 12.6875C4.15625 12.5625 3.96875 12.3125 3.96875 12.0312C3.96875 11.7188 4.15625 11.4688 4.40625 11.3438L7.6875 9.71875L9.3125 6.4375C9.5625 5.9375 10.4062 5.9375 10.6562 6.4375L12.2812 9.71875L15.5625 11.3438C15.8125 11.4688 15.9688 11.7188 16 12ZM11.4062 13.0938L13.5625 12L11.4062 10.9375C11.25 10.875 11.125 10.75 11.0625 10.5938L10 8.4375L8.90625 10.5938C8.84375 10.75 8.71875 10.875 8.5625 10.9375L6.40625 12L8.5625 13.0938C8.71875 13.1562 8.84375 13.2812 8.90625 13.4375L10 15.5938L11.0625 13.4375C11.125 13.2812 11.25 13.1562 11.4062 13.0938Z" fill="white"/>
</svg>
