<svg width="85" height="85" viewBox="0 0 85 85" fill="none" xmlns="http://www.w3.org/2000/svg">
<path d="M42.948 73.0314C59.9051 73.0314 73.6515 59.285 73.6515 42.3279C73.6515 25.3709 59.9051 11.6245 42.948 11.6245C25.991 11.6245 12.2446 25.3709 12.2446 42.3279C12.2446 59.285 25.991 73.0314 42.948 73.0314Z" fill="#CEE8E7"/>
<path d="M6.58032 38.355C11.0908 40.288 19.2385 42.2833 27.1718 52.4222C31.0648 58.5957 36.5418 55.5161 33.7491 49.738C32.1988 46.5288 31.8236 41.2234 36.3845 38.9792C39.5718 37.4112 46.4527 37.6736 48.8728 42.3919C51.4082 47.3355 55.4349 43.9321 54.4718 40.4058C53.1494 35.5589 47.807 31.4026 42.2392 31.4934" stroke="#231F20" stroke-width="0.84119" stroke-miterlimit="10" stroke-linecap="round" stroke-linejoin="round"/>
<path d="M11.3052 14.6224C19.5741 22.8913 24.5808 22.7845 27.0909 22.5692C33.5042 22.0173 37.2222 16.5277 42.9272 15.8102C47.7506 15.2029 48.0357 20.3476 44.5725 21.7381C40.0722 23.5449 38.9172 25.2298 38.9172 25.2298C38.9172 25.2298 45.1294 22.8711 52.4671 23.73C57.8137 24.3558 56.4636 30.9272 51.7992 30.1508C47.7312 29.4736 42.2147 31.4807 42.2147 31.4807" stroke="#231F20" stroke-width="0.84119" stroke-miterlimit="10" stroke-linecap="round" stroke-linejoin="round"/>
<path d="M55.1682 63.3526H58.5195C60.0689 63.3526 61.2777 62.0126 61.1179 60.4715C60.7503 56.9099 57.7489 54.2038 54.1688 54.2038H53.527L51.7824 46.6869C51.3651 44.8893 49.7635 43.6166 47.9179 43.6166H39.5229C37.6773 43.6166 36.0757 44.8893 35.6584 46.6869L34.4539 51.8754" stroke="#231F20" stroke-width="0.84119" stroke-miterlimit="10" stroke-linecap="round" stroke-linejoin="round"/>
<path d="M39.4622 63.3527H47.2348" stroke="#231F20" stroke-width="0.84119" stroke-miterlimit="10" stroke-linecap="round" stroke-linejoin="round"/>
<path d="M29.5254 55.0332C27.5444 56.0981 26.1262 58.0943 25.8805 60.4715C25.7215 62.0126 26.9303 63.3526 28.479 63.3526H31.3676" stroke="#231F20" stroke-width="0.84119" stroke-miterlimit="10" stroke-linecap="round" stroke-linejoin="round"/>
<path d="M35.4582 66.3288C37.749 66.3288 39.6061 64.4717 39.6061 62.1809C39.6061 59.89 37.749 58.033 35.4582 58.033C33.1674 58.033 31.3103 59.89 31.3103 62.1809C31.3103 64.4717 33.1674 66.3288 35.4582 66.3288Z" stroke="#231F20" stroke-width="0.84119" stroke-miterlimit="10" stroke-linecap="round" stroke-linejoin="round"/>
<path d="M35.4581 63.8716C36.3919 63.8716 37.1489 63.1146 37.1489 62.1808C37.1489 61.247 36.3919 60.49 35.4581 60.49C34.5243 60.49 33.7673 61.247 33.7673 62.1808C33.7673 63.1146 34.5243 63.8716 35.4581 63.8716Z" stroke="#231F20" stroke-width="0.84119" stroke-miterlimit="10" stroke-linecap="round" stroke-linejoin="round"/>
<path d="M51.1994 66.3288C53.4902 66.3288 55.3473 64.4717 55.3473 62.1809C55.3473 59.89 53.4902 58.033 51.1994 58.033C48.9086 58.033 47.0515 59.89 47.0515 62.1809C47.0515 64.4717 48.9086 66.3288 51.1994 66.3288Z" stroke="#231F20" stroke-width="0.84119" stroke-miterlimit="10" stroke-linecap="round" stroke-linejoin="round"/>
<path d="M51.1993 63.8716C52.1331 63.8716 52.8901 63.1146 52.8901 62.1808C52.8901 61.247 52.1331 60.49 51.1993 60.49C50.2655 60.49 49.5085 61.247 49.5085 62.1808C49.5085 63.1146 50.2655 63.8716 51.1993 63.8716Z" stroke="#231F20" stroke-width="0.84119" stroke-miterlimit="10" stroke-linecap="round" stroke-linejoin="round"/>
<path d="M38.0095 54.2039H53.2115" stroke="#231F20" stroke-width="0.84119" stroke-miterlimit="10" stroke-linecap="round" stroke-linejoin="round"/>
<path d="M43.4993 43.6469V54.1432" stroke="#231F20" stroke-width="0.84119" stroke-miterlimit="10" stroke-linecap="round" stroke-linejoin="round"/>
<path d="M59.0385 56.2345H58.2149C57.3695 56.2345 56.6848 56.9192 56.6848 57.7646C56.6848 58.61 57.3695 59.2947 58.2149 59.2947H60.7562" stroke="#231F20" stroke-width="0.84119" stroke-miterlimit="10" stroke-linecap="round" stroke-linejoin="round"/>
<path d="M59.7929 45.887C61.8227 42.0638 61.1523 38.4744 58.2847 34.7177" stroke="#231F20" stroke-width="0.84119" stroke-miterlimit="10" stroke-linecap="round" stroke-linejoin="round"/>
<path d="M63.9341 47.386C66.0446 44.5193 67.4292 37.6627 62.8145 32.1975" stroke="#231F20" stroke-width="0.84119" stroke-miterlimit="10" stroke-linecap="round" stroke-linejoin="round"/>
</svg>
