<svg width="24" height="24" viewBox="0 0 24 24" fill="none" xmlns="http://www.w3.org/2000/svg">
<path d="M18.7812 11.75C18.7812 15.4961 15.7188 18.5312 12 18.5312C8.25391 18.5312 5.21875 15.4961 5.21875 11.75C5.21875 8.03125 8.25391 4.96875 12 4.96875C15.7188 4.96875 18.7812 8.03125 18.7812 11.75ZM11.207 15.3594L16.2383 10.3281C16.4023 10.1641 16.4023 9.86328 16.2383 9.69922L15.6094 9.09766C15.4453 8.90625 15.1719 8.90625 15.0078 9.09766L10.9062 13.1992L8.96484 11.2852C8.80078 11.0938 8.52734 11.0938 8.36328 11.2852L7.73438 11.8867C7.57031 12.0508 7.57031 12.3516 7.73438 12.5156L10.5781 15.3594C10.7422 15.5234 11.043 15.5234 11.207 15.3594Z" fill="#97D8B0"/>
</svg>
