<svg width="24" height="24" viewBox="0 0 24 24" fill="none" xmlns="http://www.w3.org/2000/svg">
<path d="M12 4.96875C8.25391 4.96875 5.21875 8.03125 5.21875 11.75C5.21875 15.4961 8.25391 18.5312 12 18.5312C15.7188 18.5312 18.7812 15.4961 18.7812 11.75C18.7812 8.03125 15.7188 4.96875 12 4.96875ZM12 7.97656C12.6289 7.97656 13.1484 8.49609 13.1484 9.125C13.1484 9.78125 12.6289 10.2734 12 10.2734C11.3438 10.2734 10.8516 9.78125 10.8516 9.125C10.8516 8.49609 11.3438 7.97656 12 7.97656ZM13.5312 14.9219C13.5312 15.1133 13.3672 15.25 13.2031 15.25H10.7969C10.6055 15.25 10.4688 15.1133 10.4688 14.9219V14.2656C10.4688 14.1016 10.6055 13.9375 10.7969 13.9375H11.125V12.1875H10.7969C10.6055 12.1875 10.4688 12.0508 10.4688 11.8594V11.2031C10.4688 11.0391 10.6055 10.875 10.7969 10.875H12.5469C12.7109 10.875 12.875 11.0391 12.875 11.2031V13.9375H13.2031C13.3672 13.9375 13.5312 14.1016 13.5312 14.2656V14.9219Z" fill="#27292B"/>
</svg>
