<svg width="150" height="150" viewBox="0 0 150 150" fill="none" xmlns="http://www.w3.org/2000/svg">
<path d="M42.4977 39.1307C42.2813 38.5109 41.8942 37.9648 41.3811 37.5553C40.868 37.1456 40.2497 36.8893 39.5973 36.8155C38.945 36.7418 38.2851 36.8538 37.6935 37.1385C37.1019 37.4233 36.6028 37.8693 36.2535 38.4252C35.6815 34.6717 35.7831 35.1616 35.6943 34.7621C35.5405 34.0767 34.8953 33.5674 34.4929 33.9766C34.4929 33.5809 34.2077 33.3465 33.7836 33.2636C33.1987 33.21 32.6088 33.2621 32.0424 33.4174C29.4717 33.8862 27.9732 34.512 19.6585 37.3679C18.7185 37.6912 17.1536 38.1048 17.2006 39.3749C17.2015 39.4206 17.2128 39.4655 17.2338 39.5062C17.2547 39.5468 17.2848 39.5821 17.3215 39.6093C18.4498 44.5155 19.654 49.689 21.7536 54.3385C21.8601 54.6749 22.0566 54.9758 22.3217 55.2085C22.5869 55.4414 22.9107 55.5973 23.2581 55.6593C23.6657 55.6916 24.0756 55.6844 24.4819 55.6376C28.3189 55.3711 32.0877 54.4855 35.642 53.0154C36.3473 52.7929 37.0054 52.442 37.5833 51.9805C38.1992 51.3832 38.106 50.6119 37.9887 49.8354L37.5004 46.6248C37.7395 46.6951 37.9861 46.737 38.2351 46.7495C40.1256 46.8637 41.9474 45.6848 42.5821 43.3015C42.9751 41.9345 42.9457 40.4807 42.4977 39.1307ZM19.9236 37.9361C25.9804 35.8567 30.0422 34.2604 33.1034 33.8833C34.2301 33.7436 33.9993 34.2111 33.1587 34.9488C31.8292 35.891 30.3604 36.6194 28.8057 37.1073C26.4416 37.9827 24.0026 38.641 21.5192 39.074C20.8666 39.1882 19.1568 39.4473 18.6819 39.4622C18.3571 39.4734 17.6246 39.1479 18.1824 38.6768C18.7168 38.3337 19.3055 38.084 19.9236 37.9383V37.9361ZM37.2682 51.3966C36.788 51.8565 36.202 52.1914 35.5621 52.3717C31.904 53.9098 28.0104 54.8127 24.0488 55.0418C23.1028 55.0963 22.79 55.0552 22.377 54.2026C20.4619 50.252 18.9515 43.8988 18.0465 39.9864C18.2452 40.0655 18.4585 40.1013 18.6722 40.0917C20.619 39.9041 22.5494 39.5729 24.4475 39.1009C26.5299 38.5902 32.2926 36.9431 34.0233 35.01C34.5354 34.4388 34.9812 34.279 35.1081 35.066C35.1828 35.514 37.3712 49.8921 37.4287 50.3013C37.4771 50.4856 37.4878 50.6778 37.4601 50.8665C37.4326 51.055 37.3673 51.2361 37.2682 51.3989V51.3966ZM42.1445 42.307C41.9011 44.1452 40.9633 45.69 39.1221 46.0611C38.6506 46.1551 38.1643 46.1457 37.6968 46.0335C37.3294 45.917 37.3794 45.8341 37.3496 45.6168C37.2898 45.183 36.6454 40.9988 36.3931 39.3375C36.4297 39.3266 36.4633 39.3074 36.4913 39.2815C36.5194 39.2557 36.5412 39.2238 36.5551 39.1882C36.759 38.6874 37.1007 38.2549 37.5408 37.9409C37.981 37.6269 38.5012 37.4444 39.041 37.4146C39.5808 37.3847 40.1179 37.5089 40.59 37.7726C41.0619 38.0362 41.4493 38.4285 41.707 38.9037C42.2019 39.9662 42.3548 41.1562 42.1445 42.3092V42.307Z" fill="#001F29"/>
<path d="M131.222 55.9102C131.181 55.5429 128.142 40.0432 128.156 40.1187C128.134 40.0387 128.081 39.9709 128.009 39.9299C127.937 39.8889 127.852 39.8781 127.771 39.8998C127.167 40.1278 126.538 40.2905 125.898 40.3852C126.023 38.5649 125.742 36.7396 125.076 35.0407C124.921 34.5195 124.624 34.0515 124.219 33.6878C123.812 33.4475 123.342 33.3373 122.871 33.3718C122.398 33.4064 121.95 33.584 121.582 33.8811C121.303 34.0638 121.042 34.272 120.803 34.5031C120.634 34.0763 120.393 33.6811 120.092 33.3338C119.103 32.2885 116.755 32.5304 115.015 35.4782C114.414 36.5706 113.926 37.7215 113.559 38.9128L112.57 38.7351C112.232 38.6502 111.889 38.5896 111.541 38.5536C111.436 38.5409 111.329 38.549 111.227 38.5778C111.125 38.6065 111.029 38.6551 110.947 38.721C110.863 38.7868 110.794 38.8684 110.742 38.9612C110.69 39.054 110.657 39.156 110.646 39.2615C109.202 45.2786 108.134 51.3798 107.449 57.5296C107.451 57.5977 107.473 57.6635 107.515 57.7173C107.557 57.7712 107.614 57.8101 107.68 57.8283L122.301 61.7243C124.914 62.4224 124.898 62.0364 129.222 58.6929C130.311 57.85 131.376 57.2967 131.222 55.9102ZM121.431 34.7786C121.982 34.2836 122.936 33.7042 123.687 34.088C124.075 34.3551 124.353 34.7526 124.472 35.208C125.12 36.8794 125.396 38.6724 125.278 40.4613C124.269 40.5437 123.256 40.5257 122.252 40.4076C122.179 38.5934 121.78 36.8073 121.074 35.1348C121.189 35.0138 121.306 34.8921 121.431 34.7786ZM121.618 40.3315C120.781 40.2209 119.815 40.0514 118.728 39.8603C118.775 39.8196 118.805 39.7633 118.814 39.702C119.048 38.2194 119.665 36.8238 120.606 35.6544C121.2 37.1471 121.542 38.7282 121.619 40.3329L121.618 40.3315ZM117.026 34.0514C117.678 33.5385 118.822 33.0441 119.553 33.6862C119.902 34.0623 120.168 34.5075 120.334 34.9929C119.216 36.2795 118.48 37.8528 118.209 39.5355C118.201 39.578 118.203 39.6215 118.213 39.6635C118.222 39.7054 118.241 39.745 118.266 39.7796C116.9 39.5362 115.537 39.2824 114.175 39.0331C114.794 37.2321 115.483 35.2692 117.026 34.0514ZM122.849 61.2293C122.177 61.0568 111.02 58.0769 108.098 57.2983C108.777 51.3021 109.823 45.3534 111.231 39.4855C111.278 39.4993 111.329 39.5031 111.379 39.4965C111.428 39.4899 111.475 39.4732 111.518 39.4472C111.561 39.4212 111.598 39.3866 111.627 39.3456C111.655 39.3047 111.676 39.2582 111.685 39.2092C111.753 39.2234 116.802 40.1403 117.957 40.3494C120.058 40.8201 122.2 41.0859 124.352 41.1431C124.255 41.5455 124.194 51.906 124.65 61.2554C124.064 61.4393 123.434 61.4294 122.853 61.2271L122.849 61.2293ZM130.586 56.468C130.47 57.0145 129.915 57.364 129.506 57.6872C128.956 58.1121 125.549 60.7417 125.267 60.9269C124.67 48.5968 125.051 41.4738 124.946 41.1146C125.853 41.0651 126.749 40.8956 127.611 40.6107C130.661 56.2149 130.69 55.9968 130.59 56.4657L130.586 56.468Z" fill="#001F29"/>
<path d="M124.784 17.7126C124.626 15.4967 124.092 13.3239 123.205 11.2877C122.541 9.81196 121.339 8.64541 119.844 8.02629C118.361 7.4915 116.766 7.33895 115.208 7.58271C113.65 7.82646 112.179 8.45868 110.929 9.42103C109.563 10.4792 108.51 11.8876 107.88 13.4967C107.251 15.1057 107.069 16.8551 107.354 18.5592C106.017 19.2872 103.129 21.1269 102.436 22.4142C101.706 23.7738 102.474 25.3724 105.226 25.7532C114.748 27.0681 121.683 22.1588 123.519 20.7402C124.098 20.4047 124.538 19.8732 124.76 19.2417C124.85 18.7365 124.858 18.2202 124.784 17.7126ZM122.157 10.694C123.352 12.5271 123.967 15.5764 124.157 17.7126C124.215 18.3673 124.387 19.2961 123.694 19.6717C122.25 20.2385 120.731 20.5923 119.185 20.7223C118.201 20.809 117.212 20.8162 116.226 20.7439C117.227 18.8323 117.827 16.7359 117.987 14.5839C118.147 12.4319 117.866 10.2698 117.158 8.23088C118.136 8.15802 119.115 8.34802 119.993 8.78116C120.872 9.21431 121.62 9.87475 122.157 10.694ZM116.529 8.32794C117.246 10.3413 117.528 12.4833 117.359 14.6136C117.19 16.7439 116.572 18.8144 115.547 20.6894C113.79 20.5014 112.071 20.0525 110.446 19.3574C110.703 18.0052 110.312 11.9611 114.544 9.17538C115.147 8.77259 115.821 8.48526 116.529 8.32794ZM106.818 25.2835C105.905 25.2658 104.999 25.1149 104.129 24.8356C103.473 24.5891 102.757 24.0971 102.804 23.3102C102.892 22.7814 103.17 22.3029 103.586 21.9647C104.977 20.7192 106.525 19.6619 108.192 18.8198C108.528 18.6466 108.267 18.1673 107.939 18.2606C107.603 16.0344 108.129 13.7637 109.41 11.9122C110.692 10.0609 112.632 8.76865 114.834 8.29956C113.96 8.75379 113.184 9.37297 112.546 10.1229C110.423 12.6085 109.994 15.8818 109.842 19.0871C109.573 18.9612 109.308 18.8293 109.045 18.6914C108.691 18.5002 108.374 19.0408 108.73 19.232C112.944 21.4837 117.865 22.024 122.468 20.7402C117.932 24.0163 112.403 25.6216 106.818 25.2835Z" fill="#001F29"/>
<path d="M90.2052 14.7105C84.003 11.0241 77.5979 7.69049 71.0202 4.72557C70.9723 4.69928 70.9185 4.68575 70.8638 4.6863C70.8092 4.68683 70.7557 4.70141 70.7084 4.72864C70.6611 4.75587 70.6215 4.79483 70.5936 4.84176C70.5657 4.88869 70.5504 4.94202 70.549 4.99661C70.5195 6.52973 70.2639 8.05012 69.7904 9.50859C67.8163 14.7351 59.7391 14.6537 56.7368 6.96178C56.7211 6.90996 56.6924 6.86301 56.6534 6.8254C56.6144 6.78777 56.5665 6.76073 56.5142 6.74682C56.4618 6.73292 56.4068 6.73261 56.3543 6.74591C56.3017 6.75923 56.2536 6.78573 56.2141 6.82291C51.8836 10.6711 46.2091 15.658 42.2354 20.0228C42.1807 20.0874 42.1515 20.1697 42.1534 20.2543C42.1795 20.4679 41.5381 19.7212 49.8079 28.5907C49.8671 28.6485 49.9466 28.6809 50.0294 28.6809C50.1121 28.6809 50.1915 28.6485 50.2507 28.5907L55.9125 23.0267L56.2216 43.8334C56.2223 43.9019 56.2451 43.9683 56.2866 44.0228C56.3279 44.0772 56.3859 44.1169 56.4516 44.1358C64.3444 45.6112 73.1974 44.3299 80.5362 41.6569C81.1281 41.447 81.7125 41.2165 82.2885 40.9663C82.3477 40.931 82.3939 40.8774 82.4199 40.8135C82.4459 40.7497 82.4503 40.6791 82.4326 40.6124C82.3162 39.9457 79.0585 21.2488 79.0504 21.1884L83.4944 23.4216C83.9579 23.7461 84.5064 23.9278 85.0721 23.9443C85.3092 23.8842 85.5303 23.7729 85.7197 23.6181C85.9091 23.4633 86.0621 23.2688 86.1681 23.0483C87.8366 20.5404 89.238 17.8648 90.3494 15.0651C90.3676 14.9984 90.3634 14.9275 90.3373 14.8634C90.3113 14.7994 90.2649 14.7455 90.2052 14.7105ZM62.4554 13.4845C65.4001 14.2759 68.6563 13.2448 70.0711 10.4232C70.7513 8.85964 71.1159 7.1771 71.1441 5.47222C72.5578 6.11284 73.9627 6.77189 75.359 7.44935C75.1339 9.21666 74.458 10.8964 73.3962 12.327C72.3345 13.7576 70.9225 14.8911 69.2962 15.6184C67.4234 16.4036 65.3871 16.719 63.3645 16.5368C61.342 16.3546 59.3948 15.6805 57.6925 14.5731C55.9752 13.4621 54.3863 11.7045 54.3804 9.54817C54.3804 9.46603 54.3745 9.29878 54.4065 9.26966L56.3157 7.5703C57.4692 10.2425 59.5606 12.7065 62.4554 13.4845ZM50.0386 27.9201L42.8842 20.2476C43.5413 19.5308 44.2111 18.8265 44.8935 18.1346L52.3786 25.6234L50.0386 27.9201ZM78.789 20.3574C78.735 20.3281 78.6736 20.3152 78.6124 20.32C78.5511 20.3249 78.4926 20.3475 78.4439 20.3849C78.3951 20.4223 78.3583 20.4731 78.3378 20.531C78.3173 20.5889 78.314 20.6515 78.3283 20.7113C78.4448 21.3773 81.7398 40.3241 81.7734 40.5094C76.4154 42.6449 70.7362 43.8637 64.9738 44.115C62.2528 44.2235 59.528 44.0408 56.8458 43.5699L56.53 22.2904C56.5288 22.229 56.5097 22.1692 56.4751 22.1184C56.4405 22.0676 56.3919 22.0279 56.3352 22.0042C56.2785 21.9805 56.2162 21.9738 56.1557 21.9848C56.0953 21.9959 56.0393 22.0242 55.9946 22.0664L52.8274 25.1792L45.3311 17.6829C47.8965 15.1054 51.0056 12.2876 53.7682 9.83863C53.8815 10.7791 54.1919 11.6852 54.6792 12.4977C55.1664 13.3101 55.8194 14.0107 56.5957 14.5537C58.3219 15.8494 60.3389 16.7031 62.4709 17.0401C64.6028 17.377 66.7849 17.1871 68.8266 16.4868C70.6922 15.8058 72.3392 14.6333 73.5932 13.0932C74.8472 11.553 75.6616 9.70255 75.9502 7.73755C79.4595 9.44662 82.8254 11.2028 86.3152 13.1799C85.2237 14.9807 82.8531 20.4223 82.0407 21.9903L78.789 20.3574ZM86.9514 20.6097C86.4433 21.5164 85.8717 22.3859 85.2408 23.2118C84.8241 23.5425 84.1955 23.0737 83.8102 22.881L82.5984 22.2717C83.6631 20.2289 85.6597 15.4877 86.8588 13.4904C87.7941 14.0246 88.7259 14.5656 89.6542 15.1137C88.8854 17.0078 87.9821 18.8444 86.9514 20.6097Z" fill="#001F29"/>
<path d="M96.1696 139.025L102.671 138.316L97.0984 127.376C95.0481 128.244 92.9777 129.079 90.8609 129.766C88.9622 130.381 87.8154 130.788 86.0301 129.859C85.8048 129.747 85.5975 129.603 85.4149 129.43C83.8635 130.233 82.2552 130.919 80.6027 131.485C80.1197 131.63 79.3043 131.876 78.9086 131.492L81.1485 140.665L95.5589 139.097L95.9762 143.353C95.3087 143.377 73.2782 144.158 73.0758 144.164L74.6296 131.184L73.977 131.401C73.8336 132.595 72.4785 143.915 72.4091 144.507C72.4094 144.59 72.4424 144.669 72.501 144.729C72.5597 144.787 72.639 144.82 72.7219 144.821L96.3159 143.967C96.399 143.966 96.4785 143.933 96.5373 143.875C96.5961 143.816 96.6295 143.737 96.6303 143.654C96.2555 139.837 96.1942 139.156 96.1696 139.025Z" fill="#001F29"/>
<path d="M110.137 107.814C110.031 109.437 110.261 111.064 110.81 112.594C111.36 114.125 112.218 115.525 113.331 116.711H113.89C112.898 109.771 110.137 107.814 110.137 107.814ZM125.852 103.408C120.375 107.791 119.571 114.265 119.468 116.698H120.232C126.608 108.415 125.852 103.408 125.852 103.408ZM118.052 116.701H118.567C118.836 114.52 119.2 107.696 114.248 102.353C114.248 102.353 112.72 107.326 118.052 116.701Z" fill="#F2F2F2"/>
<path d="M110.137 107.814C110.031 109.437 110.261 111.064 110.81 112.594C111.36 114.125 112.218 115.525 113.331 116.711H113.89C112.898 109.771 110.137 107.814 110.137 107.814ZM125.852 103.408C120.375 107.791 119.571 114.265 119.468 116.698H120.232C126.608 108.415 125.852 103.408 125.852 103.408ZM118.052 116.701H118.567C118.836 114.52 119.2 107.696 114.248 102.353C114.248 102.353 112.72 107.326 118.052 116.701Z" fill="#121F26"/>
<path d="M73.8595 89.8061C73.045 90.2466 72.2625 90.7432 71.5172 91.2926C70.6749 92.9352 70.0568 94.9587 71.1737 96.225C72.502 97.7292 74.5179 95.886 75.8515 94.2837C76.0939 93.7535 76.3662 93.2376 76.6668 92.7381C76.0056 92.4969 75.4086 92.1072 74.9219 91.5988C74.4352 91.0905 74.0717 90.4771 73.8595 89.8061ZM82.7676 89.7471C82.4144 90.8633 81.6567 91.807 80.6433 92.3934C79.6299 92.9796 78.434 93.1659 77.2903 92.9158C77.1902 93.0741 77.1006 93.2377 77.0095 93.4011C76.7027 95.167 76.4204 98.6715 79.1098 98.3541C81.8978 98.0251 85.0994 92.7545 86.3821 90.4399C85.2057 90.0799 83.9939 89.8475 82.7676 89.7471Z" fill="#77E4DF"/>
<path d="M105.372 114.334C102.498 104.741 95.9524 93.3668 86.3825 90.4407C85.0998 92.7612 81.8974 98.0289 79.1102 98.355C76.4223 98.6724 76.7031 95.1677 77.0099 93.4019C75.1315 96.8 74.1198 100.609 74.0644 104.491C74.0605 104.572 74.0257 104.648 73.9674 104.703C73.9091 104.759 73.8317 104.79 73.7512 104.79C73.6706 104.79 73.5932 104.759 73.5349 104.703C73.4766 104.648 73.4418 104.572 73.438 104.491C73.5 100.954 74.3232 97.4721 75.8519 94.2814C74.5183 95.8867 72.5024 97.73 71.1741 96.2227C70.0542 94.9534 70.6753 92.933 71.5176 91.2904C68.8711 93.1912 66.6258 95.5957 64.9104 98.3657C63.1951 101.136 62.0434 104.218 61.5215 107.435C61.5165 107.476 61.5018 107.515 61.4785 107.549C61.4553 107.585 61.424 107.613 61.3875 107.633C61.3511 107.653 61.3103 107.664 61.2686 107.665C61.2271 107.666 61.1857 107.658 61.1481 107.64C61.0735 107.961 60.9988 108.288 60.9241 108.623L71.7416 109.632C71.8241 109.634 71.9028 109.668 71.9612 109.726C72.0196 109.784 72.0533 109.862 72.0551 109.945V126.947L72.5293 126.98C72.6346 126.545 72.7777 126.12 72.9571 125.711C74.4049 122.331 77.5759 121.197 80.1906 122.066C84.1859 119.528 90.3652 116.565 95.258 115.406C91.3978 111.346 88.6128 104.831 86.8268 99.53C86.2168 97.7213 85.6419 95.8867 85.1976 94.0275C85.1036 93.6348 85.7076 93.4691 85.8024 93.8619C86.7828 97.7301 88.0748 101.513 89.6656 105.173C91.2507 108.775 93.1749 112.421 95.9732 115.242C96.7766 115.072 97.5876 114.943 98.4044 114.854C98.8054 114.812 98.8006 115.439 98.4044 115.481C92.756 116.078 85.4814 119.532 80.9066 122.358C83.2862 123.52 85.0468 126.389 85.7852 128.895C85.8354 128.95 85.8885 129.004 85.9443 129.054C86.3892 129.371 86.8993 129.584 87.4376 129.679C87.5271 129.699 87.8773 129.77 87.952 129.77C90.0307 129.802 97.8582 126.398 99.7166 125.566C99.7925 125.531 99.8782 125.528 99.957 125.553C100.036 125.579 100.102 125.634 100.143 125.706C101.629 124.98 105.955 122.804 106.511 121.247C107.195 119.336 105.912 116.133 105.372 114.334Z" fill="#1E9993"/>
<path d="M62.8086 100.981C64.4567 97.3329 66.9419 94.1249 70.0623 91.6173C70.8916 90.9325 71.7661 90.3044 72.6799 89.7372C71.6957 89.8267 70.704 89.7938 69.7278 89.6394C65.8487 89.0188 62.1184 87.6836 58.7266 85.7016C58.711 85.7402 58.6867 85.7748 58.6558 85.8026C58.6248 85.8306 58.5879 85.851 58.5479 85.8626C58.5078 85.8742 58.4657 85.8765 58.4247 85.8694C58.3836 85.8624 58.3446 85.8461 58.3108 85.8218C53.9937 82.9293 50.0977 79.09 47.7263 74.44C47.307 73.6637 46.9553 72.8528 46.675 72.0163C46.6579 72.0029 46.6295 72.0678 46.5676 72.1485C44.9779 74.2301 42.11 75.0933 39.5237 75.0723C39.3847 75.0859 39.2445 75.0642 39.116 75.0096C40.8945 81.9229 44.6867 88.8801 50.1731 93.3988C50.2052 93.4233 50.2313 93.4549 50.2493 93.4911C50.2672 93.5274 50.2766 93.5674 50.2766 93.6079C50.2766 93.6483 50.2672 93.6882 50.2493 93.7245C50.2313 93.7607 50.2052 93.7923 50.1731 93.8169C53.88 97.0023 58.1718 99.4356 62.8086 100.981Z" fill="#1E9993"/>
<path d="M77.3233 92.2916C78.3796 92.541 79.4916 92.3622 80.4164 91.7941C81.3412 91.2261 82.0036 90.315 82.2587 89.2602C82.3456 88.7647 82.3799 88.2614 82.3609 87.7587V86.0511C81.0825 86.627 79.6935 86.9166 78.2913 86.8997C76.8891 86.8827 75.5076 86.5594 74.2434 85.9525V88.1544C74.2224 88.9395 74.4138 89.7158 74.7974 90.4011C75.0724 90.8676 75.4373 91.275 75.8709 91.5994C76.3045 91.924 76.7982 92.1592 77.3233 92.2916Z" fill="#F6F6F6"/>
<path d="M92.7069 76.5278C92.3336 75.9489 91.7672 75.521 91.1083 75.3202C90.4494 75.1194 89.7407 75.1586 89.108 75.431C89.0614 75.4432 89.0127 75.4448 88.9655 75.4354C88.9183 75.426 88.8738 75.406 88.8356 75.3768C88.7973 75.3476 88.7662 75.3101 88.7445 75.2671C88.7228 75.2241 88.7113 75.1767 88.7108 75.1286C88.7076 72.668 87.8128 70.2918 86.1923 68.4402C82.2351 64.0566 75.5317 64.7144 71.7499 69.4108C67.7838 74.3386 68.5939 81.991 73.9287 85.0747C78.8603 87.9239 84.8962 85.4652 87.4907 80.3589C87.5155 80.3182 87.5492 80.2836 87.5891 80.2578C87.629 80.2319 87.6743 80.2152 87.7215 80.2092C87.7687 80.203 87.8167 80.2076 87.862 80.2226C87.9072 80.2375 87.9484 80.2624 87.9828 80.2954C88.5896 80.7421 89.3359 80.9576 90.0874 80.9029C90.839 80.8481 91.5463 80.5268 92.0819 79.9968C92.558 79.5711 92.8781 78.9984 92.9913 78.3698C93.1046 77.7413 93.0045 77.0929 92.7069 76.5278ZM47.3242 63.8931C46.7534 64.6024 46.312 65.4066 46.0197 66.2689C45.9977 66.3491 45.9447 66.4173 45.8724 66.4584C45.8 66.4994 45.7144 66.5101 45.6341 66.488C45.5539 66.466 45.4858 66.4129 45.4447 66.3406C45.4036 66.2682 45.3929 66.1826 45.415 66.1024C45.4545 65.9396 45.3231 65.6962 45.2865 65.5349C45.0994 64.578 44.8644 63.6311 44.5825 62.6977C44.3817 61.7344 43.8942 60.8544 43.184 60.1733C42.9697 60.0135 42.4799 59.7007 42.3358 60.0702C42.2355 60.4431 42.2079 60.8316 42.2544 61.2148C42.2813 62.22 42.3833 63.222 42.5598 64.2119C42.6007 64.2574 42.6281 64.3136 42.6387 64.374C42.6493 64.4342 42.6428 64.4963 42.62 64.5532C42.5971 64.6099 42.5588 64.6592 42.5094 64.6954C42.4599 64.7315 42.4013 64.7531 42.3403 64.7577C40.7287 64.7551 39.1595 65.2739 37.8672 66.2368C37.4106 66.6557 37.0595 67.1764 36.8422 67.7566C36.6248 68.3368 36.5475 68.9601 36.6165 69.5758C36.6654 69.6016 36.7059 69.641 36.733 69.6893C37.1593 70.4472 38.2442 71.871 39.0633 71.5664C39.3941 71.4431 39.4104 70.8301 39.3978 70.477C39.3377 69.5842 39.1454 68.7053 38.8273 67.8689C38.7086 67.5352 39.2589 67.3045 39.3992 67.6278C39.7764 68.4894 40.6775 69.861 41.6101 69.7184C41.9031 69.6522 42.1629 69.4838 42.343 69.2435C42.523 69.003 42.6116 68.7063 42.5926 68.4066C42.5754 67.3416 42.3335 66.2923 41.8826 65.3274C41.7161 64.963 42.2559 64.645 42.4239 65.0116C42.9144 66.0844 43.4251 67.795 43.1407 68.9628C43.059 69.3495 42.849 69.6972 42.5449 69.9495C42.2408 70.2019 41.8603 70.3441 41.4652 70.353C41.1716 70.3346 40.8848 70.2578 40.6212 70.127C40.3577 69.9963 40.123 69.8142 39.9308 69.5915C40.1182 70.6435 40.1922 72.1301 38.9371 72.2249C38.5472 72.2005 38.1682 72.0868 37.8293 71.8926C37.4903 71.6984 37.2005 71.4289 36.9824 71.1049C37.5233 72.3895 38.3532 73.5321 39.4075 74.444C42.0864 74.5231 45.1402 73.5427 46.5006 71.1378C46.98 69.755 48.3366 65.1504 47.6049 63.8998C47.5452 63.7982 47.5213 63.7101 47.3242 63.8931ZM78.7669 122.419C76.2283 122.27 73.8891 124.126 73.173 127.028C73.0476 127.436 73.0116 127.866 73.0678 128.288C74.2265 127.873 76.7802 125.675 77.7059 124.871C78.0046 124.608 78.4347 125.02 78.1494 125.313C77.3035 126.173 75.3697 128.467 75.3966 129.7C75.41 130.318 75.8199 130.208 76.4419 129.911C77.8393 129.138 79.1247 128.178 80.2625 127.056C80.317 127.004 80.3881 126.974 80.463 126.971C80.5379 126.967 80.6117 126.991 80.671 127.037C80.7303 127.082 80.7714 127.148 80.7869 127.221C80.8024 127.295 80.7912 127.37 80.7552 127.437C80.135 128.432 79.6529 129.506 79.3217 130.631C79.247 131.106 79.3068 131.169 79.8899 131.054C81.6963 130.499 83.4449 129.772 85.1111 128.881C84.0682 125.83 81.9798 122.613 78.7669 122.419Z" fill="#F6F6F6"/>
<path d="M111.677 117.341L112.349 127.213C115.694 127.662 119.082 127.704 122.437 127.339C122.478 127.334 122.52 127.337 122.559 127.349C122.598 127.363 122.633 127.385 122.661 127.414V117.318L111.677 117.341Z" fill="#77E4DF"/>
<path d="M38.635 123.742L38.5387 123.125H4.6596C4.57917 123.129 4.50334 123.164 4.44781 123.222C4.39227 123.281 4.3613 123.358 4.3613 123.439C4.3613 123.519 4.39227 123.596 4.44781 123.655C4.50334 123.713 4.57917 123.748 4.6596 123.752C41.1109 123.752 38.5259 123.758 38.635 123.742ZM145.917 123.125H122.667V123.752H145.917C145.997 123.748 146.073 123.713 146.129 123.655C146.184 123.596 146.215 123.519 146.215 123.439C146.215 123.358 146.184 123.281 146.129 123.222C146.073 123.164 145.997 123.129 145.917 123.125ZM112.115 123.752L112.072 123.125C112.072 123.125 105.109 123.12 104.702 123.114C104.409 123.323 104.085 123.537 103.74 123.752H112.115ZM122.441 127.34C119.095 127.715 115.717 127.672 112.382 127.212C112.002 127.152 111.811 127.76 112.216 127.815C115.605 128.29 119.039 128.341 122.441 127.965C122.837 127.922 122.84 127.296 122.441 127.34ZM111.662 117.33H122.686C122.766 117.324 122.842 117.288 122.898 117.229C122.952 117.17 122.984 117.092 122.984 117.011C122.984 116.93 122.952 116.852 122.898 116.793C122.842 116.733 122.766 116.697 122.686 116.692L111.662 116.715C111.58 116.715 111.502 116.747 111.445 116.804C111.387 116.863 111.354 116.941 111.354 117.022C111.354 117.104 111.387 117.182 111.445 117.239C111.502 117.298 111.58 117.33 111.662 117.33ZM35.9075 126.72C32.3125 126.742 28.7188 126.577 25.1409 126.227C24.7399 126.188 24.7421 126.815 25.1409 126.854C28.7188 127.204 32.3125 127.368 35.9075 127.346C35.9879 127.342 36.0637 127.307 36.1193 127.249C36.1748 127.191 36.2058 127.113 36.2058 127.033C36.2058 126.953 36.1748 126.875 36.1193 126.817C36.0637 126.758 35.9879 126.724 35.9075 126.72ZM40.1731 130.155L34.0954 130.244C34.015 130.249 33.9391 130.283 33.8836 130.341C33.8281 130.4 33.7971 130.478 33.7971 130.558C33.7971 130.638 33.8281 130.715 33.8836 130.774C33.9391 130.832 34.015 130.867 34.0954 130.871L40.1731 130.781C40.2563 130.781 40.336 130.748 40.3948 130.69C40.4536 130.631 40.4867 130.551 40.4867 130.468C40.4867 130.384 40.4536 130.304 40.3948 130.246C40.336 130.188 40.2563 130.155 40.1731 130.155ZM109.805 128.134C107.731 127.779 105.627 127.624 103.525 127.674C103.442 127.674 103.362 127.707 103.304 127.766C103.244 127.824 103.211 127.904 103.211 127.987C103.211 128.069 103.244 128.149 103.304 128.208C103.362 128.267 103.442 128.299 103.525 128.299C105.572 128.248 107.619 128.395 109.638 128.738C110.032 128.805 110.202 128.202 109.805 128.134ZM130.093 130.03C126.688 129.646 123.273 129.377 119.847 129.221C119.444 129.203 119.445 129.83 119.847 129.848C123.27 130.002 126.686 130.271 130.093 130.657C130.489 130.702 130.486 130.075 130.093 130.03Z" fill="#004860"/>
<path d="M97.8008 134.734C97.8008 135.22 95.1712 134.67 94.874 134.596C94.3472 134.37 93.7812 134.251 93.2082 134.244C92.6782 134.329 92.3675 134.755 92.0188 134.777C91.5932 134.8 91.4365 134.422 90.4435 134.839C89.6583 135.203 88.8532 135.522 88.0318 135.795C87.7646 135.925 87.4582 135.946 87.1753 135.856C86.9784 135.736 86.7637 135.646 86.5392 135.592C85.7381 135.488 85.4081 136.285 84.8002 136.464C84.6959 136.488 84.5875 136.489 84.4825 136.469C84.3774 136.448 84.2779 136.405 84.1903 136.343C84.1028 136.282 84.0292 136.202 83.9744 136.11C83.9196 136.018 83.8848 135.916 83.8722 135.81C83.8497 135.73 83.7967 135.662 83.7245 135.621C83.6525 135.58 83.5671 135.568 83.4869 135.59C83.4079 135.614 83.3411 135.668 83.3004 135.74C83.2596 135.811 83.2481 135.895 83.2682 135.976C83.3099 136.208 83.4111 136.426 83.5617 136.608C83.7123 136.79 83.9073 136.93 84.1279 137.014C84.3484 137.099 84.587 137.125 84.8206 137.09C85.0542 137.055 85.2748 136.96 85.461 136.815C85.7507 136.608 86.1562 136.095 86.5594 136.236C87.1231 136.435 87.1313 136.744 88.246 136.386C89.9633 135.831 90.4457 135.461 90.9572 135.317C91.5193 135.159 91.8202 135.639 92.5893 135.236C92.7973 135.087 93.0231 134.965 93.2613 134.871C93.5778 134.853 93.8936 134.915 94.1789 135.053C95.2089 135.375 96.2814 135.54 97.3604 135.542C97.8436 135.524 98.4287 135.304 98.4267 134.736C98.4209 134.656 98.3858 134.582 98.3284 134.528C98.27 134.473 98.1941 134.443 98.1142 134.443C98.0354 134.443 97.9585 134.473 97.9001 134.527C97.8417 134.581 97.8066 134.655 97.8008 134.734ZM84.9204 132.991C85.7597 133.202 86.2182 132.42 87.1081 132.465C87.9205 132.505 88.6851 132.861 89.4974 132.609C89.8767 132.493 90.2172 132.284 90.5898 132.15C91.4201 131.852 92.2556 132.275 93.0716 131.984C93.6741 131.769 94.0087 131.186 94.565 131.311C94.7973 131.375 95.0328 131.428 95.2705 131.469C95.7682 131.528 96.2727 131.459 96.7362 131.269C97.1043 131.119 96.9437 130.512 96.5696 130.665C95.3064 131.183 94.8352 130.543 94.1423 130.683C93.812 130.788 93.5069 130.96 93.2464 131.189C92.5146 131.699 91.7948 131.319 90.9235 131.429C90.0522 131.54 89.5713 132.134 88.6716 132.075C87.9616 132.03 87.0835 131.641 86.2593 131.965C85.9083 132.104 85.485 132.488 85.0892 132.387C85.009 132.365 84.9233 132.374 84.8507 132.415C84.7781 132.456 84.7249 132.524 84.7025 132.605C84.6801 132.685 84.6905 132.77 84.7314 132.843C84.7723 132.916 84.8403 132.969 84.9204 132.991ZM89.3302 78.4034L91.2715 77.2028C91.3077 77.1824 91.3396 77.155 91.3651 77.1221C91.3907 77.0893 91.4095 77.0517 91.4204 77.0115C91.4312 76.9713 91.4341 76.9294 91.4286 76.8881C91.4231 76.8469 91.4094 76.8071 91.3884 76.7712C91.3674 76.7352 91.3394 76.7039 91.3061 76.6789C91.2729 76.6539 91.235 76.6357 91.1946 76.6254C91.1543 76.6153 91.1123 76.6132 91.0712 76.6194C91.03 76.6255 90.9905 76.6398 90.9549 76.6615C90.3078 77.0627 89.6607 77.4629 89.0136 77.8621C88.9433 77.9048 88.8926 77.9734 88.8725 78.0531C88.8522 78.133 88.8642 78.2174 88.9058 78.2884C88.9472 78.3594 89.0151 78.4113 89.0944 78.4328C89.1739 78.4543 89.2584 78.4438 89.3302 78.4034ZM74.1688 70.3479C74.1929 70.2293 74.1834 70.1064 74.1415 69.993C74.0996 69.8795 74.0269 69.78 73.9315 69.7056C73.8362 69.6311 73.7219 69.5849 73.6017 69.5717C73.4814 69.5587 73.3599 69.5794 73.2508 69.6317C73.1417 69.6839 73.0493 69.7655 72.984 69.8673C72.9187 69.9691 72.8832 70.0872 72.8812 70.2081C72.8794 70.329 72.9112 70.4481 72.9732 70.5519C73.0353 70.6558 73.1251 70.7402 73.2325 70.7958C73.4162 70.8572 73.6165 70.8448 73.7912 70.7611C73.9659 70.6775 74.1013 70.5293 74.1688 70.3479ZM82.8396 73.2516C82.971 73.374 83.1375 73.4521 83.3158 73.4749C83.4939 73.4977 83.6748 73.4639 83.8328 73.3784C83.9908 73.2929 84.1179 73.16 84.1963 72.9984C84.2747 72.8368 84.3004 72.6545 84.2698 72.4776C84.2391 72.3006 84.1536 72.1376 84.0255 72.0118C83.8973 71.8859 83.7329 71.8034 83.5553 71.7761C83.3778 71.7486 83.1961 71.7776 83.036 71.859C82.8759 71.9403 82.7452 72.0699 82.6627 72.2294C82.5539 72.3895 82.5116 72.5855 82.5446 72.7762C82.5776 72.9669 82.6834 73.1373 82.8396 73.2516ZM74.1419 75.7416C74.1221 75.8216 74.1337 75.9062 74.1745 75.9779C74.2152 76.0496 74.2818 76.1029 74.3607 76.1269C74.7934 76.293 75.2447 76.4058 75.7047 76.4629C77.5824 76.7331 79.4983 76.4575 81.2239 75.6692C81.1822 76.4112 80.941 77.1282 80.5257 77.7445C80.1104 78.3609 79.5365 78.8537 78.8645 79.171C77.9555 79.5243 76.9755 79.6562 76.0056 79.5555C75.603 79.5286 75.6046 80.1528 76.0056 80.1819C79.4625 80.4112 81.4762 78.6886 81.8294 75.8342C81.8607 75.6154 81.8742 75.3944 81.8697 75.1734C81.8684 75.1188 81.8531 75.0654 81.8252 75.0185C81.7973 74.9715 81.7577 74.9326 81.7103 74.9054C81.663 74.8782 81.6094 74.8637 81.5548 74.8633C81.5001 74.863 81.4463 74.8767 81.3985 74.9032C78.7375 76.2016 75.9757 76.1306 74.5219 75.5229C74.4426 75.503 74.3586 75.5147 74.2878 75.5555C74.2169 75.5964 74.1646 75.6631 74.1419 75.7416ZM83.6572 69.5624C84.0245 69.6448 84.353 69.8493 84.589 70.1425C84.9977 70.7044 85.1997 71.3901 85.1609 72.0838C85.1609 72.1667 85.1939 72.2464 85.2525 72.3051C85.3112 72.3637 85.3907 72.3967 85.4738 72.3967C85.5567 72.3967 85.6363 72.3637 85.6949 72.3051C85.7536 72.2464 85.7866 72.1667 85.7866 72.0838C85.7798 70.3374 85.0116 69.3765 84.0521 69.0225C83.9784 68.993 83.9018 68.9709 83.8236 68.9568C83.7436 68.9374 83.6592 68.9492 83.5877 68.9899C83.5161 69.0305 83.4627 69.097 83.4384 69.1756C83.4165 69.2559 83.4273 69.3415 83.4682 69.4139C83.5092 69.4864 83.5771 69.5397 83.6572 69.5624ZM38.2991 74.2461C39.4741 79.3401 41.638 84.1536 44.6681 88.4137C46.1217 90.4289 47.8235 92.2529 49.7332 93.8426C50.0409 94.0949 50.4866 93.6552 50.1761 93.3991C44.7001 88.8886 40.902 81.9395 39.119 75.01C39.2475 75.0646 39.3877 75.0861 39.5267 75.0726C42.1779 75.0958 45.1026 74.199 46.678 72.0166C48.0262 75.5496 50.135 78.7428 52.855 81.3699C54.5247 83.0288 56.353 84.52 58.3137 85.8221C58.6482 86.046 58.9595 85.5018 58.6303 85.2808C55.4897 83.2246 52.727 80.6425 50.4635 77.6478C48.9849 75.7337 47.8514 73.5764 47.114 71.273C47.6782 69.6691 48.0888 68.0153 48.34 66.3339C48.4572 65.4782 48.6283 64.3284 48.1265 63.5541C48.039 63.3884 47.8906 63.2633 47.7124 63.2052C47.5344 63.1471 47.3406 63.1605 47.1723 63.2428C46.5729 63.7331 46.1121 64.3717 45.8357 65.0952C45.6864 64.3717 45.5371 63.6915 45.2235 62.6439C44.9892 61.5042 44.4066 60.4652 43.5563 59.6708C43.3666 59.4901 43.1293 59.3676 42.8722 59.3175C42.6151 59.2676 42.3491 59.2922 42.1055 59.3886C41.9371 59.5406 41.8063 59.7298 41.7239 59.9413C41.6415 60.1527 41.6096 60.3804 41.6306 60.6063C41.6292 61.7922 41.721 62.9763 41.9054 64.1477C40.887 64.2114 39.887 64.4498 38.9495 64.8525C34.9377 66.5743 35.2379 71.0198 38.2991 74.2461ZM37.8698 66.236C39.1622 65.2732 40.7313 64.7543 42.343 64.7569C42.4041 64.7524 42.4627 64.7308 42.512 64.6946C42.5615 64.6585 42.5998 64.6093 42.6226 64.5524C42.6455 64.4956 42.652 64.4334 42.6414 64.3732C42.6307 64.3128 42.6034 64.2568 42.5624 64.2112C42.3853 63.2213 42.2832 62.2194 42.2571 61.2141C42.2105 60.8309 42.2382 60.4423 42.3384 60.0696C42.4826 59.6962 42.9724 60.012 43.1867 60.1726C43.8968 60.8537 44.3843 61.7337 44.5851 62.697C45.0264 64.1365 45.1877 65.0975 45.2892 65.5343C45.3258 65.6948 45.4573 65.9389 45.4176 66.1017C45.4067 66.1414 45.4037 66.1829 45.4088 66.2238C45.4139 66.2646 45.427 66.3041 45.4473 66.3399C45.4677 66.3757 45.4949 66.4072 45.5275 66.4325C45.56 66.4577 45.5971 66.4764 45.6368 66.4873C45.6765 66.4983 45.718 66.5012 45.7588 66.4961C45.7997 66.4911 45.8392 66.4779 45.875 66.4576C45.9108 66.4373 45.9422 66.4101 45.9676 66.3776C45.9929 66.3451 46.0116 66.3079 46.0225 66.2682C46.3136 65.4059 46.7544 64.6017 47.3246 63.8924C47.4911 63.737 47.5217 63.7565 47.6046 63.8975C48.3079 65.1004 46.9386 69.8879 46.5003 71.1355C45.1458 73.5248 42.0869 74.5268 39.4071 74.4417C38.3535 73.5293 37.5238 72.3868 36.9821 71.1027C37.2003 71.4266 37.4901 71.6961 37.829 71.8903C38.1679 72.0845 38.547 72.1982 38.9367 72.2227C40.1918 72.1249 40.1187 70.6413 39.9306 69.5893C40.1227 69.812 40.3574 69.994 40.6209 70.1248C40.8844 70.2556 41.1713 70.3324 41.4649 70.3508C41.8602 70.3428 42.2411 70.2014 42.5458 69.9495C42.8505 69.6977 43.0611 69.3503 43.1434 68.9636C43.4271 67.7987 42.9194 66.0867 42.4266 65.0123C42.2586 64.6457 41.7187 64.9638 41.8853 65.3282C42.3371 66.2924 42.5784 67.3418 42.5931 68.4066C42.6122 68.7057 42.5243 69.002 42.3452 69.2422C42.1659 69.4826 41.9072 69.6514 41.615 69.7184C40.6817 69.8603 39.7804 68.4864 39.4042 67.6278C39.2638 67.3045 38.7135 67.5352 38.8323 67.8689C39.1309 68.7112 39.6005 70.3949 39.3302 71.2386C39.3143 71.3096 39.2825 71.376 39.2371 71.4327C39.1917 71.4896 39.1339 71.5352 39.0682 71.5664C38.5052 71.7762 37.9087 71.1968 37.5674 70.8279C36.8283 70.0267 36.8208 69.6855 36.6214 69.5758C36.552 68.9602 36.6289 68.3369 36.8459 67.7565C37.0628 67.1762 37.4136 66.6553 37.8698 66.236Z" fill="#001F29"/>
<path d="M61.5213 107.437C62.1197 103.76 63.5398 100.264 65.6761 97.2117C67.8123 94.1592 70.6095 91.6279 73.8597 89.8062C74.0723 90.4766 74.436 91.0894 74.9226 91.5972C75.4094 92.1051 76.0062 92.4944 76.6671 92.7353C76.2857 93.3757 75.9455 94.0398 75.6486 94.7236C74.2479 97.7923 73.4953 101.118 73.4378 104.491C73.4417 104.571 73.4764 104.647 73.5347 104.702C73.593 104.758 73.6704 104.789 73.751 104.789C73.8316 104.789 73.9089 104.758 73.9673 104.702C74.0256 104.647 74.0603 104.571 74.0642 104.491C74.1205 100.674 75.0979 96.9276 76.9135 93.57C76.9418 93.517 77.2121 93.0362 77.2868 92.916C78.4679 93.1752 79.7036 92.968 80.7357 92.3378C81.7678 91.7075 82.5165 90.7029 82.8254 89.5336C86.0293 90.075 89.7954 90.5207 92.9619 89.8913C94.1527 89.6539 95.711 89.4194 96.3359 88.2226C96.4984 87.9101 96.5938 87.567 96.6162 87.2156C96.6386 86.8641 96.5874 86.5118 96.4659 86.1812C96.1919 85.5472 95.8392 84.9501 95.4161 84.4042C94.2707 82.7264 94.6045 81.8074 94.7053 79.654C94.7964 77.7269 95.0943 76.4367 94.7799 74.1288C94.4027 70.8384 92.8662 67.7896 90.4456 65.5289C87.9064 63.3998 84.7803 62.0923 81.4814 61.7793C79.0536 61.4421 76.5801 61.7993 74.347 62.8096C72.1139 63.8199 70.2126 65.442 68.8631 67.4881C68.0582 68.8094 67.3925 70.2107 66.877 71.6694C66.2051 73.6966 66.7045 76.2493 66.1886 78.2055C65.6786 80.1416 63.5686 81.2384 63.9053 82.9549C64.0943 83.6219 64.524 84.195 65.1112 84.5632C65.8075 85.0115 66.5714 85.3448 67.3735 85.5503C68.2904 85.8333 72.4508 87.0764 73.6155 87.4035C73.5932 87.9963 73.6238 88.59 73.7066 89.1775C72.406 89.8548 71.1839 90.6731 70.0622 91.6175C65.1815 95.5241 61.9223 101.101 60.9143 107.271C60.8523 107.66 61.4549 107.83 61.5213 107.437ZM82.2586 89.2604C82.0036 90.3152 81.3412 91.2263 80.4164 91.7943C79.4916 92.3624 78.3796 92.5412 77.3233 92.2918C76.6494 92.1241 76.0299 91.7858 75.5244 91.3096C75.019 90.8334 74.6444 90.2352 74.4368 89.5725C74.3021 89.1118 74.2365 88.6338 74.242 88.1538V85.9527C75.5062 86.5601 76.8879 86.8836 78.2903 86.901C79.6928 86.9182 81.0821 86.6288 82.3609 86.0528C82.4274 87.1228 82.3933 88.1968 82.2586 89.2604ZM73.6155 84.885C68.5443 81.6678 67.8746 74.2244 71.7489 69.4108C72.8561 67.9743 74.3334 66.8661 76.0225 66.2052C77.7114 65.5442 79.5484 65.3554 81.3365 65.6589C85.5925 66.5258 88.644 70.3246 88.7127 75.1285C88.7132 75.1767 88.7248 75.2241 88.7464 75.2671C88.7681 75.3101 88.7992 75.3476 88.8375 75.3768C88.8758 75.4059 88.9202 75.4259 88.9674 75.4353C89.0146 75.4447 89.0634 75.4433 89.1099 75.431C89.743 75.1612 90.4509 75.1233 91.1091 75.3239C91.7673 75.5246 92.3338 75.9508 92.7088 76.5278C93.003 77.0936 93.1012 77.741 92.9881 78.3686C92.875 78.9962 92.557 79.5685 92.0838 79.996C91.5484 80.5263 90.8411 80.8478 90.0894 80.9025C89.3378 80.9573 88.5914 80.7417 87.9847 80.2947C87.9504 80.2616 87.9092 80.2368 87.8639 80.2218C87.8187 80.2069 87.7707 80.2023 87.7234 80.2083C87.6762 80.2145 87.6309 80.2311 87.591 80.257C87.5511 80.2829 87.5174 80.3175 87.4927 80.3582C84.8458 85.5653 78.5814 88.0358 73.6155 84.885Z" fill="#001F29"/>
<path d="M99.7165 125.571C97.8542 126.405 90.0332 129.808 87.9516 129.776C87.8806 129.776 87.532 129.706 87.4372 129.685C86.8991 129.59 86.389 129.376 85.9439 129.059C85.8881 129.009 85.835 128.957 85.7848 128.901C85.0538 126.422 83.3007 123.533 80.9062 122.363C85.5712 119.481 92.7996 116.081 98.4043 115.487C98.8005 115.445 98.8053 114.815 98.4043 114.86C97.5875 114.948 96.7761 115.078 95.9728 115.248C93.1774 112.426 91.2503 108.781 89.6652 105.179C88.0776 101.517 86.7857 97.7344 85.8019 93.8675C85.7071 93.4748 85.1031 93.6435 85.1972 94.0333C85.6414 95.8924 86.2164 97.7266 86.8264 99.5363C88.6183 104.837 91.4003 111.355 95.2575 115.412C90.2871 116.59 84.0735 119.605 80.1902 122.072C76.8355 120.958 73.4152 123.198 72.5288 126.982L72.0547 126.95V109.948C72.0528 109.866 72.0192 109.787 71.9608 109.729C71.9024 109.67 71.8237 109.636 71.7412 109.634L36.2867 106.328C36.0627 106.308 35.9567 106.544 35.988 106.724C39.583 129.831 39.3815 128.52 39.3882 128.57C39.391 128.603 39.4004 128.635 39.4159 128.665C39.4314 128.694 39.4526 128.72 39.4783 128.741C39.504 128.762 39.5337 128.778 39.5656 128.786C39.5974 128.795 39.6308 128.798 39.6637 128.794C39.6734 128.794 39.6809 128.801 39.6906 128.802C73.6138 132.317 71.771 132.186 71.9256 132.082C73.4368 131.579 77.4291 130.25 78.9381 129.742C78.9052 129.834 78.8634 129.924 78.838 130.017C78.7054 130.372 78.6631 130.755 78.7149 131.129C78.9067 131.928 79.8347 131.715 80.6053 131.485C82.2576 130.919 83.866 130.232 85.4174 129.431C86.1714 130.039 87.1051 130.383 88.074 130.408C90.2871 130.389 98.0129 127.02 100.034 126.114C100.399 125.948 100.078 125.408 99.7165 125.571ZM71.4186 131.463C70.4636 131.364 40.3021 128.226 39.9564 128.198C39.8548 127.544 36.6899 107.143 36.6712 106.993C36.6712 106.993 71.046 110.227 71.4201 110.248L71.4186 131.463ZM74.9651 130.404L72.0533 131.376V127.575L72.4266 127.602C72.3355 128.529 72.5505 129.17 73.3972 128.833C74.0111 128.563 74.5858 128.211 75.1055 127.788L75.4102 127.809C74.9808 128.565 74.488 129.682 74.9682 130.404H74.9651ZM79.3181 130.639C79.653 129.513 80.1366 128.436 80.7561 127.437C80.7921 127.371 80.8033 127.294 80.7878 127.221C80.7723 127.148 80.7312 127.083 80.6719 127.037C80.6125 126.99 80.5388 126.968 80.4639 126.972C80.389 126.975 80.3179 127.005 80.2634 127.056C79.1255 128.178 77.8401 129.138 76.4428 129.912C75.9059 130.169 75.4273 130.326 75.3975 129.733C75.3295 128.488 77.3178 126.16 78.1497 125.313C78.4356 125.023 78.0077 124.607 77.7061 124.871C76.8765 125.594 74.2341 127.871 73.0679 128.289C73.0218 128.029 73.023 127.763 73.0716 127.504C73.4667 125.151 75.1623 122.921 77.612 122.492C81.337 121.841 83.8883 125.306 85.1143 128.882C83.4484 129.742 81.7131 130.462 79.9266 131.032C79.3346 131.159 79.2465 131.084 79.3211 130.639H79.3181Z" fill="#001F29"/>
<path d="M51.4752 116.721C51.4449 116.778 51.4327 116.843 51.44 116.907C51.4473 116.971 51.474 117.031 51.5162 117.079C51.5586 117.128 51.6146 117.163 51.677 117.178C51.7394 117.195 51.8052 117.191 51.8657 117.169C51.9875 117.121 51.9867 117.071 52.124 116.879C52.2845 116.679 52.474 116.505 52.6863 116.362C52.9911 116.153 53.3435 116.026 53.7108 115.99C54.0782 115.955 54.4484 116.013 54.7874 116.159C55.1114 116.35 55.3772 116.625 55.5559 116.956C55.7347 117.286 55.8194 117.66 55.8013 118.036C55.7035 119.441 53.5173 119.876 52.8147 118.63C52.7712 118.561 52.7029 118.512 52.624 118.494C52.5453 118.474 52.4621 118.486 52.3921 118.527C52.322 118.568 52.2706 118.635 52.2485 118.713C52.2264 118.79 52.2353 118.874 52.2734 118.945C52.5048 119.296 52.8275 119.576 53.2066 119.757C53.5858 119.937 54.007 120.011 54.4249 119.969C54.8429 119.928 55.2415 119.774 55.5779 119.522C55.9143 119.27 56.1755 118.932 56.3336 118.543C56.4542 118.079 56.4448 117.59 56.3064 117.132C56.168 116.672 55.9059 116.26 55.5489 115.94C55.2372 115.704 54.8793 115.536 54.4984 115.447C54.1176 115.358 53.7223 115.35 53.3383 115.424C52.9541 115.497 52.5898 115.651 52.2689 115.875C51.9479 116.098 51.6775 116.386 51.4752 116.721ZM78.126 140.139C77.4727 140.233 77.2046 139.921 76.8463 139.923C76.4879 139.926 76.2699 140.351 75.7965 140.058C75.4531 139.845 75.1379 140.388 75.4807 140.599C75.6929 140.732 75.9415 140.795 76.1914 140.779C76.4264 140.761 76.6527 140.682 76.8485 140.552C77.3032 140.746 77.8027 140.812 78.2925 140.743C78.3724 140.721 78.4402 140.667 78.4812 140.595C78.5223 140.523 78.5334 140.438 78.512 140.358C78.4881 140.279 78.4346 140.212 78.3628 140.171C78.2909 140.13 78.2061 140.119 78.126 140.139ZM79.4887 136.773C75.4605 136.484 75.8152 136.534 75.7778 136.446C75.7355 136.375 75.6668 136.324 75.5866 136.302C75.5064 136.282 75.4212 136.293 75.3493 136.334C75.2789 136.377 75.228 136.446 75.207 136.526C75.186 136.606 75.1965 136.691 75.2365 136.764C75.3118 136.887 75.4197 136.99 75.5486 137.057C75.6773 137.125 75.8222 137.156 75.9674 137.147C76.0421 137.154 79.7194 137.416 79.4887 137.399C79.8911 137.429 79.8896 136.799 79.4887 136.773Z" fill="#001F29"/>
</svg>
