<svg width="85" height="85" viewBox="0 0 85 85" fill="none" xmlns="http://www.w3.org/2000/svg">
<path d="M42.9402 73.0314C59.8973 73.0314 73.6437 59.285 73.6437 42.3279C73.6437 25.3709 59.8973 11.6245 42.9402 11.6245C25.9832 11.6245 12.2368 25.3709 12.2368 42.3279C12.2368 59.285 25.9832 73.0314 42.9402 73.0314Z" fill="#CEE8E7"/>
<path d="M29.1936 75.9738C29.1936 75.9738 32.8292 65.162 47.9471 60.7609C56.7493 58.6562 54.2619 50.14 46.4161 51.48C39.9962 52.5761 36.2411 50.5219 36.0829 44.1129C35.9425 38.445 40.2376 30.4982 44.8019 27.438C50.5245 23.6005 46.3261 18.6467 42.0638 20.1895C36.3235 22.2672 31.6356 27.5591 29.6327 34.2491" stroke="#231F20" stroke-width="0.84119" stroke-miterlimit="10" stroke-linecap="round" stroke-linejoin="round"/>
<path d="M20.8929 38.4567C20.8929 38.4567 20.6624 27.4119 24.6017 19.1396C27.4719 13.1116 34.648 17.3218 31.8738 22.4884C29.4545 26.9938 29.6076 34.2726 29.6076 34.2726" stroke="#231F20" stroke-width="0.84119" stroke-miterlimit="10" stroke-linecap="round" stroke-linejoin="round"/>
<path d="M20.854 38.3726C20.854 38.3726 19.4332 33.6182 19.1094 27.613C18.8604 22.9915 12.7062 21.2712 11.4924 27.1772C10.0573 34.1616 15.4157 43.0606 13.502 50.8104C11.5883 58.5603 5.36938 66.9798 5.36938 66.9798" stroke="#231F20" stroke-width="0.84119" stroke-miterlimit="10" stroke-linecap="round" stroke-linejoin="round"/>
<path d="M78.4039 51.0351H45.6875C44.7538 51.0351 43.9958 50.278 43.9958 49.3435V28.9942C43.9958 28.0605 44.7529 27.3026 45.6875 27.3026H78.4039C79.3376 27.3026 80.0955 28.0597 80.0955 28.9942V49.3435C80.0955 50.278 79.3384 51.0351 78.4039 51.0351Z" stroke="#231F20" stroke-width="0.84119" stroke-miterlimit="10" stroke-linecap="round" stroke-linejoin="round"/>
<path d="M76.7931 30.8961H47.2993V45.1837H76.7931V30.8961Z" stroke="#231F20" stroke-width="0.84119" stroke-miterlimit="10" stroke-linecap="round" stroke-linejoin="round"/>
<path d="M72.0398 51.035H52.0522L53.6404 45.1837H70.4524L72.0398 51.035Z" stroke="#231F20" stroke-width="0.84119" stroke-miterlimit="10" stroke-linecap="round" stroke-linejoin="round"/>
<path d="M66.1883 36.0636H57.9043V39.9398H66.1883V36.0636Z" stroke="#231F20" stroke-width="0.84119" stroke-miterlimit="10" stroke-linecap="round" stroke-linejoin="round"/>
<path d="M53.6101 40.2443C54.8904 40.2443 55.9284 39.2064 55.9284 37.926C55.9284 36.6456 54.8904 35.6077 53.6101 35.6077C52.3297 35.6077 51.2917 36.6456 51.2917 37.926C51.2917 39.2064 52.3297 40.2443 53.6101 40.2443Z" stroke="#231F20" stroke-width="0.84119" stroke-miterlimit="10" stroke-linecap="round" stroke-linejoin="round"/>
<path d="M70.4819 40.2443C71.7623 40.2443 72.8002 39.2064 72.8002 37.926C72.8002 36.6456 71.7623 35.6077 70.4819 35.6077C69.2015 35.6077 68.1636 36.6456 68.1636 37.926C68.1636 39.2064 69.2015 40.2443 70.4819 40.2443Z" stroke="#231F20" stroke-width="0.84119" stroke-miterlimit="10" stroke-linecap="round" stroke-linejoin="round"/>
</svg>
