<svg width="99" height="98" viewBox="0 0 99 98" fill="none" xmlns="http://www.w3.org/2000/svg">
<g clip-path="url(#clip0_4864_58272)">
<path d="M63.6094 82.5676C72.3188 78.695 79.2759 71.7207 83.1269 63.0018C88.953 49.9542 87.4616 33.9073 73.5722 22.7618C54.9478 7.80732 27.6241 12.2343 17.9874 34.9851C16.5816 38.3119 15.6923 41.8339 15.3505 45.4293C25.3448 44.5487 35.2868 47.6152 43.0487 53.9724C47.7383 57.5101 51.3678 62.2662 53.5424 67.7232C55.717 73.1802 56.3533 79.1291 55.3821 84.9226C57.7861 84.5636 62.2641 83.687 63.6094 82.5676Z" fill="#E8F5F4"/>
<path d="M43.0419 53.9705C35.2806 47.6127 25.3389 44.5455 15.3446 45.4253C14.5756 53.0285 16.2178 60.681 20.0386 67.2993C23.8595 73.9176 29.6654 79.1663 36.6343 82.3022C42.5149 84.9086 49.0091 85.812 55.3778 84.9094C56.3465 79.1175 55.6749 73.2046 53.5 67.7498C51.3251 62.2949 47.7301 57.507 43.0419 53.9705Z" fill="#E8F5F4"/>
<path d="M50.7762 43.9607L50.9741 44.329L51.2049 43.9804L51.2051 43.9801L51.2058 43.979L51.2091 43.9741L51.2227 43.9539C51.2348 43.9359 51.2532 43.9088 51.2775 43.8735C51.3262 43.8027 51.3988 43.6986 51.4939 43.5662C51.6841 43.3013 51.9641 42.9235 52.3217 42.4734C53.0375 41.5728 54.0623 40.3857 55.3002 39.2368C57.7918 36.9242 61.0764 34.8314 64.4115 35.4073C67.7329 35.9808 71.309 39.6029 70.5881 45.3864C69.8678 51.1651 64.8446 59.1435 50.8519 68.3223C50.8054 68.2898 50.7475 68.2492 50.6788 68.2007C50.4764 68.0578 50.1804 67.8466 49.8071 67.5741C49.0604 67.0288 48.0044 66.2382 46.7684 65.2572C44.2957 63.2945 41.1068 60.5731 38.2343 57.5339C35.358 54.4906 32.8169 51.1472 31.6172 47.9416C31.0183 46.3413 30.7582 44.787 30.9479 43.3273C31.1371 41.8717 31.7753 40.4951 32.9992 39.2465C35.486 36.7096 37.8231 35.7604 39.919 35.7267C42.0209 35.693 43.9243 36.5791 45.5396 37.7985C47.1546 39.0178 48.4647 40.5577 49.3729 41.7979C49.8264 42.4171 50.1781 42.9594 50.4161 43.3464C50.5351 43.5398 50.6256 43.6943 50.6862 43.8C50.7164 43.8529 50.7392 43.8935 50.7543 43.9207L50.7711 43.9512L50.7751 43.9587L50.776 43.9604L50.7762 43.9607Z" fill="#77E4DF" stroke="black" stroke-width="0.5"/>
</g>
<defs>
<clipPath id="clip0_4864_58272">
<rect width="74.6473" height="74.6473" fill="white" transform="translate(29.8672) rotate(23.164)"/>
</clipPath>
</defs>
</svg>
