<svg width="100" height="13" viewBox="0 0 100 13" fill="none" xmlns="http://www.w3.org/2000/svg">
<path d="M4.8065 11V5.416H7.0305C7.53183 5.416 7.91583 5.56 8.1825 5.848C8.4545 6.13067 8.5905 6.52 8.5905 7.016C8.5905 7.512 8.4545 7.904 8.1825 8.192C7.91583 8.47467 7.53183 8.616 7.0305 8.616H5.4785V11H4.8065ZM5.4785 8.024H7.0305C7.29717 8.024 7.5025 7.95467 7.6465 7.816C7.79583 7.67733 7.8705 7.48 7.8705 7.224V6.808C7.8705 6.552 7.79583 6.35467 7.6465 6.216C7.5025 6.07733 7.29717 6.008 7.0305 6.008H5.4785V8.024ZM10.9978 11.096C10.7205 11.096 10.4671 11.0453 10.2378 10.944C10.0085 10.8427 9.81115 10.6987 9.64581 10.512C9.48581 10.32 9.36048 10.0933 9.26981 9.832C9.17915 9.56533 9.13381 9.26667 9.13381 8.936C9.13381 8.61067 9.17915 8.31467 9.26981 8.048C9.36048 7.78133 9.48581 7.55467 9.64581 7.368C9.81115 7.176 10.0085 7.02933 10.2378 6.928C10.4671 6.82667 10.7205 6.776 10.9978 6.776C11.2751 6.776 11.5258 6.82667 11.7498 6.928C11.9791 7.02933 12.1765 7.176 12.3418 7.368C12.5071 7.55467 12.6351 7.78133 12.7258 8.048C12.8165 8.31467 12.8618 8.61067 12.8618 8.936C12.8618 9.26667 12.8165 9.56533 12.7258 9.832C12.6351 10.0933 12.5071 10.32 12.3418 10.512C12.1765 10.6987 11.9791 10.8427 11.7498 10.944C11.5258 11.0453 11.2751 11.096 10.9978 11.096ZM10.9978 10.528C11.3445 10.528 11.6271 10.4213 11.8458 10.208C12.0645 9.99467 12.1738 9.66933 12.1738 9.232V8.64C12.1738 8.20267 12.0645 7.87733 11.8458 7.664C11.6271 7.45067 11.3445 7.344 10.9978 7.344C10.6511 7.344 10.3685 7.45067 10.1498 7.664C9.93115 7.87733 9.82181 8.20267 9.82181 8.64V9.232C9.82181 9.66933 9.93115 9.99467 10.1498 10.208C10.3685 10.4213 10.6511 10.528 10.9978 10.528ZM13.4433 6.872H14.0673L14.5073 8.656L14.9473 10.464H14.9633L15.4673 8.656L15.9873 6.872H16.5553L17.0913 8.656L17.6033 10.464H17.6193L18.0433 8.656L18.4913 6.872H19.0913L17.9953 11H17.2033L16.6273 9.016L16.2673 7.76H16.2513L15.8993 9.016L15.3233 11H14.5473L13.4433 6.872ZM21.5289 11.096C21.2462 11.096 20.9902 11.0453 20.7609 10.944C20.5369 10.8427 20.3422 10.6987 20.1769 10.512C20.0169 10.32 19.8915 10.0933 19.8009 9.832C19.7155 9.56533 19.6729 9.26667 19.6729 8.936C19.6729 8.61067 19.7155 8.31467 19.8009 8.048C19.8915 7.78133 20.0169 7.55467 20.1769 7.368C20.3422 7.176 20.5369 7.02933 20.7609 6.928C20.9902 6.82667 21.2462 6.776 21.5289 6.776C21.8062 6.776 22.0542 6.82667 22.2729 6.928C22.4915 7.02933 22.6782 7.17067 22.8329 7.352C22.9875 7.528 23.1049 7.73867 23.1849 7.984C23.2702 8.22933 23.3129 8.49867 23.3129 8.792V9.096H20.3449V9.288C20.3449 9.464 20.3715 9.62933 20.4249 9.784C20.4835 9.93333 20.5635 10.064 20.6649 10.176C20.7715 10.288 20.8995 10.376 21.0489 10.44C21.2035 10.504 21.3769 10.536 21.5689 10.536C21.8302 10.536 22.0569 10.4747 22.2489 10.352C22.4462 10.2293 22.5982 10.0533 22.7049 9.824L23.1609 10.152C23.0275 10.4347 22.8195 10.664 22.5369 10.84C22.2542 11.0107 21.9182 11.096 21.5289 11.096ZM21.5289 7.312C21.3529 7.312 21.1929 7.344 21.0489 7.408C20.9049 7.46667 20.7795 7.552 20.6729 7.664C20.5715 7.776 20.4915 7.90933 20.4329 8.064C20.3742 8.21333 20.3449 8.37867 20.3449 8.56V8.616H22.6249V8.528C22.6249 8.16 22.5235 7.86667 22.3209 7.648C22.1235 7.424 21.8595 7.312 21.5289 7.312ZM24.3675 11V6.872H25.0075V7.632H25.0475C25.1222 7.43467 25.2555 7.25867 25.4475 7.104C25.6395 6.94933 25.9035 6.872 26.2395 6.872H26.4875V7.512H26.1115C25.7648 7.512 25.4928 7.57867 25.2955 7.712C25.1035 7.84 25.0075 8.00267 25.0075 8.2V11H24.3675ZM28.8179 11.096C28.5353 11.096 28.2793 11.0453 28.0499 10.944C27.8259 10.8427 27.6313 10.6987 27.4659 10.512C27.3059 10.32 27.1806 10.0933 27.0899 9.832C27.0046 9.56533 26.9619 9.26667 26.9619 8.936C26.9619 8.61067 27.0046 8.31467 27.0899 8.048C27.1806 7.78133 27.3059 7.55467 27.4659 7.368C27.6313 7.176 27.8259 7.02933 28.0499 6.928C28.2793 6.82667 28.5353 6.776 28.8179 6.776C29.0953 6.776 29.3433 6.82667 29.5619 6.928C29.7806 7.02933 29.9673 7.17067 30.1219 7.352C30.2766 7.528 30.3939 7.73867 30.4739 7.984C30.5593 8.22933 30.6019 8.49867 30.6019 8.792V9.096H27.6339V9.288C27.6339 9.464 27.6606 9.62933 27.7139 9.784C27.7726 9.93333 27.8526 10.064 27.9539 10.176C28.0606 10.288 28.1886 10.376 28.3379 10.44C28.4926 10.504 28.6659 10.536 28.8579 10.536C29.1193 10.536 29.3459 10.4747 29.5379 10.352C29.7353 10.2293 29.8873 10.0533 29.9939 9.824L30.4499 10.152C30.3166 10.4347 30.1086 10.664 29.8259 10.84C29.5433 11.0107 29.2073 11.096 28.8179 11.096ZM28.8179 7.312C28.6419 7.312 28.4819 7.344 28.3379 7.408C28.1939 7.46667 28.0686 7.552 27.9619 7.664C27.8606 7.776 27.7806 7.90933 27.7219 8.064C27.6633 8.21333 27.6339 8.37867 27.6339 8.56V8.616H29.9139V8.528C29.9139 8.16 29.8126 7.86667 29.6099 7.648C29.4126 7.424 29.1486 7.312 28.8179 7.312ZM34.2966 10.328H34.2646C34.0139 10.84 33.6112 11.096 33.0566 11.096C32.8006 11.096 32.5686 11.0453 32.3606 10.944C32.1526 10.8427 31.9739 10.6987 31.8246 10.512C31.6806 10.3253 31.5686 10.0987 31.4886 9.832C31.4139 9.56533 31.3766 9.26667 31.3766 8.936C31.3766 8.60533 31.4139 8.30667 31.4886 8.04C31.5686 7.77333 31.6806 7.54667 31.8246 7.36C31.9739 7.17333 32.1526 7.02933 32.3606 6.928C32.5686 6.82667 32.8006 6.776 33.0566 6.776C33.3446 6.776 33.5899 6.84 33.7926 6.968C34.0006 7.09067 34.1579 7.28267 34.2646 7.544H34.2966V5.08H34.9366V11H34.2966V10.328ZM33.2326 10.52C33.3766 10.52 33.5126 10.5013 33.6406 10.464C33.7739 10.4267 33.8886 10.3733 33.9846 10.304C34.0806 10.2293 34.1552 10.1413 34.2086 10.04C34.2672 9.93333 34.2966 9.81333 34.2966 9.68V8.144C34.2966 8.032 34.2672 7.928 34.2086 7.832C34.1552 7.73067 34.0806 7.64533 33.9846 7.576C33.8886 7.50667 33.7739 7.45333 33.6406 7.416C33.5126 7.37333 33.3766 7.352 33.2326 7.352C32.8699 7.352 32.5846 7.46667 32.3766 7.696C32.1686 7.92 32.0646 8.216 32.0646 8.584V9.288C32.0646 9.656 32.1686 9.95467 32.3766 10.184C32.5846 10.408 32.8699 10.52 33.2326 10.52ZM38.1878 5.08H38.8278V7.544H38.8598C38.9665 7.28267 39.1211 7.09067 39.3238 6.968C39.5318 6.84 39.7798 6.776 40.0678 6.776C40.3238 6.776 40.5558 6.82667 40.7638 6.928C40.9718 7.02933 41.1478 7.17333 41.2918 7.36C41.4411 7.54667 41.5531 7.77333 41.6278 8.04C41.7078 8.30667 41.7478 8.60533 41.7478 8.936C41.7478 9.26667 41.7078 9.56533 41.6278 9.832C41.5531 10.0987 41.4411 10.3253 41.2918 10.512C41.1478 10.6987 40.9718 10.8427 40.7638 10.944C40.5558 11.0453 40.3238 11.096 40.0678 11.096C39.5078 11.096 39.1051 10.84 38.8598 10.328H38.8278V11H38.1878V5.08ZM39.8918 10.52C40.2545 10.52 40.5398 10.408 40.7478 10.184C40.9558 9.95467 41.0598 9.656 41.0598 9.288V8.584C41.0598 8.216 40.9558 7.92 40.7478 7.696C40.5398 7.46667 40.2545 7.352 39.8918 7.352C39.7478 7.352 39.6091 7.37333 39.4758 7.416C39.3478 7.45333 39.2358 7.50667 39.1398 7.576C39.0438 7.64533 38.9665 7.73067 38.9078 7.832C38.8545 7.928 38.8278 8.032 38.8278 8.144V9.68C38.8278 9.81333 38.8545 9.93333 38.9078 10.04C38.9665 10.1413 39.0438 10.2293 39.1398 10.304C39.2358 10.3733 39.3478 10.4267 39.4758 10.464C39.6091 10.5013 39.7478 10.52 39.8918 10.52ZM45.3334 6.872H45.9654L44.1174 11.96C44.0694 12.0827 44.0214 12.184 43.9734 12.264C43.9254 12.3493 43.8667 12.416 43.7974 12.464C43.728 12.512 43.64 12.5467 43.5334 12.568C43.432 12.5893 43.3067 12.6 43.1574 12.6H42.8294V12.04H43.4774L43.7894 11.16L42.2454 6.872H42.8854L43.8774 9.68L44.0694 10.352H44.1094L44.3334 9.68L45.3334 6.872Z" fill="#898F94"/>
<path d="M49.0625 4.6875L54.9356 12H56.75L50.8734 4.6875H49.0625Z" fill="#898F94"/>
<path d="M50.5163 10.5302V7.61794L50.0462 6.9375V10.5302C50.0462 11.5509 50.016 11.7074 49.0625 11.8197V12H51.5V11.8197C50.5431 11.7074 50.5163 11.5577 50.5163 10.5302Z" fill="#898F94"/>
<path d="M54.3125 4.69091C55.2673 4.80404 55.2976 4.96313 55.2976 6.03081V9.04293L55.7649 9.75V6.03081C55.7649 4.9702 55.7952 4.80404 56.75 4.69091V4.5H54.3125V4.69091Z" fill="#898F94"/>
<path d="M63.0931 11.3124C60.8788 11.3124 59.446 9.54859 59.446 6.56428C59.446 3.05049 61.2353 1.64429 62.9663 1.64429C64.6973 1.64429 65.7976 2.44538 66.3255 4.84177H66.586L66.2844 1.6993C65.3146 1.31419 64.2801 1.11928 63.2371 1.12513C60.2481 1.12513 57.6875 3.18802 57.6875 6.55053C57.6875 9.51765 59.5762 12 62.8292 12C65.2046 12 66.6923 10.4941 67.0625 9.01568L66.6786 8.87471C66.1212 10.3781 64.671 11.3584 63.0726 11.3124" fill="#898F94"/>
<path d="M74.5262 9.74513V6.6871C74.5262 4.79517 73.5647 3.96272 72.3137 3.96272C71.2799 3.96272 70.5287 4.6507 70.0255 5.25267V3.14404C70.0255 1.66489 70.0255 0.76021 70.0565 0L67.4375 0.877165V1.13516C68.5747 1.13516 68.5885 1.13515 68.5885 2.55582V9.74513C68.5885 11.2105 68.5885 11.4375 67.4375 11.5545V11.8125H71.1869V11.5545C70.0497 11.4375 70.0359 11.2105 70.0359 9.74513V5.64138C70.4197 5.17687 71.0015 4.9216 71.6039 4.9534C72.5963 4.9534 73.0995 5.64138 73.0995 6.96228V9.71418C73.0995 11.1796 73.0995 11.4066 71.9485 11.5235V11.7815H75.6875V11.5235C74.5503 11.4066 74.5365 11.1796 74.5365 9.71418" fill="#898F94"/>
<path fill-rule="evenodd" clip-rule="evenodd" d="M81.7984 10.1185C81.7847 10.9188 81.9427 11.0493 82.3273 11.0493V11.0665C82.5629 11.041 82.7843 10.9411 82.9593 10.7814L83.1036 10.9223C83.0644 10.9697 83.0254 11.0181 82.9862 11.0668C82.6367 11.5001 82.2718 11.9527 81.6541 11.9527C81.3576 11.9734 81.0655 11.8716 80.846 11.671C80.6266 11.4704 80.4991 11.1886 80.4932 10.8913C80.1675 11.201 79.8133 11.4793 79.4353 11.7225C79.0696 11.9313 78.6497 12.0258 78.2298 11.9939C77.1684 11.9939 75.9663 11.2348 75.9663 10.1014C75.9663 9.17057 76.77 8.64163 78.2744 7.91004C78.6591 7.72457 79.4491 7.36392 80.5241 6.90711V6.56364C80.5241 5.05925 80.0055 4.52688 79.0472 4.52688C77.7283 4.52688 77.5428 5.41646 77.615 6.51899H76.1655C76.1655 5.31685 77.5428 3.97046 79.3907 3.97046C80.7233 3.97046 81.9117 4.48566 81.8705 6.40565L81.7984 10.1185ZM79.0783 11.1628C79.6106 11.1301 80.1066 10.8821 80.4521 10.4758L80.4934 7.38118C79.7832 7.62113 79.1014 7.93785 78.46 8.32571C77.8418 8.71383 77.5292 9.0573 77.5704 9.67211C77.6186 10.4811 78.2687 11.1238 79.0783 11.1628Z" fill="#898F94"/>
<path d="M85.973 9.73849V7.08819C85.973 5.60774 85.973 4.70015 86.0007 3.9375L83.375 4.81403V5.07285C84.5131 5.07285 84.527 5.07285 84.527 6.49808V9.73849C84.527 11.2086 84.527 11.4363 83.375 11.5537V11.8125H87.125V11.5537C85.9869 11.4363 85.973 11.2086 85.973 9.73849Z" fill="#898F94"/>
<path d="M85.1702 2.24892C85.4382 2.25989 85.6988 2.15568 85.8911 1.96062C86.0834 1.76557 86.1905 1.49676 86.1874 1.21702C86.1895 0.937905 86.082 0.670058 85.8898 0.4758C85.6976 0.281543 85.4376 0.177814 85.1702 0.188749C84.8994 0.174896 84.6348 0.27673 84.4376 0.470762C84.2404 0.664795 84.1275 0.934268 84.125 1.21702C84.1276 1.50007 84.2403 1.76988 84.4374 1.96448C84.6345 2.15909 84.899 2.26176 85.1702 2.24892Z" fill="#898F94"/>
<path d="M94.7753 9.73849V6.67063C94.7753 4.77262 93.849 3.9375 92.5896 3.9375C91.5488 3.9375 90.7925 4.62768 90.286 5.23159L90.2652 3.9375L87.6875 4.81403V5.07285C88.8324 5.07285 88.8462 5.07285 88.8462 6.49808V9.73849C88.8462 11.2086 88.8462 11.4363 87.6875 11.5537V11.8125H91.4517V11.5537C90.3068 11.4363 90.2929 11.2086 90.2929 9.73849V5.62155C90.6793 5.15554 91.265 4.89946 91.8715 4.93136C92.9123 4.93136 93.3321 5.56288 93.3321 6.9467V9.70743C93.3321 11.1775 93.332 11.4053 92.1768 11.5226V11.7814H95.9375V11.5226C94.7961 11.4053 94.7822 11.1775 94.7822 9.70743" fill="#898F94"/>
</svg>
