<svg width="24" height="25" viewBox="0 0 24 25" fill="none" xmlns="http://www.w3.org/2000/svg">
<path d="M20.6875 10.843C20.8125 10.7493 21 10.843 21 10.9993V17.3743C21 18.218 20.3125 18.8743 19.5 18.8743H6.5C5.65625 18.8743 5 18.218 5 17.3743V10.9993C5 10.843 5.15625 10.7493 5.28125 10.843C6 11.4055 6.90625 12.093 10.0938 14.4055C10.75 14.8743 11.875 15.9055 13 15.9055C14.0938 15.9055 15.25 14.8743 15.875 14.4055C19.0625 12.093 19.9688 11.4055 20.6875 10.843ZM13 14.8743C12.25 14.9055 11.2188 13.968 10.6875 13.593C6.53125 10.593 6.21875 10.3118 5.28125 9.56177C5.09375 9.43677 5 9.21802 5 8.96802V8.37427C5 7.56177 5.65625 6.87427 6.5 6.87427H19.5C20.3125 6.87427 21 7.56177 21 8.37427V8.96802C21 9.21802 20.875 9.43677 20.6875 9.56177C19.75 10.3118 19.4375 10.593 15.2812 13.593C14.75 13.968 13.7188 14.9055 13 14.8743Z" fill="white"/>
</svg>
