<svg width="61" height="40" viewBox="0 0 61 40" fill="none" xmlns="http://www.w3.org/2000/svg">
<path d="M26.3203 4.6875V7.8125C26.3203 8.35938 25.8906 8.75 25.3828 8.75H21.4375C20.8906 8.75 20.5 8.35938 20.5 7.8125V4.6875C20.5 4.17969 20.8906 3.75 21.4375 3.75H25.3828C25.8906 3.75 26.3203 4.17969 26.3203 4.6875ZM33.3906 14.0625C33.3906 14.6094 32.9609 15 32.4531 15H28.5078C28 15 27.5703 14.6094 27.5703 14.0625V10.9375C27.5703 10.4297 28 10 28.5078 10H32.4531C32.9609 10 33.3906 10.4297 33.3906 10.9375V14.0625ZM34.6406 4.6875C34.6406 4.17969 35.0703 3.75 35.5781 3.75H39.5625C40.0703 3.75 40.5 4.17969 40.5 4.6875V7.8125C40.5 8.35938 40.0703 8.75 39.5625 8.75H35.5781C35.0703 8.75 34.6406 8.35938 34.6406 7.8125V4.6875ZM33.3906 7.8125C33.3906 8.35938 32.9609 8.75 32.4531 8.75H28.5078C28 8.75 27.5703 8.35938 27.5703 7.8125V4.6875C27.5703 4.17969 28 3.75 28.5078 3.75H32.4531C32.9609 3.75 33.3906 4.17969 33.3906 4.6875V7.8125ZM25.3828 10C25.8906 10 26.3203 10.4297 26.3203 10.9375V14.0625C26.3203 14.6094 25.8906 15 25.3828 15H21.4375C20.8906 15 20.5 14.6094 20.5 14.0625V10.9375C20.5 10.4297 20.8906 10 21.4375 10H25.3828ZM20.5 17.1875C20.5 16.6797 20.8906 16.25 21.4375 16.25H25.3828C25.8906 16.25 26.3203 16.6797 26.3203 17.1875V20.3125C26.3203 20.8594 25.8906 21.25 25.3828 21.25H21.4375C20.8906 21.25 20.5 20.8594 20.5 20.3125V17.1875ZM35.5781 15C35.0703 15 34.6406 14.6094 34.6406 14.0625V10.9375C34.6406 10.4297 35.0703 10 35.5781 10H39.5625C40.0703 10 40.5 10.4297 40.5 10.9375V14.0625C40.5 14.6094 40.0703 15 39.5625 15H35.5781ZM35.5781 21.25C35.0703 21.25 34.6406 20.8594 34.6406 20.3125V17.1875C34.6406 16.6797 35.0703 16.25 35.5781 16.25H39.5625C40.0703 16.25 40.5 16.6797 40.5 17.1875V20.3125C40.5 20.8594 40.0703 21.25 39.5625 21.25H35.5781ZM27.5703 17.1875C27.5703 16.6797 28 16.25 28.5078 16.25H32.4531C32.9609 16.25 33.3906 16.6797 33.3906 17.1875V20.3125C33.3906 20.8594 32.9609 21.25 32.4531 21.25H28.5078C28 21.25 27.5703 20.8594 27.5703 20.3125V17.1875Z" fill="#001F29"/>
</svg>
