<svg width="25" height="24" viewBox="0 0 25 24" fill="none" xmlns="http://www.w3.org/2000/svg">
<path d="M8.32031 4.6875V7.8125C8.32031 8.35938 7.89062 8.75 7.38281 8.75H3.4375C2.89062 8.75 2.5 8.35938 2.5 7.8125V4.6875C2.5 4.17969 2.89062 3.75 3.4375 3.75H7.38281C7.89062 3.75 8.32031 4.17969 8.32031 4.6875ZM15.3906 14.0625C15.3906 14.6094 14.9609 15 14.4531 15H10.5078C10 15 9.57031 14.6094 9.57031 14.0625V10.9375C9.57031 10.4297 10 10 10.5078 10H14.4531C14.9609 10 15.3906 10.4297 15.3906 10.9375V14.0625ZM16.6406 4.6875C16.6406 4.17969 17.0703 3.75 17.5781 3.75H21.5625C22.0703 3.75 22.5 4.17969 22.5 4.6875V7.8125C22.5 8.35938 22.0703 8.75 21.5625 8.75H17.5781C17.0703 8.75 16.6406 8.35938 16.6406 7.8125V4.6875ZM15.3906 7.8125C15.3906 8.35938 14.9609 8.75 14.4531 8.75H10.5078C10 8.75 9.57031 8.35938 9.57031 7.8125V4.6875C9.57031 4.17969 10 3.75 10.5078 3.75H14.4531C14.9609 3.75 15.3906 4.17969 15.3906 4.6875V7.8125ZM7.38281 10C7.89062 10 8.32031 10.4297 8.32031 10.9375V14.0625C8.32031 14.6094 7.89062 15 7.38281 15H3.4375C2.89062 15 2.5 14.6094 2.5 14.0625V10.9375C2.5 10.4297 2.89062 10 3.4375 10H7.38281ZM2.5 17.1875C2.5 16.6797 2.89062 16.25 3.4375 16.25H7.38281C7.89062 16.25 8.32031 16.6797 8.32031 17.1875V20.3125C8.32031 20.8594 7.89062 21.25 7.38281 21.25H3.4375C2.89062 21.25 2.5 20.8594 2.5 20.3125V17.1875ZM17.5781 15C17.0703 15 16.6406 14.6094 16.6406 14.0625V10.9375C16.6406 10.4297 17.0703 10 17.5781 10H21.5625C22.0703 10 22.5 10.4297 22.5 10.9375V14.0625C22.5 14.6094 22.0703 15 21.5625 15H17.5781ZM17.5781 21.25C17.0703 21.25 16.6406 20.8594 16.6406 20.3125V17.1875C16.6406 16.6797 17.0703 16.25 17.5781 16.25H21.5625C22.0703 16.25 22.5 16.6797 22.5 17.1875V20.3125C22.5 20.8594 22.0703 21.25 21.5625 21.25H17.5781ZM9.57031 17.1875C9.57031 16.6797 10 16.25 10.5078 16.25H14.4531C14.9609 16.25 15.3906 16.6797 15.3906 17.1875V20.3125C15.3906 20.8594 14.9609 21.25 14.4531 21.25H10.5078C10 21.25 9.57031 20.8594 9.57031 20.3125V17.1875Z" fill="#001F29"/>
</svg>
