<svg width="19" height="18" viewBox="0 0 19 18" fill="none" xmlns="http://www.w3.org/2000/svg">
<path d="M9.60938 4.41406C9.70312 4.29688 9.89062 4.29688 10.0078 4.41406L14.9062 9.3125C15.0234 9.42969 15.0234 9.59375 14.9062 9.71094L10.0078 14.6094C9.89062 14.7266 9.70312 14.7266 9.60938 14.6094L9.14062 14.1641C9.02344 14.0469 9.02344 13.8594 9.14062 13.7656L12.7734 10.1094H4.78125C4.61719 10.1094 4.5 9.99219 4.5 9.82812V9.17188C4.5 9.03125 4.61719 8.89062 4.78125 8.89062H12.7734L9.14062 5.25781C9.02344 5.16406 9.02344 4.97656 9.14062 4.85938L9.60938 4.41406Z" fill="#004860"/>
</svg>
