<svg width="18" height="18" viewBox="0 0 18 18" fill="none" xmlns="http://www.w3.org/2000/svg">
<path d="M13.5 8.375C13.8984 8.375 14.25 8.72656 14.25 9.125V9.875C14.25 10.2969 13.8984 10.625 13.5 10.625H10.125V14C10.125 14.4219 9.77344 14.75 9.375 14.75H8.625C8.20312 14.75 7.875 14.4219 7.875 14V10.625H4.5C4.07812 10.625 3.75 10.2969 3.75 9.875V9.125C3.75 8.72656 4.07812 8.375 4.5 8.375H7.875V5C7.875 4.60156 8.20312 4.25 8.625 4.25H9.375C9.77344 4.25 10.125 4.60156 10.125 5V8.375H13.5Z" fill="#004860"/>
</svg>
