<svg width="25" height="24" viewBox="0 0 25 24" fill="none" xmlns="http://www.w3.org/2000/svg">
<path d="M18.5098 5.54297C18.7285 5.32422 19.084 5.48828 19.084 5.76172V9.67188C19.084 9.86328 18.9199 10 18.7559 10H14.8184C14.5449 10 14.3809 9.67188 14.5996 9.45312L16.0762 7.97656C15.1191 6.99219 13.7793 6.39062 12.3027 6.39062C9.32227 6.39062 6.94336 8.79688 6.94336 11.75C6.94336 14.7305 9.32227 17.1094 12.3027 17.1094C13.6699 17.1094 14.9004 16.6172 15.8574 15.7695C15.9941 15.6602 16.1855 15.6602 16.2949 15.7695L16.8418 16.3164C16.9785 16.4531 16.9785 16.6719 16.8418 16.8086C15.6387 17.875 14.0254 18.5312 12.3027 18.5312C8.55664 18.5312 5.52148 15.5234 5.52148 11.7773C5.49414 8.03125 8.55664 4.96875 12.3027 4.96875C14.1621 4.96875 15.8574 5.73438 17.0879 6.96484L18.5098 5.54297Z" fill="#004860"/>
</svg>
