<svg width="21" height="17" viewBox="0 0 21 17" fill="none" xmlns="http://www.w3.org/2000/svg">
<path d="M19.5312 9.1875L13.1562 15.5625C12.5938 16.1562 11.625 16.1562 11.0312 15.5625L18.5 8.125L10.3438 0H11.875C12.2812 0 12.6562 0.1875 12.9375 0.46875L19.5312 7.0625C20.125 7.65625 20.125 8.625 19.5312 9.1875ZM15.5312 9.1875L9.15625 15.5625C8.875 15.875 8.5 16 8.09375 16C7.71875 16 7.34375 15.875 7.03125 15.5625L0.4375 8.96875C0.15625 8.6875 0 8.3125 0 7.90625V1.5C0 0.6875 0.65625 0 1.5 0H7.875C8.28125 0 8.65625 0.1875 8.9375 0.46875L15.5312 7.0625C16.125 7.65625 16.125 8.625 15.5312 9.1875ZM14.5 8.125L7.875 1.5H1.5V7.90625L8.09375 14.5L14.5 8.125ZM4.5 3C5.3125 3 6 3.6875 6 4.5C6 5.34375 5.3125 6 4.5 6C3.65625 6 3 5.34375 3 4.5C3 3.6875 3.65625 3 4.5 3Z" fill="#1E9993"/>
</svg>
