<svg width="24" height="24" viewBox="0 0 24 24" fill="none" xmlns="http://www.w3.org/2000/svg">
<path d="M12 12.5C9.22656 12.5 7 10.2734 7 7.5C7 4.76562 9.22656 2.5 12 2.5C14.7344 2.5 17 4.76562 17 7.5C17 10.2734 14.7344 12.5 12 12.5ZM15.4766 13.75C18.3672 13.75 20.75 16.1328 20.75 19.0234V20.625C20.75 21.6797 19.8906 22.5 18.875 22.5H5.125C4.07031 22.5 3.25 21.6797 3.25 20.625V19.0234C3.25 16.1328 5.59375 13.75 8.48438 13.75H9.14844C10.0078 14.1797 10.9844 14.375 12 14.375C13.0156 14.375 13.9531 14.1797 14.8125 13.75H15.4766Z" fill="#001F29"/>
</svg>
