<svg width="60" height="40" viewBox="0 0 60 40" fill="none" xmlns="http://www.w3.org/2000/svg">
<path d="M30 12.5C27.2266 12.5 25 10.2734 25 7.5C25 4.76562 27.2266 2.5 30 2.5C32.7344 2.5 35 4.76562 35 7.5C35 10.2734 32.7344 12.5 30 12.5ZM33.4766 13.75C36.3672 13.75 38.75 16.1328 38.75 19.0234V20.625C38.75 21.6797 37.8906 22.5 36.875 22.5H23.125C22.0703 22.5 21.25 21.6797 21.25 20.625V19.0234C21.25 16.1328 23.5938 13.75 26.4844 13.75H27.1484C28.0078 14.1797 28.9844 14.375 30 14.375C31.0156 14.375 31.9531 14.1797 32.8125 13.75H33.4766Z" fill="#001F29"/>
</svg>
