<svg width="358" height="33" viewBox="0 0 358 33" fill="none" xmlns="http://www.w3.org/2000/svg">
<path d="M103.038 31.82V9.374H108.542V13.115H108.757C109.216 11.911 109.932 10.9077 110.907 10.105C111.91 9.27367 113.286 8.858 115.035 8.858C117.357 8.858 119.134 9.61767 120.367 11.137C121.6 12.6563 122.216 14.8207 122.216 17.63V31.82H116.712V18.189C116.712 16.5837 116.425 15.3797 115.852 14.577C115.279 13.7743 114.333 13.373 113.014 13.373C112.441 13.373 111.882 13.459 111.337 13.631C110.821 13.7743 110.348 14.0037 109.918 14.319C109.517 14.6057 109.187 14.9783 108.929 15.437C108.671 15.867 108.542 16.383 108.542 16.985V31.82H103.038Z" fill="#22AAA4"/>
<path d="M128.661 1.806H142.55C143.783 1.806 144.886 1.99233 145.861 2.365C146.864 2.73766 147.71 3.25366 148.398 3.913C149.086 4.57233 149.602 5.38933 149.946 6.364C150.319 7.31 150.505 8.35633 150.505 9.503C150.505 10.6497 150.347 11.6243 150.032 12.427C149.745 13.201 149.344 13.846 148.828 14.362C148.341 14.878 147.767 15.265 147.108 15.523C146.477 15.781 145.818 15.9243 145.13 15.953V16.211C145.789 16.211 146.492 16.34 147.237 16.598C148.011 16.856 148.713 17.2717 149.344 17.845C150.003 18.3897 150.548 19.1063 150.978 19.995C151.408 20.855 151.623 21.93 151.623 23.22C151.623 24.424 151.422 25.5563 151.021 26.617C150.648 27.649 150.118 28.552 149.43 29.326C148.742 30.1 147.925 30.7163 146.979 31.175C146.033 31.605 145.001 31.82 143.883 31.82H128.661V1.806ZM134.337 27.004H142.249C143.338 27.004 144.184 26.7317 144.786 26.187C145.388 25.6137 145.689 24.7967 145.689 23.736V22.274C145.689 21.2133 145.388 20.3963 144.786 19.823C144.184 19.2497 143.338 18.963 142.249 18.963H134.337V27.004ZM134.337 14.319H141.346C142.378 14.319 143.181 14.0467 143.754 13.502C144.327 12.9287 144.614 12.1403 144.614 11.137V9.804C144.614 8.80066 144.327 8.02666 143.754 7.482C143.181 6.90867 142.378 6.622 141.346 6.622H134.337V14.319Z" fill="#22AAA4"/>
<path d="M202.982 31.82C201.09 31.82 199.7 31.347 198.811 30.401C197.923 29.455 197.478 28.122 197.478 26.402V0H202.982V27.434H205.949V31.82H202.982Z" fill="#22AAA4"/>
<path d="M210.118 0H215.622V13.115H215.837C216.296 11.911 217.012 10.9077 217.987 10.105C218.99 9.27367 220.366 8.858 222.115 8.858C224.437 8.858 226.214 9.61767 227.447 11.137C228.68 12.6563 229.296 14.8207 229.296 17.63V31.82H223.792V18.189C223.792 16.5837 223.505 15.3797 222.932 14.577C222.359 13.7743 221.413 13.373 220.094 13.373C219.521 13.373 218.962 13.459 218.417 13.631C217.901 13.7743 217.428 14.0037 216.998 14.319C216.597 14.6057 216.267 14.9783 216.009 15.437C215.751 15.867 215.622 16.383 215.622 16.985V31.82H210.118V0Z" fill="#22AAA4"/>
<path d="M251.909 31.82C250.705 31.82 249.745 31.476 249.028 30.788C248.34 30.0713 247.91 29.1253 247.738 27.95H247.48C247.108 29.412 246.348 30.5157 245.201 31.261C244.055 31.9777 242.636 32.336 240.944 32.336C238.651 32.336 236.888 31.734 235.655 30.53C234.423 29.326 233.806 27.7207 233.806 25.714C233.806 23.392 234.638 21.672 236.3 20.554C237.963 19.4073 240.328 18.834 243.395 18.834H247.222V17.2C247.222 15.9387 246.893 14.964 246.233 14.276C245.574 13.588 244.513 13.244 243.051 13.244C241.761 13.244 240.715 13.5307 239.912 14.104C239.138 14.6487 238.479 15.308 237.934 16.082L234.666 13.158C235.498 11.868 236.601 10.836 237.977 10.062C239.353 9.25933 241.174 8.858 243.438 8.858C246.477 8.858 248.785 9.546 250.361 10.922C251.938 12.298 252.726 14.276 252.726 16.856V27.434H254.962V31.82H251.909ZM242.793 28.337C244.026 28.337 245.072 28.0647 245.932 27.52C246.792 26.9753 247.222 26.1727 247.222 25.112V22.145H243.696C240.83 22.145 239.396 23.0623 239.396 24.897V25.628C239.396 26.5453 239.683 27.2333 240.256 27.692C240.858 28.122 241.704 28.337 242.793 28.337Z" fill="#22AAA4"/>
<path d="M172.85 2.82C167.605 2.82 162.735 5.15706 159.461 9.21706C157.781 11.3153 156.856 13.9254 156.856 16.6037C156.856 20.6807 159.805 24.0926 163.696 24.8432C163.593 27.4532 163.044 28.4082 160.284 28.4082C159.342 28.4082 158.57 29.1759 158.57 30.1141C158.57 31.0524 159.342 31.82 160.284 31.82C166.027 31.82 166.954 28.0841 167.108 24.9965H170.383C171.651 24.9965 172.885 24.7053 173.982 24.1935C173.948 27.2982 173.553 28.4082 170.57 28.4082C169.627 28.4082 168.856 29.1759 168.856 30.1141C168.856 31.0524 169.627 31.82 170.57 31.82C177.427 31.82 177.427 26.4806 177.427 23.2906V21.5847C177.427 21.4653 177.411 21.3472 177.394 21.2449C177.702 20.8013 177.941 20.3406 178.164 19.8288C178.524 18.9418 179.057 18.139 179.674 17.4566C180.12 18.8213 180.976 20.5448 182.57 22.2677V26.7024C182.57 27.6406 183.342 28.4082 184.284 28.4082C185.227 28.4082 185.999 27.6406 185.999 26.7024V21.5847C185.999 21.1241 185.829 20.696 185.503 20.3719C183.463 18.3419 182.846 16.3632 182.657 15.3909C183.343 15.0838 184.096 14.8964 184.867 14.8112C185.57 16.4147 187.062 19.2311 189.427 20.8517V24.9965C189.427 25.9347 190.199 26.7024 191.142 26.7024C192.084 26.7024 192.856 25.9347 192.856 24.9965V19.8788C192.856 19.2306 192.494 18.6329 191.912 18.3429C190.506 17.6435 189.342 16.0401 188.57 14.6412C190.044 14.2659 191.142 12.9359 191.142 11.3494C191.142 6.64118 187.302 2.82 182.57 2.82H172.85ZM172.85 6.23177H177.427V7.06805C177.427 9.37099 178.437 11.4332 180.049 12.8321C179.792 12.9856 179.552 13.1417 179.312 13.2952C177.427 14.5575 175.919 16.3293 174.993 18.5128C174.959 18.581 174.924 18.6678 174.873 18.736L174.652 18.5494C171.034 15.6836 168.942 11.4003 168.856 6.8115C170.124 6.4362 171.462 6.23177 172.85 6.23177ZM180.856 6.23177H182.57C185.399 6.23177 187.713 8.53471 187.713 11.3494H185.811C185.657 11.3494 185.5 11.349 185.346 11.3661C185.294 11.349 185.227 11.3494 185.158 11.3494C182.793 11.3494 180.856 9.42216 180.856 7.06805V6.23177ZM165.514 8.3308C165.977 13.3461 168.445 17.9516 172.422 21.1416C171.805 21.4316 171.103 21.5847 170.383 21.5847H165.29C162.53 21.5847 160.284 19.3501 160.284 16.6037C160.284 14.6931 160.936 12.8335 162.136 11.3494C163.096 10.1382 164.246 9.13256 165.514 8.3308Z" fill="#004860"/>
</svg>
