<svg width="24" height="24" viewBox="0 0 24 24" fill="none" xmlns="http://www.w3.org/2000/svg">
<path d="M19.6836 16.8086C20.1758 17.6836 19.5469 18.75 18.5352 18.75H5.4375C4.42578 18.75 3.79688 17.6562 4.28906 16.8086L10.8516 5.40625C11.3438 4.53125 12.6289 4.55859 13.1211 5.40625L19.6836 16.8086ZM12 14.4297C11.2891 14.4297 10.7422 15.0039 10.7422 15.6875C10.7422 16.3984 11.2891 16.9453 12 16.9453C12.6836 16.9453 13.2578 16.3984 13.2578 15.6875C13.2578 15.0039 12.6836 14.4297 12 14.4297ZM10.7969 9.91797L10.9883 13.6367C11.0156 13.8281 11.1523 13.9375 11.3164 13.9375H12.6562C12.8203 13.9375 12.957 13.8281 12.9844 13.6367L13.1758 9.91797C13.2031 9.72656 13.0391 9.5625 12.8477 9.5625H11.125C10.9336 9.5625 10.7695 9.72656 10.7969 9.91797Z" fill="#FF8577"/>
</svg>
