<svg width="150" height="150" viewBox="0 0 150 150" fill="none" xmlns="http://www.w3.org/2000/svg">
<path d="M42.4977 39.0907C42.2813 38.4709 41.8943 37.9248 41.3811 37.5152C40.868 37.1056 40.2498 36.8493 39.5973 36.7755C38.945 36.7018 38.2851 36.8137 37.6935 37.0985C37.1019 37.3832 36.6028 37.8293 36.2536 38.3851C35.6815 34.6317 35.7832 35.1216 35.6943 34.722C35.5405 34.0366 34.8954 33.5274 34.4929 33.9365C34.4929 33.5408 34.2077 33.3064 33.7837 33.2236C33.1987 33.1699 32.6089 33.222 32.0424 33.3774C29.4717 33.8462 27.9732 34.472 19.6585 37.3278C18.7186 37.6511 17.1536 38.0648 17.2006 39.3349C17.2015 39.3806 17.2128 39.4255 17.2338 39.4662C17.2547 39.5068 17.2848 39.5421 17.3215 39.5693C18.4498 44.4755 19.6541 49.649 21.7537 54.2984C21.8602 54.6349 22.0566 54.9358 22.3218 55.1685C22.5869 55.4014 22.9107 55.5572 23.2582 55.6192C23.6658 55.6515 24.0756 55.6443 24.4819 55.5975C28.319 55.3311 32.0878 54.4455 35.642 52.9754C36.3473 52.7528 37.0055 52.402 37.5833 51.9405C38.1992 51.3431 38.106 50.5719 37.9888 49.7953L37.5004 46.5848C37.7396 46.6551 37.9861 46.6969 38.2352 46.7095C40.1256 46.8237 41.9474 45.6447 42.5821 43.2615C42.9751 41.8945 42.9457 40.4406 42.4977 39.0907ZM19.9236 37.8961C25.9804 35.8166 30.0422 34.2203 33.1034 33.8433C34.2301 33.7036 33.9994 34.1711 33.1587 34.9088C31.8292 35.851 30.3604 36.5793 28.8057 37.0672C26.4416 37.9427 24.0027 38.601 21.5192 39.034C20.8666 39.1481 19.1568 39.4073 18.682 39.4222C18.3571 39.4334 17.6247 39.1078 18.1825 38.6368C18.7168 38.2936 19.3056 38.0439 19.9236 37.8983V37.8961ZM37.2682 51.3566C36.788 51.8164 36.2021 52.1513 35.5621 52.3317C31.9041 53.8698 28.0105 54.7727 24.0488 55.0018C23.1028 55.0563 22.79 55.0152 22.3771 54.1625C20.462 50.212 18.9515 43.8588 18.0466 39.9464C18.2453 40.0254 18.4585 40.0613 18.6722 40.0516C20.6191 39.864 22.5495 39.5329 24.4476 39.0608C26.5299 38.5501 32.2926 36.903 34.0233 34.97C34.5355 34.3988 34.9812 34.239 35.1082 35.026C35.1828 35.474 37.3712 49.8521 37.4287 50.2612C37.4771 50.4456 37.4878 50.6378 37.4602 50.8264C37.4326 51.015 37.3673 51.1961 37.2682 51.3588V51.3566ZM42.1445 42.267C41.9012 44.1052 40.9633 45.65 39.1221 46.0211C38.6506 46.1151 38.1643 46.1057 37.6968 45.9934C37.3294 45.877 37.3795 45.794 37.3496 45.5768C37.2898 45.143 36.6455 40.9588 36.3932 39.2975C36.4298 39.2866 36.4633 39.2674 36.4914 39.2415C36.5194 39.2157 36.5412 39.1838 36.5551 39.1481C36.759 38.6474 37.1008 38.2149 37.5409 37.9008C37.981 37.5869 38.5012 37.4044 39.041 37.3746C39.5808 37.3447 40.118 37.4689 40.59 37.7325C41.0619 37.9961 41.4494 38.3884 41.7071 38.8637C42.202 39.9261 42.3548 41.1161 42.1445 42.2692V42.267Z" fill="#001F29"/>
<path d="M131.222 55.8699C131.181 55.5026 128.142 40.0029 128.156 40.0784C128.134 39.9985 128.081 39.9306 128.009 39.8896C127.937 39.8486 127.852 39.8378 127.771 39.8595C127.167 40.0875 126.538 40.2502 125.898 40.3449C126.023 38.5246 125.742 36.6994 125.077 35.0005C124.921 34.4793 124.624 34.0112 124.219 33.6475C123.812 33.4072 123.342 33.297 122.871 33.3315C122.398 33.3661 121.95 33.5437 121.582 33.8408C121.303 34.0235 121.042 34.2317 120.803 34.4628C120.634 34.036 120.393 33.6408 120.092 33.2936C119.103 32.2482 116.755 32.4902 115.015 35.4379C114.414 36.5304 113.926 37.6812 113.559 38.8725L112.57 38.6948C112.233 38.6099 111.889 38.5493 111.541 38.5133C111.436 38.5006 111.329 38.5088 111.227 38.5375C111.125 38.5662 111.029 38.6149 110.947 38.6807C110.863 38.7465 110.794 38.8282 110.742 38.9209C110.691 39.0137 110.657 39.1157 110.646 39.2212C109.202 45.2383 108.134 51.3395 107.449 57.4894C107.451 57.5574 107.473 57.6232 107.515 57.677C107.557 57.7309 107.614 57.7698 107.68 57.788L122.301 61.6841C124.914 62.3821 124.898 61.9962 129.222 58.6527C130.311 57.8097 131.376 57.2564 131.222 55.8699ZM121.431 34.7383C121.982 34.2433 122.936 33.6639 123.687 34.0477C124.075 34.3148 124.353 34.7123 124.472 35.1677C125.12 36.8392 125.396 38.6321 125.278 40.421C124.27 40.5034 123.256 40.4854 122.252 40.3673C122.179 38.5531 121.78 36.767 121.074 35.0945C121.189 34.9735 121.306 34.8518 121.431 34.7383ZM121.618 40.2912C120.781 40.1806 119.815 40.0111 118.728 39.82C118.775 39.7793 118.805 39.7231 118.814 39.6617C119.048 38.1791 119.665 36.7836 120.606 35.6141C121.2 37.1069 121.542 38.6879 121.619 40.2926L121.618 40.2912ZM117.026 34.0111C117.678 33.4982 118.822 33.0039 119.553 33.646C119.903 34.022 120.168 34.4672 120.334 34.9527C119.216 36.2392 118.48 37.8125 118.209 39.4952C118.201 39.5377 118.203 39.5812 118.213 39.6232C118.222 39.6651 118.241 39.7047 118.266 39.7393C116.9 39.496 115.537 39.2421 114.175 38.9928C114.794 37.1918 115.483 35.2289 117.026 34.0111ZM122.849 61.1891C122.178 61.0166 111.02 58.0366 108.098 57.258C108.777 51.2619 109.823 45.3131 111.231 39.4452C111.279 39.4591 111.329 39.4629 111.379 39.4562C111.428 39.4496 111.475 39.4329 111.518 39.4069C111.561 39.3809 111.598 39.3463 111.627 39.3053C111.655 39.2645 111.676 39.2179 111.685 39.169C111.753 39.1831 116.802 40.1 117.957 40.3091C120.058 40.7798 122.2 41.0456 124.352 41.1028C124.255 41.5052 124.194 51.8657 124.65 61.2151C124.064 61.399 123.434 61.3891 122.853 61.1868L122.849 61.1891ZM130.586 56.4277C130.47 56.9742 129.915 57.3237 129.506 57.647C128.956 58.0718 125.549 60.7014 125.267 60.8866C124.67 48.5566 125.051 41.4336 124.946 41.0743C125.853 41.0248 126.749 40.8553 127.611 40.5704C130.661 56.1746 130.69 55.9565 130.59 56.4255L130.586 56.4277Z" fill="#001F29"/>
<path d="M124.784 17.6724C124.626 15.4565 124.092 13.2837 123.205 11.2475C122.541 9.7718 121.339 8.60525 119.844 7.98613C118.361 7.45134 116.766 7.29879 115.208 7.54255C113.65 7.7863 112.179 8.41852 110.929 9.38086C109.563 10.439 108.51 11.8474 107.88 13.4565C107.251 15.0656 107.069 16.815 107.354 18.5191C106.017 19.247 103.129 21.0868 102.436 22.374C101.706 23.7337 102.474 25.3322 105.226 25.713C114.748 27.0279 121.683 22.1187 123.519 20.7C124.098 20.3646 124.538 19.833 124.76 19.2016C124.85 18.6963 124.858 18.18 124.784 17.6724ZM122.157 10.6539C123.352 12.4869 123.967 15.5362 124.157 17.6724C124.215 18.3272 124.387 19.256 123.694 19.6315C122.25 20.1983 120.731 20.5522 119.185 20.6821C118.201 20.7688 117.212 20.7761 116.226 20.7037C117.227 18.7921 117.827 16.6957 117.987 14.5438C118.147 12.3917 117.866 10.2296 117.158 8.19071C118.136 8.11786 119.115 8.30786 119.993 8.741C120.872 9.17415 121.62 9.83459 122.157 10.6539ZM116.529 8.28778C117.246 10.3012 117.528 12.4431 117.359 14.5735C117.19 16.7037 116.572 18.7742 115.547 20.6492C113.79 20.4612 112.071 20.0124 110.446 19.3172C110.703 17.965 110.312 11.9209 114.544 9.13522C115.147 8.73243 115.821 8.4451 116.529 8.28778ZM106.818 25.2433C105.905 25.2256 104.999 25.0747 104.129 24.7954C103.473 24.5489 102.757 24.057 102.804 23.27C102.892 22.7412 103.17 22.2627 103.586 21.9246C104.977 20.679 106.525 19.6217 108.192 18.7797C108.528 18.6065 108.267 18.1271 107.94 18.2204C107.603 15.9943 108.129 13.7235 109.41 11.8721C110.692 10.0207 112.632 8.72849 114.834 8.2594C113.96 8.71363 113.184 9.33281 112.546 10.0827C110.423 12.5683 109.994 15.8416 109.842 19.047C109.573 18.921 109.308 18.7891 109.045 18.6513C108.691 18.4601 108.374 19.0006 108.73 19.1918C112.944 21.4436 117.865 21.9838 122.468 20.7C117.932 23.9762 112.403 25.5814 106.818 25.2433Z" fill="#001F29"/>
<path d="M90.2053 14.6707C84.0031 10.9843 77.5979 7.65069 71.0202 4.68578C70.9723 4.65949 70.9185 4.64596 70.8639 4.6465C70.8093 4.64704 70.7558 4.66162 70.7084 4.68885C70.6611 4.71607 70.6216 4.75503 70.5937 4.80196C70.5657 4.8489 70.5504 4.90222 70.5491 4.95681C70.5196 6.48994 70.264 8.01032 69.7905 9.4688C67.8163 14.6953 59.7391 14.6139 56.7368 6.92199C56.7212 6.87017 56.6925 6.82322 56.6534 6.7856C56.6145 6.74798 56.5666 6.72093 56.5142 6.70702C56.4618 6.69312 56.4068 6.69281 56.3544 6.70612C56.3018 6.71944 56.2536 6.74593 56.2142 6.78311C51.8837 10.6314 46.2091 15.6182 42.2355 19.983C42.1808 20.0476 42.1516 20.1299 42.1534 20.2145C42.1795 20.4281 41.5382 19.6814 49.8079 28.5509C49.8671 28.6087 49.9467 28.6411 50.0294 28.6411C50.1122 28.6411 50.1916 28.6087 50.2508 28.5509L55.9126 22.9869L56.2217 43.7936C56.2224 43.8621 56.2451 43.9285 56.2866 43.983C56.328 44.0374 56.3859 44.0771 56.4516 44.096C64.3445 45.5714 73.1974 44.2901 80.5363 41.6171C81.1281 41.4072 81.7126 41.1767 82.2886 40.9266C82.3478 40.8912 82.3939 40.8376 82.4199 40.7737C82.4459 40.7099 82.4504 40.6393 82.4327 40.5726C82.3162 39.9059 79.0586 21.209 79.0504 21.1486L83.4944 23.3818C83.958 23.7063 84.5065 23.888 85.0722 23.9045C85.3093 23.8444 85.5304 23.7331 85.7197 23.5783C85.9091 23.4235 86.0622 23.229 86.1682 23.0085C87.8366 20.5006 89.238 17.825 90.3495 15.0253C90.3677 14.9586 90.3635 14.8877 90.3374 14.8236C90.3114 14.7596 90.265 14.7057 90.2053 14.6707ZM62.4554 13.4447C65.4002 14.2361 68.6564 13.205 70.0712 10.3834C70.7514 8.81984 71.1159 7.13731 71.1442 5.43242C72.5578 6.07305 73.9628 6.73209 75.359 7.40955C75.1339 9.17686 74.4581 10.8566 73.3963 12.2872C72.3345 13.7178 70.9226 14.8513 69.2962 15.5786C67.4235 16.3638 65.3871 16.6792 63.3646 16.497C61.3421 16.3148 59.3948 15.6407 57.6926 14.5333C55.9753 13.4223 54.3864 11.6647 54.3805 9.50837C54.3805 9.42624 54.3745 9.25899 54.4065 9.22987L56.3157 7.5305C57.4693 10.2027 59.5607 12.6667 62.4554 13.4447ZM50.0387 27.8803L42.8843 20.2078C43.5414 19.491 44.2112 18.7867 44.8936 18.0948L52.3787 25.5836L50.0387 27.8803ZM78.7891 20.3176C78.735 20.2883 78.6737 20.2754 78.6125 20.2802C78.5511 20.2851 78.4926 20.3077 78.444 20.3451C78.3952 20.3825 78.3584 20.4333 78.3379 20.4912C78.3173 20.5491 78.3141 20.6117 78.3284 20.6715C78.4448 21.3375 81.7399 40.2844 81.7734 40.4696C76.4154 42.6051 70.7363 43.8239 64.9739 44.0752C62.2528 44.1837 59.5281 44.001 56.8459 43.5301L56.5301 22.2506C56.5288 22.1892 56.5097 22.1294 56.4752 22.0786C56.4405 22.0278 56.3919 21.9881 56.3353 21.9644C56.2785 21.9407 56.2162 21.934 56.1558 21.945C56.0953 21.9561 56.0394 21.9844 55.9947 22.0266L52.8275 25.1394L45.3311 17.6431C47.8965 15.0656 51.0056 12.2478 53.7682 9.79884C53.8816 10.7393 54.192 11.6454 54.6792 12.4579C55.1664 13.2703 55.8194 13.971 56.5958 14.5139C58.322 15.8097 60.339 16.6633 62.471 17.0003C64.6029 17.3372 66.785 17.1473 68.8266 16.447C70.6923 15.766 72.3393 14.5935 73.5932 13.0534C74.8473 11.5132 75.6617 9.66275 75.9503 7.69776C79.4596 9.40683 82.8255 11.163 86.3153 13.1401C85.2237 14.9409 82.8531 20.3825 82.0408 21.9505L78.7891 20.3176ZM86.9514 20.5699C86.4434 21.4766 85.8718 22.3461 85.2409 23.172C84.8242 23.5027 84.1955 23.0339 83.8102 22.8412L82.5985 22.232C83.6631 20.1891 85.6597 15.4479 86.8589 13.4506C87.7942 13.9848 88.726 14.5258 89.6543 15.0739C88.8854 16.968 87.9822 18.8046 86.9514 20.5699Z" fill="#001F29"/>
<path d="M96.1696 138.985L102.671 138.276L97.0984 127.336C95.0481 128.204 92.9777 129.039 90.8609 129.726C88.9622 130.341 87.8154 130.747 86.0301 129.819C85.8048 129.707 85.5975 129.563 85.4149 129.39C83.8635 130.193 82.2552 130.879 80.6027 131.444C80.1197 131.59 79.3043 131.836 78.9086 131.452L81.1485 140.625L95.5589 139.057L95.9762 143.313C95.3087 143.337 73.2782 144.118 73.0758 144.124L74.6296 131.144L73.977 131.361C73.8336 132.555 72.4785 143.875 72.4091 144.467C72.4094 144.55 72.4424 144.629 72.501 144.689C72.5597 144.747 72.639 144.78 72.7219 144.781L96.3159 143.927C96.399 143.926 96.4785 143.893 96.5373 143.835C96.5961 143.776 96.6295 143.697 96.6303 143.614C96.2555 139.797 96.1942 139.115 96.1696 138.985Z" fill="#001F29"/>
<path d="M110.137 107.775C110.031 109.397 110.261 111.024 110.81 112.554C111.36 114.085 112.218 115.486 113.331 116.671H113.89C112.898 109.731 110.137 107.775 110.137 107.775ZM125.852 103.368C120.375 107.751 119.571 114.225 119.468 116.659H120.232C126.608 108.375 125.852 103.368 125.852 103.368ZM118.052 116.662H118.567C118.836 114.48 119.2 107.656 114.247 102.313C114.247 102.313 112.72 107.286 118.052 116.662Z" fill="#F2F2F2"/>
<path d="M110.137 107.775C110.031 109.397 110.261 111.024 110.81 112.554C111.36 114.085 112.218 115.486 113.331 116.671H113.89C112.898 109.731 110.137 107.775 110.137 107.775ZM125.852 103.368C120.375 107.751 119.571 114.225 119.468 116.659H120.232C126.608 108.375 125.852 103.368 125.852 103.368ZM118.052 116.662H118.567C118.836 114.48 119.2 107.656 114.247 102.313C114.247 102.313 112.72 107.286 118.052 116.662Z" fill="#121F26"/>
<path d="M73.8595 89.766C73.045 90.2065 72.2625 90.7032 71.5172 91.2525C70.6749 92.8952 70.0568 94.9186 71.1737 96.1849C72.502 97.6891 74.5179 95.846 75.8515 94.2436C76.0939 93.7135 76.3662 93.1975 76.6668 92.698C76.0056 92.4569 75.4086 92.0671 74.9219 91.5588C74.4352 91.0504 74.0717 90.437 73.8595 89.766ZM82.7676 89.707C82.4144 90.8232 81.6567 91.767 80.6433 92.3533C79.6299 92.9395 78.434 93.1259 77.2903 92.8758C77.1902 93.0341 77.1006 93.1976 77.0095 93.3611C76.7027 95.1269 76.4204 98.6315 79.1098 98.3141C81.8978 97.9851 85.0994 92.7145 86.3821 90.3999C85.2057 90.0399 83.9939 89.8075 82.7676 89.707Z" fill="#77E4DF"/>
<path d="M105.373 114.294C102.498 104.701 95.9524 93.327 86.3826 90.4009C85.0998 92.7214 81.8975 97.9891 79.1103 98.3152C76.4224 98.6326 76.7031 95.1279 77.01 93.3621C75.1316 96.7602 74.1198 100.569 74.0644 104.451C74.0606 104.532 74.0258 104.608 73.9675 104.663C73.9092 104.719 73.8318 104.75 73.7513 104.75C73.6707 104.75 73.5933 104.719 73.535 104.663C73.4767 104.608 73.4419 104.532 73.438 104.451C73.5 100.914 74.3233 97.4323 75.8519 94.2416C74.5184 95.8469 72.5025 97.6903 71.1742 96.1829C70.0542 94.9136 70.6754 92.8932 71.5176 91.2506C68.8712 93.1514 66.6258 95.5559 64.9105 98.3259C63.1951 101.096 62.0435 104.178 61.5215 107.395C61.5166 107.436 61.5019 107.476 61.4786 107.51C61.4553 107.545 61.4241 107.573 61.3876 107.593C61.3512 107.613 61.3104 107.625 61.2687 107.626C61.2271 107.627 61.1858 107.618 61.1482 107.6C61.0735 107.921 60.9989 108.249 60.9242 108.583L71.7416 109.592C71.8242 109.594 71.9028 109.628 71.9613 109.686C72.0197 109.744 72.0533 109.823 72.0552 109.905V126.907L72.5294 126.94C72.6347 126.505 72.7778 126.081 72.9572 125.671C74.405 122.291 77.576 121.157 80.1907 122.026C84.1859 119.488 90.3653 116.525 95.258 115.367C91.3978 111.306 88.6128 104.791 86.8269 99.4902C86.2169 97.6815 85.642 95.8469 85.1977 93.9877C85.1036 93.595 85.7077 93.4293 85.8025 93.8221C86.7829 97.6903 88.0749 101.473 89.6656 105.133C91.2507 108.735 93.1749 112.381 95.9733 115.202C96.7767 115.033 97.5877 114.903 98.4044 114.815C98.8055 114.772 98.8006 115.4 98.4044 115.442C92.756 116.038 85.4814 119.492 80.9067 122.318C83.2863 123.481 85.0469 126.349 85.7853 128.855C85.8355 128.911 85.8886 128.964 85.9443 129.014C86.3892 129.331 86.8994 129.544 87.4376 129.64C87.5272 129.659 87.8774 129.73 87.952 129.73C90.0308 129.762 97.8583 126.358 99.7167 125.526C99.7926 125.492 99.8783 125.488 99.9571 125.513C100.036 125.539 100.102 125.594 100.143 125.666C101.63 124.94 105.955 122.764 106.512 121.207C107.195 119.297 105.912 116.093 105.373 114.294Z" fill="#1E9993"/>
<path d="M62.8086 100.942C64.4567 97.2929 66.9419 94.085 70.0622 91.5774C70.8915 90.8925 71.7661 90.2645 72.6799 89.6973C71.6956 89.7868 70.7039 89.7539 69.7277 89.5995C65.8486 88.9789 62.1184 87.6437 58.7266 85.6617C58.7109 85.7003 58.6867 85.7349 58.6557 85.7627C58.6248 85.7907 58.5879 85.8111 58.5479 85.8227C58.5078 85.8343 58.4657 85.8366 58.4246 85.8295C58.3836 85.8225 58.3446 85.8061 58.3107 85.7819C53.9937 82.8894 50.0976 79.0501 47.7263 74.4C47.307 73.6238 46.9553 72.8129 46.675 71.9764C46.6579 71.9629 46.6294 72.0279 46.5675 72.1086C44.9778 74.1902 42.11 75.0533 39.5237 75.0324C39.3846 75.0459 39.2445 75.0243 39.116 74.9697C40.8945 81.8829 44.6867 88.8402 50.1731 93.3588C50.2052 93.3834 50.2313 93.415 50.2493 93.4512C50.2672 93.4875 50.2766 93.5274 50.2766 93.5679C50.2766 93.6083 50.2672 93.6483 50.2493 93.6846C50.2313 93.7208 50.2052 93.7524 50.1731 93.7769C53.88 96.9623 58.1717 99.3956 62.8086 100.942Z" fill="#1E9993"/>
<path d="M77.3233 92.2517C78.3796 92.5011 79.4916 92.3222 80.4164 91.7542C81.3412 91.1862 82.0035 90.2751 82.2587 89.2203C82.3456 88.7248 82.3799 88.2215 82.3609 87.7188V86.0112C81.0824 86.5871 79.6935 86.8767 78.2913 86.8598C76.8891 86.8428 75.5075 86.5195 74.2434 85.9126V88.1145C74.2224 88.8996 74.4137 89.6758 74.7974 90.3612C75.0724 90.8277 75.4373 91.2351 75.8708 91.5595C76.3044 91.8841 76.7982 92.1193 77.3233 92.2517Z" fill="#F6F6F6"/>
<path d="M92.7069 76.4876C92.3337 75.9087 91.7672 75.4809 91.1084 75.28C90.4494 75.0792 89.7407 75.1184 89.1081 75.3908C89.0614 75.4031 89.0128 75.4046 88.9656 75.3952C88.9183 75.3858 88.8739 75.3658 88.8356 75.3366C88.7973 75.3075 88.7662 75.2699 88.7446 75.227C88.7229 75.1839 88.7114 75.1365 88.7108 75.0884C88.7076 72.6278 87.8129 70.2516 86.1923 68.4C82.2351 64.0164 75.5317 64.6742 71.75 69.3707C67.7838 74.2985 68.5939 81.9509 73.9287 85.0345C78.8603 87.8837 84.8962 85.425 87.4907 80.3187C87.5156 80.278 87.5492 80.2435 87.5892 80.2176C87.6291 80.1917 87.6743 80.175 87.7215 80.169C87.7688 80.1629 87.8168 80.1675 87.862 80.1824C87.9072 80.1973 87.9485 80.2223 87.9828 80.2553C88.5896 80.702 89.336 80.9174 90.0875 80.8627C90.839 80.8079 91.5463 80.4867 92.0819 79.9566C92.5581 79.5309 92.8781 78.9582 92.9914 78.3296C93.1047 77.7012 93.0045 77.0527 92.7069 76.4876ZM47.3242 63.8529C46.7535 64.5623 46.312 65.3665 46.0198 66.2288C45.9978 66.309 45.9447 66.3771 45.8724 66.4182C45.8001 66.4593 45.7144 66.47 45.6342 66.4479C45.554 66.4258 45.4858 66.3727 45.4447 66.3004C45.4037 66.2281 45.3929 66.1424 45.415 66.0622C45.4546 65.8994 45.3231 65.6561 45.2865 65.4948C45.0994 64.5378 44.8644 63.5909 44.5825 62.6576C44.3817 61.6942 43.8942 60.8142 43.184 60.1332C42.9698 59.9733 42.4799 59.6605 42.3358 60.0301C42.2356 60.4029 42.2079 60.7914 42.2545 61.1747C42.2813 62.1799 42.3834 63.1818 42.5598 64.1717C42.6007 64.2173 42.6281 64.2734 42.6387 64.3338C42.6493 64.3941 42.6429 64.4562 42.62 64.513C42.5971 64.5698 42.5589 64.619 42.5094 64.6552C42.46 64.6914 42.4014 64.713 42.3403 64.7175C40.7287 64.7149 39.1595 65.2338 37.8672 66.1966C37.4106 66.6155 37.0595 67.1362 36.8422 67.7164C36.6249 68.2966 36.5476 68.9199 36.6165 69.5357C36.6655 69.5614 36.706 69.6009 36.733 69.6492C37.1593 70.407 38.2442 71.8308 39.0633 71.5262C39.3941 71.403 39.4105 70.79 39.3978 70.4368C39.3377 69.544 39.1455 68.6652 38.8273 67.8288C38.7087 67.4951 39.2589 67.2643 39.3993 67.5876C39.7764 68.4493 40.6775 69.8209 41.6101 69.6783C41.9031 69.6121 42.163 69.4437 42.343 69.2033C42.523 68.9629 42.6116 68.6661 42.5926 68.3664C42.5754 67.3014 42.3335 66.2521 41.8826 65.2872C41.7161 64.9228 42.2559 64.6048 42.4239 64.9714C42.9145 66.0443 43.4252 67.7549 43.1407 68.9227C43.059 69.3093 42.8491 69.657 42.5449 69.9094C42.2408 70.1617 41.8603 70.3039 41.4653 70.3129C41.1717 70.2945 40.8848 70.2177 40.6213 70.0868C40.3577 69.9561 40.123 69.7741 39.9309 69.5513C40.1183 70.6034 40.1923 72.09 38.9372 72.1848C38.5473 72.1603 38.1682 72.0466 37.8293 71.8524C37.4904 71.6582 37.2006 71.3888 36.9824 71.0648C37.5234 72.3494 38.3533 73.4919 39.4075 74.4038C42.0864 74.4829 45.1402 73.5026 46.5007 71.0976C46.98 69.7149 48.3366 65.1102 47.605 63.8596C47.5452 63.7581 47.5213 63.67 47.3242 63.8529ZM78.7669 122.379C76.2283 122.23 73.8892 124.086 73.1731 126.988C73.0476 127.396 73.0117 127.826 73.0678 128.248C74.2266 127.833 76.7802 125.635 77.706 124.83C78.0046 124.568 78.4347 124.979 78.1495 125.272C77.3035 126.133 75.3697 128.426 75.3966 129.66C75.41 130.278 75.82 130.168 76.4419 129.871C77.8393 129.098 79.1247 128.137 80.2625 127.016C80.317 126.964 80.3882 126.934 80.463 126.931C80.5379 126.927 80.6117 126.951 80.6711 126.996C80.7304 127.042 80.7714 127.107 80.7869 127.18C80.8024 127.254 80.7912 127.33 80.7553 127.397C80.1351 128.391 79.6529 129.466 79.3217 130.59C79.2471 131.066 79.3068 131.129 79.8899 131.014C81.6963 130.459 83.4449 129.732 85.1112 128.841C84.0682 125.79 81.9798 122.573 78.7669 122.379Z" fill="#F6F6F6"/>
<path d="M111.677 117.301L112.349 127.173C115.694 127.621 119.082 127.664 122.437 127.299C122.478 127.293 122.52 127.296 122.559 127.309C122.598 127.323 122.633 127.345 122.661 127.374V117.278L111.677 117.301Z" fill="#77E4DF"/>
<path d="M38.635 123.702L38.5387 123.085H4.65963C4.5792 123.089 4.50337 123.124 4.44784 123.182C4.3923 123.241 4.36133 123.318 4.36133 123.399C4.36133 123.479 4.3923 123.556 4.44784 123.615C4.50337 123.673 4.5792 123.708 4.65963 123.712C41.1109 123.712 38.526 123.718 38.635 123.702ZM145.917 123.085H122.667V123.712H145.917C145.997 123.708 146.073 123.673 146.129 123.615C146.184 123.556 146.215 123.479 146.215 123.399C146.215 123.318 146.184 123.241 146.129 123.182C146.073 123.124 145.997 123.089 145.917 123.085ZM112.115 123.712L112.072 123.085C112.072 123.085 105.109 123.08 104.702 123.074C104.409 123.283 104.085 123.497 103.74 123.712H112.115ZM122.441 127.3C119.095 127.675 115.718 127.632 112.382 127.172C112.002 127.112 111.811 127.72 112.216 127.775C115.605 128.25 119.039 128.301 122.441 127.925C122.838 127.882 122.84 127.256 122.441 127.3ZM111.662 117.29H122.686C122.766 117.284 122.842 117.248 122.898 117.189C122.952 117.13 122.984 117.051 122.984 116.971C122.984 116.89 122.952 116.812 122.898 116.753C122.842 116.693 122.766 116.657 122.686 116.652L111.662 116.675C111.58 116.675 111.502 116.707 111.445 116.764C111.388 116.823 111.354 116.901 111.354 116.982C111.354 117.064 111.388 117.142 111.445 117.199C111.502 117.258 111.58 117.29 111.662 117.29ZM35.9075 126.68C32.3126 126.702 28.7188 126.537 25.1409 126.187C24.7399 126.148 24.7422 126.775 25.1409 126.813C28.7188 127.164 32.3126 127.328 35.9075 127.306C35.9879 127.302 36.0638 127.267 36.1194 127.209C36.1748 127.151 36.2058 127.073 36.2058 126.993C36.2058 126.913 36.1748 126.835 36.1194 126.776C36.0638 126.718 35.9879 126.684 35.9075 126.68ZM40.1731 130.115L34.0954 130.204C34.015 130.209 33.9392 130.243 33.8837 130.301C33.8281 130.36 33.7971 130.438 33.7971 130.518C33.7971 130.598 33.8281 130.675 33.8837 130.734C33.9392 130.792 34.015 130.827 34.0954 130.831L40.1731 130.741C40.2563 130.741 40.3361 130.708 40.3949 130.65C40.4536 130.591 40.4867 130.511 40.4867 130.428C40.4867 130.344 40.4536 130.264 40.3949 130.206C40.3361 130.148 40.2563 130.115 40.1731 130.115ZM109.805 128.094C107.731 127.739 105.627 127.584 103.525 127.634C103.442 127.634 103.362 127.667 103.304 127.726C103.244 127.784 103.211 127.864 103.211 127.947C103.211 128.029 103.244 128.109 103.304 128.168C103.362 128.227 103.442 128.259 103.525 128.259C105.572 128.208 107.619 128.355 109.638 128.698C110.032 128.765 110.202 128.162 109.805 128.094ZM130.093 129.99C126.688 129.606 123.273 129.337 119.847 129.181C119.444 129.163 119.445 129.79 119.847 129.808C123.27 129.962 126.686 130.231 130.093 130.617C130.489 130.662 130.486 130.035 130.093 129.99Z" fill="#004860"/>
<path d="M97.8008 134.694C97.8008 135.18 95.1713 134.63 94.8741 134.556C94.3472 134.33 93.7812 134.211 93.2083 134.204C92.6782 134.289 92.3676 134.715 92.0189 134.737C91.5933 134.76 91.4365 134.383 90.4435 134.799C89.6584 135.163 88.8532 135.483 88.0318 135.755C87.7646 135.885 87.4582 135.906 87.1753 135.816C86.9784 135.696 86.7638 135.606 86.5393 135.552C85.7381 135.448 85.4081 136.245 84.8003 136.424C84.6959 136.448 84.5876 136.449 84.4825 136.429C84.3775 136.408 84.2779 136.366 84.1904 136.303C84.1029 136.242 84.0293 136.162 83.9745 136.071C83.9197 135.978 83.8848 135.876 83.8722 135.77C83.8498 135.69 83.7967 135.622 83.7246 135.581C83.6525 135.54 83.5672 135.528 83.4869 135.55C83.4079 135.574 83.3411 135.628 83.3004 135.7C83.2596 135.771 83.2481 135.855 83.2682 135.936C83.31 136.168 83.4111 136.386 83.5617 136.568C83.7123 136.75 83.9073 136.89 84.1279 136.974C84.3485 137.059 84.5871 137.085 84.8206 137.05C85.0542 137.015 85.2748 136.92 85.4611 136.775C85.7508 136.568 86.1562 136.055 86.5594 136.196C87.1232 136.395 87.1313 136.704 88.2461 136.346C89.9634 135.791 90.4457 135.421 90.9572 135.277C91.5194 135.119 91.8203 135.599 92.5893 135.196C92.7973 135.047 93.0231 134.925 93.2613 134.831C93.5778 134.813 93.8937 134.875 94.1789 135.013C95.2089 135.336 96.2814 135.5 97.3604 135.502C97.8436 135.485 98.4287 135.265 98.4268 134.696C98.4209 134.616 98.3859 134.542 98.3284 134.488C98.27 134.433 98.1941 134.403 98.1143 134.403C98.0354 134.403 97.9585 134.433 97.9001 134.487C97.8417 134.541 97.8067 134.615 97.8008 134.694ZM84.9205 132.952C85.7597 133.162 86.2182 132.38 87.1082 132.425C87.9205 132.465 88.6851 132.821 89.4975 132.569C89.8767 132.453 90.2173 132.244 90.5898 132.11C91.4201 131.812 92.2556 132.235 93.0717 131.944C93.6742 131.729 94.0087 131.146 94.565 131.271C94.7974 131.336 95.0328 131.388 95.2706 131.429C95.7682 131.488 96.2728 131.419 96.7362 131.229C97.1043 131.08 96.9438 130.472 96.5697 130.625C95.3064 131.143 94.8352 130.503 94.1423 130.643C93.812 130.749 93.5069 130.92 93.2464 131.149C92.5147 131.659 91.7949 131.279 90.9235 131.389C90.0522 131.5 89.5714 132.094 88.6717 132.035C87.9616 131.99 87.0835 131.601 86.2593 131.925C85.9084 132.064 85.485 132.448 85.0893 132.347C85.0091 132.325 84.9233 132.334 84.8507 132.375C84.7782 132.416 84.7249 132.484 84.7025 132.565C84.6801 132.645 84.6905 132.731 84.7314 132.804C84.7723 132.876 84.8404 132.929 84.9205 132.952ZM89.3302 78.3635L91.2715 77.1629C91.3077 77.1424 91.3397 77.1151 91.3652 77.0822C91.3908 77.0494 91.4096 77.0118 91.4205 76.9716C91.4313 76.9314 91.4341 76.8894 91.4286 76.8482C91.4231 76.807 91.4095 76.7672 91.3884 76.7312C91.3674 76.6953 91.3395 76.664 91.3062 76.639C91.2729 76.6139 91.235 76.5957 91.1946 76.5855C91.1543 76.5754 91.1124 76.5733 91.0712 76.5795C91.03 76.5856 90.9905 76.5999 90.955 76.6215C90.3078 77.0228 89.6607 77.423 89.0137 77.8222C88.9434 77.8649 88.8926 77.9335 88.8725 78.0132C88.8522 78.093 88.8642 78.1774 88.9058 78.2485C88.9473 78.3195 89.0151 78.3714 89.0944 78.3929C89.1739 78.4144 89.2585 78.4039 89.3302 78.3635ZM74.1688 70.308C74.1929 70.1894 74.1834 70.0665 74.1415 69.953C74.0996 69.8395 74.0269 69.74 73.9315 69.6657C73.8362 69.5912 73.7219 69.545 73.6017 69.5318C73.4815 69.5188 73.3599 69.5395 73.2509 69.5918C73.1417 69.644 73.0494 69.7255 72.984 69.8274C72.9187 69.9292 72.8832 70.0473 72.8812 70.1682C72.8794 70.2891 72.9112 70.4081 72.9732 70.512C73.0353 70.6159 73.1251 70.7003 73.2326 70.7559C73.4163 70.8173 73.6165 70.8048 73.7912 70.7212C73.966 70.6376 74.1013 70.4894 74.1688 70.308ZM82.8396 73.2116C82.971 73.3341 83.1376 73.4122 83.3158 73.435C83.4939 73.4577 83.6748 73.424 83.8328 73.3385C83.9908 73.253 84.118 73.12 84.1963 72.9584C84.2748 72.7969 84.3004 72.6146 84.2698 72.4376C84.2391 72.2607 84.1537 72.0977 84.0256 71.9718C83.8974 71.846 83.7329 71.7635 83.5554 71.7362C83.3778 71.7087 83.1962 71.7377 83.036 71.8191C82.8759 71.9004 82.7453 72.03 82.6627 72.1895C82.554 72.3495 82.5116 72.5456 82.5446 72.7363C82.5776 72.927 82.6834 73.0974 82.8396 73.2116ZM74.1419 75.7017C74.1221 75.7817 74.1337 75.8663 74.1745 75.938C74.2152 76.0097 74.2819 76.063 74.3607 76.087C74.7934 76.2531 75.2447 76.3659 75.7047 76.4229C77.5824 76.6932 79.4983 76.4176 81.2239 75.6293C81.1822 76.3713 80.941 77.0883 80.5257 77.7046C80.1105 78.321 79.5365 78.8138 78.8645 79.1311C77.9556 79.4844 76.9756 79.6162 76.0056 79.5156C75.6031 79.4887 75.6046 80.1129 76.0056 80.142C79.4625 80.3713 81.4762 78.6487 81.8294 75.7943C81.8608 75.5754 81.8742 75.3545 81.8697 75.1335C81.8684 75.0789 81.8532 75.0255 81.8252 74.9786C81.7973 74.9316 81.7578 74.8926 81.7104 74.8655C81.663 74.8383 81.6094 74.8238 81.5548 74.8234C81.5002 74.823 81.4463 74.8368 81.3985 74.8632C78.7376 76.1617 75.9757 76.0907 74.5219 75.483C74.4426 75.4631 74.3587 75.4748 74.2878 75.5156C74.2169 75.5565 74.1647 75.6231 74.1419 75.7017ZM83.6572 69.5225C84.0245 69.6048 84.353 69.8094 84.589 70.1026C84.9978 70.6645 85.1998 71.3502 85.1609 72.0439C85.1609 72.1268 85.1939 72.2064 85.2525 72.2651C85.3112 72.3237 85.3908 72.3567 85.4738 72.3567C85.5567 72.3567 85.6364 72.3237 85.695 72.2651C85.7537 72.2064 85.7866 72.1268 85.7866 72.0439C85.7799 70.2975 85.0116 69.3365 84.0521 68.9826C83.9785 68.9531 83.9018 68.931 83.8237 68.9169C83.7437 68.8975 83.6593 68.9093 83.5877 68.95C83.5162 68.9906 83.4627 69.0571 83.4385 69.1357C83.4166 69.216 83.4274 69.3016 83.4683 69.374C83.5092 69.4464 83.5771 69.4998 83.6572 69.5225ZM38.2991 74.2061C39.4741 79.3001 41.6381 84.1137 44.6681 88.3738C46.1217 90.389 47.8235 92.213 49.7333 93.8027C50.0409 94.055 50.4866 93.6153 50.1761 93.3592C44.7001 88.8487 40.902 81.8996 39.119 74.97C39.2475 75.0247 39.3877 75.0462 39.5267 75.0327C42.178 75.0559 45.1027 74.1591 46.678 71.9767C48.0262 75.5097 50.135 78.7029 52.855 81.3299C54.5247 82.9889 56.353 84.4801 58.3138 85.7822C58.6483 86.0061 58.9596 85.4619 58.6303 85.2409C55.4897 83.1847 52.727 80.6026 50.4635 77.6079C48.985 75.6938 47.8515 73.5365 47.114 71.2331C47.6783 69.6292 48.0888 67.9754 48.34 66.2939C48.4572 65.4383 48.6283 64.2885 48.1266 63.5142C48.039 63.3485 47.8906 63.2234 47.7124 63.1653C47.5344 63.1072 47.3407 63.1206 47.1724 63.2029C46.5729 63.6932 46.1121 64.3318 45.8358 65.0553C45.6864 64.3318 45.5371 63.6515 45.2236 62.604C44.9892 61.4643 44.4066 60.4253 43.5563 59.6309C43.3667 59.4502 43.1293 59.3277 42.8722 59.2776C42.6151 59.2277 42.3491 59.2523 42.1055 59.3487C41.9371 59.5007 41.8064 59.6899 41.7239 59.9013C41.6416 60.1128 41.6096 60.3405 41.6307 60.5664C41.6292 61.7523 41.721 62.9363 41.9055 64.1078C40.887 64.1715 39.8871 64.4099 38.9495 64.8126C34.9377 66.5344 35.238 70.9799 38.2991 74.2061ZM37.8698 66.1961C39.1622 65.2333 40.7314 64.7144 42.343 64.717C42.4041 64.7124 42.4627 64.6909 42.512 64.6547C42.5615 64.6186 42.5999 64.5693 42.6226 64.5125C42.6455 64.4556 42.652 64.3935 42.6414 64.3333C42.6307 64.2729 42.6035 64.2168 42.5625 64.1713C42.3853 63.1814 42.2833 62.1795 42.2571 61.1742C42.2106 60.791 42.2382 60.4024 42.3385 60.0296C42.4826 59.6563 42.9724 59.9721 43.1868 60.1326C43.8968 60.8138 44.3843 61.6938 44.5852 62.657C45.0264 64.0966 45.1877 65.0575 45.2893 65.4943C45.3259 65.6549 45.4573 65.899 45.4177 66.0618C45.4068 66.1015 45.4038 66.143 45.4088 66.1838C45.414 66.2246 45.427 66.2642 45.4474 66.3C45.4677 66.3358 45.495 66.3673 45.5275 66.3926C45.56 66.4178 45.5971 66.4365 45.6368 66.4474C45.6765 66.4584 45.718 66.4613 45.7589 66.4562C45.7998 66.4512 45.8392 66.438 45.875 66.4177C45.9108 66.3973 45.9423 66.3702 45.9676 66.3377C45.9929 66.3051 46.0116 66.268 46.0225 66.2282C46.3137 65.3659 46.7544 64.5617 47.3246 63.8525C47.4912 63.6971 47.5217 63.7166 47.6046 63.8576C48.3079 65.0605 46.9386 69.848 46.5004 71.0956C45.1459 73.4849 42.0869 74.4869 39.4071 74.4018C38.3536 73.4894 37.5239 72.3469 36.9821 71.0628C37.2004 71.3867 37.4901 71.6561 37.8291 71.8503C38.1679 72.0446 38.547 72.1583 38.9368 72.1828C40.1919 72.085 40.1188 70.6014 39.9306 69.5493C40.1228 69.7721 40.3575 69.9541 40.621 70.0849C40.8844 70.2157 41.1714 70.2925 41.465 70.3109C41.8602 70.3029 42.2411 70.1615 42.5458 69.9096C42.8505 69.6578 43.0611 69.3104 43.1434 68.9237C43.4271 67.7588 42.9194 66.0468 42.4267 64.9724C42.2587 64.6057 41.7188 64.9239 41.8853 65.2883C42.3371 66.2525 42.5784 67.3019 42.5931 68.3667C42.6122 68.6658 42.5243 68.962 42.3452 69.2023C42.166 69.4426 41.9072 69.6114 41.615 69.6785C40.6817 69.8204 39.7805 68.4465 39.4042 67.5879C39.2639 67.2646 38.7135 67.4953 38.8323 67.829C39.131 68.6713 39.6006 70.355 39.3302 71.1987C39.3144 71.2697 39.2825 71.3361 39.2371 71.3928C39.1917 71.4497 39.1339 71.4953 39.0682 71.5265C38.5052 71.7362 37.9087 71.1568 37.5675 70.788C36.8283 69.9868 36.8208 69.6456 36.6215 69.5359C36.552 68.9203 36.6289 68.297 36.8459 67.7166C37.0628 67.1363 37.4137 66.6154 37.8698 66.1961Z" fill="#001F29"/>
<path d="M61.5212 107.396C62.1196 103.72 63.5397 100.224 65.676 97.1716C67.8122 94.119 70.6095 91.5877 73.8596 89.766C74.0722 90.4365 74.4359 91.0493 74.9226 91.557C75.4093 92.0649 76.0061 92.4542 76.667 92.6951C76.2856 93.3356 75.9455 93.9997 75.6486 94.6835C74.2478 97.7521 73.4953 101.078 73.4377 104.451C73.4416 104.53 73.4764 104.606 73.5347 104.662C73.593 104.717 73.6704 104.748 73.751 104.748C73.8315 104.748 73.9089 104.717 73.9672 104.662C74.0255 104.606 74.0603 104.53 74.0641 104.451C74.1204 100.634 75.0979 96.8874 76.9134 93.5299C76.9417 93.4768 77.2121 92.996 77.2867 92.8758C78.4678 93.135 79.7036 92.9279 80.7357 92.2977C81.7677 91.6673 82.5164 90.6627 82.8253 89.4935C86.0292 90.0348 89.7953 90.4806 92.9618 89.8511C94.1527 89.6137 95.7109 89.3793 96.3359 88.1824C96.4983 87.8699 96.5938 87.5269 96.6161 87.1754C96.6385 86.8239 96.5873 86.4716 96.4658 86.141C96.1918 85.507 95.8391 84.91 95.416 84.364C94.2706 82.6863 94.6045 81.7672 94.7052 79.6139C94.7963 77.6868 95.0942 76.3965 94.7799 74.0886C94.4027 70.7982 92.8661 67.7495 90.4456 65.4888C87.9064 63.3597 84.7802 62.0521 81.4813 61.7391C79.0536 61.4019 76.58 61.7591 74.3469 62.7695C72.1138 63.7797 70.2125 65.4018 68.8631 67.448C68.0581 68.7693 67.3924 70.1705 66.877 71.6292C66.205 73.6564 66.7045 76.2092 66.1885 78.1653C65.6785 80.1014 63.5685 81.1982 63.9053 82.9147C64.0942 83.5818 64.5239 84.1548 65.1111 84.523C65.8074 84.9713 66.5713 85.3046 67.3735 85.5101C68.2904 85.7931 72.4507 87.0362 73.6155 87.3633C73.5932 87.9562 73.6238 88.5499 73.7065 89.1374C72.4059 89.8146 71.1838 90.6329 70.0621 91.5774C65.1815 95.4839 61.9222 101.061 60.9143 107.231C60.8522 107.62 61.4548 107.79 61.5212 107.396ZM82.2586 89.2202C82.0035 90.2751 81.3412 91.1862 80.4164 91.7542C79.4916 92.3222 78.3796 92.501 77.3232 92.2516C76.6493 92.0839 76.0299 91.7456 75.5244 91.2695C75.0189 90.7933 74.6443 90.1951 74.4367 89.5323C74.3021 89.0717 74.2365 88.5936 74.2419 88.1137V85.9125C75.5062 86.5199 76.8878 86.8435 78.2903 86.8608C79.6928 86.878 81.082 86.5886 82.3609 86.0126C82.4274 87.0827 82.3932 88.1566 82.2586 89.2202ZM73.6155 84.8448C68.5443 81.6276 67.8745 74.1842 71.7488 69.3706C72.8561 67.9341 74.3333 66.8259 76.0224 66.165C77.7114 65.5041 79.5483 65.3152 81.3365 65.6187C85.5924 66.4856 88.644 70.2845 88.7126 75.0884C88.7132 75.1366 88.7248 75.1839 88.7464 75.2269C88.768 75.2699 88.7991 75.3074 88.8374 75.3366C88.8758 75.3657 88.9201 75.3858 88.9674 75.3951C89.0146 75.4046 89.0633 75.4031 89.1099 75.3908C89.7429 75.121 90.4508 75.0831 91.109 75.2838C91.7673 75.4844 92.3337 75.9107 92.7087 76.4877C93.0029 77.0534 93.1011 77.7008 92.988 78.3284C92.875 78.956 92.5569 79.5283 92.0837 79.9559C91.5483 80.4861 90.841 80.8077 90.0894 80.8624C89.3378 80.9172 88.5913 80.7015 87.9846 80.2545C87.9504 80.2214 87.9091 80.1966 87.8638 80.1816C87.8187 80.1667 87.7707 80.1621 87.7234 80.1682C87.6761 80.1743 87.6309 80.191 87.591 80.2168C87.551 80.2427 87.5174 80.2773 87.4926 80.318C84.8458 85.5251 78.5814 87.9957 73.6155 84.8448Z" fill="#001F29"/>
<path d="M99.7164 125.531C97.8542 126.365 90.0332 129.769 87.9515 129.736C87.8805 129.736 87.5319 129.666 87.4371 129.645C86.899 129.55 86.3889 129.336 85.9438 129.019C85.888 128.969 85.835 128.917 85.7847 128.861C85.0538 126.382 83.3006 123.494 80.9062 122.323C85.5712 119.441 92.7995 116.041 98.4042 115.447C98.8004 115.405 98.8053 114.775 98.4042 114.82C97.5874 114.908 96.7761 115.038 95.9727 115.208C93.1773 112.386 91.2502 108.741 89.6651 105.139C88.0776 101.477 86.7857 97.6945 85.8019 93.8276C85.7071 93.4349 85.103 93.6036 85.1972 93.9933C85.6414 95.8525 86.2163 97.6867 86.8264 99.4964C88.6182 104.797 91.4002 111.315 95.2574 115.372C90.2871 116.55 84.0735 119.566 80.1901 122.032C76.8354 120.918 73.4151 123.158 72.5288 126.943L72.0547 126.91V109.908C72.0527 109.826 72.0191 109.747 71.9607 109.689C71.9023 109.63 71.8237 109.596 71.7411 109.594L36.2866 106.288C36.0626 106.268 35.9566 106.504 35.9879 106.685C39.583 129.791 39.3815 128.48 39.3882 128.53C39.3909 128.563 39.4004 128.595 39.4158 128.625C39.4313 128.654 39.4525 128.68 39.4782 128.701C39.5039 128.722 39.5336 128.738 39.5656 128.746C39.5974 128.755 39.6308 128.758 39.6637 128.754C39.6733 128.754 39.6808 128.761 39.6905 128.762C73.6137 132.277 71.7709 132.146 71.9255 132.043C73.4367 131.539 77.429 130.21 78.938 129.702C78.9051 129.794 78.8633 129.884 78.8379 129.977C78.7053 130.332 78.663 130.715 78.7148 131.09C78.9067 131.888 79.8347 131.676 80.6053 131.445C82.2576 130.879 83.8659 130.192 85.4174 129.391C86.1713 129.999 87.1051 130.343 88.074 130.368C90.2871 130.349 98.0129 126.98 100.034 126.074C100.399 125.908 100.078 125.368 99.7164 125.531ZM71.4185 131.423C70.4635 131.324 40.3021 128.186 39.9563 128.158C39.8548 127.504 36.6898 107.103 36.6711 106.953C36.6711 106.953 71.046 110.187 71.4201 110.209L71.4185 131.423ZM74.9651 130.364L72.0532 131.336V127.535L72.4265 127.562C72.3354 128.489 72.5505 129.13 73.3971 128.793C74.0111 128.523 74.5857 128.171 75.1054 127.748L75.4101 127.769C74.9807 128.525 74.488 129.642 74.9681 130.364H74.9651ZM79.3181 130.599C79.6529 129.473 80.1366 128.396 80.7561 127.397C80.792 127.331 80.8032 127.254 80.7877 127.181C80.7722 127.108 80.7312 127.043 80.6719 126.997C80.6125 126.95 80.5387 126.928 80.4638 126.932C80.389 126.935 80.3178 126.965 80.2633 127.017C79.1254 128.138 77.84 129.098 76.4427 129.872C75.9058 130.129 75.4273 130.286 75.3974 129.694C75.3294 128.448 77.3178 126.12 78.1496 125.273C78.4355 124.983 78.0077 124.567 77.7061 124.831C76.8765 125.554 74.2341 127.831 73.0679 128.249C73.0217 127.989 73.023 127.723 73.0716 127.464C73.4666 125.111 75.1622 122.881 77.6119 122.452C81.3369 121.801 83.8882 125.266 85.1142 128.842C83.4483 129.702 81.713 130.422 79.9266 130.992C79.3345 131.119 79.2464 131.044 79.3211 130.599H79.3181Z" fill="#001F29"/>
<path d="M51.4753 116.681C51.445 116.738 51.4327 116.803 51.44 116.867C51.4473 116.931 51.474 116.991 51.5163 117.039C51.5586 117.088 51.6147 117.123 51.6771 117.138C51.7395 117.155 51.8053 117.151 51.8657 117.129C51.9875 117.081 51.9867 117.031 52.1241 116.839C52.2845 116.639 52.4741 116.465 52.6864 116.322C52.9912 116.113 53.3436 115.986 53.7109 115.95C54.0783 115.915 54.4485 115.973 54.7874 116.119C55.1115 116.31 55.3773 116.586 55.556 116.917C55.7347 117.247 55.8195 117.62 55.8014 117.996C55.7036 119.401 53.5173 119.836 52.8148 118.59C52.7713 118.521 52.7029 118.472 52.6241 118.454C52.5453 118.434 52.4622 118.446 52.3922 118.487C52.3221 118.528 52.2706 118.595 52.2485 118.673C52.2264 118.751 52.2354 118.834 52.2734 118.905C52.5048 119.256 52.8275 119.536 53.2067 119.717C53.5859 119.897 54.0071 119.971 54.425 119.929C54.8429 119.889 55.2416 119.734 55.578 119.482C55.9143 119.23 56.1756 118.892 56.3337 118.503C56.4543 118.039 56.4449 117.55 56.3064 117.092C56.168 116.632 55.906 116.22 55.549 115.9C55.2373 115.664 54.8793 115.496 54.4985 115.407C54.1177 115.318 53.7224 115.31 53.3383 115.384C52.9542 115.457 52.5899 115.611 52.269 115.835C51.948 116.058 51.6776 116.346 51.4753 116.681ZM78.1261 140.099C77.4728 140.193 77.2047 139.881 76.8464 139.883C76.4879 139.886 76.27 140.311 75.7966 140.018C75.4531 139.805 75.138 140.348 75.4808 140.559C75.693 140.692 75.9415 140.755 76.1915 140.739C76.4265 140.721 76.6527 140.642 76.8486 140.512C77.3033 140.706 77.8028 140.772 78.2926 140.703C78.3725 140.681 78.4402 140.627 78.4813 140.555C78.5224 140.483 78.5335 140.398 78.5121 140.318C78.4881 140.239 78.4347 140.172 78.3628 140.131C78.291 140.09 78.2062 140.079 78.1261 140.099ZM79.4888 136.734C75.4605 136.444 75.8153 136.494 75.7779 136.406C75.7355 136.335 75.6669 136.284 75.5867 136.262C75.5065 136.242 75.4213 136.253 75.3494 136.295C75.279 136.337 75.2281 136.406 75.207 136.486C75.1861 136.566 75.1966 136.651 75.2365 136.724C75.3119 136.847 75.4197 136.95 75.5486 137.017C75.6774 137.085 75.8223 137.116 75.9675 137.107C76.0422 137.114 79.7195 137.376 79.4888 137.359C79.8912 137.389 79.8896 136.759 79.4888 136.734Z" fill="#001F29"/>
</svg>
