<svg width="24" height="24" viewBox="0 0 24 24" fill="none" xmlns="http://www.w3.org/2000/svg">
<path d="M17.5 19C18.3125 19 19 18.3438 19 17.5V6.5C19 5.6875 18.3125 5 17.5 5H6.5C5.65625 5 5 5.6875 5 6.5V17.5C5 18.3438 5.65625 19 6.5 19H17.5ZM11.0938 15.9375C10.9062 16.1562 10.5625 16.1562 10.375 15.9375L7.125 12.6875C6.9375 12.5 6.9375 12.1875 7.125 12L7.84375 11.2812C8.03125 11.0938 8.34375 11.0938 8.53125 11.2812L10.75 13.4688L15.4375 8.78125C15.625 8.59375 15.9375 8.59375 16.125 8.78125L16.8438 9.5C17.0312 9.6875 17.0312 10 16.8438 10.1875L11.0938 15.9375Z" fill="#004860"/>
</svg>
