<svg width="154" height="154" viewBox="0 0 154 154" fill="none" xmlns="http://www.w3.org/2000/svg">
<path d="M133.115 19.9251C133.115 19.8315 133.078 19.7417 133.012 19.6756C132.945 19.6094 132.856 19.5722 132.762 19.5722C132.669 19.5722 132.579 19.6094 132.513 19.6756C132.446 19.7417 132.409 19.8315 132.409 19.9251C132.409 20.0018 130.952 98.1873 130.958 98.2656C126.889 98.5877 122.812 98.8285 118.731 99.0241C113.843 99.2603 93.4201 99.8356 88.0918 99.9169C82.6162 100.003 31.6205 100.06 27.3561 100.019V19.9251H4.47364C4.47364 19.9251 4.45907 98.761 4.47364 99.7228C4.38068 99.7228 4.29152 99.7598 4.22579 99.8255C4.16005 99.8912 4.12312 99.9804 4.12312 100.073C4.12312 100.166 4.16005 100.255 4.22579 100.321C4.29152 100.387 4.38068 100.424 4.47364 100.424C5.27208 100.441 110.305 100.086 115.325 99.8693C122.349 99.5694 126.895 99.2795 131.311 98.9321C131.403 98.9299 131.491 98.8923 131.556 98.827C131.622 98.7618 131.659 98.6738 131.662 98.5816C133.206 16.0617 133.108 20.0018 133.115 19.9251Z" fill="#004860"/>
<path d="M38.9636 75.6415C39.6378 75.6484 40.4063 75.6254 40.3289 75.6254C40.4215 75.6242 40.5101 75.5869 40.5757 75.5215C40.6413 75.456 40.6788 75.3675 40.6802 75.2749V72.7223C40.6778 72.63 40.64 72.5421 40.5746 72.4768C40.5092 72.4116 40.4212 72.374 40.3289 72.3718L15.4224 71.7728C15.361 71.7722 15.3007 71.7881 15.2476 71.8189C15.1946 71.8496 15.1508 71.8941 15.1209 71.9477C14.5419 73 13.9628 74.0477 13.3837 75.0992C13.356 75.149 13.3408 75.2047 13.3395 75.2617C13.3381 75.3186 13.3506 75.375 13.3759 75.426C13.4012 75.477 13.4385 75.5211 13.4846 75.5545C13.5307 75.5879 13.5843 75.6096 13.6406 75.6177C13.7173 75.643 18.3837 75.63 18.0808 75.63C15.608 80.3731 15.4362 91.3641 4.4958 138.408C4.38995 138.849 5.07104 139.036 5.17305 138.595C6.14713 134.482 8.05541 126.088 8.07151 126.017C14.3022 127.269 20.5672 128.343 26.859 129.238C26.0831 132.785 25.2947 136.329 24.4936 139.871C24.3923 140.311 25.0688 140.499 25.1708 140.059C26.1326 135.883 29.6961 119.127 30.5075 114.919C31.2863 110.899 32.0298 106.871 32.738 102.834C33.7143 106.299 37.4534 106.613 39.5097 103.74C40.6801 102.108 41.3398 98.7617 41.691 96.7606L45.1525 117.994C45.2292 118.438 45.9026 118.251 45.829 117.807C44.5496 109.885 40.5628 85.4521 38.9636 75.6415ZM14.2933 74.9083C14.7374 74.0968 15.1861 73.2891 15.6302 72.4784C16.3888 72.4945 39.7582 73.0736 39.9784 73.0775V74.9182C5.00892 74.9228 16.7723 74.863 14.2933 74.9083ZM18.7779 75.7926C18.8056 75.7399 18.8196 75.6811 18.8186 75.6216H36.2845C35.8565 78.7448 35.4068 81.8639 34.9354 84.9789C30.1409 84.6767 25.338 84.5793 20.539 84.3752C19.2098 84.3177 16.5506 84.1758 16.5506 84.1758C17.1926 80.7198 17.4994 78.1703 18.7779 75.7926ZM16.5537 84.8845C22.7003 85.2588 28.6974 85.3048 34.8349 85.6799C34.7252 86.4177 33.3347 95.2205 32.7111 98.8767C32.5922 98.8123 17.6344 99.0087 13.7403 99.0447C16.7753 83.5415 16.2914 84.8845 16.556 84.8845H16.5537ZM27.0032 128.542C20.3718 127.598 13.9006 126.478 8.22414 125.325C9.07627 121.501 10.8664 113.155 10.9393 112.812C13.7549 112.769 14.9614 113.056 29.8732 114.464C28.9751 119.168 28.0191 123.861 27.0055 128.542H27.0032ZM30.0082 113.771C14.8256 112.299 13.4627 112.087 11.082 112.103C13.9022 98.652 13.4872 99.7496 13.6897 99.7496C33.5272 99.5348 32.5224 99.5486 32.5991 99.5295C31.8667 103.73 30.8274 109.599 30.0105 113.771H30.0082ZM39.4484 102.452C37.5608 106.318 32.761 105.949 33.2557 99.9452C33.2557 99.8685 36.7232 77.7162 36.994 75.6254C36.994 75.6254 37.8507 75.63 38.2542 75.6377C39.1469 81.1132 41.1979 93.7034 41.3321 94.5187C41.0744 96.5459 40.345 100.615 39.4484 102.452Z" fill="black"/>
<path d="M33.626 39.3682C68.1169 39.3682 64.996 39.4219 65.3028 39.2662C65.3358 39.2347 65.3619 39.1967 65.3795 39.1546C65.3971 39.1125 65.4057 39.0672 65.4048 39.0216C65.4048 24.4487 65.5145 24.3989 65.1601 24.3283C65.0474 24.2907 33.5332 24.3038 33.6237 24.3038C33.5312 24.3051 33.4428 24.3425 33.3774 24.408C33.312 24.4734 33.2746 24.5617 33.2732 24.6543V39.0177C33.2738 39.1109 33.3113 39.2 33.3774 39.2657C33.4435 39.3314 33.5329 39.3682 33.626 39.3682ZM34.992 38.6672C39.4176 37.065 44.2496 34.8215 48.9191 32.5804C51.8137 33.7953 61.6726 37.8358 63.6944 38.6672H34.992ZM64.7014 38.3205C59.7209 36.2759 54.7429 34.2252 49.7674 32.1685C53.1022 30.5823 63.0463 25.8899 64.7014 25.1758V38.3205ZM63.3807 25.004C59.7498 26.6017 56.3527 28.2752 48.9114 31.8164C43.9144 29.711 39.1491 27.5926 34.3232 25.004H63.3807ZM33.9765 25.6176C38.5654 28.0766 43.2709 30.2035 48.0669 32.2229C43.478 34.4868 38.7749 36.5116 33.9765 38.2891V25.6176ZM65.4071 45.4229C65.4055 45.3723 65.3935 45.3226 65.3716 45.2769C65.3498 45.2313 65.3187 45.1906 65.2803 45.1577C65.2419 45.1247 65.1971 45.1001 65.1487 45.0854C65.1002 45.0707 65.0493 45.0663 64.999 45.0723H33.6291C33.5366 45.0739 33.4484 45.1114 33.383 45.1768C33.3176 45.2422 33.2802 45.3304 33.2786 45.4229V67.773C33.28 67.8656 33.3173 67.954 33.3827 68.0196C33.4481 68.0851 33.5365 68.1227 33.6291 68.1243C67.3621 68.1243 65.1287 68.1718 65.2836 68.0384C65.2907 68.0315 65.299 68.026 65.3081 68.0223C65.3412 67.9908 65.3673 67.9528 65.3849 67.9107C65.4024 67.8685 65.411 67.8232 65.4102 67.7776C65.4485 46.1262 65.4071 45.3462 65.4071 45.4229ZM33.9934 45.7734C65.1087 45.7734 63.8171 45.7695 63.8946 45.778C60.4485 48.1273 54.726 52.4454 48.8991 56.7329C36.5222 48.6274 34.5426 46.0472 33.985 45.9084C33.992 45.8637 33.9948 45.8185 33.9934 45.7734ZM33.9773 46.7605C38.5489 50.5053 43.3307 53.986 48.2993 57.1854C43.7425 60.7052 38.9595 63.922 33.9811 66.815C33.9758 66.2574 33.9773 46.6554 33.9773 46.7605ZM34.3608 67.4064C39.4682 64.6291 44.6814 60.7006 48.9244 57.5889C51.737 59.432 61.9786 65.9614 64.2681 67.4271C63.2748 67.4186 34.5518 67.4186 34.36 67.4064H34.3608ZM64.6861 66.8557C59.6279 63.6245 54.5735 60.3876 49.5227 57.1448C50.868 56.1477 63.0424 47.2008 64.7091 46.0832C64.6999 46.7866 64.6853 66.7774 64.6853 66.8557H64.6861Z" fill="#77E4DF"/>
<path d="M132.761 18.0942C132.761 17.4381 132.632 16.7882 132.382 16.1818C132.131 15.5755 131.763 15.0245 131.299 14.5603C130.836 14.0961 130.285 13.7278 129.679 13.4765C129.073 13.2252 128.423 13.0958 127.767 13.0957H9.4698C8.14412 13.0957 6.87274 13.6224 5.93534 14.5598C4.99795 15.4972 4.47132 16.7685 4.47132 18.0942V19.9273H132.758L132.761 18.0942ZM109.534 18.0091C109.238 18.0091 108.949 17.9213 108.702 17.7569C108.456 17.5925 108.265 17.3588 108.151 17.0853C108.038 16.8119 108.008 16.511 108.066 16.2207C108.124 15.9305 108.266 15.6638 108.476 15.4546C108.685 15.2453 108.952 15.1028 109.242 15.045C109.532 14.9873 109.833 15.0169 110.106 15.1302C110.38 15.2434 110.614 15.4352 110.778 15.6813C110.942 15.9274 111.03 16.2167 111.03 16.5127C111.031 16.7093 110.992 16.9041 110.917 17.0859C110.842 17.2676 110.731 17.4327 110.592 17.5717C110.453 17.7108 110.288 17.821 110.106 17.896C109.925 17.9711 109.73 18.0095 109.533 18.0091H109.534ZM115.16 18.0091C114.864 18.0092 114.575 17.9216 114.329 17.7573C114.083 17.5929 113.891 17.3593 113.777 17.0859C113.664 16.8124 113.634 16.5115 113.692 16.2212C113.75 15.9309 113.892 15.6642 114.101 15.4548C114.311 15.2455 114.577 15.1029 114.867 15.0451C115.158 14.9873 115.459 15.0169 115.732 15.1301C116.006 15.2434 116.239 15.4351 116.404 15.6812C116.568 15.9273 116.656 16.2167 116.656 16.5127C116.656 16.7093 116.618 16.904 116.543 17.0857C116.468 17.2674 116.357 17.4325 116.218 17.5715C116.079 17.7105 115.914 17.8207 115.733 17.8958C115.551 17.9709 115.356 18.0094 115.16 18.0091H115.16ZM121.027 18.0091C120.731 18.0091 120.442 17.9213 120.196 17.7569C119.95 17.5925 119.758 17.3588 119.645 17.0853C119.531 16.8119 119.502 16.511 119.56 16.2207C119.617 15.9305 119.76 15.6638 119.969 15.4546C120.178 15.2453 120.445 15.1028 120.735 15.045C121.026 14.9873 121.326 15.0169 121.6 15.1302C121.873 15.2434 122.107 15.4352 122.271 15.6813C122.436 15.9274 122.524 16.2167 122.524 16.5127C122.524 16.7094 122.485 16.9042 122.41 17.0859C122.335 17.2677 122.224 17.4328 122.085 17.5718C121.946 17.7108 121.781 17.821 121.599 17.896C121.417 17.9711 121.222 18.0095 121.026 18.0091H121.027Z" fill="#004860"/>
<path d="M23.4052 31.4468C23.4021 30.2682 23.1163 29.1076 22.5715 28.0625C22.0268 27.0174 21.2392 26.1183 20.2748 25.4407C19.3104 24.7632 18.1975 24.3271 17.0296 24.1691C15.8617 24.011 14.6729 24.1356 13.5631 24.5324C8.64594 26.2313 6.55052 32.7507 10.5021 36.5266C15.035 40.8478 23.3875 38.0575 23.4052 31.4468Z" fill="#FDFDFD"/>
<path d="M9.97985 42.4147C10.0397 42.1332 10.8803 42.5681 11.0314 42.5988C11.7539 42.7384 11.8935 42.2283 12.3077 42.236C12.577 42.2742 12.8393 42.3517 13.0862 42.4661C16.0007 43.4064 19.0595 42.5037 22.0024 43.0735C22.4435 43.1587 22.6344 42.4822 22.1904 42.3963C19.3487 41.8456 16.4042 42.5704 13.8302 41.9438C13.192 41.7904 12.5155 41.3954 11.9341 41.5848C11.734 41.65 11.5875 41.8011 11.3973 41.8824C11.1672 41.9806 10.9087 41.8218 10.6962 41.7359C9.94918 41.4406 9.40154 41.7781 9.30567 42.2252C9.20979 42.6724 9.88858 42.8618 9.97985 42.4147ZM18.0647 45.643C15.6775 45.4078 13.2766 45.3437 10.8803 45.4512C10.4278 45.4719 10.4278 46.173 10.8803 46.1568C13.2766 46.0534 15.6773 46.1175 18.0647 46.3486C18.5126 46.3892 18.5088 45.6867 18.0647 45.643ZM20.6326 45.8301C20.5556 45.8789 20.5005 45.9557 20.479 46.0443C20.4575 46.1329 20.4712 46.2264 20.5172 46.3051C20.5632 46.3838 20.6379 46.4416 20.7257 46.4663C20.8135 46.491 20.9074 46.4807 20.9877 46.4376C21.137 46.3697 21.3021 46.3445 21.4648 46.3647C21.5521 46.3783 21.637 46.4042 21.7171 46.4414C21.7571 46.4667 21.8017 46.4837 21.8484 46.4914C21.895 46.4991 21.9428 46.4973 21.9887 46.4862C22.0347 46.475 22.0779 46.4547 22.1159 46.4264C22.1538 46.3982 22.1857 46.3626 22.2095 46.3217C22.2334 46.2809 22.2488 46.2357 22.2548 46.1888C22.2608 46.1418 22.2573 46.0942 22.2445 46.0487C22.2317 46.0031 22.2098 45.9607 22.1802 45.9238C22.1506 45.8869 22.1139 45.8563 22.0722 45.8339C21.8509 45.7156 21.6039 45.6533 21.3529 45.6526C21.1019 45.652 20.8546 45.7129 20.6326 45.8301ZM12.0507 49.0231C11.4037 48.8023 10.7172 48.7215 10.0366 48.7861C9.94639 48.7903 9.86125 48.8291 9.79889 48.8945C9.73653 48.9598 9.70174 49.0467 9.70174 49.137C9.70174 49.2273 9.73653 49.3142 9.79889 49.3795C9.86125 49.4449 9.94639 49.4837 10.0366 49.4879C10.6535 49.4221 11.2773 49.4944 11.8628 49.6996C11.9526 49.7241 12.0485 49.7122 12.1295 49.6663C12.2105 49.6205 12.2702 49.5445 12.2954 49.4549C12.3181 49.3653 12.3053 49.2703 12.2597 49.1899C12.2141 49.1095 12.1393 49.0497 12.0507 49.0231ZM23.6415 49.9159C23.3347 49.4227 22.6713 49.4756 22.162 49.4388C20.2138 49.2854 18.1514 49.2294 16.026 49.2678C15.9354 49.272 15.8499 49.311 15.7873 49.3766C15.7246 49.4422 15.6897 49.5295 15.6897 49.6202C15.6897 49.7109 15.7246 49.7982 15.7873 49.8638C15.8499 49.9294 15.9354 49.9684 16.026 49.9726C18.1314 49.934 20.2375 49.9967 22.3369 50.1605C22.4803 50.1728 22.9504 50.1314 23.0386 50.2741C23.271 50.6537 23.8823 50.3032 23.6415 49.9159Z" fill="black"/>
<path d="M62.3552 121.209C62.0561 122.174 60.5835 122.236 59.1753 122.424C54.8272 122.993 50.8151 122.424 46.4632 121.572C45.8389 121.517 45.2305 121.345 44.6692 121.067C44.4566 120.942 44.285 120.758 44.1752 120.538C44.0654 120.317 44.0222 120.07 44.051 119.825C43.8289 120.123 43.6557 120.455 43.5379 120.808C43.2395 121.498 42.7532 123.124 43.4481 123.437C44.2051 123.786 44.7397 122.228 45.4991 122.548C45.8826 122.712 45.914 123.256 45.9639 123.699C46.0329 124.07 46.2706 124.474 46.6242 124.401C46.9778 124.327 47.0768 123.854 47.3989 123.704C47.4877 123.678 47.5808 123.671 47.6726 123.682C47.7644 123.693 47.853 123.722 47.9332 123.768C48.0134 123.814 48.0835 123.876 48.1394 123.949C48.1953 124.023 48.2359 124.107 48.2587 124.197C48.3343 124.564 48.3302 124.944 48.2464 125.31C48.093 126.597 48.3998 128.658 49.6492 128.665C50.2314 128.665 50.8557 128.128 50.8435 126.949C50.8281 126.422 50.6962 126.399 50.4277 126.023C49.5733 124.819 51.1058 123.881 51.6265 125.056C51.905 125.685 51.6227 127.17 51.4732 127.838C51.3198 128.582 50.9363 129.245 51.4854 129.685C51.7354 129.819 52.0162 129.886 52.3 129.879C52.5838 129.872 52.8608 129.791 53.1038 129.644C54.1561 129.089 53.4712 128.22 53.0754 127.496C52.9401 127.25 52.8556 126.979 52.8268 126.699C52.7981 126.42 52.8258 126.137 52.9082 125.869C52.9941 125.604 53.1858 125.326 53.4627 125.319C53.5866 125.324 53.7077 125.358 53.8171 125.416C55.516 126.179 55.157 126.72 55.1877 127.683C55.2038 128.067 55.3909 128.503 55.7706 128.564C56.2392 128.641 56.5652 128.071 56.5529 127.598C56.5307 126.743 56.0222 126.248 56.9242 125.212C57.2671 124.758 57.7388 124.417 58.2779 124.234C58.5087 124.171 58.7543 124.193 58.9708 124.294C59.1873 124.396 59.3607 124.571 59.4598 124.789C59.6224 125.287 59.1945 126.078 59.7007 126.428C60.1156 126.71 60.9279 126.301 61.0046 125.563C61.0299 125.333 60.9355 124.957 60.98 124.67C61.0245 124.383 61.3221 124.075 61.5936 124.202C61.8015 124.295 61.8505 124.564 61.895 124.789C61.9395 125.014 62.0745 125.277 62.3031 125.27C62.3246 125.268 62.3457 125.263 62.366 125.255C62.5861 125.195 62.6597 124.876 62.6636 124.623C62.685 122.37 62.774 121.675 62.3552 121.209Z" fill="#004860"/>
<path d="M45.5926 120.679C48.5593 121.344 51.5755 121.764 54.6109 121.935C56.4488 122.005 58.2891 121.886 60.1026 121.58C60.8542 121.452 61.4831 121.381 61.6519 121.079C61.8559 120.708 61.2155 120.504 60.967 120.426C56.0908 119.001 50.9732 118.598 45.9339 119.24C45.5487 119.256 45.1803 119.402 44.89 119.656C44.6055 119.973 44.6553 120.448 45.5926 120.679Z" fill="#004860"/>
<path d="M123.692 116.979C121.346 111.08 117.609 106.122 116.203 99.8186C115.416 96.2905 115.123 93.1895 113.011 90.2466C107.313 93.3088 100.694 94.187 94.3954 92.7163C94.3477 93.4234 94.3367 94.1326 94.3624 94.8409C94.4008 106.092 95.6096 111.609 96.3681 120.645C96.7355 124.71 96.474 128.783 96.8697 132.84C96.8871 133.668 97.1878 134.465 97.7219 135.099C100.511 137.884 102.675 130.654 103.152 129.012C105.3 121.622 103.862 114.339 104.518 107.739C104.482 107.807 104.424 107.861 104.353 107.893C104.283 107.925 104.204 107.933 104.129 107.915C104.054 107.898 103.987 107.856 103.938 107.796C103.889 107.737 103.861 107.663 103.858 107.586C103.993 103.84 106.466 100.79 107.463 97.2837C107.488 97.1939 107.547 97.1177 107.628 97.0718C107.709 97.0259 107.805 97.0141 107.895 97.0391C107.985 97.064 108.061 97.1236 108.107 97.2047C108.153 97.2858 108.165 97.3818 108.14 97.4716C107.621 99.0507 106.976 100.586 106.211 102.061C106.265 102.011 106.322 101.964 106.382 101.919C108.131 104.912 109.831 107.934 111.482 110.986C113.872 115.386 116.545 119.675 118.548 124.27C119.208 125.787 119.608 127.658 121.156 128.55C122.542 129.354 124.633 129.183 125.188 127.458C126.22 124.216 124.91 120.042 123.692 116.979Z" fill="#004860"/>
<path d="M79.7681 127.239C79.7175 127.424 79.6063 127.439 78.8799 127.921C78.8401 127.946 78.7954 127.964 78.7487 127.972C78.7019 127.98 78.654 127.979 78.6078 127.968C78.5616 127.957 78.518 127.937 78.4798 127.909C78.4416 127.88 78.4095 127.845 78.3853 127.804C78.3612 127.763 78.3456 127.718 78.3395 127.671C78.3333 127.624 78.3368 127.576 78.3496 127.53C78.3624 127.484 78.3843 127.442 78.414 127.405C78.4438 127.368 78.4807 127.337 78.5225 127.315C79.3233 126.801 79.2703 126.805 79.4199 126.805C78.6209 125.806 77.8093 124.817 76.9855 123.839C76.9088 124.075 76.345 124.448 76.0727 124.585C76.0125 124.621 75.9431 124.637 75.8732 124.633C75.8034 124.629 75.7364 124.604 75.6808 124.562C75.6252 124.519 75.5835 124.461 75.5611 124.395C75.5387 124.329 75.5366 124.257 75.555 124.19C75.6072 123.98 75.746 124.003 76.1456 123.708C76.4447 123.474 76.4179 123.413 76.5981 123.382C75.6931 122.308 74.7499 121.212 73.7687 120.094C73.7827 120.131 73.7909 120.169 73.7932 120.208C73.7932 120.572 73.0523 120.954 72.6842 121.068C72.6173 121.086 72.5468 121.083 72.4813 121.061C72.4159 121.039 72.3585 120.998 72.3163 120.943C72.2741 120.888 72.2491 120.822 72.2442 120.753C72.2394 120.684 72.255 120.615 72.2892 120.555C72.3659 120.422 72.4855 120.402 72.6397 120.343C72.8482 120.253 73.0377 120.124 73.1981 119.964C73.2517 119.911 73.3208 119.878 73.3951 119.868C73.4694 119.859 73.5448 119.874 73.6099 119.911C70.9755 116.911 68.3007 113.947 65.5864 111.019C65.3272 111.313 65.0295 111.571 64.7013 111.786C64.6208 111.833 64.5249 111.846 64.4347 111.822C64.3445 111.799 64.2674 111.74 64.2204 111.66C64.1734 111.579 64.1604 111.483 64.1841 111.393C64.2078 111.303 64.2664 111.226 64.347 111.179C64.5905 111.007 64.8195 110.816 65.0319 110.607C65.0625 110.578 65.0984 110.554 65.1377 110.538C63.8339 109.132 62.553 107.762 61.3174 106.453C61.3174 106.465 61.3258 106.478 61.3258 106.49C61.326 106.583 61.2893 106.672 61.2238 106.739C60.3264 107.469 60.3801 107.452 60.2743 107.48C60.2143 107.498 60.1508 107.499 60.0904 107.483C60.03 107.467 59.975 107.435 59.9314 107.39C59.8668 107.324 59.8306 107.235 59.8306 107.142C59.8306 107.049 59.8668 106.96 59.9314 106.893C60.8349 106.156 60.782 106.178 60.8817 106.151C61.0351 106.134 60.973 106.14 61.0351 106.151C59.8709 104.917 58.7022 103.687 57.5292 102.462C57.5689 102.538 57.579 102.627 57.5576 102.71C57.5154 102.871 57.4885 102.845 56.3917 103.661C56.3114 103.704 56.2175 103.714 56.1297 103.689C56.042 103.665 55.9672 103.607 55.9212 103.528C55.8752 103.449 55.8615 103.356 55.883 103.267C55.9046 103.179 55.9596 103.102 56.0366 103.053C57.0115 102.339 57.138 102.15 57.3904 102.319C53.1911 97.9281 50.2267 94.9269 50.2267 94.9269C48.8208 103.184 49.2403 113.776 49.5134 118.277C51.1231 118.227 52.7343 118.281 54.337 118.44L53.2156 104.02L74.4122 126.289L63.0531 125.599C62.9833 127.419 62.842 129.236 62.6297 131.045L81.9141 130.067C81.2237 129.106 80.5081 128.163 79.7681 127.239ZM53.8484 98.8654C53.8047 99.0249 53.7341 99.0418 52.8513 99.6891C52.7909 99.7236 52.7217 99.7396 52.6523 99.735C52.5829 99.7303 52.5164 99.7053 52.4611 99.6631C52.4058 99.6208 52.3643 99.5632 52.3416 99.4975C52.3189 99.4317 52.3161 99.3607 52.3336 99.2934C52.3735 99.14 52.4402 99.1231 53.3307 98.4704C53.391 98.436 53.4601 98.4201 53.5295 98.4247C53.5988 98.4293 53.6652 98.4542 53.7204 98.4964C53.7756 98.5385 53.8172 98.596 53.84 98.6616C53.8627 98.7272 53.8657 98.7981 53.8484 98.8654ZM69.7673 115.923C69.7159 116.107 69.574 116.153 68.952 116.564C68.8717 116.607 68.7777 116.617 68.69 116.592C68.6022 116.568 68.5275 116.51 68.4814 116.431C68.4354 116.353 68.4217 116.259 68.4433 116.17C68.4648 116.082 68.5199 116.005 68.5969 115.956C69.2757 115.508 69.3094 115.445 69.5173 115.491C69.6075 115.516 69.6843 115.575 69.7312 115.656C69.778 115.737 69.791 115.833 69.7673 115.923ZM113.461 52.5391C112.464 52.9732 111.337 55.4537 112.483 58.28C112.535 58.4058 112.731 58.6712 112.731 58.8054C112.731 57.1058 112.629 55.3363 113.51 53.8031C113.567 53.7011 114.293 52.9003 114.286 52.8513C114.199 52.3987 113.824 52.378 113.461 52.5391Z" fill="#77E4DF"/>
<path d="M106.361 62.0498C106.308 62.0582 106.256 62.0697 106.202 62.0782C105.923 62.1303 105.636 62.1042 105.371 62.0028C105.106 61.9014 104.875 61.7286 104.702 61.5037C103.112 61.3844 101.513 61.5401 99.9761 61.9639C97.1628 62.5775 94.1907 64.9114 91.28 63.965C87.1712 62.6289 84.2474 57.3481 84.0434 52.7048C84.0763 51.6111 84.1646 50.5198 84.308 49.4351C84.3736 48.9545 84.2537 48.467 83.9728 48.0717C83.6919 47.6764 83.2709 47.4028 82.7955 47.3067L79.0005 46.5236C78.482 46.4177 77.5608 52.24 77.524 52.615C76.5783 62.8091 83.143 71.4232 90.5214 72.9188C91.6919 73.1551 93.3064 72.9142 94.2889 73.7096C96.1151 75.1853 93.7305 80.5358 93.4283 82.3452C92.9152 85.407 91.8062 88.8354 91.8062 91.9379C92.6445 92.2607 93.5057 92.5209 94.3825 92.7164C100.933 94.2471 107.82 93.2377 113.655 89.8916C113.662 89.8916 114.14 66.1647 106.361 62.0498ZM80.0436 54.1805C80.0229 54.2572 79.9837 54.2794 79.8518 54.4106C79.7849 54.4718 79.6969 54.5048 79.6062 54.5027C79.5156 54.5007 79.4292 54.4637 79.3651 54.3995C79.301 54.3353 79.2642 54.2489 79.2623 54.1582C79.2603 54.0675 79.2935 53.9796 79.3548 53.9128C79.4722 53.7954 79.5151 53.7356 79.6279 53.7057C79.6735 53.6931 79.7211 53.6899 79.768 53.696C79.8149 53.7022 79.8601 53.7178 79.9009 53.7417C79.9746 53.7844 80.03 53.8528 80.0563 53.9338C80.0826 54.0148 80.0781 54.1026 80.0436 54.1805ZM82.4734 61.3396C82.3798 61.3396 82.2901 61.3024 82.2239 61.2362C82.1578 61.1701 82.1206 61.0803 82.1206 60.9867C82.1206 60.8932 82.1578 60.8034 82.2239 60.7373C82.2901 60.6711 82.3798 60.6339 82.4734 60.6339C82.567 60.6339 82.6567 60.6711 82.7229 60.7373C82.789 60.8034 82.8262 60.8932 82.8262 60.9867C82.8262 61.0803 82.789 61.1701 82.7229 61.2362C82.6567 61.3024 82.567 61.3396 82.4734 61.3396ZM82.8285 50.5725C82.8282 50.6655 82.7916 50.7547 82.7265 50.821C82.6771 50.8695 82.6145 50.9023 82.5466 50.9155C82.4787 50.9286 82.4084 50.9215 82.3445 50.895C82.2806 50.8686 82.2258 50.8239 82.1871 50.7665C82.1484 50.7092 82.1274 50.6417 82.1267 50.5725C82.1116 50.4706 82.1291 50.3664 82.1766 50.2749C82.2092 50.2187 82.257 50.1727 82.3145 50.1422C82.372 50.1118 82.437 50.0981 82.5019 50.1027C82.5668 50.1074 82.6291 50.1301 82.6817 50.1685C82.7343 50.2068 82.775 50.2591 82.7994 50.3194C82.8377 50.3961 82.8293 50.4276 82.8293 50.5725H82.8285ZM90.2568 66.4891C90.1662 66.4849 90.0807 66.4459 90.018 66.3803C89.9554 66.3147 89.9205 66.2274 89.9205 66.1367C89.9205 66.046 89.9554 65.9587 90.018 65.8931C90.0807 65.8275 90.1662 65.7885 90.2568 65.7843C90.3475 65.7885 90.433 65.8275 90.4956 65.8931C90.5582 65.9587 90.5932 66.046 90.5932 66.1367C90.5932 66.2274 90.5582 66.3147 90.4956 66.3803C90.433 66.4459 90.3475 66.4849 90.2568 66.4891ZM93.7305 70.3172C93.6399 70.313 93.5544 70.274 93.4918 70.2084C93.4291 70.1427 93.3942 70.0555 93.3942 69.9648C93.3942 69.874 93.4291 69.7868 93.4918 69.7212C93.5544 69.6555 93.6399 69.6166 93.7305 69.6123C93.8212 69.6166 93.9067 69.6555 93.9693 69.7212C94.032 69.7868 94.0669 69.874 94.0669 69.9648C94.0669 70.0555 94.032 70.1427 93.9693 70.2084C93.9067 70.274 93.8212 70.313 93.7305 70.3172ZM95.4079 89.8348C95.2254 89.8348 95.1924 89.8509 95.0413 89.7328C94.9932 89.6833 94.9607 89.6207 94.9478 89.5529C94.9348 89.4851 94.942 89.415 94.9684 89.3512C94.9948 89.2875 95.0393 89.2328 95.0965 89.194C95.1536 89.1553 95.2208 89.1341 95.2898 89.133C95.3917 89.1181 95.4957 89.1353 95.5874 89.1821C95.6533 89.2215 95.7045 89.2815 95.733 89.3527C95.7616 89.424 95.7661 89.5026 95.7457 89.5767C95.7254 89.6507 95.6813 89.716 95.6203 89.7627C95.5593 89.8093 95.4847 89.8346 95.4079 89.8348ZM97.0838 84.4482C97.019 84.4606 96.9522 84.4578 96.8886 84.4401C96.825 84.4225 96.7663 84.3903 96.7172 84.3462C96.669 84.2968 96.6364 84.2343 96.6234 84.1665C96.6104 84.0987 96.6175 84.0286 96.644 83.9648C96.6705 83.901 96.715 83.8464 96.7722 83.8078C96.8294 83.7691 96.8967 83.748 96.9657 83.7472C97.0678 83.7322 97.1721 83.7494 97.2641 83.7963C97.3287 83.8365 97.3786 83.8966 97.4061 83.9675C97.4337 84.0385 97.4374 84.1164 97.4168 84.1897C97.3963 84.263 97.3524 84.3276 97.292 84.3738C97.2315 84.42 97.1576 84.4453 97.0815 84.4459L97.0838 84.4482ZM98.6416 73.7909C98.548 73.7909 98.4583 73.7537 98.3921 73.6876C98.3259 73.6214 98.2888 73.5317 98.2888 73.4381C98.2888 73.3445 98.3259 73.2548 98.3921 73.1886C98.4583 73.1224 98.548 73.0853 98.6416 73.0853C98.7352 73.0856 98.8248 73.123 98.8907 73.1894C98.9567 73.2558 98.9935 73.3457 98.9932 73.4392C98.9929 73.5328 98.9555 73.6224 98.8891 73.6884C98.8227 73.7543 98.7328 73.7912 98.6393 73.7909H98.6416ZM100.317 66.0075C100.226 66.0032 100.141 65.9643 100.078 65.8986C100.015 65.833 99.9803 65.7458 99.9803 65.655C99.9803 65.5643 100.015 65.4771 100.078 65.4114C100.141 65.3458 100.226 65.3068 100.317 65.3026C100.407 65.3068 100.493 65.3458 100.555 65.4114C100.618 65.4771 100.653 65.5643 100.653 65.655C100.653 65.7458 100.618 65.833 100.555 65.8986C100.493 65.9643 100.407 66.0032 100.317 66.0075ZM102.225 76.5513C102.225 76.6443 102.188 76.7334 102.122 76.7992C102.057 76.8649 101.967 76.9018 101.874 76.9018C101.781 76.9018 101.692 76.8649 101.627 76.7992C101.561 76.7334 101.524 76.6443 101.524 76.5513C101.509 76.4494 101.526 76.3454 101.573 76.2537C101.606 76.1975 101.654 76.1515 101.711 76.1211C101.769 76.0907 101.834 76.0771 101.899 76.0817C101.964 76.0863 102.026 76.1091 102.079 76.1473C102.131 76.1856 102.172 76.2379 102.197 76.2982C102.234 76.3757 102.223 76.4155 102.223 76.5513H102.225ZM103.191 87.6819C103.127 87.6932 103.06 87.6899 102.997 87.6722C102.933 87.6546 102.874 87.623 102.825 87.5799C102.777 87.5304 102.744 87.4679 102.731 87.4001C102.718 87.3323 102.725 87.2622 102.752 87.1984C102.778 87.1347 102.823 87.0801 102.88 87.0414C102.937 87.0027 103.004 86.9817 103.073 86.9809C103.175 86.9662 103.279 86.983 103.371 87.0292C103.437 87.0687 103.488 87.1288 103.517 87.2003C103.545 87.2718 103.55 87.3507 103.529 87.4248C103.508 87.499 103.464 87.5643 103.402 87.6108C103.341 87.6572 103.266 87.6822 103.189 87.6819H103.191ZM104.867 83.4903C104.777 83.486 104.691 83.4471 104.628 83.3814C104.566 83.3158 104.531 83.2286 104.531 83.1378C104.531 83.0471 104.566 82.9599 104.628 82.8942C104.691 82.8286 104.777 82.7896 104.867 82.7854C104.958 82.7899 105.043 82.8292 105.106 82.895C105.168 82.9608 105.203 83.0482 105.203 83.1389C105.202 83.2297 105.167 83.3168 105.104 83.3822C105.041 83.4477 104.956 83.4863 104.865 83.4903H104.867ZM105.941 66.7284C105.847 66.7284 105.758 66.6913 105.692 66.6251C105.625 66.5589 105.588 66.4692 105.588 66.3756C105.588 66.2821 105.625 66.1923 105.692 66.1261C105.758 66.06 105.847 66.0228 105.941 66.0228C106.035 66.0228 106.124 66.06 106.191 66.1261C106.257 66.1923 106.294 66.2821 106.294 66.3756C106.294 66.4692 106.257 66.5589 106.191 66.6251C106.124 66.6913 106.035 66.7284 105.941 66.7284ZM109.048 74.6384C109.048 74.7314 109.011 74.8205 108.946 74.8869C108.897 74.9354 108.834 74.9682 108.766 74.9814C108.698 74.9945 108.628 74.9874 108.564 74.9609C108.5 74.9344 108.445 74.8898 108.407 74.8324C108.368 74.7751 108.347 74.7076 108.346 74.6384C108.331 74.5365 108.348 74.4325 108.395 74.3408C108.428 74.2846 108.476 74.2387 108.534 74.2083C108.591 74.1778 108.656 74.1642 108.721 74.1688C108.786 74.1735 108.848 74.1962 108.901 74.2345C108.954 74.2727 108.995 74.325 109.019 74.3853C109.06 74.4605 109.048 74.4996 109.048 74.6354V74.6384ZM109.774 87.3214C109.683 87.3172 109.598 87.2782 109.535 87.2126C109.472 87.1469 109.437 87.0597 109.437 86.969C109.437 86.8782 109.472 86.791 109.535 86.7254C109.598 86.6597 109.683 86.6208 109.774 86.6165C109.86 86.6256 109.941 86.6665 109.999 86.7313C110.057 86.7961 110.09 86.8802 110.09 86.9674C110.09 87.0546 110.057 87.1388 109.999 87.2036C109.941 87.2684 109.86 87.3092 109.774 87.3183V87.3214Z" fill="#1E9993"/>
<path d="M62.6773 122.322C62.6773 122.322 62.665 123.97 62.6566 124.623C62.6528 124.872 62.5799 125.195 62.359 125.255C62.359 125.349 62.3329 125.882 62.3245 126.053C62.2901 126.089 62.2639 126.132 62.2478 126.179C61.7966 127.627 61.0483 128.964 60.0508 130.105C59.0532 131.246 57.8284 132.167 56.4547 132.808C51.6081 134.83 46.4478 132.037 46.0236 127.08C46.1573 126.835 46.1891 126.546 46.112 126.278C46.0349 126.009 45.8552 125.782 45.6117 125.645C45.0311 125.315 44.2848 125.663 44.087 126.525C44.0358 125.633 44.0128 124.74 44.0179 123.847C44.0179 123.754 43.981 123.665 43.9153 123.599C43.8495 123.533 43.7604 123.496 43.6674 123.496C43.5745 123.496 43.4853 123.533 43.4196 123.599C43.3538 123.665 43.3169 123.754 43.3169 123.847C43.3051 126.93 43.5972 130.007 44.189 133.032C44.4621 134.509 44.841 135.964 45.3226 137.387C45.6693 138 46.3964 138.105 47.0184 138.251C50.7209 139.115 54.5301 139.433 58.3246 139.193C60.0826 139.078 61.1962 139.209 61.5291 137.689C62.5858 132.748 63.1146 127.709 63.1068 122.656C63.1084 122.603 63.0974 122.55 63.0748 122.502C63.0523 122.454 63.0187 122.412 62.9768 122.38C62.935 122.347 62.886 122.325 62.834 122.315C62.7819 122.305 62.7282 122.308 62.6773 122.322ZM44.9767 126.311C45.0178 126.263 45.0757 126.234 45.1381 126.229C45.2006 126.223 45.2626 126.242 45.3111 126.282C45.3538 126.312 45.3896 126.351 45.4161 126.396C45.4425 126.441 45.459 126.491 45.4645 126.543C45.4201 126.567 45.3826 126.602 45.3557 126.645C45.3289 126.688 45.3135 126.737 45.3111 126.788C45.17 126.86 44.6331 126.649 44.9767 126.307V126.311ZM60.7591 137.861C60.5351 138.464 59.63 138.387 59.1039 138.432C56.2366 138.679 53.3506 138.6 50.5013 138.195C49.1088 138.003 47.7294 137.725 46.3711 137.364C46.2355 137.321 46.1135 137.243 46.017 137.138C45.9205 137.034 45.8527 136.906 45.8204 136.768C44.9506 133.763 44.3934 130.677 44.1575 127.558C44.2002 127.606 44.2555 127.641 44.317 127.659C44.3785 127.677 44.4438 127.677 44.5054 127.659C44.567 127.642 44.6224 127.607 44.6653 127.56C44.7083 127.512 44.7369 127.454 44.7481 127.39C44.9391 127.481 45.1519 127.515 45.3617 127.489C45.5691 128.996 46.2155 130.409 47.2203 131.551C48.2252 132.692 49.5439 133.513 51.0121 133.911C54.9575 134.932 59.719 133.047 62.1995 128.105C61.9643 131.387 61.4828 134.647 60.7591 137.858V137.861Z" fill="black"/>
<path d="M44.6692 121.067C45.231 121.344 45.8392 121.515 46.4632 121.572C50.7944 122.416 54.8234 122.997 59.1753 122.424C60.3549 122.266 62.0316 122.21 62.3552 121.209C62.4095 121.047 62.4146 120.872 62.3698 120.706C62.263 120.459 62.0963 120.243 61.8849 120.076C61.6735 119.91 61.4239 119.798 61.1587 119.752C56.5619 118.406 51.7493 117.955 46.9824 118.424C46.3517 118.438 45.7255 118.534 45.1194 118.709C43.8255 119.2 43.748 120.465 44.6692 121.067ZM44.7528 119.921C44.8433 119.461 45.4615 119.299 45.9309 119.24C50.9701 118.596 56.088 119 60.9639 120.426C61.2124 120.503 61.8529 120.708 61.6488 121.079C61.5731 121.174 61.4786 121.252 61.3713 121.309C61.2641 121.365 61.1463 121.399 61.0253 121.409C59.5114 121.717 57.9743 121.896 56.4302 121.946C52.7816 121.918 49.1468 121.494 45.5896 120.682C45.2467 120.59 44.6608 120.39 44.7528 119.921ZM52.5845 99.7275C52.8039 99.7781 52.7809 99.7443 53.6852 99.0794C53.7657 99.0324 53.8243 98.9553 53.848 98.8651C53.8718 98.7749 53.8587 98.679 53.8117 98.5985C53.7647 98.5179 53.6877 98.4593 53.5975 98.4356C53.5073 98.4118 53.4114 98.4249 53.3308 98.4719C52.4104 99.1514 52.3813 99.1392 52.3337 99.2949C52.3105 99.3855 52.3237 99.4816 52.3706 99.5625C52.4175 99.6434 52.4944 99.7026 52.5845 99.7275ZM56.3888 103.639C56.7227 103.395 57.0569 103.149 57.3913 102.901C57.467 102.852 57.5209 102.775 57.5418 102.687C57.5626 102.6 57.5489 102.507 57.5033 102.429C57.4578 102.351 57.3839 102.293 57.2971 102.268C57.2103 102.243 57.1171 102.252 57.0369 102.294C55.911 103.118 55.9148 103.093 55.8711 103.243C55.854 103.311 55.8571 103.381 55.8799 103.447C55.9027 103.513 55.9442 103.57 55.9993 103.612C56.0545 103.654 56.1208 103.679 56.19 103.684C56.2593 103.689 56.3284 103.673 56.3888 103.639ZM60.1801 107.479C60.3772 107.455 60.2483 107.522 61.2239 106.725C61.2615 106.689 61.2897 106.644 61.306 106.594C61.3223 106.545 61.3263 106.492 61.3175 106.44C61.3102 106.375 61.2848 106.313 61.2442 106.262C61.2036 106.211 61.1494 106.172 61.0878 106.15C61.0262 106.128 60.9597 106.124 60.8958 106.137C60.8318 106.151 60.7731 106.183 60.7262 106.228C60.4615 106.444 60.1962 106.664 59.9316 106.88C59.8834 106.93 59.8508 106.992 59.8377 107.06C59.8247 107.128 59.8319 107.198 59.8584 107.262C59.8848 107.326 59.9294 107.38 59.9866 107.419C60.0438 107.458 60.111 107.479 60.1801 107.479ZM65.2805 110.493C64.9891 110.512 65.0029 110.718 64.3471 111.166C64.2666 111.213 64.208 111.29 64.1842 111.38C64.1605 111.47 64.1736 111.566 64.2206 111.647C64.2676 111.727 64.3446 111.786 64.4348 111.809C64.525 111.833 64.6209 111.82 64.7015 111.773C65.0292 111.558 65.3269 111.3 65.5866 111.006C65.6168 110.953 65.6324 110.893 65.6319 110.833C65.6314 110.772 65.6147 110.712 65.5835 110.66C65.5524 110.608 65.5079 110.565 65.4547 110.535C65.4014 110.506 65.3413 110.491 65.2805 110.493ZM69.5189 115.491C69.3165 115.445 69.298 115.491 68.5985 115.956C68.5215 116.005 68.4665 116.082 68.445 116.17C68.4234 116.259 68.4371 116.353 68.4831 116.431C68.5291 116.51 68.6039 116.568 68.6917 116.592C68.7794 116.617 68.8734 116.607 68.9537 116.564C69.5258 116.186 69.7207 116.11 69.769 115.923C69.7927 115.833 69.7797 115.737 69.7329 115.656C69.686 115.575 69.6091 115.516 69.5189 115.491ZM73.6062 119.902C73.5411 119.865 73.4656 119.851 73.3913 119.86C73.317 119.87 73.2479 119.904 73.1944 119.956C73.0333 120.116 72.844 120.244 72.636 120.335C72.4826 120.389 72.366 120.412 72.2847 120.547C72.2506 120.607 72.2351 120.676 72.2399 120.745C72.2448 120.814 72.27 120.88 72.3122 120.935C72.3544 120.99 72.4119 121.031 72.4774 121.053C72.5429 121.076 72.6135 121.078 72.6805 121.061C73.0614 120.942 73.4072 120.731 73.6875 120.447C73.725 120.409 73.7532 120.363 73.7697 120.312C73.7862 120.261 73.7907 120.207 73.7829 120.154C73.775 120.102 73.7549 120.051 73.7243 120.008C73.6936 119.964 73.6532 119.928 73.6062 119.902ZM76.6596 123.368C76.6388 123.371 76.6183 123.376 76.5983 123.382C76.3528 123.428 76.3375 123.662 75.7178 123.977C75.6761 124 75.6394 124.03 75.6098 124.067C75.5802 124.104 75.5583 124.147 75.5455 124.192C75.5327 124.238 75.5292 124.285 75.5352 124.332C75.5412 124.379 75.5566 124.424 75.5805 124.465C75.6043 124.506 75.6362 124.542 75.6741 124.57C75.7121 124.598 75.7553 124.618 75.8013 124.63C75.8472 124.641 75.895 124.643 75.9416 124.635C75.9883 124.627 76.0329 124.61 76.0729 124.585C76.3344 124.455 76.9074 124.076 76.9856 123.839C77.0059 123.786 77.0129 123.729 77.0062 123.673C76.9995 123.617 76.9792 123.564 76.9471 123.517C76.9149 123.471 76.8719 123.433 76.8218 123.407C76.7717 123.381 76.716 123.368 76.6596 123.368ZM78.8801 127.921C79.6471 127.426 79.7238 127.41 79.7682 127.239C79.7864 127.172 79.7841 127.1 79.7616 127.033C79.7391 126.967 79.6974 126.909 79.6418 126.866C79.5862 126.823 79.5192 126.797 79.4492 126.792C79.3791 126.788 79.3092 126.804 79.2482 126.838C78.4858 127.328 78.4045 127.347 78.3601 127.519C78.3436 127.586 78.3471 127.657 78.37 127.723C78.393 127.788 78.4345 127.846 78.4896 127.888C78.5446 127.931 78.6108 127.957 78.6801 127.962C78.7494 127.968 78.8188 127.954 78.8801 127.921ZM82.8293 136.904H78.8793C78.7857 136.904 78.696 136.941 78.6298 137.007C78.5637 137.073 78.5265 137.163 78.5265 137.256C78.5265 137.35 78.5637 137.44 78.6298 137.506C78.696 137.572 78.7857 137.609 78.8793 137.609H82.8293C82.9229 137.609 83.0126 137.572 83.0788 137.506C83.145 137.44 83.1821 137.35 83.1821 137.256C83.1821 137.163 83.145 137.073 83.0788 137.007C83.0126 136.941 82.9229 136.904 82.8293 136.904ZM91.81 135.88C89.6571 135.813 87.5011 135.727 85.3473 135.65C84.8956 135.633 84.8956 136.341 85.3473 136.355C87.5011 136.432 89.6553 136.509 91.81 136.585C91.9006 136.581 91.9861 136.542 92.0488 136.476C92.1114 136.411 92.1464 136.324 92.1464 136.233C92.1464 136.142 92.1114 136.055 92.0488 135.989C91.9861 135.924 91.9006 135.885 91.81 135.88ZM89.4822 134.339C89.3892 134.339 89.3001 134.376 89.2343 134.442C89.1686 134.508 89.1317 134.597 89.1317 134.69C89.1332 134.783 89.1707 134.871 89.236 134.936C89.3014 135.002 89.3896 135.04 89.4822 135.041C90.4402 135.114 91.3943 135.187 92.3523 135.265C92.3984 135.265 92.444 135.256 92.4866 135.238C92.5292 135.221 92.5678 135.195 92.6004 135.162C92.6329 135.13 92.6588 135.091 92.6763 135.048C92.6939 135.006 92.7029 134.96 92.7028 134.914C92.7014 134.822 92.664 134.733 92.5985 134.668C92.5331 134.603 92.4447 134.565 92.3523 134.564C91.3943 134.49 90.4402 134.418 89.4822 134.339ZM112.648 136.732C110.009 136.65 107.367 136.774 104.748 137.104C104.304 137.16 104.3 137.866 104.748 137.809C107.367 137.476 110.009 137.352 112.648 137.438C113.1 137.45 113.096 136.746 112.648 136.732ZM112.289 138.339H108.876C108.786 138.344 108.7 138.383 108.638 138.448C108.575 138.514 108.54 138.601 108.54 138.692C108.54 138.783 108.575 138.87 108.638 138.935C108.7 139.001 108.786 139.04 108.876 139.044H112.289C112.379 139.04 112.465 139.001 112.527 138.935C112.59 138.87 112.625 138.783 112.625 138.692C112.625 138.601 112.59 138.514 112.527 138.448C112.465 138.383 112.379 138.344 112.289 138.339ZM86.5952 49.3123C87.2472 50.3209 88.2565 49.9259 88.4667 48.7294C88.7045 47.4094 87.9996 46.519 87.712 45.8716C87.4178 45.3182 87.28 44.6951 87.3131 44.0692C87.3783 43.5883 87.7864 43.4088 88.2097 43.2823C89.7437 42.8282 92.7825 42.9448 93.2289 41.5581C93.5756 40.4981 92.2319 39.9926 91.4349 39.9067C90.3599 39.8628 89.289 40.065 88.3041 40.4981C87.5164 39.1413 86.2562 38.1311 84.6992 38.3904C81.214 38.9633 79.147 42.7415 80.1249 44.8331C80.7577 46.1792 82.6606 46.5826 84.0918 47.0574C86.5569 47.8704 86.0668 48.4932 86.5952 49.3123ZM82.5555 45.8064C80.9302 45.2105 80.2775 44.4849 80.7147 42.7645C80.9929 41.8563 81.5071 41.0381 82.2048 40.3934C82.9025 39.7488 83.7588 39.3008 84.6862 39.0952C84.6701 39.1037 84.654 39.1075 84.6379 39.116C84.5979 39.1392 84.563 39.1701 84.535 39.2068C84.5071 39.2436 84.4866 39.2855 84.4749 39.3302C84.4631 39.3748 84.4603 39.4214 84.4665 39.4671C84.4728 39.5129 84.488 39.557 84.5113 39.5969C84.5599 39.6757 84.6369 39.7328 84.7265 39.7563C84.816 39.7799 84.9111 39.7681 84.9922 39.7234C85.8121 39.3591 86.1005 39.5554 86.313 39.356C86.44 39.4345 86.5612 39.5219 86.6758 39.6176C86.2286 39.6821 85.7998 39.8388 85.4164 40.0778C85.3358 40.1248 85.2772 40.2018 85.2535 40.292C85.2298 40.3822 85.2428 40.4781 85.2898 40.5587C85.3368 40.6392 85.4139 40.6978 85.5041 40.7215C85.5942 40.7453 85.6902 40.7322 85.7707 40.6852C86.6259 40.1483 87.0685 40.4068 87.1774 40.1353C87.4335 40.4293 87.6527 40.7536 87.8301 41.1009C87.8693 41.1674 87.929 41.2192 88.0003 41.2487C88.0715 41.2782 88.1504 41.2836 88.2251 41.2643C89.075 40.8981 89.9778 40.6698 90.8996 40.5878C91.4176 40.536 91.9379 40.6609 92.376 40.9422C92.6008 41.1239 92.6061 41.2996 92.5026 41.4399C92.1221 41.7893 91.6367 42.0029 91.122 42.0474C89.1455 42.4861 86.8169 42.3066 86.6044 44.004C86.5761 45.1355 86.9214 46.2447 87.587 47.1602C87.7875 47.6145 87.8499 48.1179 87.7664 48.6075C87.6544 49.1191 87.4911 49.3545 87.2295 49.0147C87.0841 48.792 86.9729 48.5487 86.8997 48.293C86.3176 46.7353 84.44 46.4983 82.5555 45.8064Z" fill="black"/>
<path d="M94.7945 45.1905C94.7446 45.6676 94.3627 45.8632 93.9423 45.9974C92.4237 46.4906 89.4087 46.4576 88.9439 47.8159C88.5803 48.8844 89.934 49.386 90.7417 49.4588C91.8265 49.4803 92.9019 49.2545 93.8864 48.7985C94.7009 50.1238 95.9764 51.1063 97.5142 50.8287C100.884 50.2243 102.996 46.4676 101.987 44.3223C101.358 42.9755 99.4233 42.5904 97.9752 42.1532C95.5208 41.4154 95.9496 40.8256 95.4265 39.9965C94.4102 38.3858 92.785 40.1637 93.8327 42.4754C94.4388 43.2524 94.7763 44.2052 94.7945 45.1905ZM94.2231 40.6568C94.2591 40.4651 94.3435 40.0532 94.5375 40.0778C94.8397 40.1161 94.8804 40.416 95.1082 40.9982C96.2372 43.9127 102.454 42.1709 101.398 46.4169C100.814 48.7893 98.1447 50.3133 96.738 50.1752C95.7409 50.0793 94.7922 49.0562 94.3281 48.181C94.2885 48.1149 94.2285 48.0634 94.1572 48.0341C94.0859 48.0048 94.0071 47.9993 93.9324 48.0184C93.0872 48.4061 92.1857 48.6564 91.2617 48.7601C90.7428 48.8241 90.2177 48.7076 89.7745 48.4303C89.5367 48.2386 89.5444 48.0898 89.6602 47.9164C90.0997 47.3404 91.5892 47.1809 93.0396 46.9193C94.0551 46.736 95.3475 46.4668 95.4817 45.2434C95.4869 44.1109 95.1171 43.0084 94.4302 42.108C94.2172 41.656 94.1437 41.1508 94.2192 40.6568H94.2231Z" fill="black"/>
<path d="M94.224 47.5758C94.0085 47.9754 94.6152 48.3298 94.8315 47.9302C95.5478 46.6163 96.8517 45.8793 97.0895 46.173C97.1915 46.2957 96.9967 46.5849 96.9361 46.703C96.717 47.108 96.4383 47.4777 96.1093 47.7998C95.7825 48.1219 96.268 48.5867 96.6063 48.2976C96.9218 48.0273 97.2715 47.7996 97.6463 47.6203C97.9033 47.4984 98.4003 47.233 98.6365 47.5145C98.7044 47.6132 98.7454 47.728 98.7555 47.8474C98.7656 47.9668 98.7444 48.0868 98.694 48.1956C98.4995 48.5411 98.2203 48.8315 97.8826 49.0393C97.8056 49.0881 97.7505 49.1649 97.729 49.2535C97.7074 49.3421 97.7211 49.4355 97.7671 49.5143C97.8131 49.593 97.8879 49.6508 97.9757 49.6755C98.0634 49.7002 98.1574 49.6899 98.2377 49.6467C98.7233 49.3465 99.1146 48.9157 99.3667 48.4034C99.4535 48.1819 99.4808 47.9415 99.4458 47.7061C99.4108 47.4707 99.3148 47.2487 99.1673 47.062C98.9686 46.867 98.7116 46.7424 98.4355 46.7071C98.1593 46.6718 97.8793 46.7277 97.6379 46.8664C97.6548 46.8296 97.6785 46.7897 97.6954 46.7559C97.781 46.6238 97.8291 46.4709 97.8346 46.3135C97.8401 46.1562 97.8027 46.0003 97.7265 45.8626C97.6502 45.7248 97.538 45.6103 97.4017 45.5314C97.2655 45.4525 97.1104 45.4121 96.953 45.4145C96.3399 45.4782 95.7693 45.757 95.3423 46.2014C94.8854 46.5841 94.5058 47.0506 94.224 47.5758ZM119.289 54.6099C119.542 54.3611 119.732 54.0548 119.841 53.7172C119.95 53.3796 119.976 53.0206 119.917 52.6706C119.858 52.3207 119.716 51.9902 119.501 51.7072C119.287 51.4242 119.008 51.1971 118.687 51.0451C118.367 50.8931 118.014 50.8208 117.659 50.8343C117.305 50.8477 116.959 50.9466 116.65 51.1225C116.342 51.2983 116.081 51.546 115.889 51.8444C115.697 52.1429 115.58 52.4832 115.547 52.8366C115.471 52.7422 115.375 52.6662 115.265 52.6143C115.156 52.5623 115.036 52.5358 114.915 52.5366C114.793 52.5374 114.674 52.5656 114.565 52.619C114.456 52.6724 114.361 52.7497 114.286 52.8451C114.294 52.8942 113.572 53.6949 113.51 53.7969C112.629 55.3255 112.732 57.095 112.732 58.7992C112.732 58.6612 112.532 58.3996 112.483 58.2738C112.148 57.5125 111.983 56.6874 111.999 55.8559C112.016 55.0244 112.213 54.2064 112.577 53.4587C112.748 53.052 113.063 52.7226 113.462 52.5329C113.824 52.3795 114.196 52.3925 114.286 52.8451C114.266 52.0048 114.074 51.1776 113.724 50.4138C113.373 49.6501 112.87 48.9659 112.246 48.403C111.622 47.8401 110.889 47.4105 110.093 47.1402C109.298 46.8699 108.455 46.7647 107.617 46.8311C107.399 46.8183 107.181 46.8528 106.978 46.9323C106.774 47.0117 106.591 47.1342 106.439 47.2913C103.196 47.0351 99.3 50.5295 98.309 53.6634C97.226 57.1026 99.3306 60.1062 102.406 60.3171C102.957 60.9913 103.9 60.7957 104.539 60.1499C104.447 60.6077 104.504 61.0832 104.703 61.5059C104.875 61.7309 105.107 61.9036 105.371 62.005C105.636 62.1064 105.923 62.1325 106.202 62.0804C106.256 62.0804 106.309 62.0605 106.361 62.052C106.791 61.9774 107.199 61.8054 107.553 61.5493C107.907 61.2932 108.198 60.9596 108.403 60.574C108.351 60.8647 108.399 61.1646 108.539 61.4246C108.679 61.6847 108.903 61.8894 109.175 62.0052C109.451 62.1098 109.747 62.1481 110.04 62.1169C110.333 62.0857 110.615 61.986 110.862 61.8258C111.797 61.1112 112.447 60.0881 112.697 58.9388C112.758 60.5932 114.538 60.9997 115.139 59.1635C115.14 59.3744 115.184 59.5828 115.27 59.7757C115.355 59.9685 115.48 60.1415 115.635 60.2838C115.791 60.426 115.974 60.5345 116.174 60.6023C116.374 60.6701 116.585 60.6958 116.795 60.6777C117.006 60.6596 117.21 60.5982 117.395 60.4972C117.58 60.3963 117.742 60.2581 117.871 60.0913C118 59.9245 118.093 59.7328 118.145 59.5282C118.196 59.3236 118.204 59.1107 118.169 58.9028C118.472 59.1976 118.879 59.3619 119.302 59.3603C119.725 59.3587 120.13 59.1914 120.431 58.8943C121.409 57.9371 121.317 56.0074 119.289 54.6099ZM104.776 48.7601C104.491 48.9344 104.274 49.2007 104.161 49.515C104.049 49.8292 104.047 50.1726 104.156 50.4881C104.314 50.7394 104.528 50.95 104.782 51.1031C105.037 51.2562 105.323 51.3474 105.619 51.3694C104.483 51.7375 102.968 52.7806 103.051 53.9664C103.092 54.5984 103.809 55.1729 104.372 54.8791C104.494 54.8139 104.602 54.7165 104.726 54.659C105.187 54.4473 105.714 54.8469 105.941 55.2994C106.163 55.7717 106.23 56.3018 106.132 56.8142C106.035 57.3267 105.778 57.7953 105.399 58.1534C105.245 58.3361 105.05 58.479 104.829 58.5699C104.608 58.6607 104.369 58.6969 104.131 58.6753C103.893 58.6537 103.664 58.5749 103.463 58.4457C103.263 58.3165 103.096 58.1407 102.978 57.9333C102.989 58.6351 102.327 58.9726 102.211 59.5885C99.4587 59.162 97.8726 56.3855 99.2018 53.2938C99.3843 53.7478 99.6951 54.1388 100.096 54.419C100.497 54.6991 100.971 54.8564 101.461 54.8715C101.315 55.068 101.127 55.2293 100.911 55.3436C100.695 55.4579 100.456 55.5223 100.212 55.5318C99.9422 55.5521 99.6744 55.4739 99.458 55.3117C99.3773 55.265 99.2815 55.2522 99.1914 55.2759C99.1013 55.2996 99.0243 55.358 98.9771 55.4383C98.9324 55.5193 98.9206 55.6145 98.9441 55.704C98.9677 55.7936 99.0248 55.8706 99.1036 55.9192C100.547 56.9301 102.862 55.2987 101.99 54.3852C101.606 53.9933 101.025 54.2701 100.429 53.7984C100.023 53.4204 99.7568 52.9159 99.6742 52.3672C100.99 50.2005 103.811 47.7891 106.36 47.9724C106.388 48.0446 106.433 48.1089 106.491 48.1593C106.55 48.2098 106.62 48.2449 106.695 48.2615C106.022 48.2567 105.36 48.4295 104.776 48.7624V48.7601Z" fill="black"/>
<path d="M102.101 51.0978C101.995 51.0978 101.891 51.1293 101.803 51.1883C101.715 51.2473 101.646 51.3311 101.605 51.4292C101.564 51.5273 101.554 51.6353 101.575 51.7394C101.595 51.8436 101.646 51.9392 101.721 52.0143C101.797 52.0894 101.892 52.1405 101.996 52.1613C102.1 52.182 102.208 52.1713 102.307 52.1307C102.405 52.0901 102.489 52.0212 102.547 51.933C102.606 51.8447 102.638 51.7409 102.638 51.6347C102.639 51.5639 102.626 51.4935 102.599 51.4279C102.573 51.3622 102.533 51.3026 102.483 51.2525C102.433 51.2024 102.374 51.1629 102.308 51.1363C102.242 51.1097 102.172 51.0966 102.101 51.0978ZM103.145 49.5239C103.066 49.5724 103.008 49.6495 102.985 49.7393C102.961 49.8291 102.973 49.9245 103.018 50.0056C103.113 50.177 103.155 50.3725 103.139 50.5675C103.123 50.7625 103.05 50.9485 102.929 51.1024C102.882 51.1831 102.869 51.2788 102.893 51.3688C102.917 51.4589 102.975 51.5359 103.055 51.5833C103.095 51.6068 103.139 51.6222 103.185 51.6286C103.231 51.6349 103.277 51.6321 103.322 51.6204C103.367 51.6086 103.409 51.5881 103.445 51.56C103.482 51.5319 103.513 51.4968 103.536 51.4567C104.199 50.5939 103.692 49.1726 103.145 49.5239ZM101.461 54.8737C101.455 54.8833 101.45 54.8936 101.446 54.9044L101.461 54.8737ZM104.519 107.739C104.59 107.608 104.543 107.539 104.612 106.905V106.88C104.996 103.529 107.231 100.661 108.14 97.4578C108.165 97.368 108.153 97.272 108.107 97.191C108.061 97.1099 107.985 97.0504 107.895 97.0256C107.806 97.0008 107.71 97.0127 107.628 97.0586C107.547 97.1046 107.488 97.1809 107.463 97.2707C106.466 100.781 103.994 103.826 103.858 107.574C103.857 107.653 103.882 107.73 103.93 107.793C103.978 107.856 104.046 107.901 104.123 107.92C104.199 107.939 104.28 107.931 104.352 107.899C104.424 107.866 104.483 107.809 104.519 107.739ZM100.156 136.463C99.4849 135.935 95.3408 136.415 94.6275 136.827C94.2279 137.057 91.3456 139.681 92.6379 139.734C94.7088 139.819 96.7889 139.823 98.8598 139.741C99.3225 139.767 99.7819 139.65 100.177 139.408C100.539 139.002 100.737 138.476 100.734 137.931C100.73 137.387 100.524 136.864 100.156 136.463ZM125.976 128.591C125.825 128.696 125.696 128.831 125.597 128.986C125.244 129.431 124.779 129.776 124.25 129.985C123.722 130.194 123.147 130.26 122.584 130.176L122.527 130.551C122.785 134.088 122.745 134.761 123.212 135.465C123.378 135.749 123.644 135.962 123.958 136.062C124.272 136.162 124.612 136.142 124.912 136.007C125.265 135.727 125.509 135.334 125.602 134.894C126.936 130.938 127.218 130.363 127.132 129.544C127.048 128.654 126.395 128.355 125.976 128.591Z" fill="black"/>
</svg>
