<svg width="85" height="85" viewBox="0 0 85 85" fill="none" xmlns="http://www.w3.org/2000/svg">
<path d="M42.4285 73.0314C59.3856 73.0314 73.1319 59.285 73.1319 42.3279C73.1319 25.3709 59.3856 11.6245 42.4285 11.6245C25.4715 11.6245 11.7251 25.3709 11.7251 42.3279C11.7251 59.285 25.4715 73.0314 42.4285 73.0314Z" fill="#CEE8E7"/>
<path d="M72.8192 23.0453C59.0321 34.064 60.4385 49.9398 48.9176 53.1321C41.6472 55.1468 38.6341 48.604 45.5049 45.5883C51.2494 43.0673 47.5431 36.5859 42.6339 37.5701C38.3144 38.4357 36.749 42.6585 39.4105 45.6262C44.0109 50.7549 39.2868 54.3182 35.1835 52.3902C29.111 49.5369 26.7186 39.9507 32.8879 34.6764" stroke="#231F20" stroke-width="0.84119" stroke-miterlimit="10" stroke-linecap="round" stroke-linejoin="round"/>
<path d="M57.0307 2.17871C57.0307 2.17871 39.2068 19.9859 19.3841 18.6702C12.8918 18.0351 13.2805 25.2593 18.993 26.0979C24.7055 26.9366 31.6924 26.2771 31.6924 26.2771C31.6924 26.2771 24.1579 30.5756 17.6387 31.1131C11.1194 31.6506 13.0971 39.4123 18.813 38.7974C25.8571 38.0395 32.8339 34.6545 32.8339 34.6545" stroke="#231F20" stroke-width="0.84119" stroke-miterlimit="10" stroke-linecap="round" stroke-linejoin="round"/>
<path d="M20.816 13.4095C17.0424 12.4799 13.6381 14.2515 10.9951 17.5708" stroke="#231F20" stroke-width="0.84119" stroke-miterlimit="10" stroke-linecap="round" stroke-linejoin="round"/>
<path d="M56.9929 55.0601C60.287 53.7108 62.8543 49.5478 62.9494 45.9307" stroke="#231F20" stroke-width="0.84119" stroke-miterlimit="10" stroke-linecap="round" stroke-linejoin="round"/>
<path d="M41.7126 51.5179V57.487" stroke="#231F20" stroke-width="0.84119" stroke-miterlimit="10" stroke-linecap="round" stroke-linejoin="round"/>
<path d="M51.3882 59.0247L45.7043 58.0397C45.441 59.9206 43.8302 61.3699 41.8761 61.3699C39.922 61.3699 38.3111 59.9206 38.0478 58.0397L32.3059 59.0247L27.0308 63.4738L30.8792 68.2366L33.3195 66.5071V78.5849H50.2871V66.4558L52.8132 68.2366L56.6617 63.4738L51.3882 59.0247Z" stroke="#231F20" stroke-width="0.84119" stroke-miterlimit="10" stroke-linecap="round" stroke-linejoin="round"/>
<path d="M38.0923 58.0556L41.685 57.5046L45.6184 58.0556" stroke="#231F20" stroke-width="0.84119" stroke-miterlimit="10" stroke-linecap="round" stroke-linejoin="round"/>
</svg>
