<svg width="19" height="16" viewBox="0 0 19 16" fill="none" xmlns="http://www.w3.org/2000/svg">
<path d="M15.6925 2.26514C18.0363 4.23389 17.6925 7.45264 16.0363 9.17139L10.5363 14.7651C10.2238 15.0776 9.8175 15.2651 9.38 15.2651C8.91125 15.2651 8.505 15.0776 8.1925 14.7651L2.72375 9.17139C1.03625 7.45264 0.692505 4.23389 3.03625 2.26514C4.84875 0.733887 7.63 0.952637 9.38 2.73389C11.0988 0.952637 13.88 0.733887 15.6925 2.26514ZM14.9425 8.10889C16.0988 6.95264 16.3175 4.76514 14.7238 3.39014C13.505 2.39014 11.63 2.54639 10.4738 3.73389L9.38 4.85889L8.28625 3.73389C7.09875 2.54639 5.22375 2.39014 4.005 3.42139C2.41125 4.76514 2.63 6.95264 3.78625 8.10889L9.255 13.7026C9.34875 13.7651 9.41125 13.7651 9.47375 13.7026L14.9425 8.10889Z" fill="#001F29"/>
</svg>
