<svg width="24" height="24" viewBox="0 0 24 24" fill="none" xmlns="http://www.w3.org/2000/svg">
<path d="M12.1875 8.32031C12.2656 8.24219 12.3828 8.20312 12.5 8.20312C12.5781 8.20312 12.6953 8.24219 12.7734 8.32031L20 14.2188V20.625C20 20.9766 19.6875 21.25 19.375 21.25H14.9609C14.6484 21.25 14.3359 20.9766 14.3359 20.625V16.875C14.3359 16.5625 14.0625 16.25 13.7109 16.25H11.2109C10.8984 16.25 10.5859 16.5625 10.5859 16.875V20.625C10.5859 20.9766 10.3125 21.25 10 21.25H5.625C5.27344 21.25 5 20.9766 5 20.625V14.2578L12.1875 8.32031ZM23.5547 12.3438C23.6719 12.4219 23.75 12.5781 23.75 12.6953C23.75 12.8125 23.7109 12.9297 23.6328 13.0078L22.6172 14.2188C22.5391 14.3359 22.4219 14.375 22.2656 14.375C22.1484 14.375 22.0312 14.3359 21.9531 14.2578L12.7734 6.71875C12.6953 6.64062 12.5781 6.60156 12.5 6.60156C12.3828 6.60156 12.2656 6.64062 12.1875 6.71875L3.00781 14.2578C2.92969 14.3359 2.8125 14.375 2.69531 14.375C2.53906 14.375 2.42188 14.3359 2.34375 14.2188L1.32812 13.0078C1.28906 12.9297 1.21094 12.8125 1.21094 12.6953C1.21094 12.5781 1.28906 12.4219 1.40625 12.3438L11.2891 4.17969C11.6016 3.94531 12.0312 3.78906 12.5 3.78906C12.9297 3.78906 13.3594 3.94531 13.6719 4.17969L17.1875 7.07031V4.25781C17.1875 3.98438 17.3828 3.78906 17.6562 3.78906H19.8438C20.0781 3.78906 20.3125 3.98438 20.3125 4.25781V9.64844L23.5547 12.3438Z" fill="#001F29"/>
</svg>
