<svg width="60" height="40" viewBox="0 0 60 40" fill="none" xmlns="http://www.w3.org/2000/svg">
<path d="M30.1875 8.32031C30.2656 8.24219 30.3828 8.20312 30.5 8.20312C30.5781 8.20312 30.6953 8.24219 30.7734 8.32031L38 14.2188V20.625C38 20.9766 37.6875 21.25 37.375 21.25H32.9609C32.6484 21.25 32.3359 20.9766 32.3359 20.625V16.875C32.3359 16.5625 32.0625 16.25 31.7109 16.25H29.2109C28.8984 16.25 28.5859 16.5625 28.5859 16.875V20.625C28.5859 20.9766 28.3125 21.25 28 21.25H23.625C23.2734 21.25 23 20.9766 23 20.625V14.2578L30.1875 8.32031ZM41.5547 12.3438C41.6719 12.4219 41.75 12.5781 41.75 12.6953C41.75 12.8125 41.7109 12.9297 41.6328 13.0078L40.6172 14.2188C40.5391 14.3359 40.4219 14.375 40.2656 14.375C40.1484 14.375 40.0312 14.3359 39.9531 14.2578L30.7734 6.71875C30.6953 6.64062 30.5781 6.60156 30.5 6.60156C30.3828 6.60156 30.2656 6.64062 30.1875 6.71875L21.0078 14.2578C20.9297 14.3359 20.8125 14.375 20.6953 14.375C20.5391 14.375 20.4219 14.3359 20.3438 14.2188L19.3281 13.0078C19.2891 12.9297 19.2109 12.8125 19.2109 12.6953C19.2109 12.5781 19.2891 12.4219 19.4062 12.3438L29.2891 4.17969C29.6016 3.94531 30.0312 3.78906 30.5 3.78906C30.9297 3.78906 31.3594 3.94531 31.6719 4.17969L35.1875 7.07031V4.25781C35.1875 3.98438 35.3828 3.78906 35.6562 3.78906H37.8438C38.0781 3.78906 38.3125 3.98438 38.3125 4.25781V9.64844L41.5547 12.3438Z" fill="#001F29"/>
</svg>
