<svg width="85" height="85" viewBox="0 0 85 85" fill="none" xmlns="http://www.w3.org/2000/svg">
<path d="M42.075 73.0314C59.032 73.0314 72.7784 59.285 72.7784 42.3279C72.7784 25.3709 59.032 11.6245 42.075 11.6245C25.118 11.6245 11.3716 25.3709 11.3716 42.3279C11.3716 59.285 25.118 73.0314 42.075 73.0314Z" fill="#CEE8E7"/>
<path d="M7.92627 51.4203C7.92627 51.4203 22.3123 42.1403 37.8533 44.7791C51.6084 47.1151 53.6096 45.3578 60.154 42.518C64.5652 40.6043 65.8068 45.2577 65.2618 46.7559" stroke="#001F29" stroke-width="0.84119" stroke-miterlimit="10" stroke-linecap="round" stroke-linejoin="round"/>
<path d="M68.1016 53.4383C71.5446 48.8345 66.5294 45.7566 64.1084 47.1715C64.1084 47.1715 55.9741 51.4027 50.4324 51.9873" stroke="#001F29" stroke-width="0.84119" stroke-miterlimit="10" stroke-linecap="round" stroke-linejoin="round"/>
<path d="M51.5478 58.0976C51.5478 58.0976 58.0838 57.2631 63.2058 54.0077C68.1865 50.8423 72.9577 56.2975 67.522 60.267C62.5379 63.9069 56.4057 66.7661 39.5827 69.1702C23.8954 71.412 20.8578 73.525 18.5059 75.1317" stroke="#001F29" stroke-width="0.84119" stroke-miterlimit="10" stroke-linecap="round" stroke-linejoin="round"/>
<path d="M25.8806 50.7087C25.8806 50.7087 29.3101 50.2873 33.6784 53.6798C36.6075 55.6364 38.6448 55.0997 40.7604 54.06C44.6787 52.1337 49.1067 57.3491 42.9433 61.6299C36.7799 65.9115 27.5655 66.8419 27.5655 66.8419" stroke="#001F29" stroke-width="0.84119" stroke-miterlimit="10" stroke-linecap="round" stroke-linejoin="round"/>
<path d="M21.6897 21.5935L41.5838 6.0769L62.0668 21.5935" stroke="#001F29" stroke-width="0.84119" stroke-miterlimit="10" stroke-linecap="round" stroke-linejoin="round"/>
<path d="M58.0997 18.8823V38.6949H25.6567V18.8823" stroke="#001F29" stroke-width="0.84119" stroke-miterlimit="10" stroke-linecap="round" stroke-linejoin="round"/>
<path d="M38.7373 19.6427H32.2139V28.4214H38.7373V19.6427Z" stroke="#001F29" stroke-width="0.84119" stroke-miterlimit="10" stroke-linecap="round" stroke-linejoin="round"/>
<path d="M52.7061 25.9247H45.5383V38.5694H52.7061V25.9247Z" stroke="#001F29" stroke-width="0.84119" stroke-miterlimit="10" stroke-linecap="round" stroke-linejoin="round"/>
<path d="M32.2139 22.5826H38.7373" stroke="#001F29" stroke-width="0.84119" stroke-miterlimit="10" stroke-linecap="round" stroke-linejoin="round"/>
</svg>
