<svg width="85" height="85" viewBox="0 0 85 85" fill="none" xmlns="http://www.w3.org/2000/svg">
<path d="M42.4363 73.0314C59.3934 73.0314 73.1398 59.285 73.1398 42.3279C73.1398 25.3709 59.3934 11.6245 42.4363 11.6245C25.4793 11.6245 11.7329 25.3709 11.7329 42.3279C11.7329 59.285 25.4793 73.0314 42.4363 73.0314Z" fill="#CEE8E7"/>
<path d="M55.9803 40.9541C55.9803 40.9541 49.6445 36.0147 44.3829 34.8328C39.1212 33.6509 34.2886 38.4836 40.3022 42.994C46.3159 47.5045 46.5304 48.1488 46.5304 48.1488C46.5304 48.1488 46.2082 56.2024 54.2618 60.4983" stroke="#231F20" stroke-width="0.84119" stroke-miterlimit="10" stroke-linecap="round" stroke-linejoin="round"/>
<path d="M31.4294 43.0842C32.0738 48.239 36.8021 50.7012 38.7983 51.2631C41.7517 52.0951 45.7785 50.5649 43.7646 45.8131" stroke="#231F20" stroke-width="0.84119" stroke-miterlimit="10" stroke-linecap="round" stroke-linejoin="round"/>
<path d="M32.731 47.0217C32.731 47.0217 27.6005 49.3922 30.8787 54.6732C32.328 57.0092 35.39 58.3643 38.5301 58.2979C42.3155 58.2171 44.2485 53.7874 40.946 51.4523" stroke="#231F20" stroke-width="0.84119" stroke-miterlimit="10" stroke-linecap="round" stroke-linejoin="round"/>
<path d="M75.9318 51.2496C75.9318 51.2496 65.0586 38.927 53.2559 30.1971" stroke="#231F20" stroke-width="0.84119" stroke-miterlimit="10" stroke-linecap="round" stroke-linejoin="round"/>
<path d="M49.3536 75.9756C49.3536 75.9756 41.1604 62.6461 36.3286 58.2433" stroke="#231F20" stroke-width="0.84119" stroke-miterlimit="10" stroke-linecap="round" stroke-linejoin="round"/>
<path d="M52.9252 38.6545V13.2127C45.7861 11.0702 38.6629 11.0601 31.5557 13.2127V40.5068C33.5106 39.9827 35.4537 39.5924 37.3843 39.3401" stroke="#231F20" stroke-width="0.84119" stroke-miterlimit="10" stroke-linecap="round" stroke-linejoin="round"/>
<path d="M10.0784 40.1837V44.4797" stroke="#231F20" stroke-width="0.84119" stroke-miterlimit="10" stroke-linecap="round" stroke-linejoin="round"/>
<path d="M31.4294 43.0034L42.1411 44.4797" stroke="#231F20" stroke-width="0.84119" stroke-miterlimit="10" stroke-linecap="round" stroke-linejoin="round"/>
<path d="M10.0784 44.4796L31.4294 42.9226" stroke="#231F20" stroke-width="0.84119" stroke-miterlimit="10" stroke-linecap="round" stroke-linejoin="round"/>
<path d="M10.0784 40.506C17.3715 38.551 24.5039 38.4518 31.4479 40.506V13.2127C24.3088 11.0702 17.1856 11.0601 10.0784 13.2127V40.506Z" stroke="#231F20" stroke-width="0.84119" stroke-miterlimit="10" stroke-linecap="round" stroke-linejoin="round"/>
</svg>
