<svg width="85" height="85" viewBox="0 0 85 85" fill="none" xmlns="http://www.w3.org/2000/svg">
<path d="M42.9324 73.0314C59.8895 73.0314 73.6358 59.285 73.6358 42.3279C73.6358 25.3709 59.8895 11.6245 42.9324 11.6245C25.9754 11.6245 12.229 25.3709 12.229 42.3279C12.229 59.285 25.9754 73.0314 42.9324 73.0314Z" fill="#CEE8E7"/>
<path d="M61.3142 6.72461C61.3142 6.72461 55.2559 15.6135 37.7314 18.7999C28.173 20.3931 23.5498 18.6131 20.4534 17.5204C15.2674 15.69 13.8349 21.9863 18.6145 24.3761C23.3942 26.766 27.3764 26.766 27.3764 26.766" stroke="#231F20" stroke-width="0.84119" stroke-miterlimit="10" stroke-linecap="round" stroke-linejoin="round"/>
<path d="M28.8559 26.2781C23.6211 28.8555 20.3119 35.3629 23.4596 41.9023C24.5103 44.0852 27.245 46.0906 29.8224 45.4463" stroke="#231F20" stroke-width="0.84119" stroke-miterlimit="10" stroke-linecap="round" stroke-linejoin="round"/>
<path d="M74.0245 32.3185C74.0245 32.3185 62.6701 46.6995 51.648 51.2445C43.8359 54.4662 41.849 45.7145 46.4402 43.1371C52.5229 39.7227 51.9702 34.4392 48.0511 33.3111C42.6095 31.7457 35.4005 36.8088 36.4175 41.4867C37.4471 46.2234 32.7566 48.6553 29.7065 44.8422C26.6563 41.0291 25.8202 33.227 32.4799 29.821" stroke="#231F20" stroke-width="0.84119" stroke-miterlimit="10" stroke-linecap="round" stroke-linejoin="round"/>
<path d="M39.9625 76.1294L24.9229 72.1236L25.8036 68.8177C26.3495 66.7686 28.4525 65.5505 30.5016 66.0956L38.122 68.1254C40.1711 68.6714 41.3891 70.7743 40.844 72.8235L39.9625 76.1294Z" stroke="#231F20" stroke-width="0.84119" stroke-miterlimit="10" stroke-linecap="round" stroke-linejoin="round"/>
<path d="M41.5184 56.4961L33.5515 54.3738C32.9568 54.2157 32.6027 53.605 32.7617 53.0102L32.9223 52.4054C33.0805 51.8107 33.6912 51.4566 34.2859 51.6155L42.2528 53.7379C42.8475 53.896 43.2017 54.5067 43.0427 55.1014L42.8812 55.7062C42.7239 56.301 42.1132 56.6543 41.5184 56.4961Z" stroke="#231F20" stroke-width="0.84119" stroke-miterlimit="10" stroke-linecap="round" stroke-linejoin="round"/>
<path d="M40.4374 53.2196L36.1179 52.0697L36.5166 44.6125L43.8005 46.5523L40.4374 53.2196Z" stroke="#231F20" stroke-width="0.84119" stroke-miterlimit="10" stroke-linecap="round" stroke-linejoin="round"/>
<path d="M39.7479 41.4203L36.5168 44.6126L43.8007 46.5524L42.5852 42.1765" stroke="#231F20" stroke-width="0.84119" stroke-miterlimit="10" stroke-linecap="round" stroke-linejoin="round"/>
<path d="M38.9234 68.2391L29.7485 65.7954C32.4084 61.8948 33.8064 60.024 35.1708 54.8053L39.9 56.0646C38.5062 61.0806 38.1966 63.7404 38.9234 68.2391Z" stroke="#231F20" stroke-width="0.84119" stroke-miterlimit="10" stroke-linecap="round" stroke-linejoin="round"/>
<path d="M41.6665 42.3691C43.018 42.3691 44.1135 41.2736 44.1135 39.9221C44.1135 38.5707 43.018 37.4751 41.6665 37.4751C40.3151 37.4751 39.2195 38.5707 39.2195 39.9221C39.2195 41.2736 40.3151 42.3691 41.6665 42.3691Z" stroke="#231F20" stroke-width="0.84119" stroke-miterlimit="10" stroke-linecap="round" stroke-linejoin="round"/>
</svg>
