<svg width="85" height="85" viewBox="0 0 85 85" fill="none" xmlns="http://www.w3.org/2000/svg">
<path d="M42.5115 73.0314C59.4686 73.0314 73.2149 59.285 73.2149 42.3279C73.2149 25.3709 59.4686 11.6245 42.5115 11.6245C25.5545 11.6245 11.8081 25.3709 11.8081 42.3279C11.8081 59.285 25.5545 73.0314 42.5115 73.0314Z" fill="#CEE8E7"/>
<path d="M54.385 25.0524C57.9079 22.5373 58.8795 18.3734 57.9904 13.7317" stroke="#231F20" stroke-width="0.84119" stroke-miterlimit="10" stroke-linecap="round" stroke-linejoin="round"/>
<path d="M58.2639 26.744C61.2367 24.7849 62.9535 20.2063 62.3504 16.6379" stroke="#231F20" stroke-width="0.84119" stroke-miterlimit="10" stroke-linecap="round" stroke-linejoin="round"/>
<path d="M51.4359 20.4671L18.2585 29.2676C17.0119 29.5982 15.7324 28.8554 15.4019 27.6088L12.9414 18.3338C12.6108 17.0872 13.3536 15.8077 14.6002 15.4771L47.7776 6.67746C49.0242 6.34687 50.3037 7.08964 50.6342 8.33629L53.0947 17.6112C53.4253 18.8579 52.6825 20.1365 51.4359 20.4671Z" stroke="#231F20" stroke-width="0.84119" stroke-miterlimit="10" stroke-linecap="round" stroke-linejoin="round"/>
<path d="M14.1796 22.9629L10.3345 24.0876L12.0379 30.5109C12.7285 33.1144 15.3025 34.7505 17.9531 34.2718L36.5476 30.9113L39.0931 38.8025" stroke="#231F20" stroke-width="0.84119" stroke-miterlimit="10" stroke-linecap="round" stroke-linejoin="round"/>
<path d="M55.3036 38.9918C55.3036 38.9918 47.5789 38.5956 42.5049 41.9242C35.6374 46.4288 41.4694 52.6183 46.196 50.1653C49.2268 48.5923 52.0734 49.7439 53.8744 52.5165C55.6754 55.289 58.8509 55.4026 63.4463 53.3762" stroke="#231F20" stroke-width="0.84119" stroke-miterlimit="10" stroke-linecap="round" stroke-linejoin="round"/>
<path d="M27.7682 44.6841C27.7682 44.6841 23.489 47.9521 27.2214 53.0707C30.9538 58.1894 37.4158 58.1145 39.1562 54.7472C40.8966 51.38 37.8036 49.1079 37.8036 49.1079" stroke="#231F20" stroke-width="0.84119" stroke-miterlimit="10" stroke-linecap="round" stroke-linejoin="round"/>
<path d="M29.1289 55.0299C28.7496 55.8223 27.8158 60.6314 33.848 63.3678C39.6993 66.0226 45.9595 59.8356 38.5545 55.739" stroke="#231F20" stroke-width="0.84119" stroke-miterlimit="10" stroke-linecap="round" stroke-linejoin="round"/>
<path d="M69.0689 71.6719C69.0689 71.6719 60.8496 71.0781 53.4547 67.8412C43.5993 63.5275 37.9617 64.0112 37.9617 64.0112" stroke="#231F20" stroke-width="0.84119" stroke-miterlimit="10" stroke-linecap="round" stroke-linejoin="round"/>
<path d="M44.1436 40.8399L43.0669 37.6206L34.4085 40.675C37.0011 41.6558 40.6729 45.4689 38.2763 48.5418C36.0573 51.3875 31.4173 50.3419 28.5841 46.0031C26.6746 43.0783 27.1365 40.0702 30.4491 37.7274C30.4491 37.7274 35.4424 33.8075 44.1411 34.043C49.56 34.1894 55.3272 35.4596 61.3788 37.2152C67.972 39.128 78.9731 39.7833 78.9731 39.7833" stroke="#231F20" stroke-width="0.84119" stroke-miterlimit="10" stroke-linecap="round" stroke-linejoin="round"/>
<path d="M47.3433 49.7708C47.3433 49.7708 48.5462 54.0575 49.379 56.348C50.8074 60.2755 46.0185 64.7624 41.7747 60.4581" stroke="#231F20" stroke-width="0.84119" stroke-miterlimit="10" stroke-linecap="round" stroke-linejoin="round"/>
</svg>
