<svg width="154" height="154" viewBox="0 0 154 154" fill="none" xmlns="http://www.w3.org/2000/svg">
<path d="M21.559 118.714C18.0584 118.442 4.7281 117.417 4.43051 117.395C4.03704 117.365 4.03858 117.979 4.43051 118.008C5.3555 118.078 19.4083 119.159 21.559 119.328C21.9532 119.358 21.9509 118.745 21.559 118.714ZM17.5361 124.399C17.9311 124.421 17.9296 123.808 17.5361 123.785L13.4588 123.561C13.0645 123.539 13.0661 124.153 13.4588 124.174L17.5361 124.399ZM18.1758 128.295C13.3744 127.931 10.6332 127.834 8.20488 127.117C8.12636 127.096 8.04245 127.106 7.97161 127.146C7.90077 127.186 7.8488 127.253 7.82713 127.332C7.80547 127.41 7.81588 127.494 7.85609 127.565C7.89629 127.636 7.96299 127.688 8.04151 127.709C10.5565 128.45 13.313 128.539 18.1758 128.908C18.5692 128.937 18.5677 128.324 18.1758 128.295Z" fill="#001F29"/>
<path d="M110.615 129.44C110.603 129.047 109.99 129.044 110.001 129.44C110.308 139.866 110.351 139.125 110.155 139.145C104.939 139.639 75.4299 137.463 73.7624 137.275L76.7813 134.804C81.1309 135.128 103.703 136.812 107.974 136.157C108.039 136.139 108.096 136.101 108.137 136.047C108.178 135.994 108.2 135.928 108.2 135.861L107.758 129.03C107.732 128.638 107.119 128.635 107.144 129.03C107.617 136.317 107.621 135.593 107.446 135.609C104.433 135.894 95.9699 135.432 92.9311 135.262C89.5394 135.073 71.2129 133.756 71.0174 133.735C71.7966 133.045 78.6413 127.026 78.9941 126.719C79.2909 126.458 78.856 126.025 78.5607 126.285C77.5997 127.129 70.0433 133.779 70.0433 133.779C69.827 133.969 70.0164 134.283 70.2596 134.303C71.3571 134.392 75.1185 134.679 75.9016 134.738L72.7523 137.314C72.5268 137.499 72.7324 137.819 72.9694 137.838C77.5859 138.214 105.993 140.413 110.687 139.693C110.752 139.675 110.809 139.637 110.85 139.583C110.89 139.53 110.912 139.464 110.912 139.397C110.901 139.094 110.618 129.545 110.615 129.44Z" fill="#CFF0FA"/>
<path d="M101.49 77.2598C102.137 80.2963 101.588 81.5112 99.956 82.7629C97.9753 84.1626 95.6609 85.016 93.2456 85.2372C93.24 85.4812 93.1845 85.7213 93.0825 85.9429C92.9804 86.1645 92.834 86.3629 92.6523 86.5257C92.4706 86.6885 92.2574 86.8123 92.026 86.8895C91.7945 86.9667 91.5497 86.9956 91.3067 86.9745C89.4605 87.0328 86.5912 85.6384 85.2474 88.8076C85.0324 89.3296 84.891 89.8789 84.8271 90.4397C85.6094 97.5459 86.0167 110.361 82.4809 116.623C81.0297 119.191 78.9021 120.772 75.9661 120.842C75.9661 121.09 76.0098 123.411 76.0098 123.411L80.828 124.003C80.9939 123.83 81.1838 123.681 81.3918 123.562C80.9954 123.365 80.6494 123.08 80.3804 122.729C80.1114 122.378 79.9266 121.97 79.8401 121.536C79.5333 119.49 82.7417 118.795 84.9422 118.384L88.1459 107.569C88.1688 107.491 88.2208 107.426 88.291 107.386C88.3612 107.346 88.4441 107.334 88.5225 107.354L91.1057 108.038C91.1836 108.06 91.2495 108.112 91.2895 108.183C91.3295 108.253 91.3403 108.337 91.3197 108.415C91.0045 109.561 91.9847 106.215 88.5739 117.826C93.231 117.219 91.434 117.679 93.4565 116.885C98.8323 114.83 104.459 113.503 110.186 112.939C107.23 105.547 107.37 97.3964 107.867 89.4473C107.891 89.0546 108.505 89.053 108.48 89.4473C107.98 97.4539 107.841 105.504 110.822 112.879C110.912 112.87 111.003 112.865 111.094 112.857C111.084 112.821 111.082 112.782 111.087 112.745C111.093 112.707 111.107 112.671 111.127 112.639C111.865 111.545 112.715 110.531 113.664 109.615C113.949 109.341 114.383 109.774 114.099 110.049C113.229 110.887 112.445 111.81 111.759 112.804C112.425 112.755 113.091 112.717 113.758 112.689C114.154 112.673 114.152 113.287 113.758 113.303C106.488 113.61 99.3254 115.167 92.5837 117.905C92.5382 121.688 93.2572 125.441 94.6975 128.94C94.7289 128.999 94.7408 129.066 94.7314 129.133C94.7221 129.199 94.6919 129.26 94.6454 129.309C96.5145 129.638 110.489 131.923 121.183 128.713C132.326 125.367 132.561 83.2116 101.49 77.2598ZM88.988 95.189C88.988 95.2703 88.9557 95.3484 88.8982 95.4059C88.8406 95.4634 88.7626 95.4958 88.6813 95.4958C88.5999 95.4958 88.5218 95.4634 88.4643 95.4059C88.4068 95.3484 88.3745 95.2703 88.3745 95.189L88.6092 92.7898C88.6092 92.7084 88.6415 92.6304 88.699 92.5729C88.7565 92.5153 88.8346 92.483 88.916 92.483C88.9973 92.483 89.0753 92.5153 89.1329 92.5729C89.1904 92.6304 89.2227 92.7084 89.2227 92.7898L88.988 95.189ZM90.3602 102.705C90.3602 102.787 90.3279 102.865 90.2703 102.922C90.2128 102.98 90.1348 103.012 90.0534 103.012C89.972 103.012 89.894 102.98 89.8365 102.922C89.7789 102.865 89.7466 102.787 89.7466 102.705V100.617C89.7466 100.536 89.7789 100.458 89.8365 100.4C89.894 100.342 89.972 100.31 90.0534 100.31C90.1348 100.31 90.2128 100.342 90.2703 100.4C90.3279 100.458 90.3602 100.536 90.3602 100.617V102.705ZM93.9551 96.4468C93.9551 96.5282 93.9228 96.6062 93.8652 96.6638C93.8077 96.7213 93.7297 96.7536 93.6483 96.7536C93.5669 96.7536 93.4889 96.7213 93.4313 96.6638C93.3738 96.6062 93.3415 96.5282 93.3415 96.4468C93.4252 95.8222 93.4419 95.1905 93.3913 94.5623C93.3913 94.481 93.4237 94.4029 93.4812 94.3454C93.5387 94.2878 93.6168 94.2555 93.6981 94.2555C93.7795 94.2555 93.8575 94.2878 93.9151 94.3454C93.9726 94.4029 94.0049 94.481 94.0049 94.5623C94.0551 95.1915 94.0381 95.8243 93.9543 96.4499L93.9551 96.4468ZM95.2682 109.702C95.2682 109.783 95.2358 109.861 95.1783 109.919C95.1208 109.976 95.0427 110.009 94.9614 110.009C94.88 110.009 94.802 109.976 94.7444 109.919C94.6869 109.861 94.6546 109.783 94.6546 109.702V106.987C94.6546 106.905 94.6869 106.827 94.7444 106.77C94.802 106.712 94.88 106.68 94.9614 106.68C95.0427 106.68 95.1208 106.712 95.1783 106.77C95.2358 106.827 95.2682 106.905 95.2682 106.987V109.702ZM97.4825 100.2L97.3552 98.112C97.3552 98.0306 97.3875 97.9526 97.445 97.895C97.5026 97.8375 97.5806 97.8052 97.662 97.8052C97.7433 97.8052 97.8214 97.8375 97.8789 97.895C97.9364 97.9526 97.9687 98.0306 97.9687 98.112C98.0117 98.8079 98.0539 99.5038 98.0953 100.2C98.0955 100.24 98.0877 100.28 98.0724 100.318C98.0571 100.355 98.0346 100.389 98.0061 100.418C97.9485 100.476 97.8703 100.509 97.7885 100.51C97.7067 100.51 97.6281 100.478 97.57 100.42C97.5119 100.363 97.479 100.285 97.4786 100.203L97.4825 100.2ZM97.9971 92.9946C98.0212 92.5676 97.984 92.1394 97.8867 91.7229C97.8666 91.645 97.8779 91.5623 97.9182 91.4927C97.9585 91.4231 98.0245 91.372 98.1021 91.3506C98.1796 91.3292 98.2625 91.3391 98.3328 91.3782C98.4031 91.4172 98.4553 91.4824 98.478 91.5596C98.5876 92.0296 98.6322 92.5124 98.6107 92.9946C98.6111 93.0761 98.5791 93.1544 98.5218 93.2123C98.4645 93.2701 98.3865 93.3029 98.3051 93.3033C98.2236 93.3037 98.1453 93.2717 98.0874 93.2144C98.0295 93.1571 97.9968 93.0791 97.9964 92.9977L97.9971 92.9946ZM98.4727 112.316L98.3315 110.744C98.3315 110.662 98.3639 110.584 98.4214 110.527C98.4789 110.469 98.557 110.437 98.6383 110.437C98.7197 110.437 98.7977 110.469 98.8553 110.527C98.9128 110.584 98.9451 110.662 98.9451 110.744L99.0863 112.316C99.0791 112.392 99.044 112.462 98.9878 112.513C98.9317 112.565 98.8585 112.593 98.7824 112.594C98.7063 112.594 98.6328 112.566 98.5761 112.515C98.5195 112.465 98.4837 112.395 98.4757 112.319L98.4727 112.316ZM102.145 98.5292C102.149 98.0083 102.047 97.4921 101.844 97.0121C101.824 96.9342 101.836 96.8515 101.876 96.7819C101.916 96.7122 101.982 96.6612 102.06 96.6398C102.137 96.6184 102.22 96.6283 102.29 96.6673C102.361 96.7064 102.413 96.7716 102.436 96.8487C102.652 97.3826 102.761 97.9534 102.759 98.5292C102.759 98.6107 102.727 98.689 102.67 98.7469C102.612 98.8048 102.534 98.8375 102.453 98.8379C102.371 98.8383 102.293 98.8064 102.235 98.749C102.177 98.6917 102.145 98.6137 102.144 98.5323L102.145 98.5292ZM103.056 109.267C103.017 109.278 102.977 109.281 102.937 109.276C102.897 109.271 102.858 109.258 102.823 109.238C102.788 109.218 102.757 109.191 102.732 109.159C102.708 109.128 102.689 109.091 102.679 109.052L102.467 107.487C102.448 107.409 102.461 107.328 102.501 107.259C102.542 107.19 102.607 107.14 102.684 107.119C102.761 107.098 102.843 107.107 102.913 107.146C102.983 107.184 103.035 107.248 103.059 107.324C103.271 108.904 103.394 109.164 103.055 109.273L103.056 109.267ZM103.472 88.5783C103.405 88.1257 103.338 87.6727 103.272 87.2191C103.252 87.1412 103.264 87.0586 103.304 86.9889C103.344 86.9193 103.41 86.8683 103.488 86.8468C103.565 86.8254 103.648 86.8353 103.719 86.8744C103.789 86.9135 103.841 86.9786 103.864 87.0558L104.063 88.4149C104.086 88.4934 104.077 88.5778 104.038 88.6495C103.998 88.7212 103.932 88.7743 103.853 88.7972C103.775 88.8201 103.691 88.8109 103.619 88.7715C103.547 88.7322 103.494 88.666 103.471 88.5875L103.472 88.5783ZM107.236 82.96L105.681 81.5396C105.626 81.4816 105.595 81.4044 105.596 81.3244C105.597 81.2444 105.629 81.1679 105.686 81.1113C105.742 81.0547 105.819 81.0224 105.899 81.0213C105.979 81.0202 106.056 81.0504 106.114 81.1055L107.67 82.5267C107.699 82.5552 107.722 82.5892 107.738 82.6266C107.754 82.6641 107.762 82.7042 107.762 82.7448C107.762 82.7854 107.755 82.8256 107.739 82.8632C107.724 82.9008 107.701 82.935 107.673 82.9639C107.644 82.9927 107.61 83.0157 107.573 83.0314C107.535 83.0472 107.495 83.0554 107.455 83.0556C107.414 83.0558 107.374 83.048 107.336 83.0327C107.299 83.0173 107.264 82.9947 107.236 82.9662L107.236 82.96ZM112.441 99.6452L112.08 98.1956C112.061 98.1181 112.073 98.0363 112.114 97.9677C112.154 97.899 112.22 97.8487 112.297 97.8276C112.374 97.8065 112.456 97.8161 112.526 97.8544C112.595 97.8928 112.648 97.9568 112.671 98.033L113.032 99.4826C113.044 99.5215 113.047 99.5621 113.042 99.6023C113.038 99.6424 113.025 99.6813 113.005 99.7166C112.986 99.752 112.959 99.7831 112.928 99.8082C112.896 99.8333 112.86 99.8519 112.821 99.863C112.782 99.8741 112.741 99.8774 112.701 99.8728C112.661 99.8681 112.622 99.8556 112.587 99.8359C112.551 99.8163 112.52 99.7899 112.495 99.7582C112.47 99.7265 112.451 99.6902 112.44 99.6513L112.441 99.6452ZM97.6581 119.536C97.0785 119.638 96.4878 119.663 95.9017 119.608C95.8203 119.608 95.7423 119.576 95.6848 119.519C95.6272 119.461 95.5949 119.383 95.5949 119.302C95.5949 119.22 95.6272 119.142 95.6848 119.085C95.7423 119.027 95.8203 118.995 95.9017 118.995C96.4329 119.049 96.9689 119.032 97.4955 118.943C97.9388 118.868 98.0155 119.473 97.6581 119.536ZM106.238 122.541H104.88C104.799 122.541 104.721 122.509 104.663 122.452C104.606 122.394 104.573 122.316 104.573 122.235C104.573 122.153 104.606 122.075 104.663 122.018C104.721 121.96 104.799 121.928 104.88 121.928H106.238C106.319 121.928 106.397 121.96 106.455 122.018C106.512 122.075 106.544 122.153 106.544 122.235C106.544 122.316 106.512 122.394 106.455 122.452C106.397 122.509 106.319 122.541 106.238 122.541ZM110.39 117.619C109.857 117.784 109.301 117.862 108.743 117.849C108.662 117.849 108.584 117.817 108.527 117.759C108.469 117.702 108.437 117.624 108.437 117.542C108.437 117.461 108.469 117.383 108.527 117.325C108.584 117.268 108.662 117.235 108.743 117.235C109.246 117.254 109.748 117.184 110.227 117.031C110.302 117.018 110.379 117.033 110.443 117.074C110.507 117.114 110.554 117.177 110.575 117.251C110.595 117.324 110.587 117.402 110.553 117.47C110.519 117.538 110.461 117.591 110.39 117.619ZM113.548 124.035C112.886 124.032 112.224 124.063 111.565 124.129C111.484 124.129 111.406 124.097 111.348 124.039C111.291 123.982 111.258 123.904 111.258 123.822C111.258 123.741 111.291 123.663 111.348 123.605C111.406 123.548 111.484 123.515 111.565 123.515C112.224 123.45 112.886 123.419 113.548 123.422C113.629 123.422 113.707 123.454 113.765 123.512C113.822 123.569 113.855 123.647 113.855 123.729C113.855 123.81 113.822 123.888 113.765 123.946C113.707 124.003 113.629 124.035 113.548 124.035ZM114.326 89.8108C114.292 89.741 114.285 89.6605 114.307 89.5857C114.33 89.511 114.38 89.4476 114.447 89.4086C114.515 89.3695 114.595 89.3576 114.671 89.3753C114.747 89.393 114.813 89.4391 114.856 89.504C115.2 90.0215 115.419 90.6122 115.494 91.229C115.494 91.3103 115.461 91.3884 115.404 91.4459C115.346 91.5035 115.268 91.5358 115.187 91.5358C115.106 91.5358 115.028 91.5035 114.97 91.4459C114.912 91.3884 114.88 91.3103 114.88 91.229C114.804 90.722 114.615 90.2386 114.326 89.8146V89.8108ZM116.643 119.675C116.085 119.885 115.5 120.012 114.905 120.053C114.824 120.052 114.747 120.02 114.69 119.962C114.632 119.905 114.6 119.828 114.599 119.746C114.579 119.273 115.113 119.603 116.479 119.083C116.558 119.061 116.642 119.072 116.713 119.112C116.783 119.152 116.835 119.219 116.857 119.297C116.879 119.376 116.868 119.46 116.828 119.531C116.788 119.602 116.721 119.653 116.643 119.675ZM118.984 97.5014L119.589 99.0753C119.61 99.1532 119.598 99.2359 119.558 99.3055C119.518 99.3752 119.452 99.4262 119.374 99.4476C119.297 99.469 119.214 99.4591 119.143 99.4201C119.073 99.381 119.021 99.3158 118.998 99.2387C118.797 98.713 118.594 98.1884 118.391 97.6648C118.37 97.5863 118.38 97.5024 118.42 97.4315C118.461 97.3607 118.527 97.3087 118.606 97.2871C118.684 97.2654 118.768 97.2758 118.839 97.316C118.91 97.3562 118.962 97.4229 118.984 97.5014ZM118.998 106.675C118.845 105.119 118.167 104.82 118.61 104.534C118.68 104.493 118.764 104.481 118.842 104.502C118.921 104.523 118.988 104.574 119.03 104.644C119.347 105.279 119.545 105.968 119.612 106.675C119.612 106.757 119.579 106.835 119.522 106.892C119.464 106.95 119.386 106.982 119.305 106.982C119.224 106.982 119.146 106.95 119.088 106.892C119.03 106.835 118.998 106.757 118.998 106.675ZM120.236 114.696L119.967 113.018C119.948 112.94 119.96 112.858 120.001 112.79C120.041 112.721 120.107 112.671 120.184 112.65C120.261 112.629 120.343 112.638 120.413 112.677C120.482 112.715 120.535 112.779 120.558 112.855L120.827 114.532C120.847 114.61 120.836 114.693 120.796 114.763C120.756 114.832 120.69 114.883 120.612 114.905C120.534 114.926 120.452 114.916 120.381 114.877C120.311 114.838 120.259 114.773 120.236 114.696ZM123.896 107.179L123.414 105.185C123.394 105.107 123.406 105.025 123.446 104.955C123.486 104.885 123.552 104.834 123.63 104.813C123.707 104.791 123.79 104.801 123.861 104.84C123.931 104.879 123.983 104.945 124.006 105.022L124.487 107.016C124.505 107.093 124.491 107.174 124.451 107.241C124.41 107.308 124.345 107.358 124.269 107.378C124.193 107.399 124.111 107.39 124.042 107.352C123.973 107.315 123.92 107.252 123.896 107.177V107.179Z" fill="#1E9993"/>
<path d="M88.7948 131.859C89.8143 132.224 90.9292 132.224 91.9487 131.859C92.461 131.721 92.9527 131.972 93.4742 131.879C93.9586 131.765 94.4555 131.714 94.953 131.726C96.3873 131.826 97.8829 132.562 99.3801 132.471C99.9141 132.402 100.442 132.292 100.959 132.142C101.631 131.999 102.043 132.113 105.014 132.499C105.403 132.55 105.397 131.936 105.014 131.885C103.835 131.673 102.644 131.535 101.449 131.472C100.397 131.492 99.9499 132.05 98.3569 131.803C96.9081 131.578 95.4891 130.926 93.9743 131.151C93.7365 131.186 93.5057 131.267 93.2664 131.295C93.008 131.297 92.7504 131.267 92.4994 131.206C91.5713 131.086 90.8273 131.941 88.9559 131.27C88.5854 131.134 88.4282 131.726 88.7948 131.859Z" fill="#CFF0FA"/>
<path d="M83.6486 123.912L64.4983 121.338C63.3478 117.893 56.2378 96.522 54.3211 93.451C54.2739 93.3725 54.206 93.3085 54.1248 93.266C54.0436 93.2235 53.9523 93.2042 53.8609 93.2101C45.0835 92.4431 22.0722 90.584 13.2004 91.0227C13.1534 91.0235 13.1072 91.035 13.0652 91.0562C13.0232 91.0775 12.9867 91.108 12.9582 91.1454C12.9297 91.1828 12.91 91.2262 12.9007 91.2723C12.8914 91.3184 12.8926 91.366 12.9043 91.4115C16.002 103.795 19.9061 115.962 24.5917 127.835C24.5935 127.894 24.6172 127.95 24.6582 127.993C24.6991 128.036 24.7545 128.061 24.8134 128.065C32.1589 129.139 58.1875 132.57 67.6023 132.044C67.7841 132.038 82.7558 125.007 83.8019 124.484C84.1149 124.338 83.9109 123.946 83.6486 123.912ZM25.1141 127.492C20.5083 115.795 16.6653 103.811 13.6092 91.6171C24.2543 91.1707 52.87 93.8015 53.8318 93.826C56.4395 98.2086 67.1391 131.372 67.1667 131.448C57.6721 131.873 34.5274 128.83 25.1141 127.492ZM65.2147 123.494L74.7415 124.798L66.9013 128.594C66.3434 126.893 65.7812 125.193 65.2147 123.494ZM67.7833 131.299C67.5538 130.593 67.3237 129.888 67.093 129.184L75.938 124.901C75.9901 124.871 76.0319 124.825 76.0583 124.771C76.0846 124.716 76.0943 124.656 76.0861 124.596C76.0779 124.536 76.0522 124.48 76.0122 124.434C75.9722 124.389 75.9197 124.356 75.8613 124.341L64.9992 122.851L64.7131 121.987L82.5771 124.382C79.5797 125.787 68.3264 131.022 67.7833 131.299Z" fill="black"/>
<path d="M37.596 106.834C35.4124 106.744 34.1975 108.086 33.7733 110.188C33.6966 110.572 34.2865 110.739 34.3647 110.351C34.4755 109.666 34.7442 109.017 35.1493 108.454C36.4279 106.826 39.2044 107.291 40.5489 108.904C40.9525 109.383 41.2149 109.965 41.3067 110.585C41.3985 111.204 41.3161 111.837 41.0687 112.412C40.8213 112.988 40.4187 113.483 39.9059 113.842C39.3931 114.202 38.7904 114.412 38.1651 114.448C37.0637 114.504 35.1232 113.783 34.887 112.591C34.8103 112.207 34.2182 112.367 34.2949 112.753C34.7106 114.846 39.3287 116.449 41.3689 113.161C43.07 110.422 40.9439 106.97 37.596 106.834Z" fill="black"/>
<path d="M149.572 129.73C146.278 129.4 125.277 127.409 123.275 127.226C122.883 127.191 122.886 127.804 123.275 127.84C126.803 128.162 147.736 130.161 149.572 130.345C149.964 130.384 149.961 129.77 149.572 129.73ZM122.702 131.26C120.603 130.962 118.488 130.788 116.369 130.738C116.288 130.738 116.21 130.77 116.152 130.828C116.095 130.886 116.062 130.964 116.062 131.045C116.062 131.126 116.095 131.204 116.152 131.262C116.21 131.319 116.288 131.352 116.369 131.352C122.099 131.483 122.755 132.195 122.916 131.637C122.927 131.598 122.93 131.558 122.925 131.518C122.92 131.478 122.907 131.439 122.887 131.404C122.867 131.369 122.841 131.338 122.809 131.313C122.777 131.289 122.74 131.27 122.702 131.26ZM130.246 130.957C129.186 130.711 128.105 130.569 127.017 130.532C126.622 130.518 126.623 131.132 127.017 131.145C128.051 131.18 129.078 131.316 130.085 131.55C130.467 131.639 130.631 131.047 130.246 130.957Z" fill="#001F29"/>
<path d="M52.369 71.4488C53.3675 69.209 54.9251 66.9362 58.87 67.265C61.6963 67.6552 63.5842 71.3747 61.4972 74.2207C60.0127 76.2451 58.4942 76.9759 57.3801 77.3629C56.6013 77.6335 56.1145 78.3382 56.1598 79.1614L56.2801 81.3442" stroke="#004860" stroke-width="0.75" stroke-linecap="round"/>
<path d="M82.432 115.37C85.2898 109.205 84.9631 97.4991 84.2421 90.7296C82.1707 90.5776 80.1835 89.8475 78.5063 88.6223C76.8291 87.3972 75.5293 85.7262 74.7544 83.7991C74.6585 83.5506 74.5596 83.4156 74.6378 83.2024C68.9698 88.3604 65.9125 95.8194 64.7068 103.418C64.0764 107.402 64.1301 111.25 66.1641 114.822C67.0909 116.458 68.3966 117.848 69.9715 118.875C69.9822 118.829 70.0034 118.787 70.0335 118.751C70.0636 118.715 70.1018 118.686 70.1449 118.668C70.1879 118.649 70.2348 118.641 70.2817 118.644C70.3286 118.646 70.3741 118.66 70.4148 118.683C70.8501 118.937 71.3015 119.162 71.7662 119.356C76.4433 121.29 80.2162 120.15 82.432 115.37ZM69.1002 108.973C69.1002 109.055 69.0678 109.133 69.0103 109.19C68.9528 109.248 68.8747 109.28 68.7934 109.28C68.712 109.28 68.634 109.248 68.5764 109.19C68.5189 109.133 68.4866 109.055 68.4866 108.973L68.5027 105.946C68.5027 105.865 68.535 105.787 68.5925 105.729C68.6501 105.672 68.7281 105.639 68.8095 105.639C68.8908 105.639 68.9689 105.672 69.0264 105.729C69.0839 105.787 69.1163 105.865 69.1163 105.946C69.1117 106.955 69.1063 107.964 69.1002 108.973ZM71.1994 95.7044L70.6311 98.7041C70.6083 98.7812 70.5562 98.8464 70.4858 98.8855C70.4155 98.9245 70.3327 98.9344 70.2551 98.913C70.1776 98.8916 70.1115 98.8405 70.0712 98.7709C70.031 98.7013 70.0196 98.6186 70.0397 98.5407C70.2284 97.5416 70.4178 96.5419 70.6081 95.5418C70.6293 95.463 70.681 95.396 70.7517 95.3553C70.8224 95.3147 70.9063 95.3038 70.985 95.3251C71.0638 95.3463 71.1308 95.398 71.1714 95.4687C71.2121 95.5394 71.223 95.6233 71.2017 95.7021L71.1994 95.7044ZM71.8276 111.032C71.5883 110.248 71.3987 109.45 71.26 108.642C71.2493 108.603 71.2464 108.562 71.2514 108.522C71.2564 108.482 71.2693 108.444 71.2892 108.409C71.3092 108.374 71.3358 108.343 71.3676 108.318C71.3995 108.294 71.4359 108.275 71.4748 108.265C71.5136 108.254 71.5542 108.251 71.5942 108.256C71.6342 108.261 71.6729 108.274 71.7079 108.294C71.743 108.314 71.7737 108.34 71.7985 108.372C71.8232 108.404 71.8414 108.44 71.8521 108.479C71.9903 109.287 72.1796 110.085 72.4189 110.869C72.5378 111.245 71.9449 111.405 71.8299 111.03L71.8276 111.032ZM72.9221 89.8499L72.3537 91.3985C72.2003 91.8103 71.632 91.5887 71.7624 91.2359L72.3307 89.6873C72.4841 89.2724 73.054 89.4963 72.9244 89.8476L72.9221 89.8499ZM74.1723 103.651C74.1723 103.733 74.1399 103.811 74.0824 103.868C74.0249 103.926 73.9468 103.958 73.8655 103.958C73.7841 103.958 73.7061 103.926 73.6485 103.868C73.591 103.811 73.5587 103.733 73.5587 103.651V102.084C73.5587 102.003 73.591 101.925 73.6485 101.867C73.7061 101.81 73.7841 101.777 73.8655 101.777C73.9468 101.777 74.0249 101.81 74.0824 101.867C74.1399 101.925 74.1723 102.003 74.1723 102.084V103.651ZM74.4024 94.3422C74.249 95.0708 74.0981 95.7992 73.9498 96.5273C73.9263 96.6035 73.8741 96.6675 73.8042 96.7059C73.7343 96.7442 73.6522 96.7538 73.5753 96.7327C73.4985 96.7115 73.4329 96.6613 73.3924 96.5926C73.3519 96.524 73.3397 96.4422 73.3585 96.3647L73.811 94.1788C73.8216 94.1396 73.8398 94.1028 73.8646 94.0706C73.8894 94.0384 73.9202 94.0114 73.9555 93.9912C73.9907 93.9709 74.0295 93.9578 74.0698 93.9525C74.1101 93.9473 74.1511 93.95 74.1903 93.9606C74.2295 93.9712 74.2663 93.9894 74.2985 94.0142C74.3307 94.0389 74.3577 94.0698 74.3779 94.105C74.3982 94.1403 74.4113 94.1791 74.4166 94.2194C74.4218 94.2597 74.4191 94.3006 74.4085 94.3399L74.4024 94.3422ZM76.6665 115.241C76.6665 115.323 76.6342 115.401 76.5767 115.458C76.5191 115.516 76.4411 115.548 76.3597 115.548C76.2784 115.548 76.2003 115.516 76.1428 115.458C76.0853 115.401 76.0529 115.323 76.0529 115.241C76.0964 114.647 76.0823 114.051 76.0107 113.459C76.0107 113.378 76.0431 113.3 76.1006 113.243C76.1581 113.185 76.2362 113.153 76.3175 113.153C76.3989 113.153 76.4769 113.185 76.5345 113.243C76.592 113.3 76.6243 113.378 76.6243 113.459C76.6978 114.05 76.714 114.646 76.6727 115.239L76.6665 115.241ZM79.6118 95.8194C79.6118 95.738 79.6441 95.66 79.7016 95.6025C79.7592 95.5449 79.8372 95.5126 79.9186 95.5126C79.9999 95.5126 80.078 95.5449 80.1355 95.6025C80.193 95.66 80.2254 95.738 80.2254 95.8194V97.5942C80.2254 97.6756 80.193 97.7536 80.1355 97.8112C80.078 97.8687 79.9999 97.901 79.9186 97.901C79.8372 97.901 79.7592 97.8687 79.7016 97.8112C79.6441 97.7536 79.6118 97.6756 79.6118 97.5942V95.8194ZM78.4613 109.185V106.259C78.4613 106.178 78.4936 106.1 78.5511 106.042C78.6087 105.984 78.6867 105.952 78.7681 105.952C78.8495 105.952 78.9275 105.984 78.985 106.042C79.0426 106.1 79.0749 106.178 79.0749 106.259V109.183C79.0629 109.254 79.0259 109.319 78.9705 109.366C78.9151 109.413 78.8449 109.439 78.7723 109.439C78.6997 109.439 78.6295 109.413 78.5741 109.366C78.5187 109.319 78.4817 109.254 78.4697 109.183L78.4613 109.185Z" fill="#1E9993"/>
<path d="M91.1045 108.035C90.2434 107.808 89.3823 107.58 88.5212 107.352C88.4429 107.332 88.3599 107.343 88.2897 107.383C88.2195 107.423 88.1675 107.489 88.1446 107.567L84.9409 118.381C86.1468 118.166 87.3577 117.98 88.5726 117.823C88.5941 117.746 91.3146 108.427 91.3185 108.412C91.3399 108.333 91.3294 108.25 91.2893 108.179C91.2492 108.109 91.1827 108.057 91.1045 108.035Z" fill="#004860"/>
<path d="M101.128 79.1788C100.916 77.1648 100.432 75.1887 99.6897 73.3044C98.3355 75.2305 96.351 76.6231 94.0791 77.2414C91.4154 78.0368 92.5497 77.0397 92.6372 78.7217C92.6482 78.8778 92.6261 79.0345 92.5723 79.1815C92.5185 79.3285 92.4342 79.4625 92.325 79.5746C92.5904 79.6981 92.9624 79.8423 93.2868 80.0348C93.6183 80.1941 93.9077 80.429 94.1318 80.7206C94.3559 81.0123 94.5083 81.3524 94.5769 81.7137C94.5834 81.9788 94.5357 82.2425 94.4368 82.4885C94.3378 82.7345 94.1896 82.9577 94.0013 83.1444C93.813 83.3311 93.5886 83.4774 93.3417 83.5743C93.0949 83.6712 92.8309 83.7167 92.5659 83.7079C93.451 84.6728 92.7806 84.6743 93.5522 84.5953C95.6607 84.3737 98.6911 83.2746 100.225 81.7191C100.571 81.4012 100.834 81.0036 100.991 80.5609C101.149 80.1182 101.195 79.6438 101.128 79.1788Z" fill="white"/>
<path d="M79.9088 71.4905C80.9963 71.7007 81.5793 73.296 81.7932 74.3859C82.3758 75.0083 83.06 75.527 83.8166 75.9199C86.0846 75.1583 90.2823 75.0977 91.9467 77.085C95.82 76.5481 99.161 74.4243 100.247 70.6461C98.2744 68.9809 97.3003 65.2442 98.6103 62.019C99.2492 60.4474 99.3689 60.9904 99.1855 60.5034C98.2331 57.6002 96.2792 55.1303 93.6732 53.5353C91.2505 52.2089 88.461 51.7099 85.7287 52.114C80.9986 52.7875 79.0973 55.4505 78.5957 59.5999C78.1431 63.3666 78.3594 68.0222 79.9088 71.4905Z" fill="white"/>
<path d="M84.2488 90.1123C84.4789 88.4909 85.3664 86.8258 86.9678 86.2973C88.837 85.6837 91.0689 86.8104 92.1259 86.1524C92.3215 86.0255 92.4721 85.8401 92.5564 85.6227C92.6407 85.4053 92.6543 85.1669 92.5953 84.9413C92.3429 84.0385 91.355 83.5292 91.2791 83.4249C89.8621 82.7548 88.2514 82.6162 86.7408 83.0345C86.6633 83.0533 86.5816 83.0411 86.5129 83.0006C86.4442 82.9602 86.394 82.8946 86.3729 82.8177C86.3517 82.7408 86.3613 82.6587 86.3997 82.5888C86.438 82.5189 86.502 82.4667 86.5782 82.4432C88.3281 81.9648 90.1942 82.1665 91.8014 83.0077C93.1007 83.3789 94.0909 82.5613 93.9628 81.7176C93.6844 79.8899 88.1214 78.744 85.4707 79.8001C85.1033 79.9466 84.9453 79.353 85.3073 79.208C87.1427 78.4771 89.7827 78.7908 91.6933 79.3338C91.8433 79.2493 91.9573 79.1129 92.0139 78.9503C92.1374 78.4364 91.6994 77.3266 90.4346 76.6823C88.7212 75.8432 85.95 75.9199 84.2097 76.4468C81.7684 77.1939 81.8834 78.1695 81.4432 77.9095C80.9017 77.7768 81.7646 76.7797 81.0597 74.0063C80.7813 72.9033 80.0511 71.5995 79.2097 72.2644C78.0262 73.1986 78.2126 76.4062 77.6696 78.1166C77.0451 79.9466 76.2334 81.7072 75.2474 83.3705C76.6932 87.3803 80.2214 89.6897 84.2488 90.1123ZM91.9671 118.04C89.7183 118.276 80.5021 119.101 80.4262 121.136C80.4672 121.656 80.6776 122.148 81.0252 122.537C81.3728 122.927 81.8383 123.191 82.3505 123.291C82.422 123.311 82.4838 123.356 82.5243 123.419C82.5649 123.481 82.5815 123.556 82.5711 123.629C82.5607 123.703 82.524 123.77 82.4678 123.818C82.4116 123.867 82.3397 123.893 82.2654 123.893C81.8702 123.969 81.5087 124.166 81.2314 124.458C80.9541 124.749 80.775 125.12 80.7192 125.519C80.69 125.944 80.772 126.369 80.9572 126.752C81.1424 127.136 81.4244 127.464 81.7753 127.706C81.9678 127.887 81.9371 128.019 81.8881 128.127C81.7553 128.399 81.7018 128.702 81.7337 129.003C81.7655 129.304 81.8815 129.59 82.0683 129.828C82.1542 129.927 82.1657 129.926 82.4963 130.076C85.44 131.423 90.9953 130.006 94.028 128.91C92.6654 125.448 91.9663 121.76 91.9671 118.04Z" fill="white"/>
<path d="M113.662 109.612C112.713 110.529 111.862 111.543 111.125 112.637C111.104 112.669 111.091 112.705 111.085 112.742C111.079 112.78 111.081 112.818 111.091 112.855C111 112.862 110.91 112.868 110.819 112.877C107.834 105.493 107.982 97.4417 108.478 89.4451C108.502 89.0516 107.889 89.0531 107.864 89.4451C107.369 97.3573 107.224 105.537 110.184 112.936C104.456 113.501 98.8298 114.828 93.454 116.883C91.2957 117.73 93.3665 117.183 88.2384 117.867C87.1352 118.013 86.0355 118.185 84.9404 118.382C82.7774 118.787 79.5361 119.497 79.8383 121.534C79.9247 121.968 80.1095 122.377 80.3785 122.728C80.6475 123.079 80.9935 123.364 81.39 123.56C79.8521 124.441 79.5584 126.6 81.2573 128.069C81.145 128.36 81.0963 128.671 81.1144 128.983C81.1326 129.294 81.2171 129.597 81.3623 129.873C81.9851 131.029 84.4671 131.254 85.7833 131.238C88.7739 131.098 91.7218 130.472 94.5116 129.386C94.5562 129.372 94.5971 129.349 94.6314 129.317C94.6657 129.286 94.6926 129.247 94.7102 129.204C94.7277 129.161 94.7355 129.114 94.7328 129.068C94.7302 129.021 94.7173 128.976 94.695 128.935C93.2546 125.437 92.5356 121.683 92.5811 117.9C99.3226 115.162 106.485 113.605 113.755 113.298C114.149 113.283 114.151 112.67 113.755 112.685C113.089 112.711 112.422 112.752 111.757 112.8C112.442 111.805 113.226 110.882 114.096 110.044C114.381 109.772 113.946 109.338 113.662 109.612ZM94.0269 128.911C91.0249 130.014 86.2166 131.191 83.1356 130.309C82.7531 130.211 82.3899 130.049 82.0618 129.829C81.8751 129.591 81.7591 129.306 81.7272 129.005C81.6953 128.704 81.7488 128.4 81.8816 128.128C81.9176 128.06 81.9276 127.982 81.9098 127.907C81.892 127.832 81.8477 127.766 81.785 127.722C81.0947 127.069 80.5578 126.404 80.7112 125.521C80.7674 125.122 80.9466 124.751 81.2238 124.46C81.501 124.168 81.8624 123.971 82.2574 123.894C82.3317 123.895 82.4036 123.868 82.4598 123.82C82.516 123.771 82.5527 123.704 82.5631 123.631C82.5735 123.557 82.5569 123.482 82.5163 123.42C82.4758 123.358 82.414 123.313 82.3426 123.292C81.1039 122.954 79.9472 121.672 80.5938 120.681C81.6231 119.046 89.8598 118.262 91.9591 118.042C91.9625 121.762 92.6639 125.449 94.0269 128.911ZM82.4791 116.623C86.0203 110.352 85.6038 97.5154 84.8253 90.4399C84.8882 89.8788 85.0297 89.3293 85.2456 88.8077C86.5917 85.6316 89.4349 87.0336 91.3049 86.9746C91.5478 86.9954 91.7925 86.9662 92.0238 86.8889C92.2551 86.8116 92.4681 86.6877 92.6498 86.525C92.8314 86.3623 92.9778 86.1641 93.08 85.9426C93.1821 85.7212 93.2379 85.4812 93.2438 85.2374C95.6591 85.0163 97.9736 84.1629 99.9542 82.763C101.611 81.4929 102.126 80.2481 101.488 77.2599C101.143 75.6819 100.679 74.1323 100.1 72.6242C100.371 72.1126 100.592 71.5757 100.759 71.0212C104.12 73.1043 107.388 69.6053 107.618 65.5502C108.266 65.9281 109.034 66.046 109.766 65.88C110.012 65.7989 110.226 65.6432 110.38 65.4346C110.533 65.2259 110.618 64.9747 110.622 64.7157C110.643 64.1505 110.303 63.53 110.77 63.0675C111.185 62.7633 111.585 62.4382 111.967 62.0934C112.307 61.6793 112.517 61.1744 112.571 60.6417C112.626 60.1089 112.522 59.5718 112.274 59.0975C111.801 58.2416 110.948 57.7852 111.935 56.6293C112.489 55.9812 113.272 55.4091 113.482 54.5385C113.713 53.5967 113.117 52.8289 112.536 52.1609C111.839 51.357 111.328 50.8125 111.654 49.7939C111.951 48.8674 112.751 47.914 112.35 46.8947C112.136 46.3509 111.639 46.0725 111.287 45.6376C110.88 45.1367 111.056 44.4672 111.051 43.8735C111.041 41.976 109.121 41.1576 107.235 41.1208C106.909 41.1457 106.581 41.1116 106.267 41.0203C105.769 40.817 105.624 40.1897 105.424 39.7448C105.086 39.0418 104.526 38.4699 103.83 38.1179C103.134 37.766 102.341 37.6536 101.575 37.7982C100.664 37.97 99.8024 38.8098 99.224 38.4885C98.7401 38.2192 98.783 37.2459 98.3267 36.3562C97.9499 35.6191 97.3772 35 96.6716 34.567C95.966 34.134 95.1547 33.9039 94.3268 33.9019C92.3372 34.0039 92.4523 35.4872 91.8525 35.8799C90.9091 36.4935 89.5707 35.3008 88.3634 35.2518C87.9591 35.2373 87.5571 35.3198 87.191 35.4922C86.825 35.6646 86.5054 35.9221 86.259 36.2431C86.0127 36.564 85.8466 36.9393 85.7746 37.3375C85.7027 37.7357 85.7269 38.1453 85.8454 38.5322C84.4932 38.704 83.197 37.7652 81.8479 37.7284C81.5634 37.695 81.2751 37.7206 81.0009 37.8035C80.7267 37.8864 80.4726 38.0249 80.2543 38.2103C80.036 38.3958 79.8582 38.6241 79.732 38.8813C79.6058 39.1384 79.5339 39.4188 79.5208 39.7049C79.5691 40.4865 80.1912 40.7419 80.2042 41.1752C80.2172 41.6354 79.497 41.7068 79.1741 41.6308C78.5889 41.3805 77.9675 41.2251 77.3333 41.1706C77.048 41.1913 76.7716 41.2796 76.5271 41.4281C76.2825 41.5767 76.0768 41.7813 75.927 42.0251C75.7771 42.2688 75.6874 42.5447 75.6652 42.83C75.643 43.1152 75.689 43.4017 75.7994 43.6657C76.1131 44.4326 76.7696 44.5185 76.2741 44.7195C75.9313 44.8591 75.2724 44.7632 74.5215 44.9795C73.0643 45.3968 72.5757 46.7106 73.0267 47.5804C73.4777 48.4501 74.9825 48.6657 74.6888 49.2777C74.5246 49.6198 73.8681 49.7164 73.3304 49.9972C71.7834 50.8025 72.0626 52.4853 73.1264 52.7092C73.7707 52.8465 73.4953 53.1135 73.1187 53.2615C72.8437 53.3457 72.5737 53.4458 72.3103 53.5614C71.9998 53.7309 71.7328 53.97 71.5302 54.2599C71.3275 54.5499 71.1947 54.8828 71.1422 55.2326C71.0897 55.5824 71.1188 55.9396 71.2274 56.2763C71.336 56.613 71.521 56.9199 71.7681 57.1731C72.1611 57.5691 72.683 57.8112 73.2391 57.8558C73.5038 57.8749 73.8374 57.7921 74.0169 58.0391C74.6458 58.9065 72.8595 59.8967 73.9662 62.0374C72.8081 66.1914 75.1589 71.2536 78.9463 70.7405C79.044 71.0115 79.1493 71.2791 79.2623 71.5435C78.3903 71.8557 77.996 72.9241 77.7744 73.8199C77.124 76.4407 77.8242 76.4752 76.3984 79.7142C74.6029 83.7862 74.4042 82.8842 74.7539 83.7992C75.5324 85.7238 76.8333 87.3926 78.5097 88.6172C80.1861 89.8418 82.1715 90.5735 84.2416 90.7298C84.9588 97.4494 85.2962 109.192 82.4315 115.37C80.2372 120.105 76.4927 121.311 71.7642 119.358C71.2995 119.164 70.8481 118.939 70.4128 118.686C70.3429 118.651 70.2624 118.644 70.1877 118.667C70.113 118.689 70.0496 118.739 70.0105 118.807C69.9714 118.874 69.9595 118.954 69.9773 119.03C69.995 119.106 70.041 119.173 70.106 119.216C71.7932 120.213 73.7028 120.773 75.6613 120.844C78.7415 120.878 80.9727 119.291 82.4791 116.623ZM101.128 79.1789C101.195 79.6439 101.148 80.1184 100.99 80.5611C100.833 81.0038 100.57 81.4013 100.223 81.7192C98.6388 83.3252 95.3852 84.4987 93.1426 84.6284C93.0141 84.2859 92.8179 83.9729 92.5658 83.708C94.5669 83.6029 95.5509 81.3518 93.2868 80.0318C92.96 79.8408 92.5965 79.702 92.325 79.5716C92.4342 79.4594 92.5184 79.3255 92.5722 79.1785C92.626 79.0315 92.6481 78.8748 92.6371 78.7187C92.5497 77.0436 91.4199 78.0345 94.0791 77.2384C96.3508 76.6197 98.3351 75.2272 99.6896 73.3014C100.432 75.1866 100.916 77.1638 101.128 79.1789ZM101.622 59.3253C104.424 58.0368 107.144 61.6677 107.014 65.3577C106.853 69.4481 103.568 72.6012 100.668 70.202C99.3938 68.9777 98.6576 67.2982 98.6204 65.5318C98.5031 63.1756 99.6359 60.238 101.62 59.3253H101.622ZM101.413 58.7485C100.742 59.0724 100.156 59.5489 99.7027 60.1399C98.9249 57.9148 97.6072 55.9175 95.8677 54.3268C91.2657 50.3515 83.964 50.6269 80.5516 53.7056C79.4436 54.7574 78.6752 56.1164 78.345 57.608C78.0918 57.6126 77.8402 57.6482 77.5957 57.7139C79.9434 45.8339 96.5495 45.59 101.413 58.7516V58.7485ZM74.5131 62.3565C75.0002 60.4773 76.3148 58.3758 78.1947 58.2324C77.4722 62.1909 77.6592 66.2619 78.7415 70.1376C75.389 70.4551 73.6042 65.8079 74.5131 62.3565ZM78.9471 57.6586C79.8138 54.3146 82.2812 52.6034 85.7273 52.1125C88.4598 51.7091 91.2494 52.2089 93.6718 53.5361C96.2777 55.1313 98.2315 57.6011 99.1842 60.5042C99.3629 60.982 99.234 60.4842 98.6089 62.0198C97.2889 65.281 98.2937 68.9994 100.246 70.6469C99.1581 74.4304 95.8125 76.5458 91.9453 77.0858C90.2955 75.1146 86.0947 75.1553 83.8152 75.9207C83.059 75.5273 82.3748 75.0086 81.7919 74.3867C81.5794 73.3045 80.9911 71.69 79.9074 71.4913C78.1655 67.585 77.9968 61.2965 78.9471 57.6571V57.6586ZM81.9253 75.3593C82.2861 75.6754 82.6736 75.9597 83.0835 76.2091C82.7658 76.353 82.4604 76.5223 82.17 76.7153C81.732 77.006 82.0618 77.0443 81.9253 75.3577V75.3593ZM84.2485 90.1139C82.2581 89.9739 80.3502 89.2627 78.7539 88.0655C77.1575 86.8683 75.9405 85.236 75.2487 83.3644C78.6763 77.3381 77.7452 76.4338 78.3749 73.9449C78.5329 73.3183 78.8351 72.2691 79.5185 72.1042C79.6572 72.0795 79.8 72.0919 79.9324 72.1401C80.0648 72.1883 80.1821 72.2706 80.2725 72.3787C80.7579 72.9807 81.0676 73.705 81.1675 74.4719C81.6599 76.9186 80.9374 77.7791 81.4429 77.9018C81.867 78.1519 81.6837 77.3404 83.8904 76.542C85.7388 75.9 88.7002 75.821 90.3822 76.647C91.6715 77.2783 92.1401 78.4111 92.0136 78.9427C91.9567 79.1051 91.8428 79.2414 91.693 79.3262C89.8039 78.7893 87.1562 78.4641 85.307 79.2004C84.945 79.3453 85.103 79.9382 85.4704 79.7925C87.9516 78.8038 93.6772 79.8009 93.9625 81.71C94.0898 82.546 93.1111 83.3743 91.8011 83C90.1954 82.1536 88.3273 81.9517 86.5779 82.4355C86.5017 82.459 86.4377 82.5113 86.3994 82.5812C86.361 82.6511 86.3514 82.7332 86.3725 82.81C86.3937 82.8869 86.4439 82.9525 86.5126 82.993C86.5813 83.0335 86.663 83.0456 86.7405 83.0269C88.6886 82.4677 91.5794 82.8781 92.4714 84.6261C92.6218 84.8747 92.6697 85.172 92.6052 85.4552C92.5407 85.7385 92.3687 85.9857 92.1255 86.1447C91.084 86.7928 88.8068 85.6845 86.9675 86.2897C85.3798 86.8235 84.4802 88.4756 84.2485 90.1124V90.1139Z" fill="black"/>
<path d="M77.5909 57.7139C77.8356 57.6486 78.0872 57.613 78.3403 57.608C78.6705 56.1164 79.4389 54.7574 80.5469 53.7056C83.9516 50.6376 91.2572 50.3485 95.863 54.3268C97.6021 55.9178 98.9197 57.915 99.6979 60.1399C100.153 59.5492 100.741 59.0737 101.414 58.7516C96.5448 45.5893 79.9395 45.8585 77.5909 57.7139Z" fill="#004860"/>
<path d="M78.195 58.2307C76.3066 58.3741 74.9882 60.5018 74.5134 62.3548C73.6053 65.817 75.3939 70.455 78.7418 70.136C77.6642 66.2595 77.4772 62.1896 78.195 58.2307ZM107.02 65.0408C106.985 60.2464 102.688 56.8808 99.9445 60.8086C97.8368 63.7929 98.3791 68.3067 100.668 70.2034C103.73 72.7345 107.051 69.1059 107.02 65.0408Z" fill="#004860"/>
<path d="M92.6639 71.1505C90.6043 70.898 88.522 71.3842 86.7872 72.5227C86.6658 72.6076 86.5507 72.7012 86.4428 72.8026C86.1606 73.0795 86.5962 73.5129 86.8769 73.236C87.6815 72.4314 89.813 71.5348 92.6639 71.7641C93.0574 71.7956 93.055 71.182 92.6639 71.1505ZM93.3243 60.5154C92.216 59.2959 90.975 59.0658 90.3115 59.2614C90.2354 59.2849 90.1713 59.3372 90.133 59.4071C90.0947 59.477 90.085 59.559 90.1062 59.6359C90.1273 59.7128 90.1775 59.7784 90.2462 59.8189C90.3149 59.8593 90.3966 59.8715 90.4741 59.8528C90.6603 59.8156 90.8513 59.8097 91.0394 59.8351C91.771 59.9701 92.4288 60.3658 92.8909 60.9488C93.1571 61.2425 93.5896 60.8077 93.3243 60.5154ZM83.0596 58.8096C82.387 58.611 81.1506 58.848 80.0469 60.0637C79.7815 60.3551 80.2141 60.79 80.4802 60.497C81.7304 59.1218 82.8847 59.4018 82.772 59.3765C82.8139 59.3826 82.8553 59.391 82.8962 59.4018C82.9748 59.4234 83.0587 59.413 83.1295 59.3728C83.2004 59.3326 83.2523 59.2659 83.274 59.1874C83.2957 59.1089 83.2852 59.025 83.245 58.9541C83.2048 58.8833 83.1381 58.8313 83.0596 58.8096ZM92.9538 64.5306C92.9537 64.3629 92.9038 64.199 92.8105 64.0596C92.7172 63.9202 92.5846 63.8115 92.4296 63.7475C92.2746 63.6834 92.1041 63.6667 91.9396 63.6995C91.775 63.7323 91.624 63.8132 91.5054 63.9318C91.3869 64.0505 91.3061 64.2017 91.2735 64.3662C91.2408 64.5307 91.2576 64.7012 91.3219 64.8562C91.3861 65.0112 91.4948 65.1436 91.6343 65.2368C91.7738 65.33 91.9378 65.3797 92.1055 65.3797C92.217 65.3797 92.3274 65.3577 92.4303 65.3151C92.5333 65.2724 92.6268 65.2098 92.7056 65.131C92.7844 65.0521 92.8469 64.9585 92.8895 64.8555C92.932 64.7525 92.9539 64.6421 92.9538 64.5306ZM81.6215 63.3433C81.4537 63.3433 81.2897 63.3931 81.1502 63.4863C81.0107 63.5795 80.902 63.712 80.8378 63.867C80.7736 64.022 80.7568 64.1926 80.7895 64.3571C80.8223 64.5217 80.903 64.6728 81.0217 64.7915C81.1403 64.9101 81.2915 64.9909 81.456 65.0236C81.6206 65.0564 81.7911 65.0396 81.9461 64.9753C82.1011 64.9111 82.2336 64.8024 82.3268 64.6629C82.42 64.5234 82.4698 64.3594 82.4698 64.1916C82.4698 63.9666 82.3804 63.7509 82.2213 63.5918C82.0623 63.4327 81.8465 63.3433 81.6215 63.3433Z" fill="black"/>
<path d="M105.057 65.0644C105.04 64.4227 104.926 63.7874 104.716 63.1807C104.481 62.5847 103.979 61.8538 103.264 61.8538C101.065 61.8538 101.18 65.859 101.926 67.146C103.059 69.0957 105.194 68.4675 105.057 65.0644Z" fill="#77E4DF"/>
<path d="M38.2462 66.8994C34.4158 66.8994 30.8974 68.2855 28.1779 70.5831C28.1291 70.6211 28.0885 70.6685 28.0585 70.7226C28.0285 70.7766 28.0097 70.8362 28.0032 70.8977C27.9968 70.9592 28.0028 71.0214 28.021 71.0805C28.0392 71.1396 28.0691 71.1944 28.109 71.2417C28.1489 71.2889 28.1979 71.3276 28.2531 71.3555C28.3083 71.3833 28.3686 71.3997 28.4303 71.4037C28.492 71.4077 28.5539 71.3992 28.6122 71.3787C28.6706 71.3581 28.7241 71.3261 28.7698 71.2843C31.3301 69.1212 34.6371 67.8176 38.2462 67.8176C41.8554 67.8176 45.1623 69.1212 47.7227 71.2843C47.7683 71.3261 47.8219 71.3581 47.8802 71.3787C47.9385 71.3992 48.0004 71.4077 48.0621 71.4037C48.1238 71.3997 48.1841 71.3833 48.2393 71.3555C48.2945 71.3276 48.3435 71.2889 48.3834 71.2417C48.4233 71.1944 48.4532 71.1396 48.4714 71.0805C48.4896 71.0214 48.4956 70.9592 48.4892 70.8977C48.4828 70.8362 48.464 70.7766 48.4339 70.7226C48.4039 70.6685 48.3633 70.6211 48.3145 70.5831C45.595 68.2855 42.0766 66.8994 38.2462 66.8994ZM38.2462 71.5013C35.5381 71.5013 33.0584 72.48 31.1461 74.0982C31.1 74.1372 31.0621 74.1849 31.0345 74.2385C31.0069 74.2921 30.9901 74.3507 30.9851 74.4108C30.975 74.5322 31.0135 74.6526 31.0923 74.7456C31.171 74.8386 31.2834 74.8965 31.4048 74.9066C31.4649 74.9116 31.5255 74.9047 31.5829 74.8863C31.6404 74.8679 31.6936 74.8384 31.7397 74.7994C33.493 73.3158 35.759 72.4196 38.2462 72.4196C40.7334 72.4196 42.9995 73.3158 44.7528 74.7994C44.8457 74.8782 44.9662 74.9167 45.0876 74.9066C45.209 74.8965 45.3215 74.8386 45.4002 74.7456C45.4789 74.6526 45.5175 74.5322 45.5074 74.4108C45.4973 74.2894 45.4394 74.1769 45.3464 74.0982C43.4341 72.48 40.9544 71.5013 38.2462 71.5013ZM38.2462 76.0961C36.6746 76.0961 35.2309 76.6616 34.1142 77.6151C34.0682 77.6542 34.0305 77.702 34.003 77.7557C33.9755 77.8094 33.9589 77.8679 33.954 77.9281C33.9492 77.9882 33.9563 78.0487 33.9748 78.1061C33.9934 78.1635 34.023 78.2166 34.0621 78.2626C34.1012 78.3085 34.149 78.3463 34.2027 78.3737C34.2564 78.4012 34.315 78.4178 34.3751 78.4227C34.4352 78.4275 34.4957 78.4204 34.5531 78.4019C34.6105 78.3833 34.6637 78.3536 34.7096 78.3145C35.6662 77.4977 36.8942 77.0143 38.2462 77.0143C39.5983 77.0143 40.8262 77.4977 41.7828 78.3145C41.8288 78.3536 41.8819 78.3833 41.9393 78.4019C41.9967 78.4204 42.0572 78.4275 42.1173 78.4226C42.1775 78.4178 42.236 78.4012 42.2897 78.3737C42.3434 78.3463 42.3912 78.3085 42.4303 78.2626C42.4694 78.2166 42.4991 78.1634 42.5176 78.1061C42.5361 78.0487 42.5432 77.9882 42.5384 77.9281C42.5335 77.8679 42.5169 77.8094 42.4894 77.7557C42.462 77.702 42.4242 77.6542 42.3783 77.6151C41.2615 76.6616 39.8178 76.0961 38.2462 76.0961ZM38.2462 81.1284C37.8809 81.1284 37.5306 81.2735 37.2723 81.5318C37.014 81.7901 36.8689 82.1405 36.8689 82.5058C36.8689 82.8711 37.014 83.2214 37.2723 83.4797C37.5306 83.738 37.8809 83.8831 38.2462 83.8831C38.6115 83.8831 38.9618 83.738 39.2201 83.4797C39.4785 83.2214 39.6236 82.8711 39.6236 82.5058C39.6236 82.1405 39.4785 81.7901 39.2201 81.5318C38.9618 81.2735 38.6115 81.1284 38.2462 81.1284Z" fill="#004860"/>
<path d="M56.8804 83.737C57.1425 83.4373 57.0417 82.9966 56.4799 83.0342C56.0305 83.0643 55.932 83.2804 55.9557 83.6337C55.9794 83.9869 56.6183 84.0367 56.8804 83.737Z" fill="#004860" stroke="#004860" stroke-width="0.5" stroke-linecap="round"/>
</svg>
