<svg width="25" height="24" viewBox="0 0 25 24" fill="none" xmlns="http://www.w3.org/2000/svg">
<path d="M13.9688 12L17.3438 15.375C17.5312 15.5625 17.5312 15.9062 17.3438 16.0938L16.5625 16.875C16.375 17.0625 16.0312 17.0625 15.8438 16.875L12.5 13.5L9.125 16.875C8.9375 17.0625 8.59375 17.0625 8.40625 16.875L7.625 16.0938C7.4375 15.9062 7.4375 15.5625 7.625 15.375L11 12L7.625 8.65625C7.4375 8.46875 7.4375 8.125 7.625 7.9375L8.40625 7.15625C8.59375 6.96875 8.9375 6.96875 9.125 7.15625L12.5 10.5312L15.8438 7.15625C16.0312 6.96875 16.375 6.96875 16.5625 7.15625L17.3438 7.9375C17.5312 8.125 17.5312 8.46875 17.3438 8.65625L13.9688 12Z" fill="#61666B"/>
</svg>
