<svg width="24" height="24" viewBox="0 0 24 24" fill="none" xmlns="http://www.w3.org/2000/svg">
<path d="M19.6836 16.8086L13.1211 5.40625C12.6289 4.55859 11.3438 4.53125 10.8516 5.40625L4.28906 16.8086C3.79688 17.6562 4.42578 18.75 5.4375 18.75H18.5352C19.5469 18.75 20.1758 17.6836 19.6836 16.8086ZM12 14.4297C12.6836 14.4297 13.2578 15.0039 13.2578 15.6875C13.2578 16.3984 12.6836 16.9453 12 16.9453C11.2891 16.9453 10.7422 16.3984 10.7422 15.6875C10.7422 15.0039 11.2891 14.4297 12 14.4297ZM10.7969 9.91797C10.7695 9.72656 10.9336 9.5625 11.125 9.5625H12.8477C13.0391 9.5625 13.2031 9.72656 13.1758 9.91797L12.9844 13.6367C12.957 13.8281 12.8203 13.9375 12.6562 13.9375H11.3164C11.1523 13.9375 11.0156 13.8281 10.9883 13.6367L10.7969 9.91797Z" fill="#FF4040"/>
</svg>
