<svg width="24" height="24" viewBox="0 0 24 24" fill="none" xmlns="http://www.w3.org/2000/svg">
<circle cx="12" cy="12" r="12" fill="white"/>
<path d="M15.1667 14.1389L16.0556 13.25C16.1944 13.1111 16.4444 13.2222 16.4444 13.4167V17.4444C16.4444 18.1944 15.8333 18.7778 15.1111 18.7778H5.33333C4.58333 18.7778 4 18.1944 4 17.4444V7.66667C4 6.94444 4.58333 6.33333 5.33333 6.33333H12.9167C13.1111 6.33333 13.2222 6.58333 13.0833 6.72222L12.1944 7.61111C12.1389 7.66667 12.0833 7.66667 12.0278 7.66667H5.33333V17.4444H15.1111V14.3056C15.1111 14.25 15.1111 14.1944 15.1667 14.1389ZM19.5 8.55556L12.2222 15.8333L9.69444 16.1111C8.97222 16.1944 8.36111 15.5833 8.44444 14.8611L8.72222 12.3333L16 5.05556C16.6389 4.41667 17.6667 4.41667 18.3056 5.05556L19.5 6.25C20.1389 6.88889 20.1389 7.91667 19.5 8.55556ZM16.7778 9.38889L15.1667 7.77778L10 12.9444L9.77778 14.7778L11.6111 14.5556L16.7778 9.38889ZM18.5556 7.19444L17.3611 6C17.25 5.86111 17.0556 5.86111 16.9444 6L16.1111 6.83333L17.7222 8.47222L18.5833 7.61111C18.6944 7.47222 18.6944 7.30556 18.5556 7.19444Z" fill="#323232"/>
</svg>
