<svg width="85" height="85" viewBox="0 0 85 85" fill="none" xmlns="http://www.w3.org/2000/svg">
<path d="M42.9246 73.0314C59.8816 73.0314 73.628 59.285 73.628 42.3279C73.628 25.3709 59.8816 11.6245 42.9246 11.6245C25.9676 11.6245 12.2212 25.3709 12.2212 42.3279C12.2212 59.285 25.9676 73.0314 42.9246 73.0314Z" fill="#CEE8E7"/>
<path d="M82.2965 24.1717L73.3059 24.1195" stroke="#231F20" stroke-width="0.84119" stroke-miterlimit="10" stroke-linecap="round" stroke-linejoin="round"/>
<path d="M80.8641 34.0607L72.6541 29.9086" stroke="#231F20" stroke-width="0.84119" stroke-miterlimit="10" stroke-linecap="round" stroke-linejoin="round"/>
<path d="M80.896 13.7552L72.8113 18.2127" stroke="#231F20" stroke-width="0.84119" stroke-miterlimit="10" stroke-linecap="round" stroke-linejoin="round"/>
<path d="M29.4664 38.7756C29.4664 38.7756 37.1818 38.2272 42.3207 41.4557C49.2756 45.824 43.5665 52.127 38.7927 49.7675C35.7308 48.2542 32.9086 49.4621 31.1623 52.27C29.416 55.077 26.2438 55.2537 21.6089 53.3181" fill="#CEE8E7"/>
<path d="M29.4664 38.7756C29.4664 38.7756 37.1818 38.2272 42.3207 41.4557C49.2756 45.824 43.5665 52.127 38.7927 49.7675C35.7308 48.2542 32.9086 49.4621 31.1623 52.27C29.416 55.077 26.2438 55.2537 21.6089 53.3181" stroke="#231F20" stroke-width="0.84119" stroke-miterlimit="10" stroke-linecap="round" stroke-linejoin="round"/>
<path d="M57.1087 43.9236C57.1087 43.9236 61.4518 47.1066 57.8204 52.2976C54.1889 57.4886 47.7278 57.5416 45.9209 54.2088C44.114 50.876 47.1616 48.5434 47.1616 48.5434" stroke="#231F20" stroke-width="0.84119" stroke-miterlimit="10" stroke-linecap="round" stroke-linejoin="round"/>
<path d="M55.9524 54.2938C56.3478 55.0787 57.3757 59.8684 51.399 62.7234C45.6007 65.4926 39.2203 59.431 46.5428 55.1889" stroke="#231F20" stroke-width="0.84119" stroke-miterlimit="10" stroke-linecap="round" stroke-linejoin="round"/>
<path d="M16.3481 71.7208C16.3481 71.7208 24.5548 70.9646 31.8841 67.583C41.652 63.0759 48.6212 63.4342 48.6212 63.4342" stroke="#231F20" stroke-width="0.84119" stroke-miterlimit="10" stroke-linecap="round" stroke-linejoin="round"/>
<path d="M39.1554 33.6957C34.1461 34.0978 28.8677 35.4033 23.3579 37.1193C16.8033 39.1617 5.81738 40.034 5.81738 40.034" stroke="#231F20" stroke-width="0.84119" stroke-miterlimit="10" stroke-linecap="round" stroke-linejoin="round"/>
<path d="M50.3912 40.0467C47.8189 41.078 44.2228 44.9634 46.6799 47.9883C48.9553 50.7895 53.5734 49.6531 56.3199 45.2587C58.1714 42.2969 56.7557 35.0037 49.2657 33.8353" stroke="#231F20" stroke-width="0.84119" stroke-miterlimit="10" stroke-linecap="round" stroke-linejoin="round"/>
<path d="M38.7944 39.6344L39.1974 33.715" stroke="#231F20" stroke-width="0.84119" stroke-miterlimit="10" stroke-linecap="round" stroke-linejoin="round"/>
<path d="M43.6229 61.12C43.1754 61.2151 42.7077 61.2495 42.2282 61.2151C39.4767 61.0182 37.4057 58.6284 37.6025 55.8777L38.0559 49.5806" stroke="#231F20" stroke-width="0.84119" stroke-miterlimit="10" stroke-linecap="round" stroke-linejoin="round"/>
<path d="M49.1841 33.6343L48.665 41.0014" stroke="#231F20" stroke-width="0.84119" stroke-miterlimit="10" stroke-linecap="round" stroke-linejoin="round"/>
<path d="M64.661 38.6553L62.5976 37.412C58.4674 34.9229 53.7365 33.6081 48.914 33.6081H38.4546C33.3612 33.6081 29.2327 29.4796 29.2327 24.3862C29.2327 19.2928 33.3612 15.1642 38.4546 15.1642H48.8046C53.4421 15.1642 57.9988 13.9478 62.0197 11.6363L64.6619 10.1171V38.6553H64.661Z" stroke="#231F20" stroke-width="0.84119" stroke-miterlimit="10" stroke-linecap="round" stroke-linejoin="round"/>
<path d="M64.7207 19.302C66.8086 20.0473 68.3034 22.0418 68.3034 24.3862C68.3034 26.744 66.7918 28.7486 64.6846 29.4829" stroke="#231F20" stroke-width="0.84119" stroke-miterlimit="10" stroke-linecap="round" stroke-linejoin="round"/>
</svg>
