<svg width="24" height="24" viewBox="0 0 24 24" fill="none" xmlns="http://www.w3.org/2000/svg">
<path d="M7 6H9.625C9.8125 6 10 6.1875 10 6.375V7.125C10 7.34375 9.8125 7.5 9.625 7.5H7C6.15625 7.5 5.5 8.1875 5.5 9V15C5.5 15.8438 6.15625 16.5 7 16.5H9.625C9.8125 16.5 10 16.6875 10 16.875V17.625C10 17.8438 9.8125 18 9.625 18H7C5.34375 18 4 16.6562 4 15V9C4 7.34375 5.34375 6 7 6ZM14.2188 6.625C14.3438 6.46875 14.5938 6.46875 14.75 6.625L19.875 11.75C20.0312 11.9062 20.0312 12.125 19.875 12.2812L14.75 17.4062C14.5938 17.5625 14.3438 17.5625 14.2188 17.4062L13.5938 16.7812C13.4375 16.6562 13.4375 16.4062 13.5938 16.25L17.125 12.8125H9.375C9.15625 12.8125 9 12.6562 9 12.4375V11.5625C9 11.375 9.15625 11.1875 9.375 11.1875H17.125L13.5938 7.78125C13.4375 7.625 13.4375 7.375 13.5938 7.25L14.2188 6.625Z" fill="#61666B"/>
</svg>
