<svg width="60" height="40" viewBox="0 0 60 40" fill="none" xmlns="http://www.w3.org/2000/svg">
<path d="M30 2.8125C35.3516 2.8125 39.6875 7.14844 39.6875 12.5C39.6875 17.8516 35.3516 22.1875 30 22.1875C24.6484 22.1875 20.3125 17.8516 20.3125 12.5C20.3125 7.14844 24.6484 2.8125 30 2.8125ZM35.625 13.5938V11.4062C35.625 11.1719 35.3906 10.9375 35.1562 10.9375H31.5625V7.34375C31.5625 7.10938 31.3281 6.875 31.0938 6.875H28.9062C28.6328 6.875 28.4375 7.10938 28.4375 7.34375V10.9375H24.8438C24.5703 10.9375 24.375 11.1719 24.375 11.4062V13.5938C24.375 13.8672 24.5703 14.0625 24.8438 14.0625H28.4375V17.6562C28.4375 17.9297 28.6328 18.125 28.9062 18.125H31.0938C31.3281 18.125 31.5625 17.9297 31.5625 17.6562V14.0625H35.1562C35.3906 14.0625 35.625 13.8672 35.625 13.5938Z" fill="#001F29"/>
</svg>
