<svg width="24" height="24" viewBox="0 0 24 24" fill="none" xmlns="http://www.w3.org/2000/svg">
<path d="M12 2.8125C17.3516 2.8125 21.6875 7.14844 21.6875 12.5C21.6875 17.8516 17.3516 22.1875 12 22.1875C6.64844 22.1875 2.3125 17.8516 2.3125 12.5C2.3125 7.14844 6.64844 2.8125 12 2.8125ZM17.625 13.5938V11.4062C17.625 11.1719 17.3906 10.9375 17.1562 10.9375H13.5625V7.34375C13.5625 7.10938 13.3281 6.875 13.0938 6.875H10.9062C10.6328 6.875 10.4375 7.10938 10.4375 7.34375V10.9375H6.84375C6.57031 10.9375 6.375 11.1719 6.375 11.4062V13.5938C6.375 13.8672 6.57031 14.0625 6.84375 14.0625H10.4375V17.6562C10.4375 17.9297 10.6328 18.125 10.9062 18.125H13.0938C13.3281 18.125 13.5625 17.9297 13.5625 17.6562V14.0625H17.1562C17.3906 14.0625 17.625 13.8672 17.625 13.5938Z" fill="#001F29"/>
</svg>
