<svg width="96" height="96" viewBox="0 0 96 96" fill="none" xmlns="http://www.w3.org/2000/svg">
<path d="M90.8145 95.8269C90.8145 95.8269 110.01 76.2216 102.51 81.9671C95.0091 87.7126 86.9131 64.644 67.6026 61.2908C55.5961 59.205 45.3305 61.4897 36.2575 67.3436C27.963 72.6936 20.0016 81.8633 16.0688 89.0385C10.1673 99.8204 12.0206 107.751 18.3425 109.595C20.7016 110.192 23.166 110.243 25.5477 109.743C27.9294 109.243 30.1652 108.205 32.0845 106.709C32.0128 106.734 31.9344 106.732 31.8639 106.704C31.7934 106.675 31.7357 106.622 31.7017 106.554C31.6677 106.486 31.6597 106.408 31.6792 106.334C31.6987 106.261 31.7444 106.197 31.8076 106.155C32.4995 105.826 33.3177 105.337 33.3263 104.472C33.327 104.28 33.2867 104.091 33.208 103.916C33.1293 103.742 33.0142 103.586 32.8703 103.46C32.7264 103.333 32.557 103.239 32.3737 103.184C32.1904 103.128 31.9974 103.113 31.8076 103.139C31.774 103.141 31.7402 103.137 31.7082 103.126C31.6763 103.115 31.647 103.097 31.622 103.075C25.9218 103.873 20.9212 95.3198 26.5809 90.7506C26.6102 90.4901 26.5795 90.2264 26.491 89.9796C26.4026 89.7329 26.2588 89.5096 26.0707 89.3271C25.1246 88.3458 23.9991 88.5424 24.1535 87.9769C24.1646 87.9374 24.1833 87.9004 24.2087 87.8682C24.2341 87.8359 24.2655 87.809 24.3013 87.7889C24.3371 87.7689 24.3765 87.756 24.4173 87.7512C24.458 87.7464 24.4993 87.7497 24.5388 87.7608C25.8235 88.2187 27.0099 88.8872 27.208 90.2483C29.6634 88.2983 39.9274 81.4109 40.624 84.8616C40.6545 85.1799 40.6205 85.501 40.5238 85.8058C40.4272 86.1106 40.27 86.3928 40.0616 86.6353C40.565 86.6425 41.0667 86.6948 41.5608 86.7913C43.0506 87.0448 45.7361 87.5471 46.0067 89.1929C46.2025 90.3692 44.6691 90.9378 43.5108 91.3254C45.5388 91.5243 46.4334 93.3534 45.7002 94.4798C45.0791 95.2054 44.2114 95.6755 43.2643 95.7995C44.2853 96.1848 45.3976 96.9984 44.96 98.1965C44.2666 100.099 40.7363 100.097 38.3596 100.639C36.465 101.068 34.795 102.171 32.9605 102.759C33.2335 102.912 33.4655 103.129 33.6368 103.391C33.8081 103.653 33.9135 103.952 33.9442 104.264C33.9748 104.575 33.9297 104.889 33.8128 105.18C33.6958 105.47 33.5105 105.728 33.2725 105.931C33.9987 105.567 34.6437 105.541 34.618 106.718C34.5447 109.73 33.2639 118.306 33.0127 122.299C42.5748 122.238 78.3448 122.242 86.6689 122.295L84.155 103.3C84.073 103.302 83.9934 103.272 83.9334 103.216C83.8734 103.16 83.8379 103.083 83.8344 103.001C83.7783 101.881 83.7268 100.76 83.6706 99.6356C83.6037 99.3607 83.5904 99.0754 83.6316 98.7955C83.623 98.588 83.6105 98.3759 83.6012 98.1715C83.485 98.0303 83.5645 98.0935 83.1605 95.8268C81.8875 95.1061 81.0092 93.1382 80.6465 91.8028C80.6284 91.7243 80.6414 91.6418 80.6827 91.5726C80.724 91.5035 80.7905 91.453 80.8682 91.4317C80.9459 91.4104 81.0288 91.42 81.0996 91.4585C81.1704 91.497 81.2235 91.5614 81.2479 91.6382C81.5571 92.8659 82.1596 94.0003 83.0037 94.9439C82.5076 92.0579 82.4023 91.7092 82.3017 90.7599C82.2588 90.3614 82.8867 90.3699 82.9257 90.7599C82.9257 90.7935 83.7127 95.3955 83.7252 95.4399C83.7642 95.4841 83.7905 95.5381 83.8012 95.5961C83.8119 95.6541 83.8067 95.7139 83.786 95.7691C83.868 96.2277 83.9553 96.6864 84.0286 97.1489C84.7891 97.6214 85.6881 97.8201 86.5769 97.7121C86.8491 97.6817 86.9318 97.9625 86.828 98.1614C94.6982 98.9016 93.0761 130.389 98.4417 95.8268C90.306 95.8268 105.677 100.302 90.8145 95.8269Z" fill="#EEEEEE"/>
<path d="M70.5648 36.8521C70.5648 36.8521 72.6942 34.7234 74.2518 35.1517C74.2518 35.1517 74.8922 19.4737 65.0314 18.9089C62.6049 16.4824 61.3795 15.1267 59.2984 13.7516C57.6724 12.621 55.826 11.8462 53.8801 11.4779C51.9341 11.1097 49.9324 11.1562 48.0056 11.6144C46.1995 12.0549 44.4964 12.8425 42.991 13.9333C40.2805 15.9863 41.0332 17.4168 39.8967 19.1593C38.2041 21.7396 35.3524 19.7662 30.8487 23.2933C29.5259 24.3384 28.4376 25.6499 27.6546 27.1429C26.8716 28.6358 26.4113 30.2767 26.3037 31.9591C26.1219 34.0916 28.1515 35.3513 29.4533 36.6789C30.9454 38.1976 30.7068 39.653 29.908 40.2669C29.224 40.7903 28.2591 40.6132 27.4198 40.8074C25.5728 41.2364 24.4262 43.72 25.7413 45.23C26.8146 46.4632 28.6359 46.8134 29.9899 47.6356C31.9766 48.843 31.7644 53.8054 37.7221 50.2571C43.6797 46.7089 41.4084 40.2583 41.7633 37.8442C42.1182 35.4301 41.4084 32.098 49.1405 31.6736C56.8726 31.2493 51.9789 25.9282 54.8127 23.2325C57.6464 20.5368 59.4927 26.0709 61.126 26.3525C61.3618 26.4122 61.6108 26.3914 61.8335 26.2935C62.0562 26.1956 62.2398 26.0261 62.3553 25.8119C63.6898 26.0093 70.2496 27.4242 70.5648 36.8521Z" fill="#001F29"/>
<path d="M72.543 35.1659C71.9201 35.4499 71.3625 35.8593 70.905 36.3686C70.7264 34.9568 70.437 33.3157 70.2256 32.3017C70.143 31.9078 69.5424 32.0763 69.6243 32.4663C70.9908 39.1509 71.5236 47.8073 67.2398 53.1222C62.6846 58.7835 53.4478 59.4792 47.9098 55.1206C44.0254 52.0661 42.5895 46.8776 42.2158 41.9581C42.1854 41.5603 41.5622 41.5556 41.5918 41.9581C42.1191 49.1918 44.7259 55.4966 51.639 57.7859C51.2147 60.4808 50.6695 63.4104 51.6601 66.0414C52.426 68.0787 54.4728 69.3642 56.5195 69.8447C60.5638 70.7869 64.9794 68.6856 66.1033 64.5095C66.7999 61.9456 66.1665 58.3514 65.3421 55.7781C68.8911 53.1729 70.5197 49.1388 71.04 44.7661C71.2568 42.9183 71.118 43.1078 71.2178 43.0743C77.4172 39.8599 76.9734 33.2159 72.543 35.1659ZM65.6158 59.6805C66.076 63.0672 65.7383 66.1334 62.8289 68.1263C59.2791 70.5521 54.1927 69.4118 52.5181 66.4103C51.2365 64.114 51.8504 60.4956 52.2498 57.9777C54.3532 58.582 56.5609 58.7328 58.727 58.4202C60.8931 58.1076 62.9681 57.3386 64.8148 56.1642C65.1775 57.3125 65.4454 58.4885 65.6158 59.6805ZM71.2194 42.3692C71.2696 40.6602 71.1985 38.9497 71.0064 37.2508C72.1577 35.4989 74.2044 35.1674 74.7715 35.6627C75.7558 36.5067 75.461 40.0112 71.2194 42.3692Z" fill="black"/>
<path d="M52.1852 49.9928C54.1586 50.6901 57.6554 50.5544 60.6787 48.7814C61.931 48.0326 63.062 47.0973 64.0327 46.0077C64.3345 49.7744 61.8939 52.1846 58.2092 53.2165C58.1329 53.2412 58.0691 53.2944 58.031 53.3649C57.9929 53.4354 57.9833 53.5179 58.0044 53.5953C58.0255 53.6726 58.0755 53.7389 58.1441 53.7803C58.2128 53.8218 58.2947 53.8352 58.373 53.8179C60.6105 53.324 62.5605 51.9623 63.7948 50.0318C64.6012 48.5591 64.8674 46.851 64.5475 45.2028C64.532 45.1506 64.5034 45.1033 64.4643 45.0655C64.4253 45.0276 64.3772 45.0004 64.3246 44.9865C64.272 44.9727 64.2167 44.9726 64.1641 44.9863C64.1115 45 64.0632 45.027 64.0241 45.0647C62.3883 47.1128 60.169 48.6156 57.6601 49.3742C55.9218 49.8635 54.0826 49.8665 52.3428 49.3828C51.9661 49.2572 51.8046 49.8586 52.1852 49.9928ZM62.0717 35.2086C62.085 35.204 62.0983 35.1954 62.1107 35.1907C62.1232 35.186 62.1302 35.186 62.1458 35.1782C63.0849 34.8163 64.1137 34.757 65.0881 35.0088C66.0625 35.2605 66.9339 35.8107 67.5801 36.5822C67.857 36.8763 68.2985 36.4348 68.0216 36.1407C67.1556 35.1694 65.9884 34.5173 64.7074 34.289C63.7067 34.1322 62.6821 34.2676 61.7566 34.679C61.397 34.8491 61.7161 35.3857 62.0717 35.2086ZM63.6388 40.1063C63.808 38.1711 66.0248 39.0689 66.3688 41.1983C66.4234 41.5547 67.0551 41.4954 66.9701 41.0298C66.4382 37.7015 62.0234 37.058 63.1754 42.1155C63.2667 42.5055 63.8681 42.341 63.7768 41.951C63.6469 41.3452 63.6005 40.7246 63.6388 40.1063ZM46.3618 45.5187C46.4522 45.9087 47.0544 45.7441 46.9631 45.3549C46.7783 44.6622 46.6402 43.1592 47.1792 42.6202C47.8219 42.1062 49.261 42.7762 49.5551 44.6014C49.5774 44.6811 49.6305 44.7488 49.7027 44.7893C49.7749 44.8299 49.8603 44.8402 49.94 44.8178C50.0198 44.7955 50.0874 44.7424 50.128 44.6702C50.1685 44.598 50.1788 44.5127 50.1565 44.4329C49.6261 41.1117 45.2027 40.4627 46.3618 45.5187Z" fill="black"/>
<path d="M37.041 77.2907C36.7212 78.1955 36.4053 79.0995 36.0847 80.0035C36.0623 80.0833 36.0726 80.1686 36.1132 80.2408C36.1538 80.313 36.2214 80.3661 36.3011 80.3885C36.3809 80.4108 36.4662 80.4005 36.5384 80.36C36.6106 80.3194 36.6637 80.2518 36.6861 80.172C37.0066 79.268 37.3225 78.3632 37.6423 77.4599C37.6648 77.3802 37.6546 77.2948 37.6141 77.2225C37.5736 77.1503 37.506 77.0971 37.4263 77.0746C37.3465 77.0522 37.2611 77.0623 37.1889 77.1029C37.1166 77.1434 37.0634 77.2109 37.041 77.2907ZM43.4448 73.074C42.7771 72.4734 42.1125 71.8712 41.4417 71.2699C41.3832 71.2113 41.3038 71.1784 41.221 71.1784C41.1382 71.1784 41.0588 71.2113 41.0002 71.2699C40.9417 71.3284 40.9088 71.4078 40.9088 71.4906C40.9088 71.5734 40.9417 71.6528 41.0002 71.7114C41.6664 72.313 42.334 72.9144 43.0033 73.5155C43.0618 73.574 43.1412 73.6069 43.224 73.6069C43.3068 73.6069 43.3862 73.574 43.4448 73.5155C43.5033 73.4569 43.5362 73.3775 43.5362 73.2947C43.5362 73.212 43.5033 73.1326 43.4448 73.074ZM29.7893 77.676V79.7485C29.7893 79.8312 29.8222 79.9106 29.8807 79.9691C29.9392 80.0276 30.0186 80.0605 30.1013 80.0605C30.1841 80.0605 30.2634 80.0276 30.3219 79.9691C30.3804 79.9106 30.4133 79.8312 30.4133 79.7485V77.676C30.4133 77.5933 30.3804 77.5139 30.3219 77.4554C30.2634 77.3969 30.1841 77.364 30.1013 77.364C30.0186 77.364 29.9392 77.3969 29.8807 77.4554C29.8222 77.5139 29.7893 77.5933 29.7893 77.676ZM24.7357 83.7467C23.827 85.2833 22.8294 85.3411 23.118 85.802C23.1608 85.8727 23.2294 85.9239 23.3093 85.9449C23.3893 85.9658 23.4742 85.9549 23.5462 85.9144C24.247 85.427 24.8356 84.7953 25.2723 84.0619C25.4993 83.7163 24.9494 83.3895 24.7357 83.7467ZM20.8334 92.8969C19.9903 92.36 19.2044 91.7382 18.4879 91.0413C18.1985 90.7605 17.757 91.1973 18.0464 91.4828C18.8013 92.2171 19.6293 92.8724 20.5175 93.4382C20.5892 93.4801 20.6747 93.4918 20.7551 93.4707C20.8355 93.4495 20.9042 93.3973 20.9461 93.3255C20.988 93.2537 20.9996 93.1683 20.9785 93.0879C20.9573 93.0075 20.9051 92.9388 20.8334 92.8969ZM19.094 96.233C18.5097 96.2782 17.924 96.3328 17.3374 96.3804C17.2546 96.3804 17.1753 96.4133 17.1168 96.4718C17.0583 96.5303 17.0254 96.6097 17.0254 96.6924C17.0254 96.7751 17.0583 96.8545 17.1168 96.913C17.1753 96.9715 17.2546 97.0044 17.3374 97.0044C17.9216 96.9568 18.5074 96.9053 19.094 96.857C19.1767 96.857 19.2561 96.8241 19.3146 96.7656C19.3731 96.7071 19.406 96.6277 19.406 96.545C19.406 96.4622 19.3731 96.3829 19.3146 96.3244C19.2561 96.2659 19.1767 96.233 19.094 96.233ZM22.1094 101.516C21.7545 102.374 21.4074 103.232 21.0494 104.095C21.0271 104.175 21.0373 104.26 21.0779 104.333C21.1185 104.405 21.1861 104.458 21.2659 104.48C21.3456 104.503 21.431 104.492 21.5032 104.452C21.5753 104.411 21.6284 104.344 21.6508 104.264C22.0057 103.406 22.3528 102.548 22.7108 101.685C22.7333 101.605 22.7231 101.52 22.6826 101.448C22.6421 101.376 22.5745 101.322 22.4948 101.3C22.415 101.277 22.3296 101.288 22.2573 101.328C22.1851 101.369 22.1319 101.436 22.1094 101.516ZM40.4769 115.215C40.4414 115.194 40.4021 115.181 40.3614 115.175C40.3207 115.17 40.2793 115.172 40.2395 115.183C40.1997 115.193 40.1624 115.211 40.1297 115.236C40.0969 115.261 40.0694 115.292 40.0486 115.327C40.0279 115.363 40.0144 115.402 40.0088 115.443C40.0032 115.484 40.0057 115.525 40.0161 115.565C40.0265 115.605 40.0447 115.642 40.0696 115.675C40.0944 115.707 40.1255 115.735 40.161 115.756C40.6664 115.984 41.129 116.297 41.5283 116.682C41.587 116.741 41.6665 116.774 41.7493 116.774C41.8322 116.773 41.9116 116.74 41.9702 116.682C42.0287 116.623 42.0616 116.544 42.0615 116.461C42.0614 116.378 42.0284 116.299 41.9698 116.24C41.5323 115.818 41.0278 115.472 40.4769 115.215ZM45.2013 111.065L43.2677 113.766C43.2263 113.838 43.2151 113.923 43.2366 114.003C43.258 114.083 43.3103 114.151 43.382 114.192C43.4537 114.233 43.5388 114.245 43.6188 114.223C43.6987 114.202 43.7669 114.149 43.8082 114.078L45.7419 111.378C45.7833 111.307 45.7946 111.221 45.7733 111.141C45.7519 111.061 45.6997 110.993 45.628 110.952C45.5563 110.91 45.4711 110.899 45.3911 110.92C45.3111 110.942 45.2428 110.994 45.2013 111.065ZM52.038 110.157C51.9795 110.098 51.9001 110.065 51.8173 110.065C51.7345 110.065 51.6551 110.098 51.5965 110.157C51.538 110.215 51.5051 110.295 51.5051 110.377C51.5051 110.46 51.538 110.54 51.5965 110.598L53.9763 113.004C54.0353 113.06 54.1138 113.091 54.1951 113.09C54.2765 113.089 54.3543 113.056 54.4118 112.999C54.4694 112.941 54.5023 112.863 54.5034 112.782C54.5045 112.701 54.4738 112.622 54.4178 112.563C53.6253 111.762 52.8289 110.959 52.038 110.157ZM66.8526 115.584C66.5364 116.436 66.2192 117.288 65.901 118.14C65.8785 118.22 65.8887 118.305 65.9292 118.377C65.9697 118.45 66.0373 118.503 66.117 118.525C66.1968 118.548 66.2822 118.538 66.3544 118.497C66.4267 118.457 66.4799 118.389 66.5023 118.309C66.8185 117.458 67.1357 116.605 67.4539 115.752C67.465 115.713 67.4682 115.672 67.4633 115.631C67.4584 115.59 67.4455 115.551 67.4254 115.515C67.4053 115.479 67.3784 115.448 67.3461 115.423C67.3139 115.397 67.277 115.379 67.2375 115.368C67.198 115.356 67.1567 115.353 67.116 115.358C67.0753 115.363 67.0359 115.376 67.0002 115.396C66.9645 115.416 66.933 115.443 66.9077 115.475C66.8824 115.508 66.8636 115.545 66.8526 115.584ZM74.1261 110.78C73.4319 110.249 72.7369 109.725 72.0403 109.197C71.9687 109.155 71.8833 109.143 71.803 109.164C71.7227 109.185 71.654 109.237 71.6121 109.309C71.5702 109.381 71.5585 109.466 71.5796 109.546C71.6007 109.627 71.6528 109.695 71.7244 109.737C72.421 110.265 73.1136 110.793 73.8102 111.321C73.8457 111.341 73.8849 111.355 73.9256 111.36C73.9663 111.366 74.0078 111.363 74.0475 111.353C74.0873 111.343 74.1246 111.324 74.1574 111.3C74.1901 111.275 74.2176 111.244 74.2384 111.208C74.2591 111.173 74.2727 111.133 74.2783 111.093C74.2838 111.052 74.2813 111.011 74.2709 110.971C74.2605 110.931 74.2423 110.894 74.2175 110.861C74.1926 110.828 74.1616 110.801 74.1261 110.78ZM78.2101 112.806L75.9957 115.848C75.975 115.883 75.9614 115.922 75.9558 115.963C75.9503 116.004 75.9528 116.045 75.9632 116.085C75.9736 116.125 75.9918 116.162 76.0166 116.195C76.0415 116.228 76.0726 116.255 76.108 116.276C76.1435 116.297 76.1828 116.31 76.2235 116.316C76.2642 116.321 76.3057 116.319 76.3454 116.308C76.3852 116.298 76.4225 116.28 76.4552 116.255C76.488 116.23 76.5155 116.199 76.5363 116.164C77.2765 115.15 78.0112 114.136 78.7515 113.118C78.7719 113.082 78.7852 113.043 78.7906 113.002C78.7959 112.962 78.7931 112.92 78.7825 112.881C78.7719 112.841 78.7535 112.804 78.7285 112.771C78.7035 112.739 78.6723 112.711 78.6368 112.691C78.6013 112.67 78.562 112.657 78.5214 112.652C78.4807 112.647 78.4394 112.649 78.3997 112.66C78.3601 112.671 78.323 112.689 78.2904 112.714C78.2579 112.739 78.2306 112.77 78.2101 112.806ZM73.0138 100.089C72.0832 99.505 71.1065 98.9984 70.0935 98.5738C70.0137 98.5527 69.9288 98.5636 69.8569 98.6041C69.7849 98.6446 69.7316 98.7115 69.7081 98.7906C69.5771 99.2921 70.2198 99.0628 72.6987 100.629C73.0403 100.842 73.3546 100.302 73.0138 100.089ZM76.679 95.7057C76.7458 94.8519 76.7239 93.9935 76.6135 93.1442C76.6135 93.0614 76.5806 92.9821 76.5221 92.9236C76.4636 92.8651 76.3842 92.8322 76.3015 92.8322C76.2187 92.8322 76.1394 92.8651 76.0809 92.9236C76.0224 92.9821 75.9895 93.0614 75.9895 93.1442C76.1019 93.9933 76.1236 94.852 76.0542 95.7057C76.0542 95.7886 76.0871 95.868 76.1457 95.9266C76.2043 95.9852 76.2838 96.0181 76.3666 96.0181C76.4495 96.0181 76.5289 95.9852 76.5875 95.9266C76.6461 95.868 76.679 95.7886 76.679 95.7057ZM88.6598 89.0679L87.5951 91.6419C87.5728 91.7217 87.583 91.807 87.6236 91.8792C87.6642 91.9514 87.7318 92.0045 87.8115 92.0268C87.8913 92.0492 87.9767 92.0389 88.0489 91.9983C88.121 91.9577 88.1741 91.8901 88.1965 91.8104L89.2612 89.2364C89.4 88.9236 88.8478 88.6186 88.6598 89.0679ZM95.353 86.0477C94.6817 85.5433 94.0111 85.0358 93.3414 84.5252C93.066 84.3138 92.6394 84.7654 93.0255 85.0657C93.6963 85.5722 94.3671 86.08 95.0379 86.5891C95.3249 86.8098 95.7305 86.334 95.353 86.0477ZM100.506 87.8051C100.242 88.6022 100.126 89.441 100.164 90.28C100.164 90.3628 100.197 90.4421 100.255 90.5006C100.314 90.5592 100.393 90.592 100.476 90.592C100.559 90.592 100.638 90.5592 100.697 90.5006C100.755 90.4421 100.788 90.3628 100.788 90.28C100.753 89.4981 100.861 88.7163 101.108 87.9736C101.13 87.8938 101.12 87.8085 101.079 87.7363C101.039 87.6641 100.971 87.611 100.891 87.5886C100.812 87.5663 100.726 87.5765 100.654 87.6171C100.582 87.6577 100.529 87.7253 100.506 87.8051ZM104.236 74.9718C103.38 74.7144 102.525 74.4606 101.67 74.2105C101.592 74.1923 101.509 74.2053 101.44 74.2466C101.371 74.2879 101.32 74.3544 101.299 74.4321C101.278 74.5098 101.287 74.5928 101.326 74.6635C101.364 74.7343 101.429 74.7875 101.506 74.8118C102.364 75.0669 103.215 75.322 104.072 75.5731C104.15 75.5912 104.233 75.5783 104.302 75.537C104.371 75.4957 104.422 75.4292 104.443 75.3515C104.464 75.2738 104.455 75.1908 104.416 75.1201C104.378 75.0493 104.313 74.9961 104.236 74.9718ZM112.768 75.4475H109.895C109.813 75.4475 109.733 75.4804 109.675 75.5389C109.616 75.5974 109.583 75.6768 109.583 75.7595C109.583 75.8423 109.616 75.9217 109.675 75.9802C109.733 76.0387 109.813 76.0715 109.895 76.0715H112.768C112.851 76.0715 112.93 76.0387 112.989 75.9802C113.047 75.9217 113.08 75.8423 113.08 75.7595C113.08 75.6768 113.047 75.5974 112.989 75.5389C112.93 75.4804 112.851 75.4475 112.768 75.4475ZM106.729 65.5306C106.669 65.4744 106.59 65.4431 106.508 65.4431C106.426 65.4431 106.347 65.4744 106.287 65.5306C106.258 65.5596 106.235 65.594 106.219 65.6319C106.204 65.6698 106.196 65.7104 106.196 65.7514C106.196 65.7924 106.204 65.833 106.219 65.8708C106.235 65.9087 106.258 65.9431 106.287 65.9721C106.949 66.5251 107.613 67.0797 108.277 67.6382C108.337 67.6943 108.416 67.7255 108.498 67.7255C108.58 67.7255 108.659 67.6943 108.719 67.6382C108.748 67.6092 108.771 67.5748 108.787 67.5369C108.802 67.499 108.811 67.4584 108.811 67.4174C108.811 67.3764 108.802 67.3358 108.787 67.298C108.771 67.2601 108.748 67.2257 108.719 67.1967C108.057 66.6382 107.394 66.0829 106.729 65.5306ZM68.886 68.8971V71.7698C68.886 71.8526 68.9189 71.932 68.9774 71.9905C69.0359 72.049 69.1153 72.0819 69.198 72.0819C69.2808 72.0819 69.3601 72.049 69.4186 71.9905C69.4772 71.932 69.51 71.8526 69.51 71.7698V68.8971C69.51 68.8144 69.4772 68.735 69.4186 68.6765C69.3601 68.618 69.2808 68.5851 69.198 68.5851C69.1153 68.5851 69.0359 68.618 68.9774 68.6765C68.9189 68.735 68.886 68.8144 68.886 68.8971ZM77.2624 75.0451C76.5706 75.8414 75.874 76.637 75.1814 77.4342C75.1254 77.4932 75.0947 77.5718 75.0958 77.6532C75.0969 77.7345 75.1298 77.8122 75.1874 77.8697C75.2449 77.9272 75.3227 77.9599 75.4041 77.9609C75.4854 77.9619 75.5639 77.931 75.6229 77.8749C76.3155 77.0785 77.0121 76.2829 77.7039 75.4865C78.0034 75.1527 77.5081 74.7619 77.2624 75.0451ZM75.3982 71.6879C75.6051 71.1524 75.7234 70.5868 75.7485 70.0133C75.7485 69.9305 75.7156 69.8512 75.6571 69.7927C75.5986 69.7342 75.5192 69.7013 75.4365 69.7013C74.9076 69.7278 75.3156 70.2387 74.7961 71.5187C74.7736 71.5985 74.7838 71.684 74.8244 71.7564C74.865 71.8287 74.9327 71.882 75.0125 71.9044C75.0924 71.9268 75.1779 71.9166 75.2502 71.8761C75.3226 71.8355 75.3758 71.7678 75.3982 71.6879ZM57.693 76.1012C56.7445 75.5045 55.7976 74.9023 54.846 74.3072C54.5044 74.0903 54.1924 74.6317 54.5301 74.8477C55.4781 75.4494 56.4271 76.0474 57.3771 76.6417C57.7188 76.8531 58.03 76.3133 57.693 76.1012ZM68.3455 87.192C67.7829 87.7974 67.2816 88.4568 66.8487 89.1607C66.8278 89.1962 66.8141 89.2354 66.8085 89.2762C66.8028 89.3169 66.8053 89.3584 66.8157 89.3982C66.8262 89.438 66.8444 89.4753 66.8693 89.5081C66.8942 89.5408 66.9254 89.5683 66.961 89.5889C67.4344 89.844 67.3112 89.227 68.787 87.6327C68.843 87.5737 68.8737 87.4951 68.8726 87.4137C68.8714 87.3324 68.8386 87.2547 68.781 87.1972C68.7234 87.1397 68.6457 87.107 68.5643 87.106C68.4829 87.1051 68.4044 87.1359 68.3455 87.192ZM82.9915 83.0151C81.1617 82.4629 80.9074 81.484 80.5041 81.8857C80.4751 81.9146 80.4521 81.9491 80.4364 81.9869C80.4207 82.0248 80.4126 82.0654 80.4126 82.1064C80.4126 82.1474 80.4207 82.188 80.4364 82.2259C80.4521 82.2638 80.4751 82.2982 80.5041 82.3272C81.1812 82.9126 81.972 83.3516 82.827 83.6165C82.867 83.6292 82.9092 83.6337 82.9511 83.6297C82.9929 83.6257 83.0335 83.6133 83.0704 83.5932C83.1074 83.5731 83.1398 83.5458 83.1659 83.5128C83.192 83.4799 83.2112 83.442 83.2223 83.4015C83.2334 83.3609 83.2362 83.3186 83.2305 83.2769C83.2248 83.2353 83.2108 83.1952 83.1892 83.1591C83.1677 83.123 83.1391 83.0917 83.1051 83.0669C83.0711 83.0422 83.0325 83.0246 82.9915 83.0151Z" fill="#001F29"/>
<path d="M47.4869 100.279C46.9502 83.1565 46.8902 84.1565 47.1367 83.8328C47.2414 83.728 47.3663 83.6456 47.5039 83.5906C47.6415 83.5356 47.7888 83.5092 47.9369 83.513C52.2919 83.0334 56.6706 82.8022 61.0519 82.8203C61.6291 82.8203 61.8779 82.9826 61.8779 83.7243C62.005 100.328 62.0557 99.4117 61.9083 99.6652C61.7735 99.8464 61.5809 99.976 61.3623 100.033C56.9903 101.646 52.2098 101.781 47.7537 100.417L47.4869 100.279Z" fill="#E8F5F4"/>
<path d="M56.6594 87.7229C55.4394 88.2899 55.3568 89.5746 55.2444 90.7516C55.1337 91.6915 53.8576 90.3491 53.5659 90.1549C52.8397 89.6041 51.9848 89.2481 51.0824 89.1206C50.1464 89.0684 49.5114 89.9685 49.3344 90.7953C49.0099 92.3101 50.3726 93.7546 51.4404 94.6337C52.706 95.621 54.1303 96.3859 55.6524 96.8957C56.2249 97.1008 56.4059 96.9901 56.6664 96.6359C57.8447 95.2544 58.7493 93.661 59.3316 91.9411C60.082 89.1089 58.3301 86.9437 56.6594 87.7229Z" fill="#77E4DF"/>
<path d="M68.9701 42.7315C68.6106 41.9656 67.4944 41.7277 66.4741 42.2081C65.4539 42.6886 64.9141 43.6901 65.2714 44.4577C65.6286 45.2252 66.7464 45.4615 67.7674 44.981C68.7884 44.5006 69.3282 43.4983 68.9701 42.7315Z" fill="#E8F5F4"/>
<path d="M45.5005 48.0634C45.5005 48.2646 45.5533 48.4638 45.6559 48.6497C45.7585 48.8355 45.909 49.0044 46.0986 49.1466C46.2882 49.2889 46.5133 49.4017 46.7611 49.4787C47.0088 49.5557 47.2744 49.5953 47.5425 49.5953C47.8107 49.5953 48.0762 49.5557 48.324 49.4787C48.5717 49.4017 48.7968 49.2889 48.9865 49.1466C49.1761 49.0044 49.3265 48.8355 49.4291 48.6497C49.5317 48.4638 49.5846 48.2646 49.5846 48.0634C49.5846 47.8622 49.5317 47.663 49.4291 47.4772C49.3265 47.2913 49.1761 47.1224 48.9865 46.9802C48.7968 46.8379 48.5717 46.7251 48.324 46.6481C48.0762 46.5711 47.8107 46.5315 47.5425 46.5315C47.2744 46.5315 47.0088 46.5711 46.7611 46.6481C46.5133 46.7251 46.2882 46.8379 46.0986 46.9802C45.909 47.1224 45.7585 47.2913 45.6559 47.4772C45.5533 47.663 45.5005 47.8622 45.5005 48.0634Z" fill="#E8F5F4"/>
<path d="M21.4529 52.3682L19.8 62.4543L9.86129 57.279C9.86129 57.279 6.38015 74.3049 16.0724 89.0383C19.9436 81.952 27.9113 72.7363 36.2612 67.3434C32.4011 61.3914 27.3612 56.2946 21.4529 52.3682Z" fill="#1E9993"/>
<path d="M62.8339 26.0534C63.2765 26.3339 63.7662 26.5318 64.2793 26.6377C64.6638 26.7586 64.8253 26.1572 64.4439 26.0355C63.7419 25.8179 63.1303 25.7399 62.8464 25.0753C62.6981 24.0026 62.8448 22.9097 63.2708 21.9141C63.6968 20.9184 64.3861 20.0577 65.2644 19.4242C65.5975 19.2043 65.2855 18.6629 64.9485 18.8837C64.0892 19.4815 63.386 20.2769 62.898 21.203C62.4101 22.1291 62.1516 23.1588 62.1444 24.2056C62.0933 24.5468 62.1297 24.8954 62.2504 25.2186C62.371 25.5419 62.5718 25.8291 62.8339 26.0534ZM16.5636 69.533C16.3694 69.533 16.1795 69.5906 16.0181 69.6984C15.8566 69.8063 15.7307 69.9596 15.6564 70.139C15.582 70.3184 15.5625 70.5158 15.6004 70.7063C15.6382 70.8968 15.7316 71.0717 15.8689 71.2091C16.0062 71.3465 16.1811 71.4401 16.3715 71.4781C16.5619 71.516 16.7594 71.4967 16.9388 71.4225C17.1183 71.3483 17.2717 71.2225 17.3797 71.0611C17.4877 70.8998 17.5454 70.71 17.5456 70.5158C17.5457 70.3867 17.5204 70.259 17.4711 70.1397C17.4218 70.0205 17.3494 69.9122 17.2582 69.8209C17.167 69.7296 17.0587 69.6572 16.9395 69.6078C16.8204 69.5584 16.6926 69.533 16.5636 69.533Z" fill="black"/>
<path d="M25.9258 65.0113C25.9258 65.2718 26.0292 65.5216 26.2134 65.7057C26.3976 65.8899 26.6474 65.9933 26.9078 65.9933C27.1682 65.9933 27.418 65.8899 27.6022 65.7057C27.7864 65.5216 27.8898 65.2718 27.8898 65.0113C27.8898 64.7509 27.7864 64.5011 27.6022 64.3169C27.418 64.1328 27.1682 64.0293 26.9078 64.0293C26.6474 64.0293 26.3976 64.1328 26.2134 64.3169C26.0292 64.5011 25.9258 64.7509 25.9258 65.0113Z" fill="black"/>
<path d="M26.1076 67.7762C26.6825 68.6615 24.7637 70.2261 23.5632 68.9922C23.3292 68.7457 22.8534 69.0827 23.0742 69.3721C23.7114 70.2301 22.1951 72.2526 20.6944 70.3767C20.444 70.0608 20.0025 70.5062 20.2529 70.8182C20.5112 71.2035 20.8906 71.4918 21.331 71.6374C21.7715 71.783 22.2479 71.7777 22.685 71.6223C23.0068 71.4583 23.2831 71.2172 23.4891 70.9205C23.6951 70.6239 23.8246 70.2808 23.8659 69.9219C25.6552 70.6239 27.4024 68.6583 26.6481 67.4603C26.4321 67.1225 25.8869 67.4369 26.1076 67.7762ZM27.8727 59.3646C28.871 57.8261 30.1511 56.4902 31.6456 55.4272C31.9701 55.1979 31.6589 54.6535 31.3297 54.8867C29.7446 56.0071 28.3878 57.4197 27.3322 59.0487C27.1115 59.3912 27.6528 59.7032 27.8727 59.3646ZM33.7617 56.9591C31.9463 57.6713 30.2782 58.7129 28.8415 60.0315C28.5435 60.3038 28.9889 60.7452 29.283 60.4722C30.6395 59.226 32.213 58.2391 33.9255 57.5605C34.2976 57.4178 34.1377 56.8117 33.7617 56.9591ZM33.8093 59.5901C32.4944 59.8251 31.2298 60.2848 30.0708 60.9488C29.9991 60.9902 29.9468 61.0584 29.9254 61.1383C29.9039 61.2182 29.9151 61.3034 29.9565 61.3751C29.9979 61.4468 30.066 61.4991 30.146 61.5205C30.2259 61.5419 30.3111 61.5307 30.3828 61.4894C31.4958 60.8549 32.7094 60.4159 33.9708 60.1915C34.0458 60.166 34.1083 60.1129 34.1457 60.043C34.183 59.9731 34.1923 59.8916 34.1718 59.8151C34.1512 59.7386 34.1023 59.6728 34.035 59.631C33.9677 59.5892 33.887 59.5745 33.8093 59.5901ZM5.59439 67.6553C6.39432 67.2683 7.26276 67.0431 8.14992 66.9925C9.03708 66.9419 9.92549 67.067 10.7642 67.3604C11.1456 67.4946 11.3102 66.8924 10.9288 66.759C10.0093 66.4426 9.03637 66.3111 8.06588 66.372C7.09539 66.4329 6.14651 66.6851 5.27381 67.1139C4.91501 67.2918 5.23091 67.8323 5.59439 67.6553ZM11.0676 69.6154C11.1475 69.6371 11.2327 69.6262 11.3045 69.5851C11.3764 69.544 11.4289 69.4761 11.4506 69.3962C11.4724 69.3164 11.4615 69.2312 11.4204 69.1593C11.3793 69.0875 11.3113 69.035 11.2315 69.0133C8.92109 68.3776 6.72773 69.5975 5.03123 71.0685C4.72859 71.333 5.17007 71.7745 5.47271 71.51C6.99605 70.1879 8.98739 69.0382 11.0676 69.6154ZM11.2705 70.645C9.93977 70.6739 7.23083 72.2448 5.71061 74.8328C5.68987 74.8684 5.67633 74.9077 5.67077 74.9484C5.6652 74.9892 5.66773 75.0307 5.6782 75.0705C5.68866 75.1103 5.70686 75.1476 5.73176 75.1804C5.75667 75.2132 5.78778 75.2407 5.82332 75.2614C5.85886 75.2822 5.89814 75.2957 5.93892 75.3013C5.9797 75.3068 6.02117 75.3043 6.06097 75.2939C6.10077 75.2834 6.13812 75.2652 6.17088 75.2403C6.20365 75.2154 6.23119 75.1843 6.25193 75.1487C7.72145 72.6527 10.2502 71.294 11.2705 71.2721C11.3536 71.2721 11.4334 71.2391 11.4922 71.1803C11.551 71.1215 11.584 71.0417 11.584 70.9586C11.584 70.8754 11.551 70.7957 11.4922 70.7368C11.4334 70.678 11.3536 70.645 11.2705 70.645ZM63.7808 81.8637C62.8893 80.7086 61.4962 79.6267 59.951 79.7835C59.226 79.8232 58.5409 80.1282 58.0263 80.6404C57.5116 81.1526 57.2033 81.8362 57.1602 82.5611C54.1018 82.6531 51.6152 82.8341 49.1215 83.0751C47.9515 83.196 46.8346 83.0876 46.6942 84.2139C46.3042 83.7602 45.8156 83.4016 45.2658 83.1658C44.7159 82.9299 44.1194 82.8229 43.5219 82.853C42.9244 82.8832 42.3416 83.0495 41.8183 83.3395C41.295 83.6294 40.8449 84.0353 40.5025 84.5259C39.522 82.7319 35.2874 85.1577 33.4973 86.1787C31.2887 87.3501 29.1879 88.7142 27.2191 90.255C27.0225 88.89 25.8276 88.2215 24.5499 87.7668C24.5105 87.7557 24.4692 87.7524 24.4284 87.7573C24.3877 87.7621 24.3483 87.775 24.3125 87.795C24.2403 87.8355 24.1871 87.9031 24.1646 87.9828C24.1422 88.0626 24.1523 88.148 24.1929 88.2203C24.2334 88.2925 24.3009 88.3457 24.3807 88.3682C25.0147 88.5534 25.5969 88.8838 26.0811 89.333C26.2693 89.5155 26.4133 89.7387 26.5018 89.9855C26.5904 90.2322 26.6212 90.496 26.592 90.7565C20.9479 95.403 25.9493 103.876 31.6323 103.081C31.6574 103.104 31.6868 103.121 31.7188 103.132C31.7509 103.144 31.7849 103.148 31.8188 103.146C32.0084 103.121 32.2013 103.136 32.3844 103.192C32.5676 103.247 32.7367 103.341 32.8806 103.467C33.0244 103.594 33.1396 103.749 33.2184 103.923C33.2972 104.098 33.3378 104.287 33.3374 104.478C33.3288 105.343 32.5106 105.832 31.8188 106.162C31.7555 106.204 31.7098 106.268 31.6903 106.341C31.6708 106.415 31.6788 106.493 31.7128 106.561C31.7468 106.629 31.8045 106.682 31.875 106.71C31.9455 106.739 32.024 106.741 32.0957 106.715C32.5319 106.524 32.9327 106.26 33.2813 105.935C33.5188 105.732 33.7037 105.474 33.8203 105.184C33.9369 104.894 33.9818 104.58 33.9512 104.268C33.9206 103.957 33.8154 103.658 33.6444 103.396C33.4735 103.134 33.2419 102.917 32.9693 102.764C34.8038 102.176 36.4746 101.077 38.3692 100.644C40.302 100.202 43.1475 100.12 44.4181 98.991C44.8411 99.1981 45.3059 99.3057 45.7769 99.3057C46.2479 99.3057 46.7126 99.1981 47.1356 98.991L47.1746 100.289C47.1769 100.372 47.2118 100.45 47.2718 100.507C47.3317 100.564 47.4118 100.594 47.4944 100.592C47.5325 100.659 47.5944 100.708 47.6676 100.731C51.9632 102.04 56.5592 101.982 60.8207 100.567C61.2602 100.473 61.6747 100.287 62.0367 100.021C62.4431 99.6251 62.3222 100.495 62.1927 83.8434C62.2162 83.6526 62.2007 83.459 62.147 83.2743C62.0934 83.0897 62.0028 82.9179 61.8807 82.7693C61.5539 82.4573 61.2739 82.4753 57.7748 82.5579C57.6742 80.7249 60.8948 78.8834 63.4298 82.4448C65.8673 85.8706 65.7652 90.4968 66.1598 97.6798C66.1809 98.0784 66.8088 98.0823 66.7838 97.6798C66.4313 91.1824 66.5373 85.4619 63.7808 81.8637ZM44.1412 98.3997C43.4869 98.9434 42.689 99.2859 41.8441 99.3857C39.3341 99.9527 38.5135 99.6197 35.3756 101.047C33.4123 101.935 31.5239 102.938 29.4476 102.315C25.4867 101.11 22.518 95.0333 26.8689 91.3041C26.9329 91.3032 26.9948 91.2816 27.0454 91.2425C27.0961 91.2034 27.1326 91.1489 27.1497 91.0872C27.1544 91.0787 27.1544 91.0654 27.159 91.0568C29.1511 89.4736 31.2809 88.0721 33.5231 86.869C34.5917 86.2762 39.2483 83.5251 39.962 84.8215C40.2833 85.465 39.5587 86.1748 39.2217 86.8558C38.2732 86.9593 37.3389 87.1667 36.4356 87.4743C36.0588 87.6045 36.2187 88.2098 36.5994 88.0757C38.0591 87.5883 39.591 87.3528 41.1296 87.3791C41.2076 87.3791 41.1788 87.3495 41.2638 87.3705C42.6389 87.596 44.5991 87.9423 45.2746 89.0085C45.805 89.8455 44.4368 90.3587 43.4314 90.6965C42.2381 91.124 40.9952 91.3974 39.7326 91.51C39.6499 91.51 39.5705 91.5429 39.512 91.6014C39.4535 91.6599 39.4206 91.7393 39.4206 91.822C39.4206 91.9047 39.4535 91.9841 39.512 92.0426C39.5705 92.1011 39.6499 92.134 39.7326 92.134C41.1366 92.1426 43.142 91.666 44.1412 92.0732C44.8292 92.3501 45.6037 93.1769 45.2706 93.9733C44.9204 94.8078 43.6872 95.0457 42.9127 95.2361C41.0508 95.6807 41.9806 95.2626 39.118 95.5606C39.0353 95.5606 38.9559 95.5934 38.8974 95.6519C38.8389 95.7104 38.806 95.7898 38.806 95.8725C38.806 95.9553 38.8389 96.0346 38.8974 96.0932C38.9559 96.1517 39.0353 96.1845 39.118 96.1845C39.9785 96.2389 40.8422 96.2083 41.6967 96.0933C43.2887 96.2126 45.2051 97.1697 44.1412 98.4013V98.3997ZM44.8206 98.4777C45.5171 97.2586 44.5796 96.2867 43.2653 95.7969C44.2121 95.672 45.0795 95.202 45.7012 94.4771C46.4328 93.3617 45.5514 91.5225 43.5117 91.3228C44.6576 90.9414 46.2004 90.3657 46.0077 89.1903C45.8517 88.2379 44.6755 87.5936 43.8448 87.312C42.7248 86.9785 41.5756 86.7518 40.4128 86.635C40.4448 86.0397 40.6296 85.4626 40.9495 84.9594C41.2693 84.4563 41.7133 84.044 42.2388 83.7623C42.713 83.5708 43.2214 83.4786 43.7327 83.4912C44.2439 83.5038 44.7472 83.621 45.2114 83.8356C45.8227 84.1689 46.3359 84.6567 46.6996 85.2505C46.7043 85.3285 46.9812 94.0037 47.1154 98.2648C46.7825 98.4923 46.3972 98.6314 45.9957 98.6689C45.5943 98.7065 45.1899 98.6412 44.8206 98.4793V98.4777ZM60.7911 83.1359C61.6343 83.1359 61.5461 83.0525 61.5711 84.3558C61.7052 100.464 61.7848 99.4598 61.5102 99.629C61.1132 99.8343 60.6918 99.9887 60.256 100.088C56.6691 101.21 52.8473 101.35 49.1878 100.495C48.7198 100.382 48.2619 100.244 47.7947 100.119C47.6847 99.6314 47.2659 84.3114 47.3228 84.1437C47.4437 83.7818 48.0763 83.8098 49.2182 83.6983C53.0638 83.3151 56.9264 83.1274 60.7911 83.1359ZM124.797 46.9595C124.848 46.6523 124.793 46.3369 124.642 46.0645C124.491 45.7922 124.253 45.5787 123.966 45.4588C122.796 45.0166 121.254 46.3043 120.249 47.2154C120.65 46.0734 121.31 44.0431 120.842 42.8536C120.488 41.9465 119.57 41.6095 118.562 42.3692C117.416 43.3661 116.471 44.5735 115.78 45.926C115.928 44.9046 115.996 43.8732 115.983 42.8411C115.895 40.1657 114.579 40.2391 113.136 42.3217C111.708 44.6597 110.552 47.1538 109.692 49.7551C109.263 48.8669 108.706 48.0462 108.04 47.3191C107.317 46.6054 106.019 45.9931 105.196 46.9166C104.047 48.2083 105.482 50.0366 105.945 51.0007C106.763 52.7549 106.758 56.6947 106.629 58.6377L107.243 58.8241C107.392 56.6924 107.399 53.1785 106.686 51.1614C106.271 49.9813 105.225 48.9446 105.405 47.8987C105.55 47.0407 106.402 46.706 107.412 47.5867C108.275 48.4881 108.976 49.5317 109.484 50.6715C109.516 50.7235 109.562 50.7651 109.617 50.7915C109.672 50.8178 109.733 50.8277 109.794 50.8199C109.854 50.8122 109.911 50.7871 109.958 50.7478C110.004 50.7085 110.038 50.6565 110.056 50.5982C110.59 49.0094 113.454 41.4356 114.979 41.4356C115.096 41.4356 115.163 41.6454 115.2 41.7234C115.609 43.0556 115.159 46.2162 114.915 47.5305C114.854 47.855 115.317 48.11 115.485 47.7723C116.329 46.0625 119.134 41.3131 120.176 42.8918C120.865 44.0026 119.669 47.2091 119.133 48.3737C118.995 48.6724 119.371 49.0406 119.623 48.7543C120.643 47.5976 123.336 45.0595 124.122 46.4011C124.689 48.6763 119.125 60.0963 118.13 62.1071L118.735 62.2889C120.13 59.4239 124.619 50.1006 124.797 46.9595ZM86.5873 97.7126C85.6984 97.8198 84.7994 97.6215 84.0382 97.1502C83.9649 96.6876 83.8822 96.229 83.7964 95.7704C83.8186 95.7154 83.8246 95.6552 83.8139 95.5969C83.8031 95.5386 83.7759 95.4846 83.7356 95.4412C83.709 95.3632 82.9478 90.8189 82.9353 90.7612C82.8916 90.3712 82.2692 90.3634 82.3113 90.7612C82.3823 91.4398 83.0016 94.8624 83.0133 94.9451C82.1704 94.0006 81.5679 92.8666 81.2567 91.6395C81.2323 91.5627 81.1792 91.4983 81.1084 91.4598C81.0376 91.4213 80.9547 91.4117 80.877 91.433C80.7993 91.4542 80.7328 91.5047 80.6915 91.5739C80.6502 91.6431 80.6372 91.7256 80.6553 91.8041C81.0102 93.1106 81.9236 95.1479 83.1693 95.8273C83.5741 98.0955 83.493 98.0293 83.6108 98.1728C83.6193 98.381 83.7878 101.877 83.8448 103.002C83.8627 103.403 84.4891 103.4 84.4727 103.002C84.4727 102.973 84.2254 97.9887 84.2254 97.9606C84.9638 98.3051 85.7832 98.4384 86.5927 98.3459C86.9804 98.3085 86.9874 97.6681 86.5873 97.7126ZM21.2225 80.5011C19.1165 78.9091 15.3101 79.9091 13.9146 83.2139C12.0192 87.7083 13.6229 91.8259 14.8881 92.4733C15.0726 92.5461 15.27 92.5806 15.4682 92.5747C15.6665 92.5687 15.8614 92.5224 16.0412 92.4386C16.221 92.3548 16.3818 92.2353 16.5138 92.0873C16.6459 91.9393 16.7464 91.766 16.8092 91.5779C16.9476 91.2041 17.0079 90.8059 16.9863 90.4079C17.1842 90.6904 17.4737 90.896 17.8057 90.9898C18.1376 91.0836 18.4918 91.0598 18.8084 90.9227C19.4963 90.5678 19.5392 89.5686 19.6305 88.8947C19.6866 88.4961 19.7256 88.0944 19.7514 87.6966C20.4674 89.3993 22.0539 89.2628 22.5204 87.7652C22.6781 86.9662 22.7707 86.1557 22.7973 85.3418C22.8932 83.4822 22.7193 81.6321 21.2225 80.5011ZM22.0617 86.8877C21.887 88.7847 20.8067 88.6123 20.3138 87.4719C20.1555 86.9957 19.9631 86.5314 19.7381 86.0828C19.7021 86.0257 19.6487 85.9816 19.5859 85.9569C19.523 85.9323 19.4539 85.9284 19.3886 85.9458C19.3234 85.9632 19.2654 86.0011 19.2232 86.0538C19.181 86.1065 19.1567 86.1713 19.1539 86.2388C19.1931 87.2882 19.1162 88.3387 18.9246 89.3712C18.9041 89.6742 18.8187 89.9692 18.6742 90.2363C18.4059 90.5997 17.8217 90.4055 17.5619 90.1372C17.2259 89.6654 17.0529 89.0969 17.069 88.5179C17.0705 88.4412 17.0438 88.3667 16.9938 88.3085C16.9439 88.2503 16.8743 88.2125 16.7982 88.2023C16.7222 88.1922 16.6451 88.2104 16.5817 88.2536C16.5183 88.2967 16.4729 88.3616 16.4543 88.436C16.1423 89.528 16.6883 91.0209 15.9863 91.712C15.8928 91.8179 15.7714 91.8955 15.6361 91.936C15.5007 91.9765 15.3567 91.9784 15.2204 91.9414C14.5051 91.6691 12.6784 88.4524 14.3249 83.8293C15.4949 80.5705 18.9137 79.5838 20.8972 81.0299C22.4993 82.2662 22.2513 84.8332 22.0617 86.8877ZM40.2303 67.525C39.2537 63.1609 33.3109 63.5813 31.4857 67.9056C30.4132 70.4484 30.1698 73.8695 31.6284 76.2392C31.8186 76.6158 32.1052 76.9353 32.4592 77.165C32.6436 77.2379 32.841 77.2724 33.0393 77.2664C33.2375 77.2604 33.4325 77.2141 33.6122 77.1304C33.792 77.0466 33.9528 76.927 34.0849 76.779C34.2169 76.631 34.3174 76.4577 34.3803 76.2696C34.5188 75.8958 34.579 75.4976 34.5574 75.0996C34.7552 75.3822 35.0446 75.5879 35.3766 75.6817C35.7087 75.7755 36.0629 75.7517 36.3794 75.6144C37.0674 75.2603 37.1103 74.2603 37.2015 73.5864C37.2577 73.1878 37.2967 72.7861 37.3224 72.3883C38.0401 74.0934 39.6258 73.9483 40.0914 72.4577C40.4194 70.8335 40.4664 69.1651 40.2303 67.525ZM39.6375 71.581C39.469 73.4663 38.3895 73.3157 37.8895 72.1652C37.7305 71.6892 37.5382 71.225 37.3139 70.776C37.2778 70.7189 37.2245 70.6748 37.1616 70.6502C37.0987 70.6256 37.0296 70.6217 36.9644 70.6391C36.8991 70.6565 36.8411 70.6943 36.7989 70.747C36.7567 70.7998 36.7324 70.8646 36.7296 70.9321C36.7686 71.9815 36.6917 73.032 36.5003 74.0645C36.4792 74.3675 36.3935 74.6624 36.2492 74.9296C35.9808 75.293 35.3966 75.0988 35.1377 74.8305C34.8015 74.359 34.6282 73.7908 34.6439 73.212C34.6447 73.1359 34.6176 73.0621 34.5677 73.0046C34.5178 72.947 34.4487 72.9097 34.3732 72.8997C34.2977 72.8896 34.2212 72.9075 34.158 72.9499C34.0948 72.9923 34.0493 73.0564 34.0301 73.1301C33.7181 74.233 34.2641 75.7189 33.5621 76.4061C33.4693 76.5129 33.3483 76.5914 33.213 76.6328C33.0777 76.6742 32.9335 76.6767 32.7969 76.6401C32.0816 76.3679 30.2541 73.1504 31.9007 68.5281C33.0707 65.2646 36.4941 64.2864 38.4737 65.7294C40.0782 66.9611 39.8208 69.5171 39.6414 71.5794L39.6375 71.581Z" fill="black"/>
</svg>
