<svg width="24" height="24" viewBox="0 0 24 24" fill="none" xmlns="http://www.w3.org/2000/svg">
<circle cx="12" cy="12" r="12" fill="white"/>
<path d="M13.4667 17.4333C13.2333 17.4333 13.0667 17.2667 13.0667 17.0333V9.83333C13.0667 9.63333 13.2333 9.43333 13.4667 9.43333H14.2667C14.4667 9.43333 14.6667 9.63333 14.6667 9.83333V17.0333C14.6667 17.2667 14.4667 17.4333 14.2667 17.4333H13.4667ZM18.9333 6.23333C19.2 6.23333 19.4667 6.5 19.4667 6.76667V7.3C19.4667 7.6 19.2 7.83333 18.9333 7.83333H18.4V19.0333C18.4 19.9333 17.6667 20.6333 16.8 20.6333H7.2C6.3 20.6333 5.6 19.9333 5.6 19.0333V7.83333H5.06667C4.76667 7.83333 4.53333 7.6 4.53333 7.3V6.76667C4.53333 6.5 4.76667 6.23333 5.06667 6.23333H7.8L8.93333 4.36667C9.2 3.9 9.73333 3.56667 10.3 3.56667H13.6667C14.2333 3.56667 14.7667 3.9 15.0333 4.36667L16.1667 6.23333H18.9333ZM10.2333 5.26667L9.66667 6.23333H14.3L13.7333 5.26667C13.7 5.23333 13.6333 5.16667 13.5667 5.16667H10.4333C10.4 5.16667 10.4 5.16667 10.4 5.16667C10.3333 5.16667 10.2667 5.23333 10.2333 5.26667ZM16.8 19.0333V7.83333H7.2V19.0333H16.8ZM9.73333 17.4333C9.5 17.4333 9.33333 17.2667 9.33333 17.0333V9.83333C9.33333 9.63333 9.5 9.43333 9.73333 9.43333H10.5333C10.7333 9.43333 10.9333 9.63333 10.9333 9.83333V17.0333C10.9333 17.2667 10.7333 17.4333 10.5333 17.4333H9.73333Z" fill="#323232"/>
</svg>
